<svg width="59" height="38" viewBox="0 0 59 38" fill="none" xmlns="http://www.w3.org/2000/svg">
<path d="M38.4398 4.00977H21.7441V34.0027H38.4398V4.00977Z" fill="#FF5F00"/>
<path d="M23.0529 19.0096C23.0496 16.1957 23.6814 13.4178 24.9003 10.8853C26.1193 8.35274 27.8938 6.13171 30.0899 4.38967C27.3634 2.23168 24.0884 0.889271 20.6394 0.5159C17.1904 0.142529 13.7066 0.75331 10.5863 2.27835C7.466 3.80339 4.83511 6.18112 2.99448 9.13978C1.15384 12.0984 0.177734 15.5186 0.177734 19.0092C0.177734 22.4997 1.15384 25.9199 2.99448 28.8785C4.83511 31.8372 7.466 34.215 10.5863 35.74C13.7066 37.2651 17.1904 37.8758 20.6394 37.5024C24.0884 37.129 27.3634 35.7866 30.0899 33.6286C27.8938 31.8866 26.1193 29.6656 24.9003 27.1331C23.6814 24.6006 23.0496 21.8226 23.0529 19.0087V19.0096Z" fill="#EB001B"/>
<path d="M58.7049 19.0096C58.7094 22.4825 57.7784 25.8918 56.0108 28.8747C54.2813 31.8041 51.7644 34.1821 48.7502 35.7347C45.7849 37.2563 42.4414 37.8696 39.1333 37.4986C35.8102 37.1171 32.6685 35.773 30.0898 33.6296C32.2116 31.8681 33.9125 29.6491 35.0667 27.1366C36.2386 24.5896 36.8456 21.8164 36.8456 19.0096C36.8456 16.2028 36.2386 13.4297 35.0667 10.8826C33.9137 8.36774 32.2131 6.1462 30.0908 4.38259C32.6695 2.23916 35.8112 0.895086 39.1343 0.513562C42.4424 0.142636 45.7859 0.755916 48.7512 2.27754C51.7654 3.83013 54.2823 6.20821 56.0118 9.13761C57.7797 12.1218 58.7105 15.5324 58.7049 19.0066V19.0096Z" fill="#F79E1B"/>
<path d="M56.8888 30.4032V29.4082H57.2565V29.2031H56.3203V29.4031H56.688V30.3982L56.8888 30.4032ZM58.7044 30.4032V29.2031H58.4172L58.0883 30.0282L57.7583 29.2031H57.4711V30.4032H57.6699V29.5031L57.98 30.2832H58.1896L58.4987 29.5011V30.4082L58.7044 30.4032Z" fill="#F79E1B"/>
</svg>
