<svg width="58" height="19" viewBox="0 0 58 19" fill="none" xmlns="http://www.w3.org/2000/svg">
<path d="M25.12 18.665H20.4492L23.3739 0.457031H28.0448L25.12 18.665Z" fill="#00579F"/>
<path d="M42.0732 0.901126C40.7359 0.381639 39.3138 0.118445 37.8804 0.125124C33.2632 0.125124 30.0116 2.60411 29.9927 6.14912C29.9539 8.76412 32.3191 10.2172 34.0891 11.0882C35.8988 11.9802 36.5129 12.5622 36.5129 13.3552C36.495 14.5752 35.0511 15.1371 33.7055 15.1371C32.1866 15.1796 30.6805 14.8469 29.3189 14.1681L28.7028 13.8781L28.0488 17.9651C29.7108 18.6145 31.4794 18.9432 33.2622 18.9341C38.1686 18.9341 41.3616 16.4942 41.4004 12.7161C41.4182 10.6431 40.1691 9.05515 37.4759 7.75615C35.8401 6.92415 34.8394 6.35614 34.8394 5.50913C34.8583 4.73413 35.6861 3.94013 37.5316 3.94013C38.7286 3.90621 39.9178 4.14554 41.0098 4.64015L41.4332 4.83213L42.0732 0.901126Z" fill="#00579F"/>
<path d="M48.2846 12.2121C48.6702 11.1671 50.1519 7.11809 50.1519 7.11809C50.133 7.15709 50.5355 6.0521 50.766 5.37411L51.093 6.9431C51.093 6.9431 51.9785 11.3011 52.1703 12.2111L48.2846 12.2121ZM54.0565 0.45512H50.4391C49.9222 0.39252 49.3995 0.507616 48.9558 0.781748C48.5122 1.05588 48.1737 1.47292 47.9954 1.96509L41.0508 18.665H45.9561L46.938 15.9341H52.9405C53.0736 16.5731 53.498 18.665 53.498 18.665H57.8269L54.0565 0.45512Z" fill="#00579F"/>
<path d="M16.5398 0.455078L11.9604 12.871L11.4635 10.3521C10.3255 7.08997 8.02326 4.36986 5.00391 2.72006L9.1977 18.644H14.1418L21.4899 0.455078H16.5398Z" fill="#00579F"/>
<path d="M7.70888 0.455436H0.185893L0.109375 0.82342C5.97272 2.33443 9.8634 5.97646 11.4604 10.3545L9.82465 1.98645C9.72507 1.51181 9.45293 1.09168 9.06153 0.808466C8.67014 0.525248 8.18773 0.399357 7.70888 0.455436Z" fill="#FAA61A"/>
</svg>
