<svg width="83" height="68" viewBox="0 0 83 68" fill="none" xmlns="http://www.w3.org/2000/svg">
<g opacity="0.5">
<path opacity="0.5" d="M80.2543 33.8633H57.0573L49.3256 45.5225H33.8632L26.1315 33.8633H2.9375" stroke="#7E84A4" stroke-width="5.2" stroke-linecap="round" stroke-linejoin="round"/>
<path opacity="0.5" d="M16.2741 7.0872L2.9375 33.8634V57.1809C2.9375 59.2423 3.75206 61.2194 5.20203 62.6771C6.65201 64.1347 8.61864 64.9537 10.6692 64.9537H72.5207C74.5712 64.9537 76.5378 64.1347 77.9878 62.6771C79.4378 61.2194 80.2523 59.2423 80.2523 57.1809V33.8634L66.9157 7.0882C66.2756 5.79293 65.2887 4.70286 64.0661 3.94057C62.8435 3.17828 61.4336 2.77401 59.9949 2.77319H23.1939C21.7555 2.7741 20.3459 3.17832 19.1235 3.94042C17.901 4.70251 16.9143 5.79227 16.2741 7.0872V7.0872Z" stroke="#7E84A4" stroke-width="5.2" stroke-linecap="round" stroke-linejoin="round"/>
</g>
</svg>
