<svg width="27" height="27" viewBox="0 0 27 27" fill="none" xmlns="http://www.w3.org/2000/svg">
<path d="M13.6316 26.282C16.2145 26.282 18.7394 25.5113 20.8869 24.0673C23.0345 22.6234 24.7084 20.571 25.6968 18.1698C26.6853 15.7686 26.9439 13.1264 26.44 10.5773C25.9361 8.0282 24.6923 5.68672 22.8659 3.84892C21.0396 2.01112 18.7126 0.759561 16.1793 0.252513C13.6461 -0.254535 11.0203 0.0056743 8.63399 1.00029C6.24772 1.9949 4.20814 3.67922 2.77316 5.84025C1.33818 8.00127 0.572266 10.542 0.572266 13.141C0.572266 14.8667 0.910061 16.5755 1.56635 18.1698C2.22265 19.7642 3.18458 21.2128 4.39725 22.4331C5.60992 23.6533 7.04956 24.6213 8.63399 25.2817C10.2184 25.9421 11.9166 26.282 13.6316 26.282Z" fill="#6DA544"/>
<path d="M13.6323 5.14258L24.4199 13.1426L13.6323 21.1426L2.84375 13.1426L13.6323 5.14258Z" fill="#FFDA44"/>
<path d="M13.6324 17.7119C14.5309 17.7119 15.4091 17.4438 16.1562 16.9415C16.9032 16.4392 17.4854 15.7253 17.8293 14.8901C18.1731 14.0548 18.263 13.1358 18.0878 12.2491C17.9125 11.3624 17.4799 10.5479 16.8446 9.90864C16.2093 9.26937 15.3999 8.83403 14.5187 8.65766C13.6375 8.48129 12.7241 8.57179 11.8941 8.91776C11.064 9.26373 10.3546 9.8496 9.85541 10.6013C9.35627 11.353 9.08984 12.2368 9.08984 13.1408C9.08984 14.3531 9.56843 15.5158 10.4203 16.373C11.2722 17.2302 12.4277 17.7119 13.6324 17.7119Z" fill="#F0F0F0"/>
<path d="M11.3606 12.856C10.5914 12.8553 9.82648 12.9716 9.0918 13.201C9.10394 14.1677 9.42056 15.1057 9.99609 15.8799C10.5716 16.6542 11.3764 17.2247 12.2946 17.5095C13.2128 17.7943 14.1972 17.7787 15.106 17.4648C16.0148 17.151 16.8012 16.5551 17.3522 15.7629C16.6353 14.8559 15.7241 14.1235 14.6867 13.6201C13.6493 13.1168 12.5124 12.8556 11.3606 12.856Z" fill="#0052B4"/>
<path d="M18.0888 14.0168C18.3034 12.9096 18.1036 11.7617 17.5278 10.7938C16.9519 9.82597 16.0408 9.10657 14.9696 8.77399C13.8984 8.44141 12.7429 8.51914 11.7252 8.99225C10.7075 9.46537 9.89969 10.3005 9.45703 11.3368C11.0037 11.015 12.6061 11.0919 14.1152 11.5605C15.6244 12.029 16.9913 12.874 18.0888 14.0168Z" fill="#0052B4"/>
</svg>
