<svg width="19" height="21" viewBox="0 0 19 21" fill="none" xmlns="http://www.w3.org/2000/svg">
<path d="M17.1632 3.43855H13.1691V2.11777C13.1686 1.72313 13.0124 1.3448 12.7348 1.06574C12.4573 0.786685 12.0809 0.629679 11.6884 0.62915L7.83643 0.62915C7.44387 0.629679 7.06754 0.786685 6.78996 1.06574C6.51237 1.3448 6.3562 1.72313 6.35567 2.11777V3.43855H2.36161C1.9694 3.43908 1.59337 3.59581 1.31584 3.87444C1.03832 4.15306 0.881911 4.53088 0.880859 4.92518V6.86338C0.880859 7.02661 0.945356 7.18314 1.06016 7.29856C1.17497 7.41397 1.33068 7.47881 1.49304 7.47881H3.10497V18.8833C3.10523 19.278 3.26133 19.6565 3.53896 19.9356C3.8166 20.2147 4.19308 20.3716 4.58572 20.3719H15.1716C15.5643 20.3716 15.9407 20.2147 16.2184 19.9356C16.496 19.6565 16.6521 19.278 16.6524 18.8833V7.47981H18.0308C18.1931 7.47981 18.3488 7.41497 18.4636 7.29956C18.5784 7.18414 18.6429 7.02761 18.6429 6.86438V4.92518C18.6419 4.53105 18.4856 4.15338 18.2083 3.87479C17.931 3.59619 17.5552 3.43934 17.1632 3.43855ZM7.57705 2.11777C7.57704 2.04958 7.60392 1.98417 7.65179 1.93586C7.69966 1.88755 7.76462 1.86028 7.83245 1.86001H11.6854C11.7532 1.86028 11.8182 1.88755 11.8661 1.93586C11.9139 1.98417 11.9408 2.04958 11.9408 2.11777V3.43855H7.57705V2.11777ZM15.428 18.8833C15.428 18.917 15.4214 18.9504 15.4086 18.9815C15.3957 19.0127 15.3769 19.041 15.3532 19.0648C15.3295 19.0887 15.3013 19.1076 15.2704 19.1205C15.2394 19.1334 15.2062 19.14 15.1726 19.14H4.58175C4.54821 19.14 4.515 19.1334 4.48401 19.1205C4.45302 19.1076 4.42487 19.0887 4.40115 19.0648C4.37743 19.041 4.35862 19.0127 4.34579 18.9815C4.33295 18.9504 4.32634 18.917 4.32634 18.8833V7.47981H15.428V18.8833ZM17.4156 6.24795H2.11118V4.92518C2.11118 4.85699 2.13805 4.79157 2.18592 4.74326C2.23379 4.69495 2.29875 4.66768 2.36658 4.66741H17.1622C17.2297 4.6682 17.2941 4.69571 17.3416 4.74396C17.389 4.79222 17.4156 4.85733 17.4156 4.92518V6.24795Z" fill="#F1142F"/>
</svg>
