<svg width="162" height="31" viewBox="0 0 162 31" fill="none" xmlns="http://www.w3.org/2000/svg">
<path d="M19.9812 17.5179H1.23318C1.22278 18.6899 1.44584 19.8523 1.88932 20.9372C2.33281 22.0222 2.98786 23.008 3.81627 23.8371C4.64468 24.6663 5.62988 25.3222 6.71442 25.7667C7.79896 26.2111 8.96113 26.4352 10.1332 26.4259C11.7978 26.4522 13.4348 25.9988 14.8486 25.1198C16.2624 24.2408 17.3933 22.9733 18.1062 21.4689H19.3692C17.4692 25.4389 14.2382 27.5919 10.1332 27.5919C4.41117 27.5909 0.069174 23.0879 0.069174 17.1229C0.0198902 15.7717 0.243961 14.4246 0.727953 13.1621C1.21195 11.8997 1.94589 10.7479 2.88578 9.77602C3.82567 8.8041 4.95216 8.03199 6.19768 7.50598C7.44321 6.97997 8.78213 6.71089 10.1342 6.71489C15.8972 6.71489 20.0012 11.2149 20.0012 17.0249C20.0043 17.1895 19.9976 17.3541 19.9812 17.5179ZM10.1332 7.85989C7.83166 7.83994 5.61375 8.72155 3.95399 10.3161C2.29423 11.9106 1.32446 14.0914 1.25217 16.3919H18.8372C18.5212 11.3169 14.8502 7.85989 10.1372 7.85989H10.1332Z" fill="#5A607F"/>
<path d="M43.4606 7.11016V27.2162H42.4176L42.2796 21.9622C41.4611 23.6909 40.1584 25.1449 38.5295 26.1477C36.9007 27.1505 35.0158 27.6589 33.1036 27.6112C31.7365 27.6278 30.3801 27.3674 29.1164 26.8456C27.8526 26.3238 26.7076 25.5514 25.7504 24.5751C24.7933 23.5988 24.0438 22.4387 23.5471 21.1648C23.0504 19.891 22.8169 18.5297 22.8606 17.1632C22.8169 15.7967 23.0504 14.4355 23.547 13.1617C24.0436 11.8879 24.793 10.7279 25.7501 9.75161C26.7072 8.7753 27.852 8.00292 29.1157 7.48106C30.3793 6.9592 31.7356 6.69867 33.1026 6.71516C35.0151 6.66608 36.9006 7.17389 38.5297 8.17681C40.1588 9.17973 41.4612 10.6345 42.2786 12.3642L42.4366 7.11116L43.4606 7.11016ZM42.2396 17.1632C42.2923 15.9474 42.095 14.7337 41.6601 13.5971C41.2251 12.4605 40.5617 11.4253 39.7108 10.5552C38.8599 9.68522 37.8396 8.99895 36.7129 8.53884C35.5863 8.07873 34.3773 7.85455 33.1606 7.88016C31.9462 7.86607 30.7414 8.09793 29.6189 8.5618C28.4964 9.02566 27.4794 9.71193 26.6292 10.5793C25.7789 11.4466 25.1131 12.477 24.6716 13.6086C24.2302 14.7401 24.0224 15.9492 24.0606 17.1632C24.0205 18.3776 24.2271 19.5876 24.6678 20.7199C25.1086 21.8522 25.7744 22.8834 26.625 23.7511C27.4756 24.6188 28.4934 25.3051 29.6167 25.7683C30.74 26.2315 31.9457 26.4621 33.1606 26.4462C34.3781 26.4747 35.5885 26.2526 36.7164 25.7935C37.8444 25.3344 38.8659 24.6482 39.7174 23.7776C40.5689 22.9069 41.2322 21.8705 41.6661 20.7326C42.1 19.5947 42.2952 18.3797 42.2396 17.1632Z" fill="#5A607F"/>
<path d="M48.2429 17.1631C48.2014 15.7906 48.439 14.4239 48.9414 13.1459C49.4437 11.8679 50.2003 10.7052 51.1654 9.72828C52.1304 8.75137 53.2838 7.98059 54.5555 7.46265C55.8273 6.9447 57.191 6.69039 58.5639 6.71511C60.5887 6.65559 62.581 7.23366 64.2594 8.36769C65.9378 9.50172 67.2176 11.1344 67.9179 13.0351H66.7179C66.0229 11.4652 64.8772 10.1371 63.4262 9.21926C61.9752 8.30148 60.2842 7.83538 58.5679 7.88012C57.3525 7.86246 56.1461 8.09191 55.022 8.55453C53.8978 9.01715 52.8794 9.70331 52.0285 10.5714C51.1775 11.4394 50.5118 12.4713 50.0716 13.6044C49.6315 14.7375 49.4261 15.9482 49.4679 17.1631C49.4328 18.3763 49.6427 19.5841 50.0853 20.7142C50.5278 21.8443 51.1938 22.8735 52.0434 23.7402C52.893 24.6069 53.9088 25.2932 55.0299 25.7582C56.1509 26.2231 57.3543 26.4571 58.5679 26.4461C60.2962 26.487 61.9976 26.0131 63.4559 25.0847C64.9142 24.1563 66.0636 22.8153 66.7579 21.2321H67.9819C67.27 23.1415 65.9811 24.7817 64.2942 25.9249C62.6073 27.0681 60.6062 27.6574 58.5689 27.6111C57.1973 27.63 55.836 27.3717 54.5666 26.8518C53.2973 26.3319 52.146 25.561 51.1817 24.5854C50.2175 23.6097 49.4601 22.4494 48.9552 21.174C48.4502 19.8986 48.2079 18.5344 48.2429 17.1631Z" fill="#5A607F"/>
<path d="M89.2084 15.326V27.216H88.0244V15.524C88.0244 10.724 85.4244 7.841 81.1174 7.841C79.1029 7.88223 77.1831 8.70369 75.7623 10.1323C74.3414 11.561 73.5306 13.4853 73.5004 15.5V27.216H72.3164V0H73.5004V11.653C74.2071 10.1743 75.3179 8.92575 76.7044 8.0519C78.0909 7.17805 79.6965 6.71455 81.3354 6.715C86.1694 6.715 89.2084 10.053 89.2084 15.326Z" fill="#5A607F"/>
<path d="M129.865 6.51823C128.683 6.48868 127.509 6.71115 126.42 7.17084C125.331 7.63053 124.353 8.31689 123.55 9.18423V7.11023H117.75V27.2162H124.677V16.4722C124.677 13.9042 125.92 12.4032 128.071 12.4032C129.808 12.4032 130.696 13.5682 130.696 15.9032V27.2162H137.623V14.9512C137.601 9.83623 134.543 6.51823 129.865 6.51823Z" fill="#5A607F"/>
<path d="M104.029 6.45898C97.4766 6.45898 92.7597 10.942 92.7597 17.159C92.7301 18.7305 93.0575 20.2883 93.7173 21.7149C94.3771 23.1415 95.352 24.3998 96.5686 25.395C96.0485 26.0909 95.7649 26.9352 95.7597 27.804V29.72C95.7595 29.8418 95.7834 29.9625 95.8299 30.075C95.8765 30.1876 95.9447 30.2899 96.0308 30.3761C96.1169 30.4623 96.2191 30.5307 96.3317 30.5773C96.4442 30.624 96.5648 30.648 96.6866 30.648H111.175C111.296 30.648 111.417 30.624 111.53 30.5773C111.642 30.5307 111.744 30.4623 111.83 30.3761C111.917 30.2899 111.985 30.1876 112.031 30.075C112.078 29.9625 112.102 29.8418 112.102 29.72V27.809C112.102 26.9754 111.847 26.1616 111.372 25.477C109.219 27.0434 106.621 27.8807 103.959 27.8667C101.296 27.8527 98.708 26.988 96.5716 25.399C96.9498 24.8915 97.4411 24.4791 98.0065 24.1946C98.5718 23.9101 99.1957 23.7613 99.8287 23.76H108.039C108.691 23.76 109.333 23.9182 109.91 24.2211C110.488 24.524 110.983 24.9625 111.354 25.499C112.605 24.5092 113.61 23.2436 114.291 21.8011C114.973 20.3585 115.311 18.778 115.281 17.183C115.3 10.942 110.563 6.45898 104.029 6.45898ZM104.029 21.642C103.442 21.6577 102.859 21.5513 102.315 21.3297C101.772 21.1081 101.281 20.776 100.873 20.3546C100.464 19.9331 100.148 19.4314 99.944 18.8813C99.7399 18.3312 99.6522 17.7447 99.6866 17.159C99.6669 16.5765 99.7645 15.9959 99.9738 15.4519C100.183 14.9079 100.5 14.4116 100.905 13.9925C101.31 13.5734 101.795 13.2402 102.332 13.0125C102.868 12.7849 103.445 12.6676 104.028 12.6676C104.611 12.6676 105.188 12.7849 105.725 13.0125C106.261 13.2402 106.746 13.5734 107.151 13.9925C107.557 14.4116 107.873 14.9079 108.082 15.4519C108.292 15.9959 108.389 16.5765 108.37 17.159C108.404 17.7446 108.316 18.3311 108.112 18.8811C107.908 19.4311 107.592 19.9327 107.184 20.3542C106.776 20.7757 106.285 21.1077 105.742 21.3294C105.198 21.5511 104.615 21.6575 104.029 21.642Z" fill="#5A607F"/>
<path d="M150.744 6.45898C144.43 6.45898 139.832 10.982 139.832 17.159C139.902 19.6688 140.827 22.0796 142.453 23.993C144.078 25.9065 146.308 27.2081 148.774 27.6829C151.239 28.1576 153.793 27.7771 156.013 26.6042C158.233 25.4314 159.987 23.5362 160.984 21.232H153.744C152.919 21.9631 151.846 22.3515 150.744 22.318C149.741 22.3746 148.756 22.0424 147.992 21.3904C147.228 20.7384 146.745 19.817 146.644 18.818H161.563C161.659 18.2104 161.705 17.5961 161.702 16.981C161.697 11.08 157.217 6.45898 150.744 6.45898ZM146.759 14.972C146.945 14.0654 147.449 13.255 148.18 12.6867C148.91 12.1184 149.819 11.8295 150.744 11.872C151.688 11.822 152.62 12.1049 153.378 12.6713C154.135 13.2378 154.669 14.052 154.888 14.972H146.759Z" fill="#5A607F"/>
</svg>
