<svg width="190" height="36" viewBox="0 0 190 36" fill="none" xmlns="http://www.w3.org/2000/svg">
<path d="M23.6349 20.5H1.69794C1.90594 26.533 6.29794 30.924 12.1129 30.924C14.0609 30.955 15.9767 30.4246 17.6313 29.3961C19.286 28.3676 20.6096 26.8845 21.4439 25.124H22.9209C20.7039 29.769 16.9209 32.289 12.1129 32.289C5.41294 32.289 0.335938 27.02 0.335938 20.04C0.335938 13.129 5.41594 7.85999 12.1129 7.85999C18.8569 7.85999 23.6599 13.129 23.6599 19.924C23.6629 20.1163 23.6546 20.3086 23.6349 20.5ZM12.1109 9.19999C9.41788 9.17697 6.82274 10.2087 4.88065 12.0746C2.93856 13.9404 1.80375 16.4922 1.71894 19.184H22.2949C21.9269 13.243 17.6349 9.19899 12.1119 9.19899L12.1109 9.19999Z" fill="white"/>
<path d="M51.1152 8.32V31.848H49.8912L49.7302 25.701C48.772 27.7239 47.2473 29.4252 45.341 30.5983C43.4347 31.7715 41.2289 32.3661 38.9912 32.31C35.787 32.252 32.7336 30.9385 30.488 28.652C28.2425 26.3654 26.9844 23.2888 26.9844 20.084C26.9844 16.8792 28.2425 13.8025 30.488 11.516C32.7336 9.22952 35.787 7.91595 38.9912 7.85799C41.2292 7.80009 43.4358 8.39396 45.3424 9.56733C47.249 10.7407 48.7735 12.443 49.7302 14.467L49.9142 8.31899L51.1152 8.32ZM49.6832 20.084C49.6832 13.821 45.2032 9.22099 39.0602 9.22099C36.2197 9.28194 33.516 10.4531 31.5286 12.4836C29.5412 14.5141 28.4283 17.2423 28.4283 20.0835C28.4283 22.9247 29.5412 25.6529 31.5286 27.6834C33.516 29.7138 36.2197 30.885 39.0602 30.946C45.2262 30.947 49.6832 26.371 49.6832 20.084Z" fill="white"/>
<path d="M56.7046 20.084C56.6561 18.4779 56.9341 16.8787 57.5219 15.3833C58.1097 13.8879 58.9951 12.5275 60.1243 11.3844C61.2535 10.2413 62.6031 9.33945 64.0913 8.73346C65.5794 8.12747 67.1751 7.82997 68.7816 7.859C71.1517 7.78943 73.4837 8.46642 75.4481 9.7943C77.4124 11.1222 78.9098 13.0338 79.7286 15.259H78.3196C77.5066 13.4216 76.1661 11.8672 74.4681 10.793C72.7701 9.71889 70.7912 9.17347 68.7826 9.226C65.9421 9.28695 63.2384 10.4582 61.251 12.4886C59.2636 14.5191 58.1507 17.2473 58.1507 20.0885C58.1507 22.9297 59.2636 25.6579 61.251 27.6884C63.2384 29.7188 65.9421 30.8901 68.7826 30.951C70.805 30.9992 72.7959 30.445 74.5025 29.3588C76.2091 28.2726 77.5541 26.7035 78.3666 24.851H79.7986C78.9654 27.0854 77.4569 29.0048 75.4827 30.3426C73.5086 31.6804 71.1668 32.3701 68.7826 32.316C67.1775 32.3374 65.5847 32.0345 64.0995 31.4254C62.6143 30.8163 61.2674 29.9136 60.1395 28.7713C59.0117 27.6291 58.1261 26.2709 57.5359 24.7781C56.9456 23.2853 56.6629 21.6887 56.7046 20.084Z" fill="white"/>
<path d="M104.647 17.935V31.848H103.262V18.167C103.262 12.55 100.214 9.176 95.1789 9.176C92.8205 9.22371 90.5727 10.1854 88.9096 11.8582C87.2465 13.531 86.2979 15.7843 86.2639 18.143V31.848H84.8789V0H86.2639V13.636C87.0914 11.906 88.3915 10.4455 90.0141 9.42324C91.6366 8.40097 93.5152 7.85867 95.4329 7.859C101.091 7.859 104.647 11.764 104.647 17.935Z" fill="white"/>
<path d="M152.219 7.627C150.836 7.59245 149.462 7.85282 148.187 8.39079C146.913 8.92875 145.768 9.73197 144.828 10.747V8.32H138.039V31.848H146.146V19.276C146.146 16.271 147.601 14.515 150.118 14.515C152.15 14.515 153.189 15.879 153.189 18.606V31.849H161.296V17.496C161.271 11.507 157.692 7.627 152.219 7.627Z" fill="white"/>
<path d="M121.99 7.55701C114.323 7.55701 108.803 12.804 108.803 20.084C108.768 21.9232 109.151 23.7463 109.923 25.416C110.695 27.0856 111.836 28.5583 113.26 29.723C112.651 30.5375 112.319 31.5259 112.313 32.543V34.784C112.313 34.9267 112.34 35.0681 112.395 35.2C112.449 35.3319 112.529 35.4518 112.63 35.5528C112.731 35.6538 112.85 35.7339 112.982 35.7885C113.114 35.8431 113.255 35.8711 113.398 35.871H130.35C130.493 35.871 130.634 35.8429 130.766 35.7882C130.897 35.7336 131.017 35.6535 131.118 35.5525C131.219 35.4515 131.299 35.3317 131.353 35.1998C131.407 35.068 131.435 34.9267 131.435 34.784V32.543C131.435 31.5678 131.136 30.6159 130.58 29.815C128.061 31.6486 125.021 32.6286 121.905 32.6121C118.789 32.5955 115.76 31.5832 113.26 29.723C113.702 29.1289 114.277 28.6461 114.939 28.313C115.6 27.9799 116.33 27.8056 117.071 27.804H126.678C127.441 27.8039 128.192 27.9888 128.868 28.3429C129.544 28.697 130.124 29.2097 130.558 29.837C132.022 28.679 133.198 27.1984 133.995 25.5107C134.792 23.8231 135.188 21.9741 135.153 20.108C135.176 12.804 129.634 7.55701 121.99 7.55701ZM121.99 25.33C120.945 25.3637 119.914 25.0846 119.029 24.5286C118.144 23.9726 117.445 23.1649 117.022 22.2091C116.598 21.2533 116.47 20.1929 116.653 19.1638C116.836 18.1346 117.323 17.1836 118.05 16.4326C118.777 15.6816 119.712 15.1648 120.734 14.9484C121.757 14.732 122.821 14.8259 123.79 15.2181C124.759 15.6102 125.589 16.2827 126.173 17.1495C126.758 18.0162 127.07 19.0377 127.07 20.083C127.11 20.7684 127.008 21.4547 126.769 22.0984C126.53 22.7421 126.16 23.3292 125.683 23.8224C125.205 24.3157 124.63 24.7044 123.995 24.9639C123.359 25.2234 122.676 25.3481 121.99 25.33Z" fill="white"/>
<path d="M176.654 7.55701C169.263 7.55701 163.883 12.85 163.883 20.084C163.883 27.272 169.31 32.635 176.654 32.635C182.197 32.635 186.746 29.676 188.639 24.846H180.163C179.198 25.702 177.943 26.1571 176.654 26.118C175.481 26.1856 174.327 25.7978 173.432 25.0355C172.538 24.2731 171.973 23.1951 171.854 22.026H189.313C189.424 21.3152 189.478 20.5965 189.474 19.877C189.47 12.965 184.228 7.55701 176.654 7.55701ZM171.989 17.518C172.207 16.4569 172.797 15.5086 173.652 14.8434C174.507 14.1783 175.572 13.8398 176.654 13.889C177.759 13.8307 178.849 14.1618 179.735 14.8248C180.621 15.4877 181.247 16.4404 181.503 17.517L171.989 17.518Z" fill="white"/>
</svg>
