<svg width="163" height="31" viewBox="0 0 163 31" fill="none" xmlns="http://www.w3.org/2000/svg">
<path d="M20.9109 17.5184H2.16286C2.15247 18.6904 2.37552 19.8528 2.81901 20.9377C3.2625 22.0227 3.91755 23.0084 4.74596 23.8376C5.57437 24.6668 6.55957 25.3227 7.6441 25.7672C8.72864 26.2116 9.89082 26.4357 11.0629 26.4264C12.7275 26.4527 14.3644 25.9993 15.7783 25.1203C17.1921 24.2413 18.323 22.9738 19.0359 21.4694H20.2989C18.3989 25.4394 15.1679 27.5924 11.0629 27.5924C5.34086 27.5914 0.998862 23.0884 0.998862 17.1234C0.949578 15.7722 1.17365 14.425 1.65764 13.1626C2.14163 11.9001 2.87558 10.7484 3.81547 9.77651C4.75536 8.80459 5.88184 8.03248 7.12737 7.50647C8.3729 6.98046 9.71182 6.71138 11.0639 6.71538C16.8269 6.71538 20.9309 11.2154 20.9309 17.0254C20.934 17.19 20.9273 17.3546 20.9109 17.5184V17.5184ZM11.0629 7.86038C8.76135 7.84043 6.54344 8.72204 4.88368 10.3166C3.22392 11.9111 2.25415 14.0919 2.18186 16.3924H19.7669C19.4509 11.3174 15.7799 7.86038 11.0669 7.86038H11.0629Z" fill="white"/>
<path d="M44.3923 7.11016V27.2162H43.3493L43.2113 21.9622C42.3928 23.6909 41.09 25.1449 39.4612 26.1477C37.8323 27.1505 35.9475 27.6589 34.0353 27.6112C32.6681 27.6278 31.3118 27.3674 30.048 26.8456C28.7842 26.3238 27.6392 25.5514 26.6821 24.5751C25.7249 23.5988 24.9754 22.4387 24.4787 21.1648C23.9821 19.891 23.7486 18.5297 23.7923 17.1632C23.7486 15.7967 23.9821 14.4355 24.4787 13.1617C24.9752 11.8879 25.7247 10.7279 26.6817 9.75161C27.6388 8.7753 28.7837 8.00292 30.0473 7.48106C31.311 6.9592 32.6672 6.69867 34.0343 6.71516C35.9467 6.66608 37.8322 7.17389 39.4613 8.17681C41.0904 9.17973 42.3929 10.6345 43.2103 12.3642L43.3683 7.11116L44.3923 7.11016ZM43.1713 17.1632C43.2239 15.9474 43.0267 14.7337 42.5917 13.5971C42.1567 12.4605 41.4933 11.4253 40.6424 10.5552C39.7915 9.68522 38.7712 8.99895 37.6446 8.53884C36.518 8.07873 35.309 7.85455 34.0923 7.88016C32.8778 7.86607 31.673 8.09793 30.5505 8.5618C29.428 9.02566 28.4111 9.71193 27.5608 10.5793C26.7106 11.4466 26.0447 12.477 25.6033 13.6086C25.1618 14.7401 24.954 15.9492 24.9923 17.1632C24.9522 18.3776 25.1587 19.5876 25.5995 20.7199C26.0403 21.8522 26.7061 22.8834 27.5567 23.7511C28.4073 24.6188 29.425 25.3051 30.5484 25.7683C31.6717 26.2315 32.8773 26.4621 34.0923 26.4462C35.3098 26.4747 36.5201 26.2526 37.6481 25.7935C38.776 25.3344 39.7975 24.6482 40.649 23.7776C41.5005 22.9069 42.1639 21.8705 42.5978 20.7326C43.0317 19.5947 43.2269 18.3797 43.1713 17.1632V17.1632Z" fill="white"/>
<path d="M49.1726 17.1631C49.1311 15.7906 49.3687 14.4239 49.8711 13.1459C50.3734 11.8679 51.13 10.7052 52.0951 9.72828C53.0601 8.75137 54.2134 7.98059 55.4852 7.46265C56.757 6.9447 58.1206 6.69039 59.4936 6.71511C61.5184 6.65559 63.5107 7.23366 65.1891 8.36769C66.8675 9.50172 68.1473 11.1344 68.8476 13.0351H67.6476C66.9526 11.4652 65.8069 10.1371 64.3559 9.21926C62.9049 8.30148 61.2139 7.83538 59.4976 7.88012C58.2821 7.86246 57.0758 8.09191 55.9516 8.55453C54.8275 9.01715 53.8091 9.70331 52.9581 10.5714C52.1072 11.4394 51.4414 12.4713 51.0013 13.6044C50.5611 14.7375 50.3558 15.9482 50.3976 17.1631C50.3624 18.3763 50.5724 19.5841 51.015 20.7142C51.4575 21.8443 52.1235 22.8735 52.9731 23.7402C53.8227 24.6069 54.8385 25.2932 55.9595 25.7582C57.0806 26.2231 58.284 26.4571 59.4976 26.4461C61.2259 26.487 62.9273 26.0131 64.3856 25.0847C65.8439 24.1563 66.9933 22.8153 67.6876 21.2321H68.9116C68.1997 23.1415 66.9108 24.7817 65.2238 25.9249C63.5369 27.0681 61.5358 27.6574 59.4986 27.6111C58.127 27.63 56.7657 27.3717 55.4963 26.8518C54.227 26.3319 53.0756 25.561 52.1114 24.5854C51.1471 23.6097 50.3898 22.4494 49.8848 21.174C49.3799 19.8986 49.1376 18.5344 49.1726 17.1631V17.1631Z" fill="white"/>
<path d="M90.1381 15.326V27.216H88.9541V15.524C88.9541 10.724 86.3541 7.841 82.0471 7.841C80.0326 7.88223 78.1128 8.70369 76.692 10.1323C75.2711 11.561 74.4602 13.4853 74.4301 15.5V27.216H73.2461V0H74.4301V11.653C75.1368 10.1743 76.2476 8.92576 77.6341 8.0519C79.0206 7.17805 80.6262 6.71455 82.2651 6.715C87.0991 6.715 90.1381 10.053 90.1381 15.326Z" fill="white"/>
<path d="M130.793 6.51823C129.611 6.48868 128.437 6.71115 127.348 7.17084C126.259 7.63053 125.281 8.31689 124.478 9.18423V7.11023H118.678V27.2162H125.605V16.4722C125.605 13.9042 126.848 12.4032 128.999 12.4032C130.736 12.4032 131.624 13.5682 131.624 15.9032V27.2162H138.551V14.9512C138.529 9.83623 135.471 6.51823 130.793 6.51823Z" fill="white"/>
<path d="M104.958 6.45898C98.4063 6.45898 93.6893 10.942 93.6893 17.159C93.6598 18.7305 93.9872 20.2883 94.647 21.7149C95.3068 23.1415 96.2817 24.3998 97.4983 25.395C96.9782 26.0909 96.6946 26.9352 96.6893 27.804V29.72C96.6892 29.8418 96.7131 29.9625 96.7596 30.075C96.8061 30.1876 96.8744 30.2899 96.9605 30.3761C97.0466 30.4623 97.1488 30.5307 97.2614 30.5773C97.3739 30.624 97.4945 30.648 97.6163 30.648H112.104C112.226 30.648 112.347 30.624 112.459 30.5773C112.572 30.5307 112.674 30.4623 112.76 30.3761C112.846 30.2899 112.915 30.1876 112.961 30.075C113.008 29.9625 113.031 29.8418 113.031 29.72V27.809C113.032 26.9754 112.777 26.1616 112.301 25.477C110.148 27.0434 107.551 27.8807 104.889 27.8667C102.226 27.8527 99.6377 26.988 97.5013 25.399C97.8795 24.8915 98.3708 24.4791 98.9361 24.1946C99.5015 23.9101 100.125 23.7613 100.758 23.76H108.968C109.62 23.76 110.263 23.9182 110.84 24.2211C111.417 24.524 111.913 24.9625 112.283 25.499C113.534 24.5092 114.54 23.2436 115.221 21.8011C115.902 20.3585 116.241 18.778 116.21 17.183C116.229 10.942 111.492 6.45898 104.958 6.45898ZM104.958 21.642C104.372 21.6577 103.788 21.5513 103.245 21.3297C102.702 21.1081 102.21 20.776 101.802 20.3546C101.394 19.9331 101.078 19.4314 100.874 18.8813C100.67 18.3312 100.582 17.7447 100.616 17.159C100.597 16.5765 100.694 15.9959 100.904 15.4519C101.113 14.9079 101.429 14.4116 101.835 13.9925C102.24 13.5734 102.725 13.2402 103.261 13.0125C103.798 12.7849 104.375 12.6676 104.958 12.6676C105.541 12.6676 106.118 12.7849 106.654 13.0125C107.191 13.2402 107.676 13.5734 108.081 13.9925C108.486 14.4116 108.803 14.9079 109.012 15.4519C109.221 15.9959 109.319 16.5765 109.299 17.159C109.334 17.7446 109.246 18.3311 109.042 18.8811C108.838 19.4311 108.522 19.9327 108.114 20.3542C107.706 20.7757 107.214 21.1077 106.671 21.3294C106.128 21.5511 105.545 21.6575 104.958 21.642V21.642Z" fill="white"/>
<path d="M151.672 6.45898C145.358 6.45898 140.76 10.982 140.76 17.159C140.83 19.6688 141.755 22.0796 143.38 23.993C145.006 25.9065 147.236 27.2081 149.701 27.6829C152.167 28.1576 154.721 27.7771 156.941 26.6042C159.161 25.4314 160.914 23.5362 161.912 21.232H154.672C153.847 21.9631 152.774 22.3515 151.672 22.318C150.669 22.3746 149.683 22.0424 148.92 21.3904C148.156 20.7384 147.673 19.817 147.572 18.818H162.491C162.586 18.2104 162.633 17.5961 162.63 16.981C162.625 11.08 158.145 6.45898 151.672 6.45898ZM147.687 14.972C147.873 14.0654 148.377 13.255 149.107 12.6867C149.838 12.1184 150.747 11.8295 151.672 11.872C152.616 11.822 153.548 12.1049 154.305 12.6713C155.063 13.2378 155.597 14.052 155.816 14.972H147.687Z" fill="white"/>
</svg>
