<svg width="27" height="26" viewBox="0 0 27 26" fill="none" xmlns="http://www.w3.org/2000/svg">
<path d="M13.582 25.621C20.6128 25.621 26.3124 19.8857 26.3124 12.811C26.3124 5.73621 20.6128 0.000976562 13.582 0.000976562C6.55116 0.000976562 0.851562 5.73621 0.851562 12.811C0.851562 19.8857 6.55116 25.621 13.582 25.621Z" fill="#F0F0F0"/>
<path d="M13.0293 12.8123H26.3142C26.3149 11.6837 26.1675 10.56 25.8759 9.47021H13.0293V12.8123Z" fill="#D80027"/>
<path d="M13.0293 6.1272H24.4459C23.6671 4.84958 22.6727 3.71859 21.5073 2.78516H13.0293V6.1272Z" fill="#D80027"/>
<path d="M13.5818 25.6219C16.4613 25.6263 19.2565 24.6441 21.5073 22.8369H5.65625C7.90704 24.6441 10.7023 25.6264 13.5818 25.6219Z" fill="#D80027"/>
<path d="M2.71913 19.4953H24.4454C25.0786 18.4559 25.5602 17.3305 25.8755 16.1533H1.28906C1.60431 17.3305 2.08591 18.4559 2.71913 19.4953Z" fill="#D80027"/>
<path d="M6.74872 2.00002H7.90748L6.83419 2.78902L7.24661 4.07002L6.16835 3.28202L5.08909 4.07102L5.44586 2.97102C4.49376 3.7692 3.66189 4.70227 2.97629 5.74102H3.34797L2.66026 6.24102C2.5536 6.42035 2.4509 6.60269 2.35219 6.78802L2.68014 7.80002L2.06399 7.34802C1.91161 7.67402 1.77248 8.00735 1.6466 8.34802L2.00834 9.46802H3.343L2.26374 10.252L2.67616 11.533L1.59591 10.742L0.950942 11.214C0.884979 11.7448 0.851788 12.2791 0.851562 12.814H13.582V1.61987e-05C11.1612 -0.00386612 8.78985 0.690179 6.74872 2.00002ZM7.24562 11.528L6.16338 10.74L5.08511 11.529L5.49754 10.248L4.41629 9.46402H5.74996L6.16238 8.18302L6.5758 9.46402H7.90748L6.83319 10.248L7.24562 11.528ZM6.83816 6.52002L7.2476 7.80002L6.16835 7.01402L5.0881 7.80002L5.50052 6.51902L4.41629 5.73302H5.74996L6.16238 4.45202L6.5758 5.73302H7.90748L6.83816 6.52002ZM11.8121 11.528L10.7298 10.74L9.65159 11.529L10.064 10.248L8.98376 9.45902H10.3184L10.7308 8.17802L11.1433 9.45902H12.4789L11.3997 10.248L11.8121 11.528ZM11.3997 6.51902L11.8091 7.80002L10.7298 7.01202L9.6496 7.80002L10.062 6.51902L8.98276 5.73102H10.3184L10.7308 4.45002L11.1433 5.73102H12.4789L11.3997 6.51902ZM11.3997 2.78702L11.8121 4.06802L10.7298 3.28102L9.6496 4.07002L10.062 2.78902L8.98276 2.00002H10.3184L10.7308 0.719017L11.1433 2.00002H12.4789L11.3997 2.78702Z" fill="#0052B4"/>
</svg>
