<svg width="359" height="507" viewBox="0 0 359 507" fill="none" xmlns="http://www.w3.org/2000/svg">
<path d="M232.918 324.218V400.568C232.918 411.957 250.625 411.957 250.625 400.568V324.218C250.625 312.825 232.918 312.825 232.918 324.218Z" fill="#F2F2F9"/>
<path d="M306.27 476.286C305.832 476.257 305.42 476.069 305.11 475.759C304.8 475.449 304.613 475.037 304.583 474.599V466.799C304.584 464.418 304.116 462.059 303.206 459.859C302.295 457.658 300.96 455.659 299.277 453.974C297.593 452.29 295.594 450.954 293.394 450.042C291.195 449.13 288.837 448.66 286.455 448.66H173.263C168.455 448.662 163.844 450.574 160.445 453.975C157.046 457.376 155.138 461.988 155.139 466.796V474.596C155.145 474.821 155.105 475.045 155.023 475.254C154.94 475.463 154.817 475.654 154.66 475.815C154.503 475.976 154.315 476.104 154.108 476.192C153.9 476.279 153.678 476.324 153.453 476.324C153.228 476.324 153.005 476.279 152.798 476.192C152.59 476.104 152.402 475.976 152.245 475.815C152.088 475.654 151.965 475.463 151.883 475.254C151.8 475.045 151.761 474.821 151.766 474.596V466.796C151.785 461.155 154.034 455.75 158.022 451.759C162.01 447.769 167.414 445.518 173.055 445.496H286.244C291.885 445.518 297.289 447.769 301.277 451.759C305.266 455.75 307.514 461.155 307.533 466.796V474.596C307.955 475.654 307.112 476.286 306.27 476.286Z" fill="#F2F2F9"/>
<path d="M167.154 474.6C167.152 477.268 166.359 479.875 164.876 482.093C163.392 484.31 161.285 486.038 158.819 487.058C156.354 488.077 153.642 488.343 151.025 487.822C148.409 487.3 146.006 486.015 144.12 484.127C142.234 482.24 140.95 479.836 140.43 477.22C139.911 474.603 140.178 471.891 141.2 469.426C142.221 466.962 143.95 464.855 146.169 463.373C148.387 461.891 150.995 461.1 153.663 461.1C161.252 461.101 167.154 464.475 167.154 474.6Z" fill="#F2F2F9"/>
<path d="M243.457 474.6C243.455 477.268 242.662 479.875 241.178 482.092C239.695 484.309 237.587 486.036 235.122 487.056C232.657 488.075 229.945 488.341 227.329 487.82C224.713 487.298 222.31 486.013 220.425 484.126C218.539 482.239 217.255 479.835 216.735 477.219C216.215 474.602 216.483 471.89 217.504 469.426C218.525 466.962 220.254 464.855 222.472 463.373C224.69 461.891 227.298 461.1 229.966 461.1C237.556 461.101 243.457 464.475 243.457 474.6Z" fill="#F2F2F9"/>
<path d="M319.761 474.6C319.759 477.268 318.966 479.875 317.483 482.092C315.999 484.309 313.892 486.037 311.426 487.056C308.961 488.076 306.249 488.341 303.633 487.82C301.017 487.298 298.614 486.012 296.728 484.125C294.843 482.238 293.559 479.834 293.04 477.218C292.52 474.601 292.788 471.889 293.809 469.425C294.831 466.96 296.56 464.854 298.778 463.372C300.997 461.891 303.605 461.1 306.272 461.1C313.649 461.101 319.761 464.475 319.761 474.6Z" fill="#F2F2F9"/>
<path d="M294.467 333.922H137.431C134.024 333.923 130.651 333.253 127.504 331.95C124.356 330.646 121.497 328.735 119.089 326.326C116.681 323.916 114.771 321.056 113.47 317.907C112.168 314.759 111.5 311.386 111.504 307.979V305.232C111.501 301.825 112.169 298.452 113.47 295.304C114.772 292.156 116.681 289.295 119.089 286.886C121.497 284.476 124.357 282.565 127.504 281.261C130.651 279.958 134.024 279.288 137.431 279.289H294.467C297.873 279.288 301.247 279.958 304.394 281.261C307.541 282.565 310.401 284.476 312.809 286.886C315.217 289.295 317.126 292.156 318.428 295.304C319.729 298.452 320.397 301.825 320.394 305.232V307.975C320.367 314.845 317.627 321.426 312.771 326.285C307.915 331.145 301.337 333.889 294.467 333.922Z" fill="#F2F2F9"/>
<path d="M278.447 228.669H224.907C219.369 228.669 213.885 227.577 208.768 225.457C203.652 223.337 199.004 220.229 195.089 216.311C191.174 212.394 188.069 207.743 185.952 202.626C183.835 197.508 182.747 192.023 182.75 186.485V151.895C182.747 146.357 183.835 140.872 185.952 135.755C188.069 130.637 191.174 125.987 195.089 122.069C199.004 118.152 203.652 115.044 208.769 112.924C213.885 110.804 219.369 109.712 224.907 109.712H278.447C283.985 109.712 289.469 110.804 294.586 112.924C299.702 115.044 304.35 118.152 308.265 122.069C312.18 125.986 315.285 130.637 317.402 135.754C319.519 140.872 320.607 146.357 320.604 151.895V186.486C320.575 197.66 316.125 208.369 308.226 216.272C300.327 224.176 289.621 228.633 278.447 228.669Z" fill="#F2F2F9"/>
<path d="M161.883 227.825C155.983 250.605 55.4365 276.548 49.3245 323.372C43.6325 367.243 58.5995 442.329 44.8975 453.297C26.3485 468.272 9.90647 456.038 5.48047 476.92L102.231 500.54C102.231 500.54 114.456 440.851 123.31 349.94C215.633 305.44 242.192 214.96 242.192 214.96L161.883 227.825Z" fill="#8FACFF"/>
<path d="M50.645 323.548C52.114 312.299 59.277 302.167 69.553 292.885C79.829 283.603 93.04 275.328 106.342 267.744C111.547 264.776 116.782 261.908 121.849 259.132C129.662 254.849 137.076 250.788 143.364 246.92C148.002 244.18 152.395 241.044 156.493 237.548C159.582 234.779 161.893 231.948 162.914 229.016L240.05 216.829C239.873 217.358 239.657 217.985 239.403 218.704C238.503 221.241 237.116 224.923 235.163 229.483C229.794 241.919 223.398 253.885 216.04 265.258C197.952 293.298 168.401 326.845 122.519 348.958L121.731 349.338L121.766 350.211C123.21 386.975 120.806 435.494 117.345 460.332C112.576 459.357 99.032 457.011 84.565 454.54C78.449 453.496 72.15 452.427 66.248 451.424C56.919 449.84 48.576 448.424 43.5 447.539C43.775 418.29 46.703 353.032 50.645 323.548Z" fill="white" stroke="#030047" stroke-width="2"/>
<path d="M251.68 425.034C239.453 427.565 227.017 430.306 214.792 433.049C224.492 446.969 230.812 458.358 228.915 464.686C221.748 487.465 201.515 486.411 209.315 506.237L302.689 472.069C302.689 472.069 294.68 451.821 279.502 418.917C270.44 421.029 260.953 422.929 251.68 425.034Z" fill="#8FACFF"/>
<path d="M234.888 330.48L234.244 331.18L234.692 332.016C235.822 334.121 236.965 336.252 238.121 338.409C255.949 371.645 276.698 410.328 287.88 439.809C278.364 442.96 265.549 447.634 252.645 452.341L250.93 452.966C237.295 457.939 223.721 462.874 213.911 466.046C206.656 453.873 197.234 433.213 187.842 411.946C185.67 407.029 183.501 402.081 181.362 397.202C174.042 380.502 167.078 364.619 161.601 353.574C156.536 343.386 156.821 330.958 160.164 317.506C163.507 304.054 169.844 289.806 176.647 276.087C179.323 270.687 182.079 265.363 184.747 260.208C188.824 252.324 192.692 244.847 195.74 238.155C198.059 233.297 199.954 228.248 201.405 223.064C202.265 220.097 202.559 216.995 202.272 213.92L265.68 232.249C269.504 255.212 268.653 272.249 263.54 287.19C258.356 302.324 248.756 315.45 234.888 330.48Z" fill="white" stroke="#030047" stroke-width="2"/>
<path d="M52.9089 464.687C49.9579 462.367 47.0089 460.047 44.2679 457.516C43.2129 456.461 41.7389 458.148 42.7919 458.992C45.6636 461.696 48.69 464.232 51.8559 466.585C52.9089 467.429 53.9639 465.531 52.9089 464.687Z" fill="white"/>
<path d="M240.716 468.695C237.608 468.632 234.509 468.35 231.441 467.851C229.965 467.64 229.541 469.751 230.809 469.96C234.09 470.45 237.399 470.732 240.716 470.804C240.859 470.812 241.003 470.79 241.137 470.74C241.272 470.691 241.395 470.614 241.499 470.516C241.603 470.417 241.686 470.298 241.743 470.167C241.799 470.035 241.828 469.893 241.828 469.749C241.828 469.606 241.799 469.464 241.743 469.332C241.686 469.201 241.603 469.082 241.499 468.983C241.395 468.884 241.272 468.808 241.137 468.758C241.003 468.709 240.859 468.687 240.716 468.695Z" fill="white"/>
<path d="M158.722 319.153H158.09C157.682 318.998 157.347 318.694 157.152 318.304C156.957 317.913 156.916 317.464 157.037 317.044C165.889 291.733 178.748 262.205 178.748 261.995C178.831 261.801 178.951 261.626 179.102 261.478C179.253 261.331 179.432 261.215 179.627 261.137C179.823 261.059 180.032 261.02 180.243 261.022C180.454 261.025 180.662 261.069 180.856 261.152C181.05 261.235 181.225 261.355 181.372 261.506C181.52 261.657 181.636 261.836 181.714 262.031C181.792 262.227 181.831 262.436 181.829 262.647C181.826 262.858 181.782 263.066 181.699 263.26C181.488 263.471 168.842 292.999 159.988 318.099C159.956 318.405 159.806 318.687 159.569 318.883C159.333 319.08 159.029 319.177 158.722 319.153Z" fill="white"/>
<path d="M337.259 37.578H248.097C245.796 37.583 243.518 37.1334 241.392 36.255C239.266 35.3765 237.335 34.0866 235.709 32.4594C234.083 30.8321 232.795 28.8996 231.919 26.7729C231.042 24.6462 230.595 22.3672 230.602 20.067V18.167C230.596 15.8677 231.045 13.5899 231.922 11.4645C232.799 9.33908 234.087 7.40786 235.713 5.78177C237.338 4.15568 239.269 2.86675 241.394 1.989C243.52 1.11126 245.797 0.662 248.097 0.667012H337.26C339.56 0.661469 341.839 1.11057 343.965 1.9885C346.091 2.86643 348.023 4.15589 349.649 5.78277C351.275 7.40964 352.564 9.34185 353.441 11.4684C354.318 13.5949 354.766 15.8737 354.76 18.174V20.074C354.783 22.379 354.347 24.6656 353.476 26.7999C352.605 28.9341 351.317 30.8731 349.687 32.5032C348.057 34.1333 346.118 35.4218 343.984 36.2932C341.85 37.1646 339.564 37.6014 337.259 37.578Z" fill="#E4E4EF"/>
<path d="M159.777 215.592H5.47656C5.02901 215.592 4.59979 215.414 4.28333 215.098C3.96686 214.781 3.78906 214.352 3.78906 213.904C3.78906 213.457 3.96686 213.028 4.28333 212.711C4.59979 212.395 5.02901 212.217 5.47656 212.217H159.777C160.224 212.217 160.653 212.395 160.97 212.711C161.286 213.028 161.464 213.457 161.464 213.904C161.464 214.352 161.286 214.781 160.97 215.098C160.653 215.414 160.224 215.592 159.777 215.592Z" fill="#030047"/>
<path d="M98.6485 89.046C105.815 81.663 115.511 77.657 125.417 75.758C130.897 74.703 136.589 74.703 141.858 73.017C150.29 70.485 154.505 64.369 158.721 57.198C164.621 47.498 180.854 54.666 174.952 64.369C174.531 65.002 174.32 65.424 173.899 66.056C174.366 66.2626 174.794 66.5481 175.163 66.9C177.692 67.955 179.8 70.064 181.487 73.86C181.804 74.548 182.086 75.252 182.33 75.969C187.178 76.181 195.189 68.588 194.766 74.704C192.447 116.677 140.383 159.704 102.442 135.871C86.0005 125.108 85.5785 102.746 98.6485 89.046Z" fill="#5F5FFF"/>
<path d="M317.867 92.627C317.867 65.84 314.072 17.751 322.294 19.227C330.516 20.703 329.882 45.591 329.882 45.591C329.882 45.591 338.946 43.482 341.475 50.864C341.475 50.864 352.224 48.333 353.49 59.933C354.754 72.166 354.965 100.433 354.965 100.433L317.867 92.627Z" fill="white"/>
<path d="M310.7 86.3C305.431 128.695 305.852 158.223 276.131 136.92C257.582 123.632 227.862 91.995 181.91 98.533C181.91 98.533 228.494 143.248 232.921 156.746C237.348 170.244 241.141 203.146 293.205 206.522C354.966 210.741 359.605 132.279 358.549 97.055L310.7 86.3Z" fill="#030047"/>
<path d="M321.235 84.822C307.956 82.713 304.794 67.738 302.896 56.559C301.211 46.646 300.367 37.576 304.583 37.576C312.383 37.576 313.858 51.496 313.858 51.496L323.975 56.769L321.235 84.822Z" fill="white"/>
<path d="M338.733 69.004C337.046 69.215 334.728 69.637 333.041 68.793C329.669 67.528 330.301 64.153 330.301 61.41C330.302 57.4645 330.513 53.5219 330.933 49.599C331.144 48.122 328.825 48.122 328.614 49.599C328.193 53.2402 327.982 56.9026 327.981 60.568C327.981 63.099 327.56 66.263 329.036 68.368C331.355 71.743 335.78 71.32 339.364 70.899C340.629 70.903 339.997 68.793 338.733 69.004Z" fill="#030047"/>
<path d="M349.06 70.269C345.899 73.012 343.369 69.214 342.736 66.894C342.451 65.5067 342.38 64.0839 342.525 62.675C342.525 59.723 342.736 56.98 342.946 54.028C342.946 52.551 340.839 52.551 340.627 54.028C340.416 58.879 338.942 65.839 341.682 70.268C343.79 73.432 347.582 74.276 350.535 71.956C351.589 70.902 350.11 69.214 349.06 70.269Z" fill="#030047"/>
<path d="M329.88 64.364C327.361 60.5056 323.872 57.3771 319.762 55.292C318.497 54.659 317.443 56.557 318.707 57.192C322.486 59.0444 325.691 61.887 327.982 65.417C328.614 66.684 330.512 65.63 329.88 64.364Z" fill="#030047"/>
<path d="M323.976 30.828C320.843 30.828 317.839 29.5836 315.624 27.3685C313.408 25.1534 312.164 22.1491 312.164 19.0165C312.164 15.8839 313.408 12.8796 315.624 10.6645C317.839 8.44943 320.843 7.20502 323.976 7.20502C330.511 7.20502 335.776 9.73601 335.776 19.016C335.779 20.5671 335.476 22.1035 334.884 23.5372C334.292 24.971 333.423 26.2738 332.327 27.3712C331.231 28.4685 329.929 29.3387 328.496 29.9319C327.063 30.5251 325.527 30.8296 323.976 30.828Z" fill="#5F5FFF"/>
<path d="M304.164 20.704H286.457C286.009 20.704 285.58 20.5262 285.264 20.2097C284.947 19.8933 284.77 19.464 284.77 19.0165C284.77 18.5689 284.947 18.1397 285.264 17.8232C285.58 17.5068 286.009 17.329 286.457 17.329H304.164C304.602 17.3589 305.014 17.5462 305.324 17.8564C305.634 18.1665 305.821 18.5784 305.851 19.016C305.854 19.2385 305.813 19.4593 305.729 19.6655C305.646 19.8717 305.521 20.0591 305.364 20.2164C305.207 20.3738 305.02 20.498 304.813 20.5818C304.607 20.6655 304.387 20.7071 304.164 20.704Z" fill="#5F5FFF"/>
<path d="M170.525 101.485C135.957 121.312 125.625 164.972 123.942 184.165C123.942 184.165 72.7206 187.54 72.2986 204.624C71.8776 217.28 77.7785 220.655 85.1555 219.811C85.1555 219.811 91.6906 223.819 97.3806 220.022C97.3806 220.022 101.597 230.99 108.132 228.67C114.877 226.561 111.504 212.218 111.504 212.218H165.469L170.525 101.485Z" fill="white"/>
<path d="M123.941 184.165C123.941 184.165 118.67 184.588 111.504 185.641C121.412 191.125 128.579 201.041 133.004 212.217H165.675L173.052 100.641C128.789 115.617 125.627 164.972 123.941 184.165Z" fill="#030047"/>
<path d="M114.036 233.729C113.659 233.717 113.295 233.589 112.994 233.362C112.692 233.136 112.468 232.822 112.351 232.464L102.654 182.056C102.609 181.847 102.605 181.631 102.644 181.42C102.683 181.209 102.763 181.009 102.881 180.829C102.998 180.65 103.15 180.496 103.327 180.376C103.505 180.256 103.704 180.173 103.914 180.131C104.124 180.089 104.34 180.089 104.55 180.132C104.76 180.174 104.96 180.258 105.137 180.379C105.314 180.499 105.465 180.653 105.582 180.833C105.699 181.012 105.779 181.213 105.817 181.424L115.517 231.833C115.594 232.252 115.505 232.684 115.269 233.039C115.033 233.393 114.668 233.642 114.252 233.733L114.036 233.729Z" fill="#5F5FFF"/>
<path d="M121.622 197.453L111.505 205.046C111.505 205.046 103.917 221.919 111.926 224.239C119.726 226.559 126.471 201.248 126.471 201.248L121.622 197.453Z" fill="white"/>
<path d="M96.9606 217.07C96.1382 215.167 95.5019 213.189 95.0606 211.163C94.8496 209.687 92.5316 210.32 92.9536 211.796C93.4324 214.041 94.1384 216.232 95.0606 218.335C95.6966 219.39 97.5926 218.335 96.9606 217.07Z" fill="#030047"/>
<path d="M86.6324 217.28C85.1912 215.767 84.2367 213.857 83.8924 211.796C83.6814 210.32 81.5734 210.952 81.7844 212.428C82.1227 214.87 83.3178 217.113 85.1564 218.756C86.2104 219.811 87.6854 218.124 86.6324 217.28Z" fill="#030047"/>
<path d="M124.153 201.672C123.957 204.572 123.092 207.388 121.624 209.897C120.991 211.162 122.888 212.217 123.524 210.952C125.066 208.08 125.999 204.921 126.264 201.672C126.474 200.195 124.364 200.195 124.153 201.672Z" fill="#030047"/>
<path d="M114.878 199.773C114.962 199.493 114.931 199.192 114.793 198.935C114.654 198.678 114.419 198.487 114.14 198.403C113.86 198.319 113.559 198.35 113.302 198.488C113.045 198.627 112.854 198.861 112.77 199.141C111.083 204.624 108.765 209.476 108.133 215.381C107.712 218.966 107.712 222.341 111.294 224.029C112.559 224.661 113.613 222.764 112.349 222.129C108.133 220.02 110.662 211.794 111.505 208.42C112.56 205.468 114.034 202.727 114.878 199.773Z" fill="#030047"/>
<path d="M156.4 233.522C191.18 233.733 241.347 242.381 276.127 244.069C275.072 224.876 257.156 144.937 239.45 128.064C219.005 108.664 212.05 100.644 190.55 98.324C162.094 95.372 142.279 120.471 153.662 172.145C163.781 217.491 158.933 215.803 156.4 233.522Z" fill="#030047"/>
<path d="M160.409 205.257C160.022 205.286 159.638 205.174 159.328 204.942C159.017 204.709 158.802 204.372 158.722 203.992C158.273 201.7 158.062 199.368 158.09 197.032C157.879 193.024 157.879 188.384 155.982 185.22C143.125 162.652 142.07 147.888 151.766 128.905C151.877 128.711 152.024 128.541 152.201 128.404C152.378 128.268 152.579 128.167 152.795 128.108C153.01 128.05 153.235 128.034 153.456 128.062C153.678 128.09 153.892 128.162 154.085 128.273C154.279 128.383 154.449 128.531 154.586 128.708C154.723 128.884 154.823 129.086 154.882 129.301C154.941 129.517 154.956 129.741 154.928 129.963C154.9 130.184 154.829 130.398 154.718 130.592C146.918 145.779 145.018 159.492 158.933 183.744C161.252 187.751 161.252 192.813 161.462 197.244C161.475 199.36 161.617 201.473 161.885 203.572C161.961 203.991 161.872 204.423 161.636 204.778C161.4 205.132 161.036 205.381 160.62 205.472C160.62 205.257 160.62 205.257 160.409 205.257Z" fill="white"/>
<path d="M264.535 198.929C264.114 198.929 263.903 198.929 263.692 198.718C262.848 198.297 245.143 185.853 234.392 160.542C234.309 160.348 234.264 160.14 234.262 159.929C234.259 159.718 234.298 159.509 234.376 159.313C234.455 159.118 234.571 158.939 234.718 158.788C234.865 158.637 235.041 158.517 235.235 158.434C235.428 158.351 235.637 158.307 235.847 158.304C236.058 158.302 236.267 158.341 236.463 158.419C236.659 158.497 236.837 158.613 236.988 158.76C237.139 158.908 237.259 159.083 237.343 159.277C243.332 173.743 252.996 186.394 265.378 195.977C265.67 196.162 265.894 196.436 266.017 196.759C266.14 197.082 266.155 197.436 266.061 197.768C265.966 198.101 265.766 198.393 265.491 198.603C265.216 198.812 264.88 198.926 264.535 198.929Z" fill="#030047"/>
<path d="M185.071 80.185C197.086 81.661 204.042 72.17 204.463 63.945C205.095 56.352 197.718 50.657 188.654 54.245C185.127 55.8257 181.968 58.1243 179.379 60.994C178.557 63.3156 177.991 65.7203 177.692 68.165C177.481 73.223 178.325 79.339 185.071 80.185Z" fill="white"/>
<path d="M185.281 91.784C168.629 106.969 151.134 100.431 142.702 83.984C138.907 76.812 135.535 68.584 136.167 60.149C136.799 52.556 139.751 45.385 145.867 40.749C158.515 31.049 177.486 34.421 188.446 48.549V48.76C193.347 55.0471 195.737 62.9313 195.153 70.8818C194.568 78.8323 191.049 86.2819 185.281 91.784Z" fill="white"/>
<path d="M165.888 35.468C158.721 34.624 151.555 36.101 145.863 40.741C138.063 46.857 129.632 55.084 128.368 61.2C127.104 67.316 133.427 71.324 136.799 68.793C147.128 59.724 158.299 48.335 165.888 35.468Z" fill="#5F5FFF"/>
<path d="M162.838 71.276C163.065 70.8773 163.169 70.4203 163.136 69.9628C163.103 69.5052 162.935 69.0677 162.654 68.7055C162.372 68.3433 161.99 68.0728 161.554 67.9281C161.119 67.7834 160.651 67.7711 160.208 67.8927C159.766 68.0143 159.37 68.2644 159.069 68.6112C158.769 68.9581 158.579 69.3862 158.522 69.8414C158.465 70.2966 158.544 70.7585 158.75 71.1685C158.956 71.5785 159.278 71.9184 159.677 72.145C160.212 72.4479 160.845 72.5265 161.437 72.3636C162.03 72.2007 162.534 71.8096 162.838 71.276Z" fill="#030047"/>
<path d="M153.876 87.355C151.315 83.1131 149.464 78.482 148.395 73.644C147.974 72.168 150.295 71.744 150.503 73.012C151.632 77.665 153.406 82.1374 155.772 86.3C156.616 87.566 154.719 88.62 153.876 87.355Z" fill="#030047"/>
<path d="M185.701 69.848C185.782 67.2867 186.752 64.8335 188.445 62.9092C190.137 60.9848 192.446 59.7092 194.976 59.301C196.452 59.09 196.876 61.201 195.608 61.41C193.581 61.7624 191.73 62.7857 190.354 64.3157C188.978 65.8457 188.156 67.7937 188.02 69.847C187.809 71.322 185.491 71.322 185.701 69.848Z" fill="#030047"/>
<path d="M184.438 57.614C182.538 65.839 136.59 56.559 137.011 54.661C138.487 49.177 141.227 44.326 145.864 40.952C158.511 31.252 182.329 31.039 191.816 53.396C192.028 53.185 186.125 55.716 184.438 57.614Z" fill="#5F5FFF"/>
<path d="M35.4126 289.413C25.4793 289.396 15.8088 286.22 7.7996 280.344C7.61962 280.219 7.46599 280.06 7.34745 279.876C7.22892 279.692 7.1478 279.486 7.10876 279.271C7.06971 279.055 7.07348 278.834 7.11987 278.62C7.16625 278.406 7.25434 278.203 7.3791 278.023C7.50385 277.843 7.66283 277.69 7.84696 277.571C8.0311 277.453 8.23678 277.372 8.45226 277.333C8.66774 277.294 8.88879 277.297 9.10281 277.344C9.31682 277.39 9.51963 277.478 9.69961 277.603C30.7786 292.367 53.3316 285.403 67.4546 274.018C70.7188 271.317 73.6865 268.276 76.3076 264.947C65.9796 266.002 57.3366 262.627 52.0676 255.247C47.0086 248.286 46.3756 240.482 49.9596 233.947C51.8644 230.569 54.6603 227.78 58.0423 225.883C61.4242 223.986 65.2622 223.054 69.1376 223.189C76.5146 223.61 82.8376 228.252 86.0006 236.266C88.9516 243.226 87.6876 251.666 83.4716 259.889C96.9626 255.881 111.085 244.281 112.56 231.414C112.587 231.192 112.658 230.978 112.769 230.784C112.879 230.59 113.027 230.419 113.204 230.282C113.38 230.145 113.582 230.044 113.797 229.985C114.013 229.926 114.238 229.91 114.46 229.938C115.304 229.938 115.936 230.782 115.936 231.838C114.249 247.238 97.5966 259.89 82.8426 263.686C82.2106 263.897 81.5776 263.897 81.1556 264.109C78.0488 268.776 74.2044 272.908 69.7726 276.342C60.4956 283.929 48.4756 289.413 35.4126 289.413ZM68.0846 226.981C64.9518 227.022 61.8841 227.88 59.1851 229.471C56.4861 231.062 54.2494 233.331 52.6966 236.052C49.7456 241.535 50.3776 247.863 54.5966 253.768C59.6556 260.729 68.2966 263.468 78.8366 261.568C83.8956 253.343 85.5816 244.905 82.8416 238.156C80.1016 231.407 75.0416 227.4 68.7186 227.189C68.6352 227.109 68.535 227.049 68.4253 227.013C68.3155 226.977 68.1991 226.966 68.0846 226.981Z" fill="#5F5FFF"/>
<path d="M128.155 236.473C127.831 236.469 127.515 236.366 127.252 236.177C126.988 235.989 126.788 235.724 126.679 235.418C126.577 235.227 126.518 235.016 126.506 234.8C126.494 234.584 126.53 234.368 126.61 234.167C126.691 233.966 126.814 233.785 126.972 233.637C127.129 233.489 127.318 233.377 127.523 233.309L141.435 227.614C141.827 227.446 142.269 227.441 142.664 227.6C143.06 227.758 143.376 228.067 143.544 228.458C143.711 228.85 143.717 229.292 143.558 229.688C143.4 230.083 143.091 230.399 142.699 230.567L128.787 236.262C128.577 236.262 128.366 236.473 128.155 236.473Z" fill="#5F5FFF"/>
<path d="M131.106 245.754H121.621C121.174 245.754 120.744 245.576 120.428 245.26C120.111 244.943 119.934 244.514 119.934 244.066C119.934 243.619 120.111 243.19 120.428 242.873C120.744 242.557 121.174 242.379 121.621 242.379H131.106C131.544 242.409 131.956 242.596 132.266 242.907C132.576 243.217 132.763 243.629 132.793 244.067C132.796 244.289 132.755 244.51 132.671 244.716C132.588 244.923 132.463 245.11 132.306 245.267C132.149 245.424 131.962 245.549 131.755 245.632C131.549 245.716 131.329 245.757 131.106 245.754Z" fill="#5F5FFF"/>
<path d="M8.64301 228.667H0V254.61H8.64301V228.667Z" fill="#8FACFF"/>
<path d="M22.7641 228.667H14.1211V254.61H22.7641V228.667Z" fill="#8FACFF"/>
</svg>
