<svg width="574" height="537" viewBox="0 0 574 537" fill="none" xmlns="http://www.w3.org/2000/svg">
<path d="M201.517 479.023C203.574 489.925 207.313 497.631 211.613 503.457C211.986 504.021 212.361 504.398 212.735 504.961C213.67 506.089 214.604 507.028 215.539 507.968C215.99 508.459 216.491 508.9 217.035 509.284C221.56 513.149 226.673 516.258 232.179 518.494C243.957 523.569 244.519 536.538 244.519 536.538L152.16 535.974C153.282 520.562 153.282 491.429 153.282 491.429C172.538 485.602 181.887 482.03 201.517 479.023Z" fill="#030047"/>
<path d="M211.799 503.269C212.173 503.832 212.548 504.209 212.921 504.772C209.182 506.464 205.443 508.343 201.703 510.035C200.581 510.6 199.646 508.907 200.768 508.532C204.322 506.839 208.061 505.148 211.799 503.269Z" fill="white"/>
<path d="M215.726 507.781C216.175 508.271 216.675 508.712 217.216 509.096C213.103 511.163 208.803 513.044 204.695 515.111C203.573 515.674 202.639 513.983 203.761 513.607C207.686 511.54 211.799 509.66 215.726 507.781Z" fill="white"/>
<path d="M73.4484 470.377C64.8482 477.332 59.7997 484.286 56.8084 490.864C56.6216 491.428 56.2479 491.992 56.0601 492.556C55.5401 493.842 55.1029 495.16 54.7513 496.503C54.5645 497.066 54.3777 497.819 54.1898 498.382C52.9832 504.252 52.6678 510.272 53.2547 516.238C54.1898 529.019 43.1588 535.597 43.1588 535.597L0.53125 453.273C13.4316 444.251 25.7734 435.789 35.6795 425.831C49.2558 439.804 61.8728 454.686 73.4435 470.377H73.4484Z" fill="#030047"/>
<path d="M210.865 277.347C210.865 277.347 188.617 267.949 170.295 265.506C171.417 249.342 171.791 238.631 171.791 238.631L112.711 242.578C106.351 279.229 103.737 332.421 76.8141 379.221C64.6621 400.461 43.7209 417.376 21.8477 436.361C33.9997 453.088 53.4442 475.08 65.7831 491.809C69.3359 485.983 122.058 457.977 148.981 385.99C148.234 443.693 146.177 502.711 146.177 502.711L213.109 498.388C213.109 498.388 222.27 376.399 210.865 277.347Z" fill="white"/>
<path d="M144.68 504.209V502.705C144.68 502.142 146.55 448.386 147.485 393.691C125.423 447.071 89.5271 474.7 74.0091 486.729C70.6442 489.361 67.6489 491.616 67.0914 492.556L65.9694 494.435L64.6606 492.744C58.8648 484.851 51.1997 475.639 43.9083 466.805C35.6817 456.656 27.0815 446.318 20.5384 437.297L19.791 436.169L20.7262 435.229C22.9702 433.349 25.2131 431.281 27.4571 429.402C46.5269 412.862 64.4757 397.262 75.3189 378.466C97.0064 340.687 102.802 298.773 107.663 264.941C108.785 256.859 109.907 249.156 111.028 242.198L111.215 241.071L172.912 236.935V238.439C172.912 238.627 172.538 248.776 171.416 264.001C189.552 266.633 210.87 275.654 211.053 275.842L211.8 276.218L211.987 276.969C223.205 374.895 214.23 496.878 214.23 498.193V499.509L144.68 504.209ZM150.476 377.903L150.289 385.984C149.541 437.86 147.859 491.428 147.485 501.202L211.612 497.066C212.547 484.097 219.839 370.76 209.369 278.474C205.256 276.782 185.999 269.077 169.916 267.008L168.607 266.821L168.794 265.505C169.729 253.099 170.102 243.702 170.289 240.319L113.827 244.079C112.705 250.845 111.771 257.988 110.647 265.694C105.787 299.714 99.9898 342.004 78.1155 380.159C67.0844 399.33 48.9498 415.118 29.6921 431.847C27.8462 433.576 25.9116 435.207 23.8964 436.733C30.2566 445.379 38.4792 455.341 46.3322 464.926C53.2499 473.384 60.3545 482.03 66.1502 489.548C67.4591 488.42 69.5152 486.729 72.5105 484.473C88.589 472.068 126.542 442.747 148.038 385.421L150.476 377.903Z" fill="#030047"/>
<path d="M56.8085 490.864C56.6216 491.428 56.248 491.992 56.0602 492.556C52.6952 490.112 49.516 487.48 46.151 485.038C45.2159 484.286 46.151 482.594 47.0862 483.346C50.2643 485.977 53.4435 488.42 56.8085 490.864Z" fill="white"/>
<path d="M54.7533 496.503C54.5665 497.066 54.3796 497.819 54.1918 498.382C50.4522 495.563 46.7136 492.931 43.1608 490.112C42.2256 489.359 43.1608 487.668 44.0959 488.42C47.6487 491.052 51.2005 493.683 54.7533 496.503Z" fill="white"/>
<path d="M153.28 376.775C153.179 376.787 153.076 376.777 152.979 376.745C152.882 376.712 152.793 376.658 152.719 376.587C152.537 376.527 152.37 376.427 152.231 376.295C152.091 376.163 151.982 376.001 151.91 375.822C151.839 375.643 151.808 375.451 151.818 375.258C151.829 375.066 151.882 374.878 151.972 374.708C165.246 340.124 170.295 299.901 170.295 299.525L170.481 298.397H171.603C171.79 298.397 182.073 297.834 188.995 295.954C189.168 295.899 189.35 295.881 189.531 295.898C189.712 295.916 189.887 295.97 190.047 296.056C190.206 296.143 190.347 296.261 190.461 296.403C190.574 296.546 190.658 296.709 190.708 296.885C190.758 297.06 190.773 297.244 190.751 297.425C190.729 297.606 190.671 297.781 190.581 297.94C190.491 298.098 190.371 298.237 190.227 298.348C190.082 298.458 189.918 298.539 189.742 298.585C184.207 299.851 178.58 300.668 172.915 301.029C171.981 307.983 166.746 344.071 154.593 375.647C154.215 376.399 153.84 376.775 153.28 376.775Z" fill="#030047"/>
<path d="M344.73 267.572C338.747 271.895 331.642 274.151 324.725 270.391C313.693 264.189 318.555 251.032 324.538 242.762L317.246 233.552L268.451 273.4L308.088 322.454L356.883 282.607L344.73 267.572Z" fill="#6F6EFF"/>
<path d="M418.391 446.695L365.854 460.227L332.761 468.873L310.699 382.79L335.565 376.396C334.906 373.853 334.756 371.204 335.125 368.602C335.494 366.001 336.374 363.499 337.714 361.243C339.054 358.987 340.826 357.021 342.929 355.46C345.031 353.898 347.422 352.773 349.961 352.149C362.483 348.952 371.461 355.909 374.079 366.622L396.515 360.795L402.311 383.351L418.391 446.695Z" fill="white"/>
<path d="M331.641 470.565L308.832 381.662L333.698 375.268C332.755 370.163 333.685 364.888 336.315 360.42C337.713 357.975 339.596 355.845 341.847 354.164C344.099 352.482 346.671 351.285 349.402 350.646C355.385 349.142 361.181 349.706 365.668 352.525C370.086 355.354 373.34 359.693 374.83 364.742L397.264 358.915L420.074 447.818L331.641 470.565ZM312.385 383.729L333.699 467.182L416.71 445.755L395.396 362.302L373.148 368.129L372.774 367.001C371.279 361.55 368.474 357.415 364.361 354.972C360.434 352.528 355.574 352.153 350.15 353.468C345.446 354.688 341.414 357.729 338.932 361.926C336.492 366.193 335.757 371.232 336.876 376.023L337.249 377.339L335.941 377.715L312.385 383.729Z" fill="#030047"/>
<path d="M349.59 413.238L338.559 416.245L331.641 417.937L326.971 399.893L345.106 395.198L346.228 399.893L349.59 413.238Z" fill="#6F6EFF"/>
<path d="M372.211 407.599L361.18 410.606L354.263 412.298L349.592 394.255L367.727 389.559L368.85 394.255L372.211 407.599Z" fill="#6F6EFF"/>
<path d="M418.392 446.694L365.855 460.227C364.578 454.935 363.95 449.507 363.986 444.063C363.964 431.277 367.555 418.748 374.34 407.934C381.125 397.12 390.825 388.465 402.312 382.977L418.392 446.694Z" fill="white"/>
<path d="M364.733 461.919L364.36 460.603C360.51 445.198 362.096 428.927 368.847 414.565C375.597 400.204 387.095 388.641 401.378 381.85L402.869 381.098L419.883 447.822L364.733 461.919ZM401.19 385.045C390.406 390.637 381.355 399.098 375.026 409.505C368.697 419.913 365.332 431.869 365.298 444.067C365.293 448.941 365.857 453.799 366.98 458.54L416.712 445.759L401.19 385.045Z" fill="#030047"/>
<path d="M571.326 286.367L559.173 314.372C545.899 308.546 531.503 312.305 524.772 327.905C523.404 331.076 522.672 334.487 522.617 337.943C522.563 341.399 523.188 344.832 524.456 348.045C525.724 351.258 527.61 354.187 530.006 356.666C532.403 359.145 535.262 361.123 538.42 362.489L524.959 393.502L418.391 346.889L449.987 273.963L464.757 239.755L501.775 255.919L514.115 261.37L555.621 279.602L571.326 286.367Z" fill="white"/>
<path d="M525.707 395.383L416.521 347.642L464.01 237.875L573.195 285.616L560.108 316.065L558.612 315.689C552.068 312.87 545.152 312.492 539.356 314.749C533.56 317.006 529.073 321.892 526.082 328.658C523.511 334.697 523.403 341.509 525.781 347.626C528.159 353.744 532.833 358.677 538.795 361.363L540.291 361.739L539.729 363.242L525.707 395.383ZM420.266 346.328L524.403 391.813L536.743 363.431C530.413 360.261 525.529 354.774 523.096 348.099C520.662 341.423 520.863 334.063 523.656 327.531C526.836 320.013 532.069 314.75 538.426 312.119C544.595 309.675 551.7 309.863 558.617 312.682L569.648 287.12L465.511 241.635L420.266 346.328Z" fill="#030047"/>
<path d="M513.93 305.915C513.93 326.59 500.469 336.176 483.829 336.176C477.876 336.176 472.056 334.402 467.106 331.076C462.156 327.751 458.298 323.025 456.02 317.496C453.742 311.966 453.145 305.882 454.307 300.012C455.468 294.142 458.335 288.75 462.545 284.518C466.755 280.285 472.118 277.403 477.957 276.236C483.796 275.068 489.848 275.667 495.348 277.958C500.849 280.248 505.55 284.127 508.857 289.103C512.165 294.08 513.93 299.93 513.93 305.915Z" fill="white"/>
<path d="M483.83 337.68C477.617 337.68 471.545 335.828 466.379 332.358C461.214 328.889 457.188 323.957 454.811 318.187C452.434 312.417 451.812 306.068 453.023 299.943C454.235 293.818 457.227 288.191 461.62 283.775C466.012 279.359 471.609 276.352 477.702 275.133C483.795 273.915 490.11 274.54 495.85 276.93C501.589 279.32 506.494 283.367 509.946 288.56C513.397 293.753 515.239 299.858 515.239 306.103C515.241 325.462 503.273 337.68 483.83 337.68ZM483.83 277.158C476.243 277.158 468.967 280.188 463.603 285.581C458.238 290.974 455.224 298.288 455.224 305.915C455.224 313.542 458.238 320.857 463.603 326.25C468.967 331.643 476.243 334.673 483.83 334.673C501.778 334.673 512.435 323.96 512.435 305.915C512.404 298.298 509.381 291.001 504.023 285.614C498.665 280.228 491.407 277.188 483.83 277.158Z" fill="#030047"/>
<path d="M474.48 320.388L469.993 298.773C469.924 298.401 470.003 298.017 470.214 297.703C470.424 297.389 470.749 297.172 471.119 297.098C471.488 297.023 471.871 297.099 472.185 297.307C472.5 297.515 472.72 297.839 472.798 298.209L476.351 315.5L501.403 297.268C501.7 297.082 502.059 297.019 502.401 297.093C502.744 297.168 503.044 297.373 503.239 297.666C503.433 297.96 503.507 298.317 503.443 298.664C503.38 299.011 503.184 299.319 502.899 299.523L474.48 320.388Z" fill="#6F6EFF"/>
<path d="M555.623 279.602C551.922 282.32 547.578 284.015 543.022 284.519C538.467 285.023 533.86 284.317 529.66 282.472C525.461 280.628 521.816 277.708 519.088 274.006C516.361 270.303 514.647 265.946 514.117 261.37L555.623 279.602Z" fill="white"/>
<path d="M540.104 285.993C533.358 286.02 526.84 283.54 521.801 279.03C516.763 274.52 513.56 268.298 512.807 261.559L512.434 259.115L558.426 279.226L556.37 280.73C551.623 284.139 545.938 285.978 540.104 285.993ZM515.799 263.813C517.015 269.34 520.066 274.285 524.449 277.838C528.832 281.39 534.287 283.338 539.917 283.36C544.319 283.399 548.648 282.229 552.439 279.977L515.799 263.813Z" fill="#030047"/>
<path d="M378.756 37.3271L401.379 22.8545L403.622 48.6047L378.756 37.3271Z" fill="white"/>
<path d="M405.116 50.8594L375.764 37.5148L402.686 20.4106L405.116 50.8594ZM381.563 37.1391L401.942 46.3486L400.259 25.2981L381.563 37.1391Z" fill="#030047"/>
<path d="M264.523 408.915C264.149 408.915 263.962 408.727 263.588 408.539C263.291 408.289 263.105 407.932 263.07 407.545C263.035 407.157 263.154 406.772 263.401 406.472L269.57 398.39C269.693 398.242 269.844 398.119 270.013 398.03C270.183 397.94 270.369 397.885 270.56 397.867C270.751 397.85 270.943 397.87 271.126 397.928C271.31 397.985 271.48 398.078 271.627 398.201C271.774 398.325 271.896 398.476 271.985 398.647C272.074 398.818 272.129 399.004 272.147 399.196C272.164 399.388 272.144 399.582 272.087 399.766C272.03 399.95 271.937 400.121 271.814 400.269L265.645 408.352C265.534 408.546 265.368 408.704 265.169 408.804C264.969 408.904 264.744 408.943 264.523 408.915Z" fill="#030047"/>
<path d="M421.008 37.1362C420.762 37.1686 420.512 37.1102 420.306 36.9718C420.1 36.8335 419.95 36.6246 419.886 36.3839C419.701 36.0808 419.638 35.7191 419.707 35.3709C419.776 35.0226 419.973 34.7133 420.259 34.5047L440.825 21.9163C440.972 21.8139 441.138 21.742 441.313 21.7048C441.488 21.6676 441.669 21.6658 441.845 21.6996C442.021 21.7334 442.188 21.8021 442.338 21.9016C442.487 22.0012 442.615 22.1296 442.714 22.2794C442.813 22.4291 442.882 22.5973 442.916 22.7741C442.95 22.9508 442.949 23.1326 442.912 23.3088C442.875 23.485 442.804 23.6521 442.703 23.8003C442.601 23.9486 442.471 24.075 442.32 24.1723L421.755 36.7606C421.382 37.1362 421.195 37.1362 421.008 37.1362Z" fill="#030047"/>
<path d="M422.316 202.916C422.214 202.928 422.111 202.918 422.014 202.885C421.917 202.853 421.829 202.799 421.755 202.728C421.587 202.651 421.436 202.539 421.314 202.399C421.192 202.26 421.102 202.095 421.049 201.917C420.995 201.739 420.981 201.551 421.006 201.367C421.031 201.182 421.096 201.006 421.195 200.849L429.795 184.12C429.969 183.796 430.263 183.554 430.614 183.449C430.964 183.343 431.343 183.382 431.665 183.556C431.987 183.73 432.227 184.027 432.333 184.379C432.438 184.732 432.399 185.112 432.226 185.436L423.626 202.164C423.487 202.39 423.295 202.577 423.066 202.708C422.837 202.839 422.579 202.911 422.316 202.916Z" fill="#030047"/>
<path d="M293.689 386.169C293.587 386.181 293.484 386.171 293.387 386.139C293.29 386.106 293.202 386.052 293.128 385.981L274.806 377.711C274.631 377.638 274.473 377.532 274.34 377.397C274.207 377.263 274.102 377.103 274.031 376.928C273.96 376.752 273.924 376.564 273.926 376.375C273.928 376.185 273.967 375.998 274.041 375.824C274.115 375.649 274.223 375.492 274.359 375.36C274.494 375.228 274.654 375.124 274.83 375.055C275.005 374.986 275.193 374.952 275.381 374.956C275.57 374.961 275.755 375.002 275.928 375.079L294.25 383.35C294.58 383.519 294.837 383.803 294.974 384.148C295.112 384.494 295.12 384.878 294.997 385.229C294.624 385.796 294.25 386.169 293.689 386.169Z" fill="#030047"/>
<path d="M398.386 312.119C398.167 312.125 397.951 312.076 397.755 311.978C397.559 311.88 397.391 311.734 397.264 311.555C397.09 311.249 397.032 310.891 397.1 310.545C397.169 310.2 397.36 309.891 397.638 309.676L404.929 304.98C405.23 304.795 405.59 304.731 405.937 304.801C406.283 304.87 406.591 305.069 406.798 305.356C406.972 305.662 407.03 306.02 406.962 306.366C406.893 306.711 406.702 307.02 406.425 307.235L399.133 311.931C398.947 311.93 398.574 312.119 398.386 312.119Z" fill="#030047"/>
<path d="M431.105 374.143C430.758 374.136 430.426 374.003 430.17 373.767L420.074 363.43C419.801 363.156 419.648 362.784 419.648 362.396C419.649 362.008 419.802 361.637 420.075 361.363C420.347 361.088 420.717 360.934 421.103 360.935C421.489 360.935 421.859 361.089 422.131 361.363L432.227 371.7C432.497 371.976 432.648 372.347 432.648 372.734C432.648 373.121 432.497 373.492 432.227 373.767C431.886 373.976 431.502 374.104 431.105 374.143Z" fill="#030047"/>
<path d="M474.478 224.719C474.19 224.715 473.91 224.623 473.676 224.455C473.442 224.287 473.265 224.051 473.169 223.778L464.195 201.976C464.118 201.802 464.077 201.616 464.073 201.426C464.068 201.237 464.102 201.048 464.171 200.872C464.24 200.695 464.343 200.534 464.474 200.398C464.605 200.262 464.762 200.154 464.935 200.079C465.109 200.004 465.295 199.965 465.484 199.963C465.672 199.961 465.859 199.997 466.034 200.069C466.208 200.14 466.367 200.246 466.501 200.38C466.634 200.514 466.74 200.673 466.812 200.848L475.787 222.65C475.869 222.822 475.915 223.009 475.921 223.199C475.928 223.389 475.894 223.579 475.824 223.755C475.754 223.932 475.648 224.092 475.513 224.225C475.377 224.359 475.216 224.462 475.039 224.53C474.854 224.533 474.666 224.719 474.478 224.719Z" fill="#030047"/>
<path d="M408.856 14.3963C408.589 14.4081 408.325 14.3437 408.093 14.2106C407.861 14.0774 407.672 13.8809 407.547 13.6439L401.186 2.36642C401.101 2.20596 401.047 2.03007 401.029 1.84877C401.01 1.66746 401.028 1.4843 401.08 1.30975C401.132 1.1352 401.218 0.972657 401.332 0.831433C401.447 0.69021 401.588 0.573056 401.747 0.486661C401.907 0.400265 402.082 0.346317 402.262 0.327903C402.443 0.309489 402.625 0.326968 402.799 0.379338C402.972 0.431708 403.134 0.51795 403.274 0.633131C403.415 0.748313 403.531 0.890193 403.617 1.05065L409.978 12.3282C410.077 12.4853 410.141 12.662 410.166 12.8463C410.191 13.0306 410.177 13.2181 410.124 13.3963C410.071 13.5745 409.98 13.7392 409.858 13.8791C409.736 14.019 409.586 14.131 409.417 14.2074C409.417 14.3963 409.043 14.3963 408.856 14.3963Z" fill="#030047"/>
<path d="M283.966 112.133C273.683 122.095 257.792 140.515 242.647 146.529C223.765 154.047 190.485 113.073 166.928 115.517L172.91 156.679C172.91 156.679 192.728 197.84 229.372 205.923C266.016 214.005 303.41 149.536 303.597 149.348C298.924 138.259 292.756 119.463 283.966 112.133Z" fill="#030047"/>
<path d="M150.667 111.383L147.676 119.465L182.824 123.6L184.506 107.061L150.667 111.383Z" fill="#030047"/>
<path d="M178.334 120.591C158.516 105.178 125.05 124.914 115.141 154.61C107.663 177.166 96.8184 287.687 96.8184 287.687L217.034 285.996C217.034 285.996 207.312 166.832 193.29 146.725C179.269 126.617 185.064 125.665 178.334 120.591Z" fill="#030047"/>
<path d="M204.694 184.684C204.373 184.704 204.057 184.598 203.812 184.387C203.568 184.176 203.415 183.878 203.386 183.556C203.386 183.368 200.955 172.278 195.907 154.982C195.854 154.808 195.836 154.625 195.854 154.444C195.873 154.263 195.926 154.088 196.013 153.928C196.099 153.768 196.216 153.627 196.357 153.514C196.499 153.4 196.661 153.315 196.835 153.265C197.009 153.215 197.191 153.201 197.371 153.222C197.55 153.244 197.724 153.301 197.881 153.391C198.039 153.481 198.177 153.601 198.287 153.745C198.398 153.889 198.478 154.054 198.525 154.23C203.76 171.714 206.003 182.803 206.003 182.987C206.071 183.36 205.991 183.745 205.782 184.061C205.573 184.376 205.25 184.598 204.881 184.679L204.694 184.684Z" fill="white"/>
<path d="M260.971 133.372C272.749 110.817 286.213 108.938 293.689 109.313C301.166 109.689 299.298 119.087 299.298 119.087L260.971 133.372Z" fill="white"/>
<path d="M257.979 136.004L259.661 132.807C268.635 115.702 280.04 107.43 293.688 107.997C294.727 108.017 295.75 108.263 296.685 108.717C297.621 109.171 298.448 109.823 299.11 110.628C301.728 114.011 300.601 119.274 300.601 119.462L300.414 120.214L257.979 136.004ZM292.379 110.627C281.162 110.627 271.814 117.206 263.957 130.739L297.984 117.957C298.171 116.454 298.171 113.822 296.862 112.131C296.457 111.634 295.941 111.24 295.357 110.979C294.773 110.718 294.136 110.597 293.497 110.627H292.379Z" fill="#030047"/>
<path d="M413.717 170.775L294.997 192.954L279.853 111.757L272.748 73.6025L314.067 65.8967L391.469 51.4241L397.265 82.6252C382.495 85.4446 372.399 96.9119 375.577 114.39C376.894 121.492 380.961 127.778 386.886 131.867C392.811 135.955 400.108 137.511 407.174 136.193L413.717 170.775Z" fill="#6F6EFF"/>
<path d="M406.427 167.203C406.163 167.231 405.898 167.164 405.678 167.015L279.292 79.8037C279.136 79.7096 278.999 79.5845 278.892 79.436C278.785 79.2875 278.709 79.1186 278.668 78.9396C278.628 78.7606 278.624 78.5752 278.657 78.3946C278.69 78.2141 278.759 78.0421 278.86 77.8892C278.961 77.7363 279.092 77.6057 279.245 77.5051C279.397 77.4046 279.569 77.3363 279.749 77.3044C279.929 77.2724 280.113 77.2775 280.291 77.3194C280.469 77.3612 280.636 77.4389 280.783 77.5478L407.169 164.759C407.447 164.974 407.638 165.283 407.706 165.628C407.775 165.974 407.717 166.332 407.543 166.638C407.433 166.832 407.268 166.989 407.069 167.09C406.871 167.19 406.647 167.229 406.427 167.203Z" fill="white"/>
<path d="M299.858 187.127C299.594 187.155 299.33 187.089 299.11 186.939C298.833 186.724 298.642 186.416 298.573 186.07C298.504 185.725 298.562 185.366 298.737 185.06L385.485 58.0019C385.582 57.8504 385.708 57.7198 385.855 57.6177C386.003 57.5155 386.169 57.444 386.344 57.4071C386.52 57.3703 386.7 57.3689 386.876 57.403C387.052 57.4372 387.219 57.5062 387.368 57.606C387.517 57.7059 387.645 57.8345 387.744 57.9845C387.843 58.1345 387.911 58.3028 387.945 58.4796C387.978 58.6565 387.977 58.8382 387.94 59.0144C387.903 59.1905 387.831 59.3575 387.729 59.5055L300.98 186.564C300.853 186.743 300.684 186.888 300.489 186.986C300.293 187.085 300.076 187.133 299.858 187.127Z" fill="white"/>
<path d="M274.432 74.7304L312.571 67.588C312.386 77.1059 309.213 86.3213 303.504 93.9167C297.796 101.512 289.845 107.099 280.788 109.878L274.432 74.7304Z" fill="white"/>
<path d="M311.262 69.2785C310.74 77.9044 307.693 86.1825 302.503 93.0718C297.314 99.9612 290.214 105.154 282.097 107.998L276.114 75.8574L311.262 69.2785ZM314.067 65.8956L272.748 73.6015L279.853 111.756C289.677 109.033 298.343 103.147 304.523 94.9993C310.702 86.8519 314.055 76.8926 314.067 66.6469V65.8956Z" fill="#030047"/>
<path d="M310.141 123.598C310.141 123.598 313.88 114.007 303.598 115.328C293.315 116.649 272.188 116.08 251.623 141.641C249.94 143.706 248.07 145.962 246.014 148.408C257.232 158.37 267.514 169.083 277.797 179.985C279.853 175.474 281.349 171.527 282.658 168.895C292.567 149.159 316.685 159.304 312.945 137.883C312.945 138.071 319.303 124.914 310.141 123.598Z" fill="white"/>
<path d="M278.359 182.617L276.863 181.113C268.45 172.091 257.232 160.25 245.08 149.536L244.145 148.596L245.08 147.468C247.136 145.024 249.193 142.582 250.689 140.701C269.385 117.395 288.453 115.516 299.859 114.388C301.168 114.2 302.477 114.2 303.599 114.012C307.151 113.449 309.768 114.2 311.264 116.079C312.946 118.146 312.573 120.966 312.198 122.658C312.967 122.881 313.681 123.264 314.293 123.782C314.905 124.3 315.402 124.942 315.751 125.665C317.994 129.988 315.377 136.567 314.629 138.446C316.686 150.852 309.395 153.483 301.916 156.302C295.747 158.558 288.642 161.377 284.342 169.834C283.407 171.526 282.473 173.782 281.351 176.413C280.789 177.729 280.042 179.233 279.482 180.924L278.359 182.617ZM248.071 148.223C259.102 158.185 269.385 168.898 277.423 177.544C277.797 176.604 278.171 175.853 278.545 175.101C279.667 172.469 280.602 170.214 281.537 168.334C286.397 158.936 294.25 155.928 300.793 153.486C308.458 150.666 313.507 148.79 311.637 138.261V137.885L311.823 137.509C312.759 135.63 314.815 129.803 313.132 126.984C312.572 125.856 311.637 125.293 309.952 125.105L308.27 124.917L308.83 123.226C309.204 122.285 309.952 119.278 308.83 117.962C307.895 116.647 305.65 116.647 303.782 117.022C302.548 117.25 301.297 117.375 300.043 117.398C289.012 118.526 270.69 120.405 252.739 142.774C251.436 144.274 249.754 146.153 248.071 148.223Z" fill="#030047"/>
<path d="M248.819 145.213C233.117 164.384 199.462 200.472 173.848 183.368C146.364 164.948 142.625 145.025 142.625 145.025L122.246 145.589C104.855 183.368 117.946 244.642 193.666 239.755C252.932 235.807 270.883 197.465 279.481 177.353C269.571 166.077 259.102 155.743 248.819 145.213Z" fill="#030047"/>
<path d="M192.731 186C167.117 186 150.29 167.581 146.364 152.731C146.311 152.557 146.293 152.375 146.312 152.194C146.33 152.013 146.383 151.837 146.47 151.677C146.556 151.517 146.673 151.376 146.815 151.263C146.956 151.149 147.118 151.064 147.292 151.014C147.466 150.964 147.648 150.95 147.828 150.971C148.007 150.993 148.181 151.05 148.338 151.14C148.496 151.23 148.634 151.35 148.744 151.494C148.855 151.638 148.936 151.803 148.982 151.979C153.095 167.955 173.661 188.445 204.322 181.864C225.823 177.169 243.023 149.724 243.21 149.536C243.306 149.382 243.431 149.249 243.579 149.145C243.726 149.04 243.893 148.967 244.07 148.929C244.246 148.89 244.429 148.888 244.606 148.922C244.783 148.956 244.952 149.025 245.102 149.126C245.253 149.227 245.381 149.357 245.48 149.508C245.58 149.66 245.648 149.83 245.68 150.008C245.713 150.187 245.71 150.37 245.671 150.547C245.632 150.724 245.558 150.892 245.453 151.04C244.706 152.168 227.505 179.797 204.696 184.684C200.768 185.566 196.755 186.007 192.731 186Z" fill="white"/>
<path d="M309.954 137.507C302.389 137.685 294.968 139.615 288.266 143.146C287.144 143.71 288.079 145.402 289.201 144.838C295.608 141.435 302.71 139.569 309.954 139.387C310.184 139.361 310.397 139.252 310.552 139.078C310.707 138.905 310.792 138.68 310.792 138.447C310.792 138.214 310.707 137.989 310.552 137.816C310.397 137.642 310.184 137.532 309.954 137.507Z" fill="#030047"/>
<path d="M304.905 124.914C298.912 125.26 293.026 126.66 287.514 129.049C286.392 129.425 286.953 131.305 288.074 130.928C293.428 128.689 299.114 127.355 304.901 126.981C306.028 126.605 306.214 124.726 304.905 124.914Z" fill="#030047"/>
<path d="M198.152 239.943C165.62 239.943 138.697 216.637 126.358 192.954C126.185 192.63 126.146 192.25 126.252 191.897C126.357 191.545 126.597 191.249 126.919 191.074C127.242 190.9 127.62 190.861 127.97 190.967C128.321 191.073 128.616 191.314 128.789 191.638C141.69 216.448 171.416 241.07 206.565 236.56C206.737 236.535 206.912 236.544 207.08 236.588C207.248 236.631 207.406 236.707 207.545 236.812C207.684 236.917 207.801 237.048 207.89 237.198C207.978 237.348 208.036 237.515 208.061 237.687C208.085 237.86 208.076 238.036 208.033 238.205C207.99 238.374 207.914 238.533 207.81 238.673C207.705 238.813 207.575 238.93 207.425 239.019C207.276 239.108 207.111 239.166 206.939 239.191C204.039 239.713 201.097 239.965 198.152 239.943Z" fill="white"/>
<path d="M546.651 47.4767V168.892H425.871V133.745C418.683 133.739 411.791 130.866 406.708 125.756C401.625 120.646 398.767 113.717 398.762 106.491C398.762 88.8234 410.915 79.2373 425.871 79.2373V47.4767H546.651Z" fill="white"/>
<path d="M547.956 170.212H424.374V135.065C417.055 134.708 410.15 131.548 405.074 126.235C399.998 120.922 397.137 113.857 397.078 106.491C397.078 89.7625 407.921 78.486 424.374 77.9175V46.1609H547.956V170.212ZM427.179 167.393H545.152V48.7925H427.179V80.557H425.683C409.981 80.557 399.882 90.7066 399.882 106.495C399.896 113.37 402.619 119.959 407.454 124.821C412.29 129.682 418.845 132.419 425.683 132.433H427.179V167.393Z" fill="#030047"/>
<path d="M487.567 77.1731H449.615C449.417 77.176 449.222 77.139 449.039 77.0644C448.856 76.9899 448.69 76.8792 448.551 76.739C448.411 76.5989 448.301 76.432 448.227 76.2483C448.153 76.0646 448.116 75.8678 448.119 75.6695C448.101 75.4679 448.127 75.2647 448.195 75.0743C448.264 74.8839 448.373 74.7109 448.515 74.5675C448.657 74.4242 448.829 74.3139 449.018 74.2445C449.207 74.1751 449.409 74.1483 449.61 74.1659H487.563C487.959 74.1659 488.339 74.3243 488.62 74.6063C488.9 74.8883 489.058 75.2707 489.058 75.6695C489.058 76.0683 488.9 76.4508 488.62 76.7327C488.339 77.0147 487.959 77.1731 487.563 77.1731H487.567Z" fill="#030047"/>
<path d="M487.567 90.33H449.615C449.417 90.3328 449.222 90.2959 449.039 90.2213C448.856 90.1467 448.69 90.0361 448.551 89.8959C448.411 89.7557 448.301 89.5888 448.227 89.4051C448.153 89.2214 448.116 89.0246 448.119 88.8264C448.101 88.6248 448.127 88.4216 448.195 88.2312C448.264 88.0408 448.373 87.8678 448.515 87.7244C448.657 87.581 448.829 87.4707 449.018 87.4013C449.207 87.3319 449.409 87.3051 449.61 87.3228H487.563C487.959 87.3228 488.339 87.4812 488.62 87.7632C488.9 88.0451 489.058 88.4276 489.058 88.8264C489.058 89.2252 488.9 89.6076 488.62 89.8896C488.339 90.1716 487.959 90.33 487.563 90.33H487.567Z" fill="#030047"/>
<path d="M546.647 100.103V168.707H489.812C484.8 161.135 482.133 152.239 482.147 143.144C482.147 112.695 502.9 96.5312 528.513 96.5312C534.73 96.5356 540.888 97.7484 546.647 100.103Z" fill="white"/>
<path d="M547.956 170.212H489.062L488.689 169.649C483.605 161.821 480.879 152.683 480.838 143.335C480.838 114.578 500.095 95.2185 528.7 95.2185C535.056 95.2309 541.347 96.5086 547.209 98.978L548.144 99.3537V170.213L547.956 170.212ZM490.558 167.393H545.148V101.04C539.91 98.9522 534.33 97.8679 528.696 97.8431C501.399 97.8431 483.639 115.699 483.639 143.14C483.626 151.718 486.025 160.125 490.558 167.393Z" fill="#030047"/>
<path d="M189.178 75.4817C183.009 61.7614 168.051 55.1825 155.899 60.8213C143.747 66.4601 138.698 82.0606 144.868 95.7809V95.9688C143.691 96.4559 142.613 97.1566 141.688 98.0358C135.518 103.299 136.827 111.005 142.81 113.636C148.045 115.892 155.331 115.516 159.823 110.066C165.698 112.346 172.183 112.479 178.146 110.441C196.096 104.051 195.347 89.202 189.178 75.4817Z" fill="white"/>
<path d="M148.98 116.268C146.595 116.26 144.238 115.748 142.062 114.764C140.548 114.098 139.224 113.061 138.211 111.748C137.199 110.434 136.53 108.887 136.266 107.246C135.706 103.487 137.388 99.7282 140.753 96.721C141.533 96.1135 142.344 95.5489 143.184 95.0295C137.388 80.7428 142.624 64.9574 155.336 59.3176C158.49 57.9076 161.908 57.1947 165.359 57.2271C168.81 57.2595 172.214 58.0365 175.341 59.5054C182.048 62.5819 187.425 67.9879 190.485 74.7303C194.972 84.6921 195.72 92.9625 193.103 99.5404C190.86 104.991 185.998 109.131 178.892 111.569C172.893 113.637 166.381 113.637 160.383 111.569C158.891 113.079 157.113 114.273 155.155 115.079C153.196 115.886 151.096 116.289 148.98 116.265V116.268ZM165.058 60.2567C162.088 60.2276 159.149 60.8698 156.458 62.136C144.867 67.3991 140.38 82.2474 146.175 95.2164L146.736 96.3443L145.614 97.0966C144.566 97.6371 143.565 98.2657 142.623 98.9759C140.005 101.232 138.696 104.051 139.258 106.869C139.42 108.033 139.886 109.133 140.608 110.058C141.331 110.982 142.284 111.698 143.371 112.132C147.858 114.199 154.589 114.011 158.889 108.935L159.45 108.182L160.386 108.558C165.937 110.84 172.133 110.974 177.777 108.934C184.137 106.678 188.433 103.107 190.49 98.4084C192.921 92.5818 192.173 85.0638 188.06 75.8533C185.413 69.6557 180.539 64.689 174.411 61.9442C171.411 60.8549 168.248 60.2844 165.058 60.2567Z" fill="#030047"/>
<path d="M171.716 85.4845C172.086 85.4733 172.444 85.3521 172.745 85.1363C173.046 84.9205 173.277 84.6197 173.408 84.272C173.539 83.9243 173.565 83.5454 173.482 83.183C173.399 82.8206 173.211 82.4912 172.942 82.2362C172.672 81.9813 172.334 81.8124 171.969 81.7508C171.604 81.6892 171.23 81.7378 170.892 81.8903C170.555 82.0428 170.27 82.2924 170.074 82.6077C169.878 82.9229 169.779 83.2895 169.79 83.6612C169.797 83.9081 169.853 84.151 169.954 84.3763C170.054 84.6015 170.198 84.8046 170.377 84.9739C170.556 85.1433 170.766 85.2755 170.996 85.3631C171.226 85.4507 171.47 85.492 171.716 85.4845Z" fill="#030047"/>
<path d="M187.307 85.2557C185.099 81.6873 182.391 78.4571 179.267 75.6645C178.332 74.9122 177.023 76.228 177.958 76.9803C180.964 79.6921 183.604 82.7883 185.809 86.1898C186.369 87.3227 187.868 86.1958 187.307 85.2557Z" fill="#030047"/>
<path d="M171.228 64.393C167.114 68.9039 146.736 79.0535 154.401 89.2031C156.27 91.8346 158.514 92.7738 156.458 95.4053C154.027 97.6612 151.787 94.8418 151.787 94.8418C148.047 95.782 143.936 97.0977 141.878 98.977C131.969 90.331 131.969 79.4301 136.456 75.8584C136.456 75.8584 162.63 38.0794 174.783 48.0412C185.437 57.0628 171.228 64.393 171.228 64.393Z" fill="#030047"/>
<path d="M154.59 101.799C152.638 100.9 150.446 100.671 148.352 101.146C146.258 101.622 144.377 102.776 142.999 104.431C142.251 105.371 143.559 106.687 144.307 105.747C145.359 104.334 146.869 103.335 148.576 102.923C150.283 102.511 152.08 102.712 153.655 103.491C154.777 104.051 155.712 102.36 154.59 101.799Z" fill="#030047"/>
</svg>
