<svg width="25" height="25" viewBox="0 0 25 25" fill="none" xmlns="http://www.w3.org/2000/svg">
<path d="M14.7578 3.75684V7.75312C14.7578 8.0181 14.8625 8.27221 15.0489 8.45958C15.2353 8.64694 15.488 8.7522 15.7516 8.7522H19.7268" stroke="#0054F9" stroke-width="2" stroke-linecap="round" stroke-linejoin="round"/>
<path d="M17.74 21.7402H7.80204C7.2749 21.7402 6.76935 21.5297 6.3966 21.1549C6.02386 20.7802 5.81445 20.272 5.81445 19.742V5.75498C5.81445 5.22504 6.02386 4.71681 6.3966 4.34208C6.76935 3.96735 7.2749 3.75684 7.80204 3.75684H14.7586L19.7275 8.75221V19.742C19.7275 20.272 19.5181 20.7802 19.1454 21.1549C18.7726 21.5297 18.2671 21.7402 17.74 21.7402Z" stroke="#0054F9" stroke-width="2" stroke-linecap="round" stroke-linejoin="round"/>
<path d="M12.7715 11.7493V17.7437" stroke="#0054F9" stroke-width="2" stroke-linecap="round" stroke-linejoin="round"/>
<path d="M9.78906 14.7466L12.7704 17.7438L15.7518 14.7466" stroke="#0054F9" stroke-width="2" stroke-linecap="round" stroke-linejoin="round"/>
</svg>
