<svg width="23" height="15" viewBox="0 0 23 15" fill="none" xmlns="http://www.w3.org/2000/svg">
<path d="M22.0297 7.607C22.0327 7.31076 21.949 7.02017 21.7892 6.77123C21.2997 5.96214 20.7158 5.21463 20.0501 4.54452C19.7632 4.25162 19.472 3.97603 19.1765 3.71774C19.1348 3.68379 19.096 3.64585 19.0543 3.6119C19.0126 3.57795 18.9658 3.54001 18.9231 3.50206C18.8595 3.44715 18.7919 3.39222 18.7243 3.3413L18.6607 3.29038C18.5803 3.22647 18.5007 3.16356 18.4202 3.10365C18.4202 3.10365 18.4123 3.09566 18.4073 3.09566C18.0255 2.80311 17.6273 2.53274 17.2148 2.28586C15.4259 1.20142 13.3751 0.631184 11.2858 0.637296H11.2351C9.12962 0.621175 7.06074 1.19071 5.25745 2.28287C4.84614 2.5317 4.44808 2.802 4.0649 3.09267C4.0649 3.09267 4.05695 3.10066 4.05198 3.10066C3.97148 3.16456 3.89198 3.22347 3.81148 3.28738L3.74788 3.3383L3.54912 3.49907C3.50738 3.53701 3.46067 3.57096 3.41794 3.6089C3.3752 3.64684 3.33744 3.6808 3.2957 3.71475C3.00021 3.9737 2.70903 4.24929 2.42216 4.54153C1.75638 5.21164 1.17254 5.95915 0.683016 6.76823C0.521572 7.0177 0.436884 7.30944 0.439537 7.607C0.436424 7.902 0.520089 8.19136 0.680035 8.43877C1.06935 9.05914 1.50841 9.64655 1.99284 10.1952C3.1539 11.5492 4.57927 12.6493 6.18068 13.4274C7.74248 14.1835 9.45377 14.5764 11.1874 14.5767H11.2719C13.0099 14.578 14.7257 14.1851 16.2915 13.4274C17.893 12.6493 19.3183 11.5492 20.4794 10.1952C20.9683 9.64963 21.412 9.06488 21.8061 8.44675C21.9532 8.19305 22.0303 7.90458 22.0297 7.61099V7.607ZM8.74765 3.35628C9.39495 2.74492 10.2446 2.39598 11.1328 2.37673C11.2929 2.3616 11.4526 2.40927 11.5786 2.50976C11.7045 2.61026 11.7869 2.7558 11.8085 2.91593C11.8117 2.99577 11.799 3.07543 11.7711 3.15025C11.7432 3.22507 11.7006 3.29353 11.646 3.35158C11.5914 3.40964 11.5257 3.45613 11.453 3.48832C11.3802 3.52051 11.3017 3.53774 11.2222 3.539C10.8777 3.5414 10.5373 3.61406 10.2216 3.75257C9.90595 3.89109 9.62155 4.09257 9.38567 4.34482C8.92137 4.86766 8.67263 5.54851 8.69001 6.249C8.6434 6.36832 8.5609 6.47005 8.45402 6.54003C8.34714 6.61001 8.2212 6.64476 8.09374 6.63942C7.96783 6.62548 7.84948 6.57207 7.75548 6.48676C7.66147 6.40145 7.59658 6.28857 7.57001 6.16413C7.55409 5.63859 7.65104 5.11576 7.85425 4.63124C8.05747 4.14672 8.36218 3.71186 8.74765 3.35628ZM20.3363 7.83965L20.2608 7.95448L20.1852 8.06032C20.1385 8.12822 20.0858 8.20011 20.0372 8.26801C20.0123 8.30596 19.9825 8.34391 19.9527 8.38285L19.8772 8.4827C19.0638 9.56014 18.0798 10.4959 16.9643 11.2526C15.2572 12.4033 13.2441 13.0096 11.1884 12.992C9.16471 12.9712 7.18944 12.3675 5.49695 11.2526C4.38151 10.4959 3.39745 9.56014 2.58414 8.4827L2.50862 8.38285C2.4788 8.3449 2.45396 8.30696 2.42812 8.26801C2.37744 8.20011 2.32874 8.13221 2.28004 8.06032L2.20451 7.95448L2.12899 7.83965L1.97694 7.61099V7.603L2.11607 7.38632C2.13694 7.35637 2.15383 7.32741 2.1747 7.30145C2.22538 7.22955 2.27408 7.15765 2.32278 7.08975C2.32278 7.08177 2.3357 7.07279 2.33967 7.0648C2.39433 6.98392 2.45396 6.90404 2.51259 6.82715C3.30834 5.75039 4.27535 4.81284 5.37472 4.05225C5.75786 3.79112 6.15607 3.55305 6.56727 3.3393C6.12904 4.0829 5.87955 4.92338 5.84081 5.78669C5.84292 5.80226 5.84292 5.81804 5.84081 5.83362C5.84081 5.85858 5.84081 5.88454 5.84081 5.9095V6.08724C5.84052 6.92249 6.03142 7.74661 6.39874 8.4959C6.76606 9.24519 7.29996 9.89957 7.95916 10.4084C8.61836 10.9173 9.38521 11.267 10.2004 11.4306C11.0156 11.5941 11.8573 11.5671 12.6605 11.3517C13.4636 11.1362 14.2067 10.738 14.8323 10.1879C15.4578 9.63785 15.9491 8.95059 16.2681 8.17928C16.5871 7.40798 16.7253 6.57329 16.6719 5.73976C16.6186 4.90623 16.3752 4.09618 15.9606 3.37225C16.3556 3.57594 16.7376 3.80405 17.1045 4.05525C18.1978 4.8176 19.1598 5.75423 19.9527 6.82815C20.0113 6.90404 20.067 6.98492 20.1256 7.0658C20.1256 7.07378 20.1385 7.08277 20.1425 7.09076C20.1932 7.16265 20.2419 7.23455 20.2906 7.30245C20.3114 7.3324 20.3283 7.36136 20.3492 7.38732L20.4883 7.604V7.61199L20.3373 7.83965H20.3363Z" fill="#6B69F9"/>
</svg>
