<svg width="21" height="21" viewBox="0 0 21 21" fill="none" xmlns="http://www.w3.org/2000/svg">
<path d="M18.9562 8.99095H17.6743V4.54207V3.85671V3.83373L14.5846 0.724609H2.98409V8.99095H1.79154C1.38027 8.99148 0.985997 9.15596 0.695185 9.44831C0.404373 9.74067 0.24076 10.137 0.240234 10.5505V18.0106C0.240234 18.1139 0.281071 18.213 0.353756 18.2861C0.426441 18.3592 0.525023 18.4002 0.627815 18.4002H2.98806V20.4593H17.6743V18.4012H20.121C20.2238 18.4012 20.3223 18.3602 20.395 18.2871C20.4677 18.214 20.5085 18.1149 20.5085 18.0116V10.5515C20.5083 10.1377 20.3447 9.74092 20.0536 9.44832C19.7625 9.15571 19.3679 8.99121 18.9562 8.99095ZM14.6273 2.39706L16.0494 3.85271H14.6273V2.39706ZM16.0494 18.7339H4.52148V15.9805H16.0494V18.7339ZM16.0494 11.0101H4.52148V2.40106H13.2767V5.19247H16.0454L16.0494 11.0101ZM18.9662 11.9822C18.8099 11.9808 18.6589 11.9251 18.5388 11.8245C18.4188 11.724 18.337 11.5847 18.3075 11.4304C18.2779 11.2761 18.3024 11.1163 18.3768 10.9781C18.4511 10.8399 18.5708 10.7319 18.7154 10.6723C18.86 10.6127 19.0207 10.6053 19.1701 10.6513C19.3196 10.6972 19.4486 10.7938 19.5352 10.9246C19.6219 11.0553 19.6609 11.2122 19.6456 11.3686C19.6302 11.5249 19.5615 11.6711 19.4512 11.7824C19.3874 11.8461 19.3117 11.8966 19.2285 11.9308C19.1453 11.9651 19.0561 11.9826 18.9662 11.9822Z" fill="#0057F9"/>
</svg>
