<svg width="509" height="540" viewBox="0 0 509 540" fill="none" xmlns="http://www.w3.org/2000/svg">
<path d="M96.4883 367.927C115.565 367.927 134.212 362.214 150.074 351.51C165.935 340.806 178.297 325.592 185.598 307.792C192.898 289.991 194.808 270.404 191.086 251.508C187.365 232.611 178.178 215.254 164.69 201.63C151.201 188.006 134.015 178.728 115.305 174.97C96.5953 171.211 77.2021 173.14 59.578 180.513C41.9539 187.886 26.8902 200.372 16.2921 216.392C5.69386 232.412 0.0371094 251.246 0.0371094 270.512C0.0369789 283.305 2.53166 295.973 7.37874 307.792C12.2258 319.611 19.3303 330.35 28.2867 339.395C37.243 348.441 47.8758 355.617 59.5779 360.512C71.2799 365.408 83.8221 367.927 96.4883 367.927Z" fill="#6F6EFF"/>
<path d="M340.334 24.2305C340.334 28.7567 339.006 33.1812 336.516 36.9446C334.026 40.708 330.487 43.6412 326.347 45.3733C322.207 47.1054 317.651 47.5585 313.256 46.6755C308.86 45.7925 304.823 43.613 301.654 40.4125C298.485 37.212 296.327 33.1343 295.453 28.6951C294.579 24.2559 295.027 19.6545 296.742 15.4729C298.457 11.2912 301.361 7.7171 305.088 5.20249C308.814 2.68788 313.195 1.34571 317.676 1.34571C330.182 1.34169 340.515 7.38409 340.334 24.2305Z" fill="#6F6EFF"/>
<path d="M360.64 185.001L320.936 211.186L364.809 232.244L360.64 185.001Z" fill="#6F6EFF"/>
<path d="M390.324 175.363L374.926 181.345L380.849 196.897L396.247 190.915L390.324 175.363Z" fill="#6F6EFF"/>
<path d="M200.734 483.653C202.728 494.273 206.354 501.781 210.524 507.457C210.886 508.006 211.249 508.372 211.612 508.921C212.518 510.02 213.425 510.936 214.331 511.851C214.768 512.329 215.255 512.759 215.782 513.133C220.17 516.898 225.128 519.928 230.467 522.105C241.889 527.05 242.432 539.684 242.432 539.684L152.871 539.135C153.959 524.121 153.959 495.739 153.959 495.739C172.633 490.245 181.698 486.765 200.734 483.653Z" fill="#030047"/>
<path d="M210.707 507.457C211.07 508.006 211.432 508.372 211.795 508.922C208.169 510.57 204.541 512.4 200.917 514.048C199.829 514.598 198.923 512.949 200.011 512.583C203.636 510.753 207.081 509.105 210.707 507.457Z" fill="white"/>
<path d="M214.513 511.852C214.95 512.33 215.436 512.759 215.963 513.133C211.975 515.148 207.805 516.979 203.816 518.993C202.727 519.542 201.821 517.894 202.909 517.529C206.717 515.514 210.706 513.686 214.513 511.852Z" fill="white"/>
<path d="M76.5449 475.412C68.205 482.187 63.3096 488.963 60.4098 495.371C60.2289 495.92 59.8661 496.469 59.6843 497.019C59.1801 498.272 58.7562 499.557 58.4152 500.865C58.2343 501.414 58.0525 502.146 57.8716 502.695C56.7014 508.414 56.3958 514.279 56.9653 520.091C57.8716 532.542 47.1755 538.952 47.1755 538.952L5.83984 458.75C18.3496 449.96 30.3148 441.721 39.9268 432.016C53.1422 445.58 65.3795 460.083 76.5449 475.412Z" fill="#030047"/>
<path d="M209.798 287.359C209.798 287.359 188.224 278.203 170.456 275.823C171.544 260.076 171.906 249.638 171.906 249.638L114.617 253.48C108.456 289.187 105.915 341.005 79.8077 386.601C68.0234 407.293 47.7183 423.773 26.5059 442.267C38.2902 458.563 57.1454 479.987 69.1106 496.284C72.5551 490.607 123.682 463.324 149.788 393.193C149.063 449.407 147.069 506.904 147.069 506.904L211.975 502.688C211.975 502.688 220.858 383.857 209.798 287.359Z" fill="white"/>
<path d="M145.619 508.19V506.724C145.619 506.175 147.431 453.805 148.338 400.521C126.945 452.524 92.1351 479.441 77.0832 491.157C73.8196 493.72 70.9217 495.917 70.3751 496.833L69.2869 498.663L68.0178 497.015C62.398 489.325 54.9644 480.354 47.8936 471.746C39.9165 461.858 31.5766 451.787 25.2352 442.997L24.5098 441.898L25.4161 440.983C27.5915 439.152 29.7669 437.137 31.9433 435.307C50.4357 419.193 67.8409 403.991 78.3532 385.684C99.3838 348.879 105.005 308.045 109.718 275.085C110.806 267.211 111.894 259.704 112.982 252.929L113.163 251.831L172.989 247.802V249.267C172.989 249.449 172.626 259.338 171.539 274.17C189.129 276.733 209.793 285.523 209.975 285.706L210.7 286.072L210.881 286.805C221.759 382.205 213.056 501.043 213.056 502.325V503.607L145.619 508.19ZM151.239 385.323L151.058 393.197C150.332 443.735 148.701 495.921 148.338 505.443L210.523 501.415C211.43 488.78 218.5 378.365 208.348 288.458C204.359 286.81 185.689 279.302 170.094 277.288L168.824 277.105L169.005 275.823C169.911 263.738 170.274 254.582 170.456 251.286L115.704 254.949C114.616 261.541 113.709 268.499 112.623 276.007C107.91 309.149 102.288 350.349 81.0772 387.52C70.3811 406.197 52.795 421.578 34.1207 437.875C32.3308 439.56 30.4549 441.149 28.5008 442.636C34.6623 451.059 42.6424 460.764 50.2568 470.103C56.9649 478.342 63.8539 486.764 69.4747 494.091C70.7438 492.992 72.7383 491.345 75.6362 489.147C91.2278 477.062 128.032 448.497 148.878 392.649L151.239 385.323Z" fill="#030047"/>
<path d="M60.409 495.188C60.2281 495.738 59.8654 496.288 59.6836 496.837C56.42 494.456 53.3382 491.892 50.0746 489.509C49.1683 488.777 50.0746 487.129 50.981 487.861C54.0637 490.428 57.1464 492.808 60.409 495.188Z" fill="white"/>
<path d="M58.416 500.683C58.2351 501.232 58.0533 501.965 57.8724 502.514C54.2461 499.766 50.6177 497.203 47.1762 494.457C46.2699 493.724 47.1762 492.076 48.0825 492.809C51.527 495.555 54.9705 498.118 58.416 500.683Z" fill="white"/>
<path d="M153.961 384.225C153.863 384.237 153.763 384.227 153.669 384.195C153.575 384.164 153.489 384.111 153.417 384.042C153.241 383.983 153.079 383.886 152.943 383.757C152.808 383.629 152.701 383.472 152.632 383.297C152.563 383.123 152.533 382.935 152.543 382.748C152.553 382.56 152.604 382.377 152.692 382.211C165.564 348.336 170.459 309.333 170.459 308.967L170.64 307.868H171.728C171.909 307.868 181.88 307.319 188.589 305.487C188.755 305.439 188.93 305.424 189.102 305.444C189.274 305.464 189.441 305.518 189.592 305.603C189.744 305.688 189.877 305.803 189.985 305.94C190.093 306.077 190.173 306.234 190.22 306.402C190.268 306.571 190.282 306.747 190.263 306.921C190.243 307.095 190.189 307.263 190.105 307.416C190.021 307.569 189.908 307.704 189.772 307.813C189.636 307.921 189.481 308.002 189.314 308.05C183.947 309.284 178.49 310.08 172.997 310.431C172.091 317.206 167.014 352.364 155.23 383.125C155.176 383.428 155.02 383.703 154.789 383.903C154.558 384.103 154.265 384.217 153.961 384.225Z" fill="#030047"/>
<path d="M403.064 212.833C375.276 212.818 348.63 201.663 328.981 181.817C309.333 161.972 298.288 135.06 298.274 106.995C298.271 106.802 298.307 106.61 298.378 106.431C298.45 106.252 298.557 106.09 298.692 105.953C298.827 105.817 298.988 105.709 299.165 105.636C299.343 105.564 299.532 105.528 299.723 105.53C299.918 105.513 300.115 105.538 300.299 105.605C300.483 105.673 300.65 105.78 300.788 105.92C300.926 106.059 301.033 106.228 301.099 106.414C301.166 106.6 301.191 106.798 301.173 106.995C301.183 124.76 305.736 142.222 314.39 157.688C323.044 173.154 335.507 186.101 350.57 195.273C365.634 204.446 382.788 209.533 400.37 210.043C417.952 210.553 435.367 206.468 450.926 198.184C451.081 198.098 451.252 198.044 451.427 198.024C451.603 198.005 451.781 198.021 451.95 198.072C452.12 198.123 452.278 198.207 452.415 198.319C452.552 198.432 452.666 198.57 452.75 198.728C452.833 198.885 452.886 199.057 452.903 199.235C452.921 199.413 452.903 199.592 452.851 199.763C452.8 199.933 452.715 200.092 452.603 200.23C452.49 200.367 452.352 200.481 452.195 200.564C437.017 208.54 420.174 212.746 403.064 212.833Z" fill="#030047"/>
<path d="M421.011 99.8543H385.114C384.922 99.857 384.733 99.821 384.556 99.7484C384.379 99.6757 384.218 99.5679 384.082 99.4314C383.947 99.2949 383.841 99.1324 383.769 98.9535C383.697 98.7746 383.661 98.5829 383.664 98.3899C383.646 98.1931 383.671 97.9948 383.738 97.809C383.805 97.6232 383.911 97.4545 384.049 97.3147C384.187 97.175 384.355 97.0677 384.538 97.0004C384.722 96.9332 384.919 96.9076 385.114 96.9255H421.011C421.396 96.9255 421.765 97.0798 422.037 97.3545C422.309 97.6292 422.462 98.0019 422.462 98.3904C422.462 98.7789 422.309 99.1515 422.037 99.4263C421.765 99.701 421.396 99.8553 421.011 99.8553V99.8543Z" fill="#030047"/>
<path d="M421.011 116.884H385.114C384.923 116.886 384.733 116.85 384.556 116.778C384.379 116.705 384.218 116.597 384.082 116.461C383.947 116.324 383.841 116.162 383.769 115.983C383.697 115.804 383.661 115.612 383.664 115.419C383.646 115.222 383.671 115.024 383.738 114.838C383.804 114.652 383.91 114.483 384.049 114.343C384.187 114.204 384.354 114.096 384.538 114.029C384.722 113.962 384.919 113.936 385.114 113.954H421.011C421.396 113.954 421.765 114.108 422.037 114.383C422.309 114.658 422.462 115.03 422.462 115.419C422.462 115.807 422.309 116.18 422.037 116.455C421.765 116.729 421.396 116.884 421.011 116.884Z" fill="#030047"/>
<path d="M411.403 172.916C411.235 172.92 411.069 172.89 410.913 172.827C410.757 172.764 410.615 172.67 410.497 172.55C410.378 172.43 410.285 172.287 410.222 172.13C410.16 171.972 410.13 171.804 410.134 171.634C410.091 171.464 410.086 171.286 410.12 171.114C410.154 170.941 410.226 170.779 410.33 170.638C410.435 170.498 410.569 170.383 410.724 170.302C410.878 170.221 411.048 170.176 411.222 170.17C415.043 169.686 418.807 168.827 422.463 167.607C422.63 167.558 422.804 167.544 422.976 167.564C423.149 167.584 423.315 167.638 423.467 167.723C423.618 167.808 423.752 167.922 423.859 168.059C423.967 168.196 424.047 168.354 424.095 168.522C424.142 168.69 424.157 168.866 424.137 169.04C424.117 169.214 424.064 169.382 423.98 169.536C423.896 169.689 423.782 169.823 423.647 169.932C423.511 170.041 423.355 170.122 423.189 170.17C419.364 171.491 415.415 172.411 411.404 172.916H411.403Z" fill="#030047"/>
<path d="M440.41 161.379C440.198 161.385 439.988 161.338 439.798 161.242C439.609 161.146 439.445 161.005 439.322 160.83C439.217 160.689 439.143 160.527 439.105 160.356C439.066 160.184 439.064 160.006 439.098 159.833C439.133 159.66 439.203 159.496 439.304 159.353C439.405 159.209 439.535 159.089 439.685 158.999C444.858 155.331 449.444 150.883 453.283 145.811C453.526 145.529 453.869 145.355 454.238 145.325C454.607 145.295 454.973 145.412 455.258 145.652C455.542 145.891 455.722 146.234 455.76 146.606C455.797 146.978 455.689 147.35 455.458 147.642C451.437 152.897 446.672 157.526 441.316 161.379H440.41Z" fill="#030047"/>
<path d="M460.353 138.308C460.255 138.32 460.155 138.31 460.061 138.279C459.967 138.247 459.881 138.195 459.81 138.125C459.646 138.05 459.501 137.941 459.383 137.804C459.266 137.668 459.178 137.508 459.126 137.334C459.075 137.161 459.061 136.978 459.085 136.799C459.109 136.62 459.171 136.448 459.266 136.294C466.633 121.898 468.315 105.215 463.974 89.6149C459.633 74.0144 449.592 60.6593 435.878 52.2471C435.722 52.1638 435.583 52.05 435.471 51.9124C435.358 51.7748 435.274 51.6161 435.222 51.4453C435.171 51.2745 435.153 51.0952 435.171 50.9175C435.188 50.7399 435.24 50.5675 435.324 50.4103C435.408 50.2531 435.522 50.1143 435.659 50.0017C435.796 49.8892 435.954 49.8052 436.123 49.7546C436.293 49.704 436.471 49.6879 436.646 49.707C436.822 49.7262 436.992 49.7803 437.147 49.8662C446.867 55.7691 454.902 64.1212 460.464 74.1042C466.026 84.0871 468.924 95.3583 468.875 106.813C468.868 117.52 466.319 128.069 461.441 137.575C461.441 137.937 460.897 138.308 460.353 138.308Z" fill="#030047"/>
<path d="M360.457 59.2039C360.249 59.1902 360.045 59.1346 359.859 59.0403C359.672 58.946 359.505 58.815 359.369 58.6548C359.134 58.3614 359.021 57.9867 359.055 57.6105C359.088 57.2343 359.266 56.8863 359.55 56.6404C371.585 45.9823 387.055 40.1229 403.061 40.1603C407.505 40.1241 411.941 40.5536 416.297 41.4421C416.488 41.4641 416.673 41.5259 416.839 41.6238C417.005 41.7216 417.15 41.8532 417.263 42.0103C417.377 42.1675 417.457 42.3467 417.498 42.5366C417.539 42.7265 417.541 42.923 417.503 43.1137C417.466 43.3044 417.389 43.4851 417.279 43.6444C417.168 43.8037 417.026 43.9381 416.862 44.0391C416.697 44.1401 416.514 44.2055 416.323 44.2312C416.132 44.2568 415.938 44.2422 415.753 44.1882C411.579 43.309 407.325 42.8793 403.062 42.9065C387.743 42.9386 372.945 48.5282 361.364 58.6569C361.279 58.8248 361.149 58.9652 360.989 59.062C360.828 59.1587 360.644 59.2079 360.457 59.2039Z" fill="#030047"/>
<path d="M486.28 108.278C486.089 108.28 485.899 108.245 485.721 108.172C485.544 108.099 485.383 107.992 485.248 107.855C485.113 107.719 485.006 107.556 484.934 107.377C484.862 107.198 484.826 107.006 484.829 106.813C484.829 104.067 484.648 101.137 484.466 98.39C482.482 78.0088 473.037 59.1095 457.98 45.3926C442.924 31.6757 423.34 24.129 403.063 24.2303C402.872 24.233 402.682 24.197 402.505 24.1244C402.328 24.0517 402.167 23.9439 402.032 23.8074C401.897 23.6709 401.79 23.5084 401.718 23.3295C401.646 23.1506 401.61 22.959 401.613 22.7659C401.595 22.569 401.62 22.3706 401.687 22.1847C401.753 21.9988 401.86 21.8299 401.998 21.6901C402.136 21.5502 402.303 21.4429 402.488 21.3755C402.672 21.3082 402.868 21.2826 403.063 21.3005C423.972 21.2337 444.156 29.0374 459.676 43.1891C475.196 57.3407 484.939 76.8249 487.004 97.8399C487.306 100.759 487.427 103.695 487.367 106.629C487.425 106.811 487.442 107.003 487.417 107.192C487.391 107.381 487.323 107.561 487.219 107.72C487.114 107.878 486.975 108.011 486.813 108.107C486.65 108.204 486.468 108.262 486.28 108.278Z" fill="#030047"/>
<path d="M364.99 33.7515C364.732 33.763 364.475 33.7003 364.251 33.5706C364.026 33.4409 363.842 33.2496 363.721 33.0188C363.571 32.6999 363.543 32.3359 363.643 31.9975C363.744 31.6592 363.965 31.3706 364.265 31.188C371.761 27.3315 379.756 24.5579 388.016 22.9485C388.363 22.9086 388.712 23.0017 388.993 23.2092C389.275 23.4168 389.47 23.7237 389.538 24.0692C389.606 24.4146 389.544 24.7734 389.363 25.0745C389.181 25.3755 388.895 25.5969 388.56 25.6946C380.556 27.2093 372.804 29.8603 365.535 33.5688C365.353 33.5688 365.172 33.7515 364.99 33.7515Z" fill="#030047"/>
<path d="M382.758 189.578H382.395C360.804 183.969 342.252 170.031 330.725 150.758C330.56 150.443 330.526 150.074 330.628 149.733C330.731 149.392 330.964 149.106 331.274 148.937C331.585 148.768 331.95 148.73 332.288 148.831C332.627 148.932 332.912 149.164 333.082 149.476C344.24 168.135 362.211 181.617 383.12 187.015C383.289 187.061 383.446 187.14 383.584 187.248C383.721 187.356 383.836 187.491 383.92 187.645C384.005 187.799 384.058 187.968 384.076 188.143C384.094 188.318 384.078 188.495 384.027 188.664C383.933 188.929 383.761 189.158 383.534 189.322C383.307 189.485 383.036 189.575 382.758 189.578Z" fill="#030047"/>
<path d="M403.063 192.141C402.872 192.144 402.682 192.108 402.505 192.035C402.328 191.963 402.167 191.855 402.032 191.719C401.896 191.582 401.79 191.42 401.718 191.241C401.646 191.062 401.61 190.87 401.613 190.677C401.595 190.48 401.621 190.282 401.687 190.096C401.754 189.91 401.86 189.742 401.998 189.602C402.137 189.462 402.304 189.355 402.488 189.288C402.672 189.22 402.868 189.195 403.063 189.213C421.781 189.157 439.929 182.703 454.552 170.902C454.842 170.669 455.21 170.559 455.578 170.597C455.947 170.635 456.286 170.817 456.523 171.105C456.76 171.392 456.876 171.761 456.846 172.134C456.817 172.507 456.644 172.853 456.365 173.099C441.269 185.403 422.461 192.123 403.063 192.141Z" fill="#030047"/>
<path d="M499.695 145.998C499.597 146.011 499.497 146.001 499.403 145.969C499.309 145.938 499.223 145.885 499.152 145.816C498.975 145.757 498.813 145.66 498.678 145.531C498.542 145.403 498.436 145.245 498.367 145.071C498.298 144.897 498.267 144.709 498.278 144.521C498.288 144.334 498.339 144.151 498.426 143.985C505.636 125.198 507.229 104.687 503.007 84.9953C498.785 65.3031 488.934 47.2952 474.675 33.2036C474.41 32.9365 474.262 32.5742 474.262 32.1964C474.262 31.8186 474.41 31.4563 474.675 31.1892C474.939 30.9221 475.298 30.772 475.672 30.772C476.046 30.772 476.405 30.9221 476.669 31.1892C491.278 45.7102 501.361 64.23 505.678 84.4671C509.995 104.704 508.357 125.775 500.965 145.083C500.871 145.348 500.699 145.578 500.472 145.742C500.245 145.906 499.974 145.995 499.695 145.998Z" fill="#030047"/>
<path d="M458.179 19.8358C457.924 19.8629 457.667 19.7982 457.454 19.6531C452.388 16.5462 447.118 13.7932 441.68 11.4136C441.344 11.2679 441.078 10.9931 440.942 10.6496C440.806 10.3062 440.811 9.92229 440.955 9.58235C441.1 9.24241 441.372 8.97429 441.712 8.83697C442.052 8.69966 442.432 8.7044 442.769 8.85014C448.379 11.1793 453.778 13.9976 458.904 17.2733C459.07 17.3472 459.216 17.4603 459.329 17.603C459.442 17.7458 459.52 17.9141 459.556 18.0936C459.591 18.2731 459.584 18.4586 459.533 18.6345C459.483 18.8104 459.392 18.9715 459.267 19.1041C459.172 19.3173 459.02 19.4992 458.828 19.6287C458.635 19.7581 458.411 19.83 458.179 19.8358Z" fill="#030047"/>
<path d="M312.05 58.4722C311.796 58.4804 311.545 58.4171 311.325 58.2895C311.165 58.2102 311.024 58.0987 310.909 57.9618C310.795 57.8248 310.709 57.6655 310.658 57.4937C310.607 57.3219 310.592 57.1413 310.613 56.9632C310.634 56.7852 310.691 56.6134 310.781 56.4587C323.365 33.0479 344.202 15.2702 369.159 6.65321C380.085 2.93225 391.533 1.01562 403.062 0.977192C403.254 0.97449 403.443 1.01054 403.62 1.08318C403.798 1.15581 403.958 1.26356 404.094 1.40008C404.229 1.53661 404.336 1.69913 404.407 1.87802C404.479 2.05691 404.515 2.24857 404.512 2.44163C404.53 2.63842 404.505 2.83673 404.438 3.02252C404.371 3.20831 404.265 3.37703 404.127 3.51675C403.989 3.65647 403.821 3.76378 403.638 3.83105C403.454 3.89833 403.257 3.92392 403.062 3.90604C384.666 3.87443 366.606 8.88103 350.804 18.393C335.002 27.9049 322.049 41.5663 313.323 57.9231C312.974 58.2481 312.524 58.442 312.05 58.4722Z" fill="#030047"/>
<path d="M338.884 113.954C338.716 113.958 338.549 113.927 338.393 113.865C338.238 113.802 338.096 113.707 337.977 113.587C337.859 113.468 337.765 113.325 337.703 113.167C337.641 113.01 337.611 112.841 337.615 112.672C337.434 110.657 337.252 108.456 337.252 106.449C337.237 95.6809 339.787 85.0672 344.685 75.5033C344.855 75.1907 345.141 74.9587 345.479 74.8577C345.818 74.7566 346.182 74.7948 346.493 74.9638C346.804 75.1328 347.036 75.4191 347.139 75.7602C347.242 76.1013 347.207 76.4696 347.043 76.785C342.368 85.9586 339.943 96.1317 339.972 106.449C339.972 108.463 340.153 110.477 340.335 112.491C340.148 113.222 339.609 113.954 338.884 113.954Z" fill="#030047"/>
<path d="M329.457 112.673L330.726 111.208C331.995 109.744 331.269 108.278 329.819 106.993C324.743 101.683 319.667 100.035 313.502 102.048C309.329 95.8253 295.554 108.641 287.033 118.71C283.76 122.477 280.247 126.025 276.518 129.33C280.691 139.769 284.132 150.571 288.121 161.009C288.676 162.64 289.342 164.231 290.116 165.769C292.86 161.718 295.952 157.919 299.358 154.416C301.579 152.107 303.582 149.594 305.34 146.908C310.417 143.246 316.944 135.189 316.944 135.189C318.576 136.837 321.295 135.738 327.279 130.795C333.264 125.851 330.543 121.274 330.543 121.274C333.808 116.697 329.457 112.673 329.457 112.673Z" fill="white"/>
<path d="M289.751 168.52L288.845 166.323C288.119 164.675 287.575 163.027 286.85 161.563C284.855 156.436 283.043 151.124 281.23 146.182C279.417 140.871 277.423 135.379 275.248 130.068L274.885 129.153L275.61 128.604C279.384 125.345 282.901 121.793 286.129 117.982C289.936 113.404 303.171 98.9388 310.785 99.3052C311.399 99.3137 312.005 99.4479 312.566 99.6996C313.127 99.9513 313.631 100.315 314.049 100.77C320.21 99.1215 325.652 100.77 330.91 106.263C331.816 107.178 334.354 109.742 331.816 112.486L331.272 113.035C332.722 115.049 334.173 118.345 331.816 121.825C332.722 124.022 332.541 128.233 328.009 132.263C323.295 136.292 319.669 138.672 317.131 137.39C313.871 141.349 310.227 144.968 306.253 148.193C304.529 150.904 302.523 153.421 300.27 155.701C296.969 159.183 293.938 162.918 291.205 166.87L289.751 168.52ZM277.967 129.701C279.961 134.828 281.774 139.955 283.586 145.082C285.399 150.209 287.213 155.336 289.206 160.463C289.569 161.378 289.932 162.111 290.294 163.026C292.696 159.641 295.363 156.457 298.272 153.505C300.465 151.284 302.411 148.827 304.073 146.178L304.254 145.995L304.435 145.812C309.33 142.334 315.676 134.459 315.857 134.459L316.763 133.36L317.85 134.459C318.394 135.008 320.026 135.375 326.371 129.881C331.266 125.666 329.272 122.374 329.272 122.191L328.728 121.276L329.272 120.543C331.991 117.247 328.728 113.95 328.546 113.768L327.64 112.852L329.815 110.472C330.178 110.105 330.541 109.739 328.909 108.091C324.014 103.146 319.482 101.682 314.043 103.513L313.137 103.879L312.593 102.964C312.394 102.653 312.127 102.393 311.813 102.202C311.499 102.012 311.146 101.896 310.78 101.865C306.067 101.682 296.095 110.654 288.299 119.63C285.4 122.56 281.955 126.039 277.967 129.702V129.701Z" fill="#030047"/>
<path d="M292.112 113.954C292.072 113.042 292.327 112.143 292.838 111.39H282.319C282.128 111.388 281.938 111.424 281.761 111.496C281.584 111.569 281.423 111.677 281.287 111.813C281.152 111.95 281.046 112.112 280.974 112.291C280.902 112.47 280.866 112.662 280.869 112.855C280.851 113.052 280.876 113.25 280.943 113.436C281.01 113.621 281.116 113.79 281.254 113.93C281.393 114.07 281.56 114.177 281.744 114.244C281.927 114.311 282.124 114.337 282.319 114.319L292.112 113.954Z" fill="#030047"/>
<path d="M338.704 111.207H309.333C309.226 112.28 308.705 113.266 307.883 113.953H338.522C338.713 113.956 338.903 113.92 339.08 113.847C339.257 113.775 339.418 113.667 339.553 113.531C339.689 113.394 339.795 113.232 339.867 113.053C339.939 112.874 339.975 112.682 339.972 112.489C339.992 112.316 339.973 112.141 339.916 111.976C339.859 111.811 339.767 111.662 339.645 111.539C339.523 111.415 339.375 111.322 339.212 111.264C339.049 111.207 338.875 111.187 338.704 111.207Z" fill="#030047"/>
<path d="M280.504 125.307C270.533 135.012 255.122 152.956 240.438 158.816C222.126 166.143 189.854 126.222 167.012 128.604L172.813 168.705C172.813 168.705 192.031 208.807 227.565 216.683C263.099 224.559 299.359 161.75 299.54 161.567C295.009 150.942 288.844 132.631 280.504 125.307Z" fill="#030047"/>
<path d="M233.912 218.874C231.715 218.902 229.523 218.656 227.385 218.141C191.669 210.084 171.908 169.8 171.726 169.434L171.545 169.068L165.562 127.502L167.012 127.319C178.616 126.22 192.213 135.193 205.266 143.799C218.683 152.771 231.373 161.012 240.076 157.532C251.679 152.954 263.645 140.503 273.434 130.614C275.61 128.233 277.785 126.22 279.78 124.205L280.686 123.29L281.592 124.023C288.481 130.065 293.739 143.066 298.089 153.504C299.177 156.067 300.084 158.448 300.99 160.645L301.353 161.561L300.627 162.293C294.466 172.548 264.915 218.874 233.912 218.874ZM174.265 168.336C175.715 171.266 194.752 207.887 227.93 215.395C259.113 222.353 291.566 172.181 298.091 161.378C297.185 159.364 296.279 157.167 295.372 154.786C291.383 145.081 286.67 132.996 280.506 127.136L275.248 132.447C265.458 142.518 253.129 155.153 240.982 159.914C230.83 163.942 217.594 155.153 203.635 145.814C191.668 137.94 179.34 129.701 169.007 129.701H168.644L174.265 168.336Z" fill="#030047"/>
<path d="M312.414 104.432C310.819 108.725 308.13 112.515 304.617 115.419C304.531 115.502 304.463 115.601 304.416 115.711C304.37 115.821 304.345 115.94 304.345 116.06C304.345 116.18 304.37 116.298 304.416 116.408C304.463 116.519 304.531 116.618 304.617 116.701C308.605 121.095 308.244 127.139 303.892 131.166C302.986 131.899 304.255 133.181 305.161 132.448C308.968 128.969 310.6 123.658 308.425 118.715C307.851 117.981 307.364 117.182 306.975 116.334C307.155 115.235 309.332 113.587 310.055 112.672C311.901 110.32 313.315 107.653 314.229 104.798C314.591 103.7 312.959 103.333 312.414 104.432Z" fill="#030047"/>
<path d="M316.583 115.79C315.563 116.154 314.665 116.799 313.988 117.65C313.311 118.502 312.882 119.528 312.75 120.612C312.619 121.696 312.789 122.796 313.241 123.788C313.694 124.78 314.412 125.625 315.314 126.228C316.22 126.961 317.127 125.313 316.22 124.58C315.61 124.18 315.125 123.614 314.821 122.947C314.516 122.281 314.405 121.54 314.5 120.812C314.595 120.084 314.892 119.398 315.357 118.834C315.821 118.269 316.435 117.849 317.127 117.622C318.034 117.067 317.671 115.419 316.583 115.79Z" fill="#030047"/>
<path d="M325.106 119.813C321.662 121.828 312.597 127.504 316.041 132.631C316.766 133.546 318.216 132.631 317.673 131.716C315.316 128.053 323.655 122.926 326.194 121.462C326.381 121.304 326.504 121.083 326.539 120.839C326.575 120.596 326.519 120.348 326.384 120.143C326.249 119.939 326.044 119.792 325.808 119.731C325.572 119.67 325.322 119.699 325.106 119.813Z" fill="#030047"/>
<path d="M151.241 124.758L148.16 132.632L182.426 136.66L184.058 120.546L151.241 124.758Z" fill="#030047"/>
<path d="M178.073 133.73C158.855 118.715 119.332 144.717 112.987 166.873C106.642 189.029 99.0273 296.515 99.0273 296.515L215.599 294.867C215.599 294.867 206.172 178.775 192.578 159.182C179.162 139.407 184.601 138.673 178.073 133.73Z" fill="#030047"/>
<path d="M203.635 196.17C203.324 196.19 203.017 196.086 202.78 195.881C202.543 195.676 202.394 195.385 202.366 195.071C202.366 194.888 200.009 184.084 195.111 167.238C195.064 167.07 195.049 166.894 195.069 166.72C195.089 166.546 195.142 166.377 195.227 166.224C195.311 166.071 195.424 165.937 195.56 165.828C195.695 165.719 195.851 165.638 196.018 165.59C196.184 165.542 196.359 165.527 196.531 165.547C196.703 165.567 196.87 165.621 197.021 165.706C197.173 165.791 197.306 165.906 197.414 166.043C197.522 166.18 197.602 166.337 197.65 166.505C202.726 183.534 204.904 194.338 204.904 194.521C204.97 194.885 204.893 195.26 204.69 195.567C204.487 195.875 204.174 196.091 203.816 196.169L203.635 196.17Z" fill="white"/>
<path d="M222.128 229.495H212.701C209.913 229.493 207.239 228.374 205.268 226.382C203.296 224.391 202.188 221.691 202.186 218.875V207.339C202.188 204.523 203.296 201.823 205.268 199.832C207.239 197.841 209.913 196.721 212.701 196.719H222.128C222.319 196.716 222.509 196.752 222.686 196.825C222.863 196.897 223.024 197.005 223.159 197.142C223.294 197.278 223.401 197.441 223.473 197.62C223.545 197.799 223.581 197.99 223.578 198.183C223.596 198.38 223.57 198.578 223.504 198.764C223.437 198.95 223.331 199.119 223.192 199.258C223.054 199.398 222.887 199.505 222.703 199.573C222.519 199.64 222.323 199.666 222.128 199.648H212.701C210.638 199.662 208.663 200.496 207.204 201.97C205.745 203.444 204.919 205.438 204.905 207.522V219.058C204.919 221.142 205.745 223.136 207.204 224.61C208.663 226.083 210.638 226.917 212.701 226.932H222.128C222.319 226.929 222.509 226.965 222.686 227.038C222.863 227.11 223.024 227.218 223.159 227.355C223.294 227.491 223.401 227.654 223.473 227.833C223.545 228.012 223.581 228.203 223.578 228.396C223.579 229.313 222.853 229.495 222.128 229.495Z" fill="white"/>
<path d="M231.192 233.342C227.255 233.324 223.484 231.736 220.7 228.925C217.916 226.113 216.344 222.304 216.326 218.328V194.889H246.054V218.326C246.061 220.3 245.681 222.255 244.937 224.079C244.192 225.904 243.098 227.562 241.716 228.957C240.335 230.353 238.694 231.459 236.888 232.211C235.082 232.964 233.146 233.348 231.192 233.342Z" fill="white"/>
<path d="M231.192 234.623C226.915 234.614 222.817 232.894 219.793 229.84C216.769 226.786 215.066 222.646 215.057 218.327V193.424H247.509V218.327C247.499 220.48 247.069 222.609 246.243 224.594C245.417 226.579 244.212 228.379 242.697 229.893C241.181 231.407 239.385 232.604 237.411 233.415C235.437 234.227 233.323 234.638 231.192 234.623ZM217.776 196.17V218.326C217.776 221.92 219.189 225.366 221.705 227.908C224.221 230.449 227.634 231.876 231.192 231.876C234.75 231.876 238.162 230.449 240.678 227.908C243.195 225.366 244.608 221.92 244.608 218.326V196.17H217.776Z" fill="#030047"/>
<path d="M233.913 186.283C233.602 186.299 233.297 186.194 233.061 185.989C232.825 185.785 232.675 185.496 232.644 185.184L230.104 167.056C230.051 166.87 230.038 166.674 230.064 166.482C230.09 166.29 230.155 166.105 230.255 165.94C230.355 165.774 230.488 165.631 230.645 165.52C230.803 165.409 230.981 165.332 231.169 165.294C231.358 165.256 231.552 165.258 231.739 165.3C231.927 165.341 232.104 165.421 232.259 165.535C232.415 165.649 232.545 165.794 232.642 165.962C232.739 166.129 232.801 166.315 232.824 166.507L235.362 184.636C235.427 184.999 235.351 185.374 235.148 185.682C234.945 185.989 234.631 186.205 234.274 186.284L233.913 186.283Z" fill="white"/>
<path d="M224.847 187.564C224.588 187.576 224.332 187.513 224.107 187.384C223.882 187.254 223.699 187.063 223.578 186.832L219.404 178.958C219.319 178.801 219.265 178.629 219.246 178.452C219.227 178.274 219.243 178.095 219.293 177.923C219.343 177.752 219.426 177.593 219.538 177.454C219.649 177.316 219.787 177.201 219.942 177.116C220.098 177.032 220.269 176.979 220.445 176.961C220.62 176.944 220.798 176.961 220.967 177.013C221.136 177.065 221.293 177.151 221.43 177.264C221.566 177.378 221.678 177.518 221.761 177.676L225.935 185.55C226.03 185.703 226.092 185.875 226.116 186.055C226.14 186.234 226.126 186.417 226.074 186.59C226.023 186.763 225.935 186.924 225.817 187.06C225.7 187.196 225.554 187.306 225.391 187.381C225.239 187.508 225.044 187.574 224.847 187.564Z" fill="white"/>
<path d="M188.77 90.6985C182.787 77.331 168.283 70.9253 156.499 76.4156C144.714 81.9059 139.819 97.1072 145.802 110.474V110.656C144.662 111.132 143.618 111.814 142.722 112.671C136.739 117.798 138.008 125.306 143.81 127.869C148.886 130.066 155.957 129.7 160.307 124.39C166.003 126.612 172.292 126.742 178.074 124.757C195.478 118.532 194.752 104.061 188.77 90.6985Z" fill="white"/>
<path d="M149.972 130.434C147.659 130.426 145.373 129.927 143.264 128.969C141.795 128.32 140.511 127.309 139.529 126.029C138.548 124.749 137.899 123.241 137.644 121.642C137.1 117.98 138.732 114.315 141.995 111.388C142.751 110.796 143.537 110.246 144.352 109.74C141.651 103.429 141.265 96.3531 143.264 89.7812C144.234 86.5499 145.865 83.5603 148.051 81.0054C150.237 78.4506 152.93 76.3874 155.955 74.9492C159.013 73.5757 162.327 72.8811 165.674 72.9126C169.02 72.9442 172.321 73.701 175.353 75.1319C181.857 78.129 187.071 83.3955 190.039 89.9638C194.389 99.6688 195.115 107.73 192.577 114.134C190.401 119.444 185.688 123.469 178.798 125.854C172.981 127.869 166.666 127.869 160.849 125.854C159.428 127.309 157.734 128.463 155.867 129.249C153.999 130.036 151.995 130.438 149.972 130.434ZM165.383 75.8656C162.502 75.8372 159.652 76.4628 157.043 77.6964C154.326 78.9269 151.911 80.7458 149.969 83.0242C148.026 85.3025 146.604 87.9846 145.802 90.8802C143.961 97.1775 144.411 103.932 147.071 109.924L147.615 111.023L146.526 111.756C145.51 112.282 144.54 112.894 143.626 113.586C141.087 115.783 139.818 118.531 140.362 121.277C140.519 122.411 140.971 123.483 141.671 124.383C142.372 125.284 143.296 125.981 144.35 126.404C148.701 128.418 155.228 128.235 159.398 123.292L159.942 122.56L160.848 122.926C166.23 125.149 172.237 125.279 177.709 123.292C183.87 121.095 188.044 117.616 190.037 113.038C192.394 107.362 191.668 100.037 187.679 91.0649C185.112 85.0273 180.387 80.1889 174.444 77.5147C171.537 76.4528 168.474 75.8952 165.383 75.8656Z" fill="#030047"/>
<path d="M171.798 100.443C172.156 100.433 172.503 100.315 172.795 100.105C173.087 99.8952 173.311 99.6025 173.439 99.2641C173.566 98.9256 173.591 98.5566 173.511 98.2037C173.431 97.8509 173.249 97.5299 172.988 97.2815C172.727 97.0331 172.399 96.8684 172.046 96.8082C171.692 96.748 171.329 96.795 171.002 96.9433C170.675 97.0916 170.399 97.3345 170.208 97.6413C170.018 97.9481 169.922 98.305 169.932 98.6669C169.939 98.9073 169.993 99.144 170.09 99.3634C170.188 99.5829 170.327 99.7808 170.5 99.9458C170.674 100.111 170.877 100.24 171.1 100.325C171.323 100.41 171.56 100.451 171.798 100.443Z" fill="#030047"/>
<path d="M186.955 100.22C184.813 96.7468 182.188 93.6031 179.159 90.8853C178.253 90.1526 176.984 91.4344 177.89 92.1671C180.805 94.809 183.365 97.8254 185.504 101.139C186.049 102.053 187.503 101.136 186.955 100.22Z" fill="#030047"/>
<path d="M171.364 79.8954C167.376 84.2896 147.612 94.1783 155.047 104.066C156.86 106.629 159.035 107.545 157.041 110.108C154.684 112.305 152.509 109.559 152.509 109.559C148.882 110.475 144.894 111.756 142.9 113.587C133.291 105.164 133.291 94.5436 137.643 91.0647C137.643 91.0647 163.024 54.2594 174.81 63.9643C185.143 72.7539 171.364 79.8954 171.364 79.8954Z" fill="#030047"/>
<path d="M155.414 116.334C153.522 115.458 151.396 115.235 149.365 115.698C147.334 116.161 145.51 117.285 144.174 118.898C143.448 119.813 144.717 121.095 145.443 120.18C146.463 118.803 147.928 117.83 149.583 117.429C151.238 117.028 152.98 117.224 154.508 117.982C155.591 118.531 156.316 116.883 155.414 116.334Z" fill="#030047"/>
<path d="M213.244 216.129C213.244 216.129 217.777 205.325 212.338 204.593C196.746 202.763 179.344 219.974 163.568 226.75C163.568 236.084 164.294 245.427 164.657 254.765C164.837 260.442 165.019 265.935 165.019 271.612C178.255 267.584 189.132 260.625 192.939 254.399C196.202 248.723 202.181 248.357 204.905 245.064C210.344 247.445 218.14 233.162 211.976 228.035C212.157 228.031 219.227 222.538 213.244 216.129Z" fill="white"/>
<path d="M163.931 273.442V269.597C163.931 264.836 163.75 259.709 163.568 254.765C163.387 251.654 163.205 248.542 163.024 245.609C162.662 239.386 162.299 233.158 162.299 226.749V225.834L163.205 225.468C168.865 222.768 174.319 219.647 179.522 216.133C190.581 209.175 201.822 201.85 212.7 203.132C213.34 203.179 213.958 203.388 214.496 203.74C215.035 204.092 215.477 204.576 215.781 205.146C217.412 208.076 215.781 213.57 214.874 215.767C215.632 216.603 216.215 217.586 216.589 218.655C216.963 219.724 217.119 220.858 217.05 221.99C216.767 224.271 215.748 226.395 214.149 228.032C217.05 231.511 215.961 237.188 213.423 241.216C211.248 245.061 208.165 246.892 205.446 246.526C204.136 247.651 202.67 248.576 201.095 249.273C198.557 250.555 196.019 252.019 194.206 254.949C190.218 261.724 178.978 268.682 165.561 272.893L163.931 273.442ZM165.019 227.665C165.019 233.525 165.382 239.567 165.744 245.431L166.288 254.765C166.469 259.709 166.651 264.653 166.651 269.597V269.78C178.435 265.935 188.588 259.526 192.032 253.666C194.207 250.004 197.289 248.355 200.009 246.891C201.641 245.976 203.273 245.243 204.183 244.144L204.909 243.411L205.815 243.777C207.265 244.326 209.622 242.862 211.254 239.932C213.429 236.27 214.155 231.326 211.435 229.128L210.166 228.029L211.435 226.93C211.435 226.93 214.154 224.733 214.336 221.803C214.384 220.909 214.23 220.015 213.884 219.19C213.539 218.364 213.011 217.63 212.341 217.042L211.797 216.31L212.16 215.577C213.248 212.831 214.517 208.436 213.429 206.605C213.248 206.238 213.067 206.056 212.341 205.872C202.551 204.773 191.67 211.732 180.976 218.323C175.901 221.844 170.566 224.967 165.019 227.665Z" fill="#030047"/>
<path d="M173.541 241.032C171.909 235.356 170.64 229.679 169.367 224.003C161.57 228.398 153.956 231.145 147.067 228.764C128.031 222.172 120.96 187.015 142.893 169.619C164.826 152.223 166.825 128.602 166.825 128.602C132.197 130.067 98.8375 151.124 83.4268 193.606C66.0226 241.947 88.684 266.484 106.633 275.09C127.304 284.795 165.192 273.808 180.968 264.651C178.436 256.963 175.898 249.089 173.541 241.032Z" fill="#030047"/>
<path d="M212.338 214.482C205.63 210.819 199.102 214.848 193.664 218.876C192.758 219.609 193.664 221.073 194.571 220.524C199.466 216.862 205.449 212.834 211.431 216.13C212.52 216.495 213.426 215.031 212.338 214.482Z" fill="#030047"/>
<path d="M210.525 226.018C208.04 225.265 205.387 225.301 202.923 226.12C200.459 226.938 198.303 228.501 196.746 230.595C196.021 231.511 197.29 232.793 198.015 231.877C199.345 230.03 201.214 228.649 203.359 227.927C205.505 227.205 207.82 227.177 209.981 227.849C210.219 227.914 210.473 227.882 210.688 227.761C210.903 227.64 211.063 227.439 211.134 227.2C211.205 226.962 211.181 226.705 211.067 226.484C210.953 226.263 210.759 226.096 210.525 226.018Z" fill="#030047"/>
<path d="M205.992 239.205C205.266 240.304 204.542 241.402 203.817 242.317C203.091 243.231 204.723 244.148 205.448 243.232C206.174 242.134 206.898 241.035 207.624 240.121C208.167 239.018 206.536 238.101 205.992 239.205Z" fill="#030047"/>
<path d="M152.873 230.412C147.648 230.349 142.504 229.097 137.825 226.749C131.842 223.82 127.672 219.242 125.859 213.382C122.958 204.226 125.315 192.141 132.929 177.676C133.099 177.363 133.385 177.131 133.723 177.03C134.062 176.929 134.426 176.967 134.737 177.136C135.048 177.305 135.28 177.591 135.383 177.933C135.486 178.274 135.451 178.642 135.287 178.957C128.216 192.508 125.86 204.227 128.398 212.466C129.249 215.05 130.624 217.426 132.434 219.444C134.245 221.461 136.451 223.076 138.913 224.186C152.51 230.778 162.844 225.468 163.025 225.468C163.341 225.316 163.701 225.288 164.036 225.389C164.371 225.491 164.657 225.714 164.838 226.017C164.933 226.17 164.995 226.342 165.019 226.521C165.043 226.701 165.029 226.883 164.977 227.057C164.926 227.23 164.838 227.39 164.721 227.527C164.603 227.663 164.457 227.772 164.294 227.847C164.113 228.215 159.762 230.412 152.873 230.412Z" fill="white"/>
<path d="M132.929 279.668C123.139 279.668 113.893 278.753 106.64 276.372C106.312 276.262 106.037 276.032 105.869 275.727C105.701 275.421 105.653 275.063 105.734 274.724C105.876 274.417 106.11 274.163 106.403 273.999C106.696 273.835 107.033 273.768 107.366 273.809C128.396 280.766 169.732 274.541 180.792 270.33C180.957 270.249 181.137 270.205 181.321 270.199C181.504 270.192 181.687 270.225 181.857 270.294C182.028 270.362 182.182 270.466 182.311 270.599C182.439 270.731 182.539 270.889 182.604 271.062C182.723 271.405 182.715 271.779 182.581 272.115C182.448 272.452 182.198 272.728 181.879 272.893C173.901 276.006 152.69 279.668 132.929 279.668Z" fill="white"/>
<path d="M279.781 58.6548C279.445 58.6478 279.123 58.5176 278.875 58.2884C278.613 58.0197 278.467 57.658 278.467 57.2812C278.467 56.9045 278.613 56.5428 278.875 56.274L290.841 44.1882C291.105 43.9211 291.464 43.771 291.838 43.771C292.212 43.771 292.571 43.9211 292.835 44.1882C293.1 44.4554 293.249 44.8176 293.249 45.1954C293.249 45.5732 293.1 45.9355 292.835 46.2027L280.868 58.2834C280.538 58.4882 280.166 58.6151 279.781 58.6548Z" fill="#6F6EFF"/>
<path d="M291.927 58.6548C291.591 58.6479 291.269 58.5177 291.021 58.2884L279.056 46.2027C278.791 45.9355 278.643 45.5732 278.643 45.1954C278.643 44.8176 278.791 44.4554 279.056 44.1882C279.32 43.9211 279.679 43.771 280.053 43.771C280.427 43.771 280.786 43.9211 281.05 44.1882L293.015 56.274C293.277 56.5428 293.423 56.9045 293.423 57.2812C293.423 57.658 293.277 58.0197 293.015 58.2884C292.663 58.4399 292.299 58.5624 291.927 58.6548Z" fill="#6F6EFF"/>
</svg>
