<svg width="31" height="35" viewBox="0 0 31 35" fill="none" xmlns="http://www.w3.org/2000/svg">
<path d="M27.6786 4.375H24.3571V0.820312C24.3571 0.369141 23.9835 0 23.5268 0H20.7589C20.3022 0 19.9286 0.369141 19.9286 0.820312V4.375H11.0714V0.820312C11.0714 0.369141 10.6978 0 10.2411 0H7.47321C7.01652 0 6.64286 0.369141 6.64286 0.820312V4.375H3.32143C1.48772 4.375 0 5.84473 0 7.65625V31.7188C0 33.5303 1.48772 35 3.32143 35H27.6786C29.5123 35 31 33.5303 31 31.7188V7.65625C31 5.84473 29.5123 4.375 27.6786 4.375ZM27.2634 31.7188H3.73661C3.50826 31.7188 3.32143 31.5342 3.32143 31.3086V10.9375H27.6786V31.3086C27.6786 31.5342 27.4917 31.7188 27.2634 31.7188Z" fill="#49A0CE"/>
</svg>
