<svg width="461" height="461" viewBox="0 0 461 461" fill="none" xmlns="http://www.w3.org/2000/svg">
<g clip-path="url(#clip0)">
<path d="M230.432 0C164.603 0 110.791 53.812 110.791 119.641C110.791 185.47 164.603 239.282 230.432 239.282C296.261 239.282 350.073 185.47 350.073 119.641C350.073 53.812 296.261 0 230.432 0Z" fill="#5093B2"/>
<path opacity="0.84" d="M240.212 111.383H286.799V131.464H240.212V184.247H218.87V131.464H172.283V111.383H218.87V62.6162H240.212V111.383Z" fill="white"/>
<path d="M435.755 334.89C432.62 327.053 428.441 319.739 423.739 312.947C399.706 277.42 362.613 253.91 320.817 248.163C315.593 247.641 309.846 248.685 305.666 251.82C283.723 268.016 257.601 276.375 230.433 276.375C203.265 276.375 177.143 268.016 155.2 251.82C151.02 248.685 145.273 247.118 140.049 248.163C98.2531 253.91 60.6371 277.42 37.1271 312.947C32.4251 319.739 28.2451 327.576 25.1111 334.89C23.5441 338.025 24.0661 341.682 25.6331 344.817C29.8131 352.131 35.0371 359.446 39.7391 365.715C47.0531 375.642 54.8901 384.523 63.7721 392.882C71.0861 400.196 79.4451 406.988 87.8051 413.78C129.078 444.605 178.711 460.8 229.911 460.8C281.111 460.8 330.744 444.604 372.017 413.78C380.376 407.511 388.735 400.196 396.05 392.882C404.409 384.523 412.768 375.641 420.083 365.715C425.307 358.923 430.01 352.131 434.189 344.817C436.8 341.682 437.322 338.024 435.755 334.89Z" fill="#5093B2"/>
</g>
<defs>
<clipPath id="clip0">
<rect width="461" height="461" fill="white"/>
</clipPath>
</defs>
</svg>
