<svg width="307" height="324" viewBox="0 0 307 324" fill="none" xmlns="http://www.w3.org/2000/svg">
<mask id="mask0" mask-type="alpha" maskUnits="userSpaceOnUse" x="0" y="0" width="307" height="324">
<rect width="307" height="323.287" fill="#C4C4C4"/>
</mask>
<g mask="url(#mask0)">
<g opacity="0.2">
<path d="M451.296 170.197C451.296 170.197 424.777 91.2755 371.66 45.4799C318.542 -0.315769 242.219 -9.67982 178.794 25.3287C115.368 60.3371 109.089 145.791 61.9868 210.593C14.8844 275.394 9.65423 354.426 79.8509 399.982C150.048 445.537 186.47 399.79 275.326 405.255C364.183 410.719 504.58 355.014 451.296 170.197Z" fill="white"/>
<path opacity="0.7" d="M451.296 170.197C451.296 170.197 424.777 91.2755 371.66 45.4799C318.542 -0.315769 242.219 -9.67982 178.794 25.3287C115.368 60.3371 109.089 145.791 61.9868 210.593C14.8844 275.394 9.65423 354.426 79.8509 399.982C150.048 445.537 186.47 399.79 275.326 405.255C364.183 410.719 504.58 355.014 451.296 170.197Z" fill="white"/>
</g>
<path d="M248.08 75.8737C248.182 72.2515 244.763 69.4601 241.276 68.1308C237.788 66.8016 233.994 66.3032 230.915 64.2844C228.193 62.4899 226.365 59.6985 224.06 57.4222C221.215 54.6069 217.655 52.5815 213.745 51.5537C209.835 50.526 205.715 50.533 201.808 51.574C197.902 52.615 194.349 54.6526 191.515 57.4775C188.68 60.3024 186.667 63.813 185.681 67.649C184.362 72.7998 185.264 78.8894 189.423 82.3205C194.255 86.2916 201.408 85.411 207.592 84.1731C213.776 82.9353 220.785 81.6808 225.948 85.2614C229.061 87.4048 230.847 90.8858 232.753 94.1092C234.658 97.3326 237.006 100.614 240.646 101.827C244.287 103.04 249.152 100.946 249.28 97.2329" fill="#263238"/>
<path d="M247.834 77.8592C247.425 80.8915 249.671 83.6081 251.908 85.7515C254.145 87.8949 256.671 90.1629 257.071 93.2285C257.53 96.7759 254.876 100.265 255.651 103.763C256.135 105.981 257.905 107.684 258.976 109.703C260.397 112.608 260.631 115.932 259.631 118.999C258.713 122.056 257.241 128.877 255.064 131.253C249.05 137.816 239.481 143.482 230.694 145.451C221.907 147.42 212.772 147.436 203.773 146.896C196.407 146.456 187.926 146.788 181.785 136.886C178.604 131.751 177.03 124.939 175.346 119.174C173.883 114.189 172.624 108.897 174.138 103.945C174.989 101.071 176.8 98.5039 177.668 95.6377C178.757 92.0322 178.357 88.1608 178.791 84.4472C179.264 80.3845 180.725 76.491 183.05 73.0907C185.375 69.6904 188.498 66.8816 192.159 64.8979C195.82 62.9143 199.913 61.8132 204.097 61.6862C208.282 61.5593 212.437 62.4101 216.217 64.168" fill="#263238"/>
<path d="M182.321 90.2959C183.01 79.9694 190.044 67.3084 200.583 68.4216L233.467 76.613C235.01 76.7787 236.434 77.5023 237.459 78.6414C238.484 79.7806 239.035 81.253 239.004 82.7691L235.304 160.264L235.534 160.305C235.534 160.305 228.04 182.163 206.291 175.492C201.978 174.162 200.005 169.56 199.154 164.816H198.933C198.933 164.251 198.933 163.728 198.933 163.155C198.509 159.621 198.467 156.055 198.805 152.513C198.746 146.257 198.754 143.698 198.746 143.756C198.737 143.814 185.238 141.53 182.482 124.308C181.079 115.809 181.555 101.769 182.321 90.2959Z" fill="#FFBE9D"/>
<path d="M187.619 100.673C187.61 101.248 187.832 101.804 188.237 102.222C188.643 102.64 189.2 102.886 189.788 102.907C190.076 102.93 190.366 102.896 190.64 102.808C190.914 102.72 191.167 102.58 191.385 102.395C191.603 102.21 191.781 101.984 191.908 101.731C192.036 101.478 192.11 101.203 192.128 100.922C192.135 100.346 191.911 99.7894 191.504 99.3719C191.097 98.9544 190.54 98.7086 189.95 98.687C189.663 98.6644 189.374 98.6981 189.1 98.7863C188.826 98.8744 188.574 99.0151 188.356 99.2001C188.139 99.3852 187.962 99.6107 187.836 99.8636C187.709 100.117 187.636 100.392 187.619 100.673Z" fill="#263238"/>
<path d="M185.416 97.6071C185.697 97.8978 187.415 96.66 189.847 96.6683C192.28 96.6766 194.1 97.8729 194.33 97.5821C194.458 97.4575 194.168 96.9342 193.394 96.3859C192.346 95.6668 191.094 95.2863 189.813 95.2976C188.547 95.2873 187.311 95.6714 186.284 96.3942C185.535 96.9591 185.271 97.4741 185.416 97.6071Z" fill="#263238"/>
<path d="M211.529 100.673C211.522 101.249 211.746 101.805 212.153 102.223C212.56 102.64 213.117 102.886 213.707 102.908C213.994 102.93 214.283 102.896 214.557 102.808C214.831 102.72 215.083 102.579 215.301 102.394C215.518 102.209 215.695 101.984 215.821 101.731C215.948 101.478 216.021 101.203 216.038 100.922C216.047 100.346 215.825 99.7903 215.42 99.3726C215.014 98.9549 214.457 98.7088 213.869 98.6872C213.581 98.6634 213.291 98.6963 213.016 98.7839C212.741 98.8715 212.487 99.012 212.269 99.1971C212.051 99.3823 211.873 99.6083 211.746 99.8617C211.619 100.115 211.545 100.391 211.529 100.673Z" fill="#263238"/>
<path d="M209.336 98.0967C209.616 98.3875 211.335 97.158 213.767 97.1663C216.2 97.1746 217.978 98.3709 218.241 98.0801C218.369 97.9472 218.088 97.4321 217.306 96.8755C216.255 96.1624 215.005 95.7824 213.725 95.7872C212.461 95.781 211.227 96.168 210.203 96.8921C209.455 97.4487 209.2 98.0053 209.336 98.0967Z" fill="#263238"/>
<path d="M200.462 115.701C200.462 115.568 198.965 115.311 196.515 114.995C195.895 114.937 195.308 114.812 195.197 114.397C195.148 113.77 195.296 113.144 195.622 112.603L197.468 107.983C200.02 101.412 201.891 96.0037 201.619 95.9123C201.347 95.8209 199.067 101.055 196.515 107.635C195.892 109.252 195.302 110.8 194.746 112.279C194.352 113.007 194.234 113.849 194.414 114.655C194.505 114.869 194.643 115.06 194.82 115.214C194.997 115.368 195.207 115.48 195.435 115.544C195.779 115.636 196.133 115.686 196.49 115.693C198.923 115.826 200.454 115.843 200.462 115.701Z" fill="#263238"/>
<path d="M198.719 143.823C207.02 143.964 215.197 141.85 222.34 137.717C222.34 137.717 216.386 149.622 198.736 147.977L198.719 143.823Z" fill="#EB996E"/>
<path d="M201.484 121.433C201.947 120.865 202.551 120.422 203.239 120.146C203.926 119.869 204.675 119.769 205.414 119.855C205.951 119.902 206.473 120.055 206.949 120.304C207.424 120.554 207.842 120.896 208.178 121.309C208.497 121.706 208.686 122.19 208.718 122.694C208.749 123.198 208.624 123.701 208.357 124.134C207.968 124.563 207.455 124.867 206.886 125.006C206.316 125.146 205.717 125.114 205.167 124.914C204.019 124.514 202.964 123.895 202.062 123.095C201.787 122.91 201.553 122.672 201.373 122.397C201.287 122.264 201.241 122.11 201.241 121.953C201.241 121.795 201.287 121.641 201.373 121.508" fill="#EB996E"/>
<path d="M207.618 117.363C207.227 117.363 207.218 119.921 204.947 121.741C202.676 123.56 199.844 123.278 199.844 123.643C199.844 123.801 200.473 124.142 201.655 124.175C203.202 124.201 204.709 123.692 205.908 122.738C207.059 121.822 207.8 120.505 207.975 119.066C208.094 117.986 207.805 117.346 207.618 117.363Z" fill="#263238"/>
<path d="M208.238 93.9344C208.476 94.5824 210.909 94.2833 213.758 94.624C216.608 94.9646 218.922 95.7289 219.304 95.1557C219.474 94.8815 219.075 94.2667 218.139 93.6436C216.91 92.8557 215.503 92.3711 214.039 92.2313C212.58 92.0538 211.099 92.219 209.718 92.7132C208.672 93.1286 208.145 93.627 208.238 93.9344Z" fill="#263238"/>
<path d="M186.326 90.728C186.76 91.268 188.435 90.728 190.451 90.728C192.467 90.728 194.168 91.0935 194.568 90.5369C194.738 90.2627 194.466 89.7061 193.718 89.2076C192.718 88.5915 191.553 88.2798 190.372 88.3124C189.19 88.3449 188.045 88.7202 187.083 89.3904C186.377 89.9138 186.122 90.4704 186.326 90.728Z" fill="#263238"/>
<path d="M245.773 133.264C243.338 133.743 240.821 133.649 238.43 132.99C236.039 132.332 233.844 131.126 232.024 129.474C230.205 127.822 228.814 125.771 227.967 123.49C227.12 121.209 226.841 118.764 227.154 116.357C227.698 112.129 230.037 107.825 228.532 103.821C226.55 98.5289 218.954 96.9005 216.938 91.6168C215.764 88.5513 216.819 84.9706 215.492 81.9549C214.242 79.122 211.196 77.4936 208.228 76.4469C205.259 75.4001 202.087 74.6773 199.594 72.7915C197.102 70.9056 195.554 67.3333 197.162 64.6831C210.326 66.2226 223.256 69.2905 235.677 73.8216C238.56 74.8684 241.58 76.1312 243.281 78.6318C245.084 81.2737 244.982 84.6881 244.846 87.8617L242.626 134.236" fill="#263238"/>
<path d="M244.668 139.179C244.668 139.179 244.779 139.129 244.957 139.004L245.74 138.423C246.421 137.899 247.441 137.127 248.658 136.055C250.18 134.775 251.568 133.35 252.8 131.801C254.486 129.741 255.62 127.302 256.1 124.706C256.438 123.127 256.41 121.494 256.017 119.927C255.624 118.36 254.876 116.899 253.829 115.651C252.551 114.41 251.177 113.265 249.721 112.228C248.254 111.142 247.14 109.665 246.514 107.975C245.213 104.469 245.791 100.406 245.289 96.2524C244.791 91.9189 243.058 87.8087 240.288 84.389C238.86 82.6665 237.081 81.2521 235.065 80.2351C233.086 79.3559 231.019 78.6767 228.898 78.208C226.923 77.7229 225.077 76.8337 223.48 75.5994C221.979 74.3713 220.657 72.9486 219.55 71.3707C217.339 68.2969 215.697 65.0236 213.596 62.2904C212.6 60.9521 211.434 59.7433 210.126 58.6931C208.897 57.7298 207.503 56.9872 206.009 56.4999C204.732 56.0241 203.359 55.8454 201.999 55.9781C200.639 56.1108 199.33 56.5511 198.175 57.2642C197.362 57.8799 196.694 58.6578 196.214 59.5461C195.735 60.4344 195.455 61.4125 195.393 62.415C195.288 63.6851 195.666 64.9484 196.457 65.9624C196.66 66.2196 196.901 66.4463 197.171 66.6353C197.258 66.7093 197.356 66.7708 197.46 66.8181C197.388 66.7311 197.309 66.6504 197.222 66.5772C196.98 66.3684 196.766 66.1312 196.584 65.871C195.889 64.8639 195.587 63.6462 195.734 62.4399C195.814 61.4916 196.099 60.5706 196.57 59.7374C197.04 58.9041 197.686 58.1774 198.464 57.6048C199.566 56.9533 200.808 56.5603 202.092 56.4565C203.376 56.3527 204.667 56.541 205.864 57.0066C207.29 57.4864 208.618 58.2093 209.785 59.1417C211.039 60.1797 212.158 61.3625 213.12 62.6642C215.161 65.3476 216.769 68.6209 219.014 71.8027C220.149 73.4438 221.512 74.9229 223.063 76.1975C224.711 77.4717 226.615 78.3918 228.652 78.8975C230.726 79.36 232.747 80.0281 234.682 80.8914C236.608 81.8704 238.305 83.2282 239.667 84.8791C242.353 88.1821 244.038 92.1535 244.532 96.3438C245.051 100.356 244.456 104.485 245.842 108.216C246.511 110.015 247.691 111.592 249.244 112.76C250.679 113.769 252.035 114.879 253.302 116.083C254.3 117.258 255.017 118.636 255.4 120.117C255.782 121.597 255.821 123.143 255.513 124.64C255.079 127.16 254.015 129.537 252.417 131.56C251.219 133.108 249.878 134.546 248.411 135.855C247.212 136.952 246.242 137.758 245.595 138.348C245.269 138.606 244.96 138.883 244.668 139.179Z" fill="#455A64"/>
<path d="M247.894 141.322C251.518 137.899 257.702 140.874 260.747 144.795C263.792 148.716 265.944 153.784 270.563 155.761C275.181 157.738 281.178 156.035 285.023 159.176C290.364 163.512 287.362 173.556 293.146 177.328C295.434 178.823 298.462 178.773 300.912 180.003C306.687 182.911 306.619 190.87 305.726 197.159C304.51 206.006 303.132 215.145 298.147 222.622C293.163 230.099 283.458 235.324 274.833 232.45C266.539 229.683 262.278 220.944 258.901 213.043C254.24 202.088 249.573 191.158 244.9 180.252C242.204 173.93 239.473 167.508 238.597 160.712C237.721 153.917 238.895 146.589 243.326 141.256" fill="#263238"/>
<path d="M250.215 133.778C252.843 133.471 254.859 136.62 254.161 139.12C253.464 141.621 251.014 143.274 248.505 144.105C247.12 144.642 245.615 144.811 244.141 144.595C243.405 144.483 242.712 144.183 242.131 143.727C241.55 143.271 241.102 142.673 240.833 141.995C240.557 141.409 240.529 140.741 240.755 140.136C240.981 139.531 241.443 139.037 242.04 138.763C243.742 137.708 244.788 136.877 246.157 136.138C248.25 135.016 248.122 134.867 250.215 133.737" fill="#5AADD3"/>
<path d="M189.628 161.485L199.852 153.917L238.393 151.507L239.941 156.558L227.403 232.956L237.295 324.109H183.529L189.628 161.485Z" fill="#5AADD3"/>
<g opacity="0.3">
<path opacity="0.3" d="M230.889 291.775C229.656 290.487 227.64 288.726 225.845 288.685C212.967 288.41 199.825 287.156 186.947 286.874L185.918 324.125C188.997 318.825 191.915 313.325 192.723 307.261C193.08 304.619 193.573 301.445 195.998 300.332C197.393 299.692 199.034 299.942 200.54 300.241C205.192 301.138 209.811 302.309 214.541 302.6C219.27 302.891 224.229 302.21 228.201 299.684C229.611 298.871 230.747 297.673 231.467 296.236C231.81 295.515 231.938 294.714 231.836 293.924C231.733 293.135 231.405 292.39 230.889 291.775Z" fill="black"/>
</g>
<path d="M197.964 163.031L196.765 152.106C196.716 151.648 196.76 151.185 196.896 150.745C197.031 150.304 197.255 149.894 197.554 149.538C197.853 149.182 198.222 148.889 198.638 148.673C199.055 148.458 199.511 148.326 199.98 148.284L235.45 145.152C235.677 145.135 235.905 145.163 236.121 145.234C236.336 145.305 236.536 145.417 236.706 145.564C236.877 145.711 237.015 145.89 237.113 146.091C237.212 146.291 237.268 146.509 237.279 146.731L237.679 159.732L227.403 176.755L216.847 180.036H203.935L196.51 172.294L197.964 163.031Z" fill="#5AADD3"/>
<path d="M232.438 155.561C231.962 155.542 231.487 155.494 231.017 155.42C229.733 155.303 228.442 155.28 227.155 155.354C225.242 155.488 223.343 155.766 221.473 156.184C219.355 156.616 217.05 157.223 214.609 157.804C212.318 158.389 209.983 158.794 207.626 159.017C205.686 159.196 203.73 159.067 201.833 158.635C200.557 158.343 199.339 157.849 198.227 157.173C197.93 156.986 197.646 156.78 197.376 156.558C197.189 156.409 197.095 156.317 197.112 156.309C197.129 156.301 197.529 156.583 198.329 157.023C199.456 157.63 200.668 158.072 201.927 158.336C203.794 158.719 205.711 158.814 207.609 158.619C209.942 158.375 212.254 157.962 214.524 157.381C216.957 156.807 219.27 156.209 221.405 155.794C223.298 155.398 225.221 155.159 227.155 155.079C228.46 155.025 229.768 155.092 231.06 155.279C231.519 155.356 231.868 155.423 232.106 155.478C232.319 155.511 232.446 155.545 232.438 155.561Z" fill="#263238"/>
<g opacity="0.3">
<path opacity="0.3" d="M198.805 157.281C197.853 159.832 197.827 162.989 199.758 164.941C201.323 166.536 203.849 166.935 206.069 166.503C208.268 165.95 210.354 165.034 212.236 163.795C217.119 160.962 222.086 158.021 227.632 156.816C227.996 156.774 228.341 156.633 228.627 156.409C228.693 156.349 228.746 156.277 228.782 156.196C228.819 156.115 228.837 156.028 228.837 155.94C228.837 155.852 228.819 155.764 228.782 155.684C228.746 155.603 228.693 155.53 228.627 155.47C228.488 155.39 228.329 155.347 228.168 155.346C223.26 154.864 218.386 156.176 213.58 157.273C208.774 158.37 203.628 159.076 198.992 157.439" fill="black"/>
</g>
<path d="M205.584 147.935C205.085 148.202 204.665 148.591 204.368 149.065C203.806 149.946 203.84 151.441 203.883 153.053C203.977 156.284 204.521 158.868 204.393 158.868C204.145 158.342 203.982 157.781 203.908 157.207C203.639 155.836 203.483 154.447 203.441 153.053C203.41 152.28 203.427 151.506 203.492 150.735C203.539 150.083 203.75 149.453 204.104 148.899C204.347 148.524 204.691 148.222 205.099 148.027C205.397 147.91 205.576 147.91 205.584 147.935Z" fill="#263238"/>
<path d="M214.957 157.431C214.967 155.667 214.881 153.903 214.701 152.147C214.293 149.248 213.306 147.046 213.442 146.997C213.765 147.42 214.01 147.895 214.165 148.401C214.63 149.588 214.958 150.823 215.144 152.081C215.328 153.341 215.365 154.617 215.254 155.886C215.246 156.414 215.145 156.936 214.957 157.431Z" fill="#263238"/>
<path d="M226.381 146.074C226.696 146.452 226.925 146.891 227.053 147.362C227.437 148.476 227.596 149.653 227.521 150.826C227.44 152.002 227.122 153.152 226.585 154.207C226.394 154.66 226.104 155.065 225.734 155.395C226.505 153.973 226.96 152.407 227.07 150.801C227.179 149.195 226.942 147.585 226.372 146.074H226.381Z" fill="#263238"/>
<path d="M176.638 166.403C176.638 166.403 164.543 174.312 161.328 188.602C158.827 199.834 151.971 259.168 151.971 259.168L139.986 281.947L147.812 300.125C154.514 300.587 161.168 298.731 166.61 294.883L171.875 291.144L181.529 277.162L176.638 166.403Z" fill="#EBEBEB"/>
<path d="M197.137 155.919L176.638 166.403L171.798 181.93L167.486 226.95L175.6 279.729L161.361 323.951L185.918 324.126L186.505 298.206L188.955 214.297L191.362 160.845L197.137 155.919Z" fill="#EBEBEB"/>
<path d="M187.211 225.87C187.066 225.67 186.938 225.459 186.828 225.239L185.807 223.403C185.382 222.572 184.957 221.558 184.438 220.379C184.191 219.781 183.979 219.124 183.732 218.435C183.485 217.745 183.213 217.014 183 216.233C181.07 210.011 179.794 201.03 180.066 191.127C180.066 190.363 180.125 189.607 180.176 188.851V188.718L180.304 188.668L183.893 187.189L183.842 187.555L180.253 184.738L180.176 184.68V184.597C180.141 181.194 180.693 177.81 181.81 174.586C182.711 171.654 183.698 169.128 184.565 167.051C185.433 164.974 186.19 163.354 186.726 162.258C186.998 161.701 187.211 161.277 187.355 161.003C187.425 160.855 187.508 160.714 187.602 160.58C187.561 160.736 187.501 160.886 187.423 161.028L186.854 162.316C186.36 163.429 185.646 165.066 184.812 167.151C183.979 169.236 183.026 171.762 182.158 174.686C181.085 177.872 180.559 181.21 180.602 184.564L180.517 184.423L184.115 187.223L184.395 187.447L184.064 187.588L180.474 189.067L180.61 188.884C180.559 189.623 180.525 190.379 180.5 191.144C180.236 201.005 181.452 209.944 183.298 216.142C183.494 216.931 183.757 217.654 183.987 218.343C184.217 219.033 184.421 219.697 184.668 220.296C185.169 221.475 185.518 222.514 185.96 223.328L186.896 225.197C187.016 225.414 187.121 225.639 187.211 225.87Z" fill="#263238"/>
<path d="M171.118 257.389C171.04 257.177 170.975 256.961 170.922 256.741C170.803 256.271 170.641 255.639 170.437 254.847C170.224 254.016 169.986 253.019 169.748 251.848C169.51 250.677 169.195 249.356 168.957 247.835C168.719 246.315 168.396 244.712 168.166 242.95C167.936 241.189 167.707 239.295 167.494 237.31C167.12 233.322 166.873 228.927 166.873 224.308C166.873 219.689 167.154 215.294 167.537 211.315C167.766 209.329 167.962 207.435 168.243 205.674C168.523 203.912 168.77 202.276 169.042 200.789C169.314 199.302 169.604 197.964 169.893 196.784C170.182 195.605 170.386 194.599 170.599 193.785C170.811 192.971 170.964 192.365 171.092 191.899C171.141 191.676 171.206 191.457 171.288 191.243C171.271 191.47 171.234 191.695 171.177 191.916L170.769 193.819C170.582 194.649 170.352 195.655 170.139 196.834C169.927 198.014 169.621 199.327 169.391 200.847C169.161 202.367 168.863 203.962 168.651 205.724C168.438 207.485 168.2 209.371 167.987 211.348C167.63 215.327 167.375 219.705 167.358 224.316C167.341 228.927 167.596 233.297 167.936 237.276C168.149 239.254 168.319 241.148 168.574 242.901C168.829 244.654 169.059 246.299 169.306 247.786C169.552 249.273 169.816 250.619 170.029 251.798C170.241 252.978 170.463 253.991 170.65 254.814C170.837 255.636 170.956 256.243 171.05 256.716C171.097 256.938 171.12 257.163 171.118 257.389Z" fill="#263238"/>
<path d="M176.665 297.915C176.425 298.628 176.09 299.306 175.669 299.934C174.751 301.497 173.701 302.984 172.531 304.378C171.363 305.775 170.077 307.072 168.686 308.258C168.137 308.782 167.522 309.237 166.857 309.612C167.358 309.05 167.898 308.523 168.474 308.034C169.786 306.792 171.027 305.48 172.191 304.104C173.344 302.721 174.418 301.276 175.406 299.776C175.781 299.128 176.201 298.506 176.665 297.915Z" fill="#263238"/>
<path d="M270.893 165.115C275.2 166.75 279.03 169.392 282.047 172.811C285.064 176.23 287.174 180.32 288.194 184.722C294.905 213.599 306.38 252.014 306.567 264.418C306.788 280.202 299.762 291.002 290.499 292.996C283.201 294.575 217.076 291.036 217.076 291.036L213.979 266.943L267.567 259.242L260.235 219.298L267.49 163.869L270.893 165.115Z" fill="#EBEBEB"/>
<path d="M267.49 163.827L252.681 157.921L237.073 148.981L236.979 151.598C238.896 154.794 239.563 158.56 238.859 162.199L225.845 228.379L228.788 276.738L234.836 324.092H281.797L260.234 274.536L267.847 207.75L267.49 163.827Z" fill="#EBEBEB"/>
<path d="M281.21 293.404L280.887 293.445L279.943 293.536C279.092 293.62 277.876 293.611 276.277 293.653C273.096 293.653 268.468 293.586 262.71 293.404C251.201 293.03 235.185 292.274 217.092 291.252H216.914V291.069C216.548 288.203 216.157 285.179 215.766 282.113C215.094 276.921 214.447 271.853 213.826 267.01V266.802H214.03L254.927 260.987L266.937 259.325L270.161 258.901L271.012 258.793H271.301L271.02 258.852L270.17 258.993L266.954 259.491L254.969 261.277L214.141 267.234L214.32 266.993C214.949 271.845 215.604 276.904 216.267 282.097C216.667 285.171 217.05 288.195 217.416 291.061L217.212 290.878C235.295 291.908 251.32 292.714 262.82 293.171C268.57 293.387 273.189 293.512 276.37 293.553C277.961 293.553 279.203 293.553 280.028 293.503L280.972 293.453L281.21 293.404Z" fill="#263238"/>
<path d="M259.802 215.211C259.862 215.355 259.902 215.506 259.921 215.66C259.989 216.001 260.074 216.416 260.176 216.939C260.397 218.111 260.695 219.714 261.027 221.667C261.75 225.721 262.728 231.212 263.816 237.285C264.905 243.358 265.79 248.866 266.487 252.929C266.802 254.889 267.057 256.493 267.244 257.672C267.321 258.196 267.38 258.628 267.432 258.968C267.45 259.12 267.45 259.274 267.432 259.425C267.367 259.285 267.324 259.137 267.304 258.985C267.236 258.644 267.151 258.221 267.04 257.706C266.819 256.526 266.513 254.931 266.139 252.978C265.399 248.982 264.437 243.466 263.349 237.36C262.26 231.254 261.341 225.729 260.686 221.716C260.38 219.756 260.125 218.144 259.938 216.964C259.87 216.444 259.81 216.012 259.759 215.668C259.756 215.515 259.77 215.362 259.802 215.211Z" fill="#263238"/>
<path d="M243.888 153.667C243.888 153.667 243.888 153.726 243.947 153.834L244.083 154.315C244.194 154.747 244.381 155.371 244.56 156.201C245.079 158.551 245.454 160.928 245.683 163.321C246.029 166.933 246.123 170.563 245.963 174.188C245.819 178.341 245.376 182.886 244.738 187.729V187.879H244.585L239.711 188.759L239.873 188.469C240.154 189.2 240.434 189.981 240.655 190.786C241.996 196.081 241.804 201.634 240.103 206.829C238.755 211.043 236.845 215.065 234.421 218.792C232.396 221.999 230.576 224.458 229.317 226.161L227.845 228.105C227.692 228.312 227.556 228.47 227.454 228.603C227.416 228.666 227.367 228.722 227.31 228.769C227.31 228.769 227.31 228.703 227.42 228.578L227.777 228.055C228.118 227.573 228.628 226.908 229.172 226.061C230.389 224.333 232.175 221.849 234.148 218.634C236.516 214.911 238.386 210.908 239.711 206.721C241.115 202.01 241.778 196.411 240.23 190.936C240.015 190.165 239.759 189.405 239.465 188.66L239.371 188.419L239.635 188.369L244.475 187.497L244.296 187.679C244.942 182.853 245.41 178.3 245.572 174.179C245.751 170.579 245.691 166.972 245.393 163.379C245.194 160.99 244.861 158.613 244.398 156.259C244.245 155.429 244.075 154.797 243.998 154.365C243.956 154.166 243.922 154.008 243.896 153.875C243.88 153.807 243.877 153.737 243.888 153.667Z" fill="#263238"/>
<path d="M243.887 221.533V210.991C243.887 210.991 244.023 208.39 241.777 208.939C239.532 209.487 239.949 213.599 239.949 213.599C239.949 213.599 239.532 229.642 240.51 229.509C241.488 229.376 241.871 228.138 241.871 228.138V221.965L243.887 221.533Z" fill="#5AADD3"/>
<path d="M253.227 222.19C251.305 222.408 249.368 222.48 247.434 222.406C245.501 222.48 243.564 222.408 241.642 222.19C243.564 221.976 245.501 221.904 247.434 221.974C249.368 221.904 251.304 221.976 253.227 222.19Z" fill="#263238"/>
<path d="M274.586 171.379C274.196 171.558 273.792 171.705 273.378 171.82C272.277 172.203 271.203 172.656 270.162 173.174C266.732 174.898 263.757 177.375 261.469 180.41C260.822 181.265 260.253 182.174 259.768 183.127C259.348 184.027 259.007 184.961 258.747 185.918C258.308 187.55 258.023 189.219 257.897 190.903C257.778 192.34 257.752 193.52 257.744 194.325C257.769 194.746 257.769 195.168 257.744 195.588C257.637 195.192 257.58 194.785 257.574 194.375C257.507 193.227 257.507 192.076 257.574 190.928C257.658 189.217 257.917 187.52 258.348 185.86C258.604 184.874 258.949 183.912 259.377 182.985C259.872 182.006 260.456 181.072 261.121 180.194C263.441 177.101 266.501 174.611 270.035 172.941C271.097 172.441 272.197 172.024 273.327 171.695C273.734 171.548 274.156 171.442 274.586 171.379Z" fill="#263238"/>
<path d="M84 259.167L161.362 287.148L226.577 296.885L149.037 259.965L84 259.167Z" fill="#263238"/>
<path d="M117.105 289.341C116.483 285.303 115.08 281.418 112.971 277.893C112.515 277.229 112.16 276.504 111.916 275.741C111.794 275.36 111.77 274.955 111.846 274.563C111.922 274.17 112.095 273.802 112.35 273.49C113.345 272.435 115.157 272.9 116.382 273.698C118.861 275.461 120.687 277.962 121.587 280.826C122.474 283.668 123.044 286.595 123.288 289.557" fill="#FFBE9D"/>
<path d="M147.259 282.147H143.415C142.471 281.233 141.298 280.58 140.012 280.252C139.537 280.174 139.049 280.224 138.599 280.395C138.15 280.566 137.757 280.853 137.461 281.224C139.162 278.458 141.033 275.409 141.39 274.578C142.079 272.958 140.54 271.745 138.065 271.745C135.589 271.745 124.634 286.89 124.634 286.89C124.634 286.89 131.438 274.703 132.093 272.842C133.744 268.19 128.529 267.857 126.641 270.092C124.293 272.875 114.809 286.89 114.809 286.89C114.809 286.89 113.006 289.732 114.248 292.432C115.49 295.132 119.096 294.093 119.096 294.093C119.15 294.882 119.413 295.644 119.861 296.302C120.309 296.961 120.925 297.494 121.648 297.848C124.421 299.36 128.079 297.607 128.079 297.607L142.258 300.714L147.362 300.216C150.845 299.875 154.112 298.409 156.645 296.049C159.178 293.69 160.832 290.572 161.345 287.189L147.259 282.147Z" fill="#FFBE9D"/>
<path d="M137.724 281.008C137.885 281.108 136.023 283.999 133.556 287.472C132.331 289.208 131.2 290.795 130.358 291.875C129.943 292.502 129.464 293.087 128.929 293.62C129.254 292.943 129.647 292.301 130.103 291.7C130.877 290.546 131.965 288.959 133.19 287.223C134.415 285.486 135.538 283.899 136.354 282.803L137.341 281.482C137.454 281.313 137.582 281.155 137.724 281.008Z" fill="#EB996E"/>
<path d="M136.875 296.428C137.221 295.638 137.642 294.881 138.134 294.168C138.984 292.806 140.158 290.953 141.468 288.893C142.123 287.871 142.753 286.89 143.263 285.985C143.486 285.598 143.629 285.173 143.683 284.732C143.737 284.292 143.701 283.845 143.578 283.418C143.327 282.613 142.917 281.865 142.37 281.216C142.37 281.216 142.599 281.333 142.914 281.665C143.358 282.142 143.686 282.709 143.875 283.326C144.033 283.79 144.093 284.281 144.051 284.768C144.008 285.255 143.865 285.728 143.629 286.159C143.118 287.098 142.497 288.087 141.851 289.117C140.533 291.177 139.299 293.005 138.398 294.326C137.942 295.061 137.433 295.763 136.875 296.428Z" fill="#EB996E"/>
<path d="M144.316 297.807C144.458 297.057 144.713 296.332 145.073 295.655L146.085 293.395C146.506 292.496 146.854 291.566 147.123 290.612C147.251 290.157 147.278 289.68 147.2 289.214C147.122 288.748 146.942 288.304 146.672 287.912C146.398 287.601 146.05 287.358 145.66 287.206C145.331 287.042 144.973 286.943 144.605 286.915C144.068 286.993 143.551 287.171 143.082 287.439C142.905 287.548 142.709 287.627 142.504 287.671C142.504 287.671 142.666 287.513 142.997 287.289C143.203 287.154 143.416 287.029 143.635 286.915C143.933 286.749 144.263 286.644 144.605 286.608C145.022 286.617 145.432 286.708 145.813 286.874C146.265 287.034 146.668 287.303 146.987 287.655C147.309 288.089 147.527 288.589 147.624 289.116C147.721 289.644 147.695 290.187 147.548 290.704C147.277 291.688 146.909 292.645 146.451 293.561C146.051 294.392 145.668 295.148 145.353 295.78C145.044 296.473 144.698 297.149 144.316 297.807Z" fill="#EB996E"/>
<path d="M146.928 284.73C147.136 284.748 147.339 284.807 147.523 284.905C148.05 285.121 148.547 285.4 149.003 285.736C150.548 286.863 151.628 288.493 152.048 290.331C152.468 292.169 152.199 294.093 151.291 295.755C151.031 296.254 150.708 296.72 150.33 297.142C150.058 297.433 149.879 297.566 149.862 297.549C149.845 297.533 150.424 296.868 151.011 295.622C151.801 294.005 152.013 292.176 151.614 290.428C151.215 288.679 150.226 287.112 148.808 285.977C148.205 285.528 147.577 285.112 146.928 284.73Z" fill="#EB996E"/>
<path d="M122.004 276.78C121.06 278.515 119.988 280.181 118.797 281.764C117.734 283.458 116.543 285.071 115.233 286.591C116.172 284.855 117.241 283.189 118.432 281.607C119.499 279.914 120.693 278.301 122.004 276.78Z" fill="#EB996E"/>
<path d="M213.784 267.874L204.938 265.922L196.432 258.104C195.396 257.156 194.054 256.592 192.638 256.509L177.183 255.678C175.636 255.585 174.112 256.079 172.93 257.057L161.872 266.196L210.109 289.084L216.727 289.657L213.784 267.874Z" fill="#FFBE9D"/>
<path d="M187.576 263.845C187.576 263.911 186.436 263.712 184.599 263.479C182.762 263.247 180.142 263.039 177.598 264.194C176.414 264.752 175.296 265.434 174.264 266.229C173.286 266.943 172.41 267.608 171.636 268.115C171.028 268.526 170.388 268.89 169.722 269.203C169.485 269.33 169.23 269.423 168.965 269.477C168.965 269.411 169.977 268.954 171.457 267.866C172.197 267.334 173.048 266.644 174.009 265.905C175.056 265.076 176.198 264.368 177.411 263.795C178.655 263.259 179.998 262.976 181.358 262.964C182.455 262.947 183.552 263.031 184.633 263.213C185.56 263.354 186.334 263.521 186.793 263.645C187.064 263.668 187.329 263.735 187.576 263.845Z" fill="#EB996E"/>
<path d="M190.75 272.252C190.75 272.319 190.121 272.045 189.049 271.945C187.7 271.824 186.341 272.009 185.077 272.485C183.804 272.971 182.584 273.58 181.436 274.304C180.968 274.636 180.463 274.915 179.931 275.135C180.319 274.716 180.766 274.353 181.258 274.055C182.384 273.242 183.617 272.58 184.924 272.086C186.25 271.586 187.687 271.434 189.092 271.646C189.692 271.689 190.268 271.9 190.75 272.252Z" fill="#EB996E"/>
<path d="M210.644 273.648C210.534 273.714 209.292 271.903 207.65 269.76C206.008 267.616 204.596 265.93 204.69 265.847C205.946 266.924 207.058 268.152 207.999 269.502C209.059 270.767 209.948 272.161 210.644 273.648Z" fill="#EB996E"/>
<path d="M186.302 256.534L205.865 238.714C206.065 238.533 206.222 238.312 206.325 238.065C206.428 237.819 206.475 237.553 206.462 237.288C206.449 237.022 206.376 236.762 206.25 236.526C206.123 236.29 205.946 236.085 205.729 235.923C205.383 235.663 204.954 235.53 204.517 235.547C204.081 235.564 203.664 235.729 203.339 236.014L180.373 256.136" fill="#5AADD3"/>
<g opacity="0.3">
<path opacity="0.3" d="M186.302 256.534L205.865 238.714C206.065 238.533 206.222 238.312 206.325 238.065C206.428 237.819 206.475 237.553 206.462 237.288C206.449 237.022 206.376 236.762 206.25 236.526C206.123 236.29 205.946 236.085 205.729 235.923C205.383 235.663 204.954 235.53 204.517 235.547C204.081 235.564 203.664 235.729 203.339 236.014L180.373 256.136" fill="black"/>
</g>
</g>
</svg>
