<svg width="32" height="37" viewBox="0 0 32 37" fill="none" xmlns="http://www.w3.org/2000/svg">
<path d="M32 35.5547V37H0V35.5547C0 35.0758 0.383786 34.6875 0.857143 34.6875H2.28571V8.67188C2.28571 7.71399 3.05321 6.9375 4 6.9375H10.2857V1.73438C10.2857 0.776494 11.0532 0 12 0H20C20.9468 0 21.7143 0.776494 21.7143 1.73438V6.9375H28C28.9468 6.9375 29.7143 7.71399 29.7143 8.67188V34.6875H31.1429C31.6162 34.6875 32 35.0758 32 35.5547ZM22 13.875H19.1429C18.6695 13.875 18.2857 14.2633 18.2857 14.7422V17.6328C18.2857 18.1117 18.6695 18.5 19.1429 18.5H22C22.4734 18.5 22.8571 18.1117 22.8571 17.6328V14.7422C22.8571 14.2633 22.4734 13.875 22 13.875ZM10 18.5H12.8571C13.3305 18.5 13.7143 18.1117 13.7143 17.6328V14.7422C13.7143 14.2633 13.3305 13.875 12.8571 13.875H10C9.52664 13.875 9.14286 14.2633 9.14286 14.7422V17.6328C9.14286 18.1117 9.52664 18.5 10 18.5ZM17.4286 27.75H14.5714C14.0981 27.75 13.7143 28.1383 13.7143 28.6172V34.6875H18.2857V28.6172C18.2857 28.1383 17.9019 27.75 17.4286 27.75ZM22 20.8125H19.1429C18.6695 20.8125 18.2857 21.2008 18.2857 21.6797V24.5703C18.2857 25.0492 18.6695 25.4375 19.1429 25.4375H22C22.4734 25.4375 22.8571 25.0492 22.8571 24.5703V21.6797C22.8571 21.2008 22.4734 20.8125 22 20.8125ZM13.7143 21.6797C13.7143 21.2008 13.3305 20.8125 12.8571 20.8125H10C9.52664 20.8125 9.14286 21.2008 9.14286 21.6797V24.5703C9.14286 25.0492 9.52664 25.4375 10 25.4375H12.8571C13.3305 25.4375 13.7143 25.0492 13.7143 24.5703V21.6797ZM13 6.9375H14.8571V8.81641C14.8571 8.9314 14.9023 9.04169 14.9827 9.123C15.063 9.20432 15.1721 9.25 15.2857 9.25H16.7143C16.828 9.25 16.937 9.20432 17.0173 9.123C17.0977 9.04169 17.1429 8.9314 17.1429 8.81641V6.9375H19C19.1137 6.9375 19.2227 6.89182 19.303 6.8105C19.3834 6.72919 19.4286 6.6189 19.4286 6.50391V5.05859C19.4286 4.9436 19.3834 4.83331 19.303 4.752C19.2227 4.67068 19.1137 4.625 19 4.625H17.1429V2.74609C17.1429 2.6311 17.0977 2.52081 17.0173 2.4395C16.937 2.35818 16.828 2.3125 16.7143 2.3125H15.2857C15.1721 2.3125 15.063 2.35818 14.9827 2.4395C14.9023 2.52081 14.8571 2.6311 14.8571 2.74609V4.625H13C12.8863 4.625 12.7773 4.67068 12.697 4.752C12.6166 4.83331 12.5714 4.9436 12.5714 5.05859V6.50391C12.5714 6.6189 12.6166 6.72919 12.697 6.8105C12.7773 6.89182 12.8863 6.9375 13 6.9375Z" fill="#49A0CE"/>
</svg>
