<svg width="32" height="32" viewBox="0 0 32 32" fill="none" xmlns="http://www.w3.org/2000/svg">
<path d="M28 4H21.3333C21.3333 1.79375 18.9417 0 16 0C13.0583 0 10.6667 1.79375 10.6667 4H4C1.79167 4 0 5.34375 0 7V29C0 30.6562 1.79167 32 4 32H28C30.2083 32 32 30.6562 32 29V7C32 5.34375 30.2083 4 28 4ZM16 2.5C17.1083 2.5 18 3.16875 18 4C18 4.83125 17.1083 5.5 16 5.5C14.8917 5.5 14 4.83125 14 4C14 3.16875 14.8917 2.5 16 2.5ZM24 21.5C24 21.775 23.7 22 23.3333 22H18.6667V25.5C18.6667 25.775 18.3667 26 18 26H14C13.6333 26 13.3333 25.775 13.3333 25.5V22H8.66667C8.3 22 8 21.775 8 21.5V18.5C8 18.225 8.3 18 8.66667 18H13.3333V14.5C13.3333 14.225 13.6333 14 14 14H18C18.3667 14 18.6667 14.225 18.6667 14.5V18H23.3333C23.7 18 24 18.225 24 18.5V21.5ZM24 9.5C24 9.775 23.7 10 23.3333 10H8.66667C8.3 10 8 9.775 8 9.5V8.5C8 8.225 8.3 8 8.66667 8H23.3333C23.7 8 24 8.225 24 8.5V9.5Z" fill="#49A0CE"/>
</svg>
