<svg width="69" height="71" viewBox="0 0 69 71" fill="none" xmlns="http://www.w3.org/2000/svg">
<g filter="url(#filter0_d)">
<path d="M30.4051 60.9487C47.1974 60.9487 60.8103 47.3359 60.8103 30.5436C60.8103 13.7513 47.1974 0.138428 30.4051 0.138428C13.6128 0.138428 0 13.7513 0 30.5436C0 47.3359 13.6128 60.9487 30.4051 60.9487Z" fill="#FFE17D"/>
<path d="M34.8188 56.535C18.0264 56.535 4.41361 42.9222 4.41361 26.1299C4.41361 18.8579 6.96967 12.1849 11.2282 6.95288C4.37822 12.5279 0 21.0231 0 30.5435C0 47.3358 13.6128 60.9486 30.4051 60.9486C39.9256 60.9486 48.4208 56.5703 53.996 49.7203C48.7638 53.9788 42.0908 56.535 34.8188 56.535Z" fill="#FFD164"/>
<path d="M30.3977 38.1198C24.8626 38.1198 19.5793 37.5246 14.732 36.4484C14.1042 36.3089 13.5631 36.9166 13.7567 37.5497C15.9921 44.8599 22.5903 50.163 30.3976 50.163C38.2048 50.163 44.8031 44.8599 47.0384 37.5497C47.232 36.9164 46.691 36.3089 46.0631 36.4484C41.2161 37.5246 35.9327 38.1198 30.3977 38.1198Z" fill="#9C6846"/>
<path d="M30.4069 42.3131C35.5424 42.3131 40.6082 41.8272 45.593 40.9573C46.179 39.8826 46.6726 38.7467 47.0386 37.5498C47.2323 36.9165 46.6912 36.309 46.0632 36.4483C41.2161 37.5244 35.9327 38.1198 30.3977 38.1198C24.8626 38.1198 19.5792 37.5245 14.732 36.4483C14.1042 36.309 13.5631 36.9165 13.7567 37.5498C14.1223 38.7454 14.6153 39.8802 15.2005 40.954C20.1918 41.8261 25.2644 42.3131 30.4069 42.3131Z" fill="#7D5046"/>
<path d="M21.4618 29.5355C23.129 27.4395 27.0762 21.8122 24.825 17.9869C23.9548 16.5082 22.2424 15.6645 20.5377 15.8593C19.1532 16.0175 18.0423 16.7448 17.3454 17.7456C17.0596 18.1558 16.542 18.3253 16.0691 18.1637C14.9151 17.7693 13.5892 17.8401 12.3794 18.5317C10.8898 19.3833 10.0085 21.0766 10.1818 22.7836C10.63 27.1993 17.1417 29.4008 19.7259 30.1043C20.3652 30.2782 21.0493 30.0542 21.4618 29.5355Z" fill="#E6646E"/>
<path d="M39.3486 29.5355C37.6814 27.4395 33.7342 21.8122 35.9854 17.9869C36.8556 16.5082 38.568 15.6645 40.2727 15.8593C41.6572 16.0175 42.7681 16.7448 43.465 17.7456C43.7508 18.1558 44.2684 18.3253 44.7413 18.1637C45.8953 17.7693 47.2213 17.8401 48.4311 18.5317C49.9207 19.3833 50.8019 21.0766 50.6287 22.7836C50.1804 27.1993 43.6687 29.4008 41.0845 30.1043C40.4452 30.2782 39.7611 30.0542 39.3486 29.5355Z" fill="#E6646E"/>
<path d="M22.3171 27.5428C19.7329 26.8393 13.2212 24.6378 12.773 20.2221C12.703 19.5331 12.812 18.8493 13.0564 18.2192C12.8282 18.3053 12.6015 18.4044 12.3794 18.5315C10.8898 19.3829 10.0085 21.0764 10.1818 22.7833C10.63 27.1991 17.1417 29.4006 19.7259 30.1041C20.3652 30.2781 21.0493 30.0541 21.4618 29.5354C21.8452 29.0534 22.3502 28.3786 22.8718 27.5878C22.6878 27.6012 22.5013 27.5929 22.3171 27.5428Z" fill="#DC4655"/>
<path d="M39.3486 29.5355C37.6814 27.4395 33.7342 21.8122 35.9854 17.9869C36.8556 16.5082 38.568 15.6645 40.2727 15.8593C41.6572 16.0175 42.7681 16.7448 43.465 17.7456C43.7508 18.1558 44.2684 18.3253 44.7413 18.1637C45.8953 17.7693 47.2213 17.8401 48.4311 18.5317C49.9207 19.3833 50.8019 21.0766 50.6287 22.7836C50.1804 27.1993 43.6687 29.4008 41.0845 30.1043C40.4452 30.2782 39.7611 30.0542 39.3486 29.5355Z" fill="#E6646E"/>
<path d="M42.6423 28.936C40.9751 26.8399 37.0279 21.2125 39.2791 17.3874C39.6271 16.796 40.1135 16.3123 40.6766 15.9498C40.5406 15.922 40.4147 15.8754 40.2727 15.8593C38.568 15.6645 36.8556 16.5082 35.9854 17.9869C33.7342 21.8122 37.6814 27.4396 39.3486 29.5355C39.7611 30.0541 40.4452 30.2782 41.0845 30.1042C41.6563 29.9486 42.4252 29.7148 43.2732 29.4048C43.0339 29.2984 42.8119 29.1493 42.6423 28.936Z" fill="#DC4655"/>
</g>
<defs>
<filter id="filter0_d" x="0" y="0.138428" width="68.8103" height="70.8103" filterUnits="userSpaceOnUse" color-interpolation-filters="sRGB">
<feFlood flood-opacity="0" result="BackgroundImageFix"/>
<feColorMatrix in="SourceAlpha" type="matrix" values="0 0 0 0 0 0 0 0 0 0 0 0 0 0 0 0 0 0 127 0"/>
<feOffset dx="4" dy="6"/>
<feGaussianBlur stdDeviation="2"/>
<feColorMatrix type="matrix" values="0 0 0 0 0 0 0 0 0 0 0 0 0 0 0 0 0 0 0.25 0"/>
<feBlend mode="normal" in2="BackgroundImageFix" result="effect1_dropShadow"/>
<feBlend mode="normal" in="SourceGraphic" in2="effect1_dropShadow" result="shape"/>
</filter>
</defs>
</svg>
