<svg width="69" height="71" viewBox="0 0 69 71" fill="none" xmlns="http://www.w3.org/2000/svg">
<g filter="url(#filter0_d)">
<path d="M30.4051 60.9487C47.1974 60.9487 60.8103 47.3359 60.8103 30.5436C60.8103 13.7513 47.1974 0.138428 30.4051 0.138428C13.6128 0.138428 0 13.7513 0 30.5436C0 47.3359 13.6128 60.9487 30.4051 60.9487Z" fill="#FFE17D"/>
<path d="M20.1073 30.5436C18.7531 30.5436 17.6553 29.4458 17.6553 28.0916V26.13C17.6553 24.7758 18.7531 23.678 20.1073 23.678C21.4615 23.678 22.5593 24.7758 22.5593 26.13V28.0916C22.5593 29.4458 21.4615 30.5436 20.1073 30.5436Z" fill="#7D5046"/>
<path d="M20.1066 23.678C19.9387 23.678 19.7748 23.6952 19.6162 23.7274V27.1108C19.6162 27.9233 20.2749 28.582 21.0874 28.582C21.8999 28.582 22.5586 27.9233 22.5586 27.1108V26.13C22.5586 24.7757 21.4609 23.678 20.1066 23.678Z" fill="#9C6846"/>
<path d="M40.704 30.5436C39.3497 30.5436 38.252 29.4458 38.252 28.0916V26.13C38.252 24.7758 39.3497 23.678 40.704 23.678C42.0582 23.678 43.156 24.7758 43.156 26.13V28.0916C43.156 29.4458 42.0582 30.5436 40.704 30.5436Z" fill="#7D5046"/>
<path d="M40.7043 23.678C40.5363 23.678 40.3724 23.6952 40.2139 23.7274V27.1108C40.2139 27.9233 40.8726 28.582 41.6851 28.582C42.4976 28.582 43.1563 27.9233 43.1563 27.1108V26.13C43.1563 24.7757 42.0585 23.678 40.7043 23.678Z" fill="#9C6846"/>
<path d="M20.5925 45.5008C20.2956 45.5008 19.9977 45.3936 19.7621 45.1771C19.2639 44.7182 19.2314 43.9429 19.6902 43.4443C22.1787 40.7399 26.1832 39.1255 30.4005 39.1255C34.6197 39.1255 38.6234 40.7404 41.1108 43.4448C41.5697 43.9429 41.5371 44.7187 41.039 45.1771C40.5419 45.6359 39.7651 45.6047 39.3063 45.1047C37.2747 42.896 33.9453 41.5775 30.4004 41.5775C26.8564 41.5775 23.5271 42.896 21.4946 45.1052C21.2534 45.3678 20.9229 45.5008 20.5925 45.5008Z" fill="#AA7346"/>
<path d="M34.8188 56.5352C18.0264 56.5352 4.41361 42.9224 4.41361 26.1301C4.41361 18.8582 6.96967 12.1852 11.2282 6.95312C4.37822 12.5282 0 21.0233 0 30.5437C0 47.336 13.6128 60.9488 30.4051 60.9488C39.9256 60.9488 48.4208 56.5705 53.996 49.7206C48.7638 53.9791 42.0908 56.5352 34.8188 56.5352Z" fill="#FFD164"/>
</g>
<defs>
<filter id="filter0_d" x="0" y="0.138428" width="68.8103" height="70.8104" filterUnits="userSpaceOnUse" color-interpolation-filters="sRGB">
<feFlood flood-opacity="0" result="BackgroundImageFix"/>
<feColorMatrix in="SourceAlpha" type="matrix" values="0 0 0 0 0 0 0 0 0 0 0 0 0 0 0 0 0 0 127 0"/>
<feOffset dx="4" dy="6"/>
<feGaussianBlur stdDeviation="2"/>
<feColorMatrix type="matrix" values="0 0 0 0 0 0 0 0 0 0 0 0 0 0 0 0 0 0 0.25 0"/>
<feBlend mode="normal" in2="BackgroundImageFix" result="effect1_dropShadow"/>
<feBlend mode="normal" in="SourceGraphic" in2="effect1_dropShadow" result="shape"/>
</filter>
</defs>
</svg>
