<svg width="69" height="69" viewBox="0 0 69 69" fill="none" xmlns="http://www.w3.org/2000/svg">
<g filter="url(#filter0_d)">
<path d="M30.4051 60.9487C47.1974 60.9487 60.8103 47.3359 60.8103 30.5436C60.8103 13.7513 47.1974 0.138428 30.4051 0.138428C13.6128 0.138428 0 13.7513 0 30.5436C0 47.3359 13.6128 60.9487 30.4051 60.9487Z" fill="#FFE17D"/>
<path d="M34.8188 56.535C18.0264 56.535 4.41361 42.9222 4.41361 26.1299C4.41361 18.8579 6.96967 12.1849 11.2282 6.95288C4.37822 12.5279 0 21.0231 0 30.5435C0 47.3358 13.6128 60.9486 30.4051 60.9486C39.9256 60.9486 48.4208 56.5703 53.996 49.7203C48.7638 53.9788 42.0908 56.535 34.8188 56.535Z" fill="#FFD164"/>
<path d="M19.6164 28.8272C17.7515 28.8272 15.9729 27.9451 14.7372 26.4073C14.3129 25.8795 14.3972 25.1079 14.925 24.6837C15.4557 24.2593 16.2248 24.3446 16.6491 24.8719C17.4277 25.8412 18.4814 26.3752 19.6164 26.3752C20.7514 26.3752 21.805 25.8412 22.5838 24.8719C23.0082 24.3446 23.7781 24.2594 24.3079 24.6837C24.8357 25.108 24.9199 25.8796 24.4956 26.4073C23.2601 27.9451 21.4814 28.8272 19.6164 28.8272Z" fill="#AA7346"/>
<path d="M41.1985 28.8272C39.3335 28.8272 37.555 27.9451 36.3193 26.4073C35.8949 25.8795 35.9792 25.1079 36.507 24.6837C37.0368 24.2593 37.8078 24.3446 38.2311 24.8719C39.0098 25.8412 40.0634 26.3752 41.1985 26.3752C42.3335 26.3752 43.387 25.8412 44.1658 24.8719C44.5902 24.3446 45.3592 24.2594 45.8899 24.6837C46.4177 25.108 46.5019 25.8796 46.0777 26.4073C44.842 27.9451 43.0634 28.8272 41.1985 28.8272Z" fill="#AA7346"/>
<path d="M24.5199 22.9428C24.336 22.9428 24.1483 22.9011 23.9729 22.8129L14.1648 17.9089C13.5585 17.6058 13.3133 16.8697 13.616 16.2638C13.9176 15.6589 14.6552 15.4105 15.2606 15.7155L25.0687 20.6195C25.675 20.9226 25.9202 21.6587 25.6176 22.2646C25.4029 22.6942 24.97 22.9428 24.5199 22.9428Z" fill="#AA7346"/>
<path d="M36.2908 22.9427C35.8406 22.9427 35.4077 22.6941 35.1931 22.2645C34.8905 21.6587 35.1356 20.9226 35.7419 20.6194L45.5501 15.7154C46.1555 15.4137 46.892 15.6593 47.1947 16.2638C47.4973 16.8696 47.2522 17.6056 46.6459 17.9088L36.8377 22.8129C36.6624 22.9005 36.4748 22.9427 36.2908 22.9427Z" fill="#AA7346"/>
<path d="M45.1172 41.5777C44.8787 41.5777 44.6384 41.5087 44.4266 41.3647C40.9726 39.0065 35.8617 37.6545 30.406 37.6545C24.9503 37.6545 19.8393 39.0065 16.3854 41.3647C15.826 41.7464 15.0637 41.6022 14.6815 41.0428C14.2993 40.4834 14.4439 39.7205 15.0024 39.3388C18.8547 36.7101 24.4695 35.2024 30.4061 35.2024C36.3427 35.2024 41.9575 36.7101 45.8099 39.3388C46.3684 39.7205 46.5129 40.4834 46.1308 41.0428C45.893 41.3906 45.5089 41.5777 45.1172 41.5777Z" fill="#AA7346"/>
<path d="M21.8146 47.6037L27.5765 33.628C27.7445 33.2206 27.2168 32.8885 26.9221 33.2161L16.7933 44.4763C16.2109 45.0766 15.2687 45.2367 14.5738 44.7715C13.3847 43.9754 11.8035 43.7766 10.3177 44.4938C9.00469 45.1276 8.11356 46.4598 7.98101 47.9118C7.90262 48.7706 8.07033 49.5324 8.39932 50.1844C8.70504 50.7903 8.65456 51.813 8.36642 52.4274C7.70309 53.8415 7.58622 55.5258 8.22556 57.1564C9.16812 59.5603 11.6645 61.1121 14.2373 60.8935C15.9826 60.7451 17.4412 59.8948 18.4157 58.6742C18.8391 58.1439 19.7339 57.646 20.4126 57.652C21.1429 57.6584 21.9003 57.4716 22.6357 57.0212C23.879 56.2598 24.6793 54.8711 24.6665 53.4132C24.6521 51.7634 23.7741 50.4335 22.5339 49.7195C21.8093 49.3023 21.5341 48.3915 21.8146 47.6037Z" fill="white"/>
<path d="M11.1638 56.1576C10.5331 54.5486 10.6384 52.8875 11.2785 51.4852C11.6129 50.7525 11.7003 49.9046 11.3376 49.1855C11.0336 48.5829 10.8673 47.8865 10.9058 47.1065C10.9641 45.9221 11.535 44.8175 12.4182 44.0631C11.8456 44.0353 11.254 44.1169 10.6698 44.3411C9.1216 44.9356 8.04898 46.4487 7.96739 48.1051C7.92891 48.8852 8.0953 49.5815 8.39924 50.1842C8.76196 50.9032 8.67454 51.7512 8.34021 52.4838C7.70016 53.8861 7.59469 55.5472 8.22559 57.1562C9.16815 59.5601 11.6646 61.112 14.2374 60.8933C15.3143 60.8017 16.282 60.4428 17.0943 59.8947C14.5506 60.074 12.0964 58.5359 11.1638 56.1576Z" fill="#FFF1C4"/>
<path d="M39.001 47.5857L33.2355 33.6258C33.0673 33.2186 33.5947 32.8861 33.8896 33.2135L44.0222 44.4585C44.6045 45.0587 45.5467 45.2189 46.2415 44.7536C47.4307 43.9575 49.0119 43.7587 50.4977 44.4759C51.8107 45.1097 52.7018 46.4419 52.8343 47.8939C52.9127 48.7527 52.745 49.5145 52.416 50.1666C52.1103 50.7724 52.1608 51.7951 52.4489 52.4095C53.1123 53.8236 53.2291 55.5079 52.5898 57.1385C51.6472 59.5424 49.1508 61.0942 46.578 60.8756C44.8328 60.7272 43.3742 59.877 42.3997 58.6564C41.9763 58.1261 41.0815 57.6282 40.4028 57.6341C39.6725 57.6405 38.9151 57.4537 38.1797 57.0033C36.9364 56.2419 36.1361 54.8532 36.1488 53.3953C36.1633 51.7455 37.0412 50.4156 38.2814 49.7016C39.0063 49.2843 39.2815 48.3735 39.001 47.5857Z" fill="white"/>
<path d="M47.5562 57.9858C45.8342 57.8395 44.3912 57.0098 43.417 55.8152C42.908 55.1911 42.1863 54.7373 41.381 54.7444C40.706 54.7503 40.008 54.5911 39.3255 54.2116C38.0335 53.4929 37.1976 52.1178 37.138 50.658C36.6059 51.2927 36.2499 52.0959 36.1654 53.0123C36.0133 54.6637 36.8955 56.2953 38.3447 57.1015C39.0272 57.4812 39.7252 57.6402 40.4002 57.6343C41.2055 57.6273 41.9272 58.081 42.4362 58.705C43.4104 59.8996 44.8533 60.7293 46.5754 60.8756C49.1482 61.0943 51.6447 59.5424 52.5873 57.1385C52.825 56.5322 52.9577 55.9185 52.9971 55.3141C51.8206 57.0907 49.7213 58.1699 47.5562 57.9858Z" fill="#FFF1C4"/>
</g>
<defs>
<filter id="filter0_d" x="0" y="0.138428" width="68.8103" height="68.8103" filterUnits="userSpaceOnUse" color-interpolation-filters="sRGB">
<feFlood flood-opacity="0" result="BackgroundImageFix"/>
<feColorMatrix in="SourceAlpha" type="matrix" values="0 0 0 0 0 0 0 0 0 0 0 0 0 0 0 0 0 0 127 0"/>
<feOffset dx="4" dy="4"/>
<feGaussianBlur stdDeviation="2"/>
<feColorMatrix type="matrix" values="0 0 0 0 0 0 0 0 0 0 0 0 0 0 0 0 0 0 0.25 0"/>
<feBlend mode="normal" in2="BackgroundImageFix" result="effect1_dropShadow"/>
<feBlend mode="normal" in="SourceGraphic" in2="effect1_dropShadow" result="shape"/>
</filter>
</defs>
</svg>
