<svg width="70" height="70" viewBox="0 0 70 70" fill="none" xmlns="http://www.w3.org/2000/svg">
<g filter="url(#filter0_d)">
<path d="M32.7628 60.9487C49.7527 60.9487 63.5257 47.3359 63.5257 30.5436C63.5257 13.7513 49.7527 0.138428 32.7628 0.138428C15.773 0.138428 2 13.7513 2 30.5436C2 47.3359 15.773 60.9487 32.7628 60.9487Z" fill="#FFE17D"/>
<path d="M21.8474 33.4856C26.2316 33.4856 29.7857 29.9729 29.7857 25.6397C29.7857 21.3065 26.2316 17.7937 21.8474 17.7937C17.4633 17.7937 13.9092 21.3065 13.9092 25.6397C13.9092 29.9729 17.4633 33.4856 21.8474 33.4856Z" fill="white"/>
<path d="M37.2284 56.5352C20.2385 56.5352 6.46554 42.9224 6.46554 26.1301C6.46554 18.8582 9.05166 12.1852 13.3603 6.95312C6.42973 12.5282 2 21.0233 2 30.5437C2 47.336 15.773 60.9488 32.7628 60.9488C42.3953 60.9488 50.9904 56.5705 56.6312 49.7206C51.3375 53.9791 44.586 56.5352 37.2284 56.5352Z" fill="#FFD164"/>
<path d="M38.7156 44.52H29.7844C29.0992 44.52 28.5439 43.9712 28.5439 43.2939C28.5439 42.6167 29.0992 42.0679 29.7844 42.0679H38.7156C39.4008 42.0679 39.9561 42.6167 39.9561 43.2939C39.9561 43.9712 39.4008 44.52 38.7156 44.52Z" fill="#AA7346"/>
<path d="M24.3286 24.1685C25.9728 24.1685 27.3056 22.8511 27.3056 21.2261C27.3056 19.6011 25.9728 18.2837 24.3286 18.2837C22.6844 18.2837 21.3516 19.6011 21.3516 21.2261C21.3516 22.8511 22.6844 24.1685 24.3286 24.1685Z" fill="#5A4650"/>
<path d="M43.6785 33.4856C48.0627 33.4856 51.6167 29.9729 51.6167 25.6397C51.6167 21.3065 48.0627 17.7937 43.6785 17.7937C39.2943 17.7937 35.7402 21.3065 35.7402 25.6397C35.7402 29.9729 39.2943 33.4856 43.6785 33.4856Z" fill="white"/>
<path d="M46.1596 24.1685C47.8038 24.1685 49.1367 22.8511 49.1367 21.2261C49.1367 19.6011 47.8038 18.2837 46.1596 18.2837C44.5155 18.2837 43.1826 19.6011 43.1826 21.2261C43.1826 22.8511 44.5155 24.1685 46.1596 24.1685Z" fill="#5A4650"/>
</g>
<defs>
<filter id="filter0_d" x="0" y="0.138428" width="69.5257" height="69.8104" filterUnits="userSpaceOnUse" color-interpolation-filters="sRGB">
<feFlood flood-opacity="0" result="BackgroundImageFix"/>
<feColorMatrix in="SourceAlpha" type="matrix" values="0 0 0 0 0 0 0 0 0 0 0 0 0 0 0 0 0 0 127 0"/>
<feOffset dx="2" dy="5"/>
<feGaussianBlur stdDeviation="2"/>
<feColorMatrix type="matrix" values="0 0 0 0 0 0 0 0 0 0 0 0 0 0 0 0 0 0 0.25 0"/>
<feBlend mode="normal" in2="BackgroundImageFix" result="effect1_dropShadow"/>
<feBlend mode="normal" in="SourceGraphic" in2="effect1_dropShadow" result="shape"/>
</filter>
</defs>
</svg>
