<svg width="69" height="71" viewBox="0 0 69 71" fill="none" xmlns="http://www.w3.org/2000/svg">
<g filter="url(#filter0_d)">
<path d="M30.4051 60.8103C47.1974 60.8103 60.8103 47.1974 60.8103 30.4051C60.8103 13.6128 47.1974 0 30.4051 0C13.6128 0 0 13.6128 0 30.4051C0 47.1974 13.6128 60.8103 30.4051 60.8103Z" fill="#FFE17D"/>
<path d="M34.8188 56.3966C18.0264 56.3966 4.41361 42.7837 4.41361 25.9914C4.41361 18.7195 6.96967 12.0465 11.2282 6.81445C4.37822 12.3895 0 20.8847 0 30.405C0 47.1973 13.6128 60.8102 30.4051 60.8102C39.9256 60.8102 48.4208 56.4318 53.996 49.5819C48.7638 53.8404 42.0908 56.3966 34.8188 56.3966Z" fill="#FFD164"/>
<path d="M30.4045 36.2611C24.5464 36.2611 18.9545 35.5809 13.8245 34.3514C13.16 34.1921 12.5873 34.8863 12.7923 35.6099C15.1582 43.9623 22.1416 50.0214 30.4047 50.0214C38.6677 50.0214 45.6511 43.9623 48.0171 35.6099C48.2221 34.8863 47.6494 34.1921 46.9848 34.3514C41.8546 35.5809 36.2626 36.2611 30.4045 36.2611Z" fill="#9C6846"/>
<path d="M46.9847 34.3514C41.8546 35.5809 36.2628 36.2611 30.4045 36.2611C24.5463 36.2611 18.9545 35.581 13.8245 34.3514C13.16 34.1921 12.5873 34.8863 12.7923 35.6099C13.4115 37.7962 14.3538 39.8194 15.5461 41.624C20.4204 42.55 25.3793 43.0594 30.4067 43.0594C35.4324 43.0594 40.3894 42.5503 45.2623 41.6251C46.4549 39.8203 47.3976 37.7968 48.017 35.61C48.2218 34.8862 47.6493 34.1921 46.9847 34.3514Z" fill="#7D5046"/>
<path d="M20.1063 27.5123C18.7521 27.5123 17.6543 26.4145 17.6543 25.0602V21.0875C17.6543 19.7333 18.7521 18.6355 20.1063 18.6355C21.4605 18.6355 22.5583 19.7333 22.5583 21.0875V25.0602C22.5583 26.4145 21.4605 27.5123 20.1063 27.5123Z" fill="#7D5046"/>
<path d="M20.1076 18.6355C19.9396 18.6355 19.7757 18.6527 19.6172 18.6849V24.0793C19.6172 24.8918 20.2759 25.5505 21.0884 25.5505C21.9009 25.5505 22.5596 24.8918 22.5596 24.0793V21.0874C22.5596 19.7333 21.4619 18.6355 20.1076 18.6355Z" fill="#9C6846"/>
<path d="M40.704 27.5123C39.3497 27.5123 38.252 26.4145 38.252 25.0602V21.0875C38.252 19.7333 39.3497 18.6355 40.704 18.6355C42.0582 18.6355 43.156 19.7333 43.156 21.0875V25.0602C43.156 26.4145 42.0582 27.5123 40.704 27.5123Z" fill="#7D5046"/>
<path d="M40.7052 18.6355C40.5373 18.6355 40.3734 18.6527 40.2148 18.6849V24.0793C40.2148 24.8918 40.8735 25.5505 41.686 25.5505C42.4986 25.5505 43.1573 24.8918 43.1573 24.0793V21.0874C43.1573 19.7333 42.0595 18.6355 40.7052 18.6355Z" fill="#9C6846"/>
<path d="M43.5937 37.7009C44.1239 36.7924 44.5675 35.819 44.9394 34.8056C40.3806 35.7464 35.4934 36.2609 30.4045 36.2609C25.3125 36.2609 20.4226 35.7459 15.8613 34.804C16.2352 35.8222 16.6861 36.7974 17.2198 37.7097C17.8368 38.7643 18.8814 39.439 20.0178 39.5772C23.4205 39.9911 26.8883 40.2131 30.4045 40.2131C33.92 40.2131 37.387 39.9912 40.7889 39.5774C41.9291 39.4388 42.9757 38.7598 43.5937 37.7009Z" fill="white"/>
</g>
<defs>
<filter id="filter0_d" x="0" y="0" width="68.8103" height="70.8103" filterUnits="userSpaceOnUse" color-interpolation-filters="sRGB">
<feFlood flood-opacity="0" result="BackgroundImageFix"/>
<feColorMatrix in="SourceAlpha" type="matrix" values="0 0 0 0 0 0 0 0 0 0 0 0 0 0 0 0 0 0 127 0"/>
<feOffset dx="4" dy="6"/>
<feGaussianBlur stdDeviation="2"/>
<feColorMatrix type="matrix" values="0 0 0 0 0 0 0 0 0 0 0 0 0 0 0 0 0 0 0.25 0"/>
<feBlend mode="normal" in2="BackgroundImageFix" result="effect1_dropShadow"/>
<feBlend mode="normal" in="SourceGraphic" in2="effect1_dropShadow" result="shape"/>
</filter>
</defs>
</svg>
