<svg width="307" height="324" viewBox="0 0 307 324" fill="none" xmlns="http://www.w3.org/2000/svg">
<mask id="mask0" mask-type="alpha" maskUnits="userSpaceOnUse" x="0" y="0" width="307" height="324">
<rect width="307" height="323.287" fill="#C4C4C4"/>
</mask>
<g mask="url(#mask0)">
<g opacity="0.2">
<path d="M450.497 168.259C450.497 168.259 424.807 89.0926 372.404 43.4699C320.002 -2.15286 244.231 -10.9354 180.904 24.809C117.577 60.5533 110.618 146.564 63.262 212.141C15.9062 277.718 10.0433 357.26 79.4213 402.499C148.799 447.737 185.38 401.416 273.64 406.172C361.9 410.927 501.896 353.722 450.497 168.259Z" fill="white"/>
<path opacity="0.7" d="M450.497 168.259C450.497 168.259 424.807 89.0926 372.404 43.4699C320.002 -2.15286 244.231 -10.9354 180.904 24.809C117.577 60.5533 110.618 146.564 63.262 212.141C15.9062 277.718 10.0433 357.26 79.4213 402.499C148.799 447.737 185.38 401.416 273.64 406.172C361.9 410.927 501.896 353.722 450.497 168.259Z" fill="white"/>
</g>
<path d="M160.771 91.6512C163.296 88.8388 166.375 86.17 167.207 82.4852C167.966 79.0979 166.704 75.3001 168.428 72.2208C170.563 68.5154 176.034 68.1151 178.61 64.6868C179.863 63.0343 180.263 60.8685 181.495 59.2057C183.547 56.3728 187.592 55.6748 191.102 56.1264C194.612 56.578 197.959 57.8508 201.479 58.1793C206.303 58.5796 211.302 57.081 215.921 58.5283C221.053 60.1192 224.081 64.6869 227.356 69.121L231.626 74.2532C232.497 75.1407 233.453 75.9416 234.479 76.6448C236.286 77.8457 238.369 78.6976 239.919 80.2168C240.703 81.0618 241.309 82.0569 241.698 83.142C242.087 84.2272 242.253 85.38 242.185 86.531C242.117 87.6819 241.816 88.8071 241.302 89.8388C240.787 90.8705 240.069 91.7873 239.19 92.5339C241.034 93.1963 242.616 94.4338 243.703 96.0639C244.79 97.694 245.323 99.6303 245.226 101.587C244.898 103.702 244.316 105.77 243.491 107.746C242.824 109.799 242.403 112.057 243.234 114.038C244.066 116.019 246.56 117.404 248.438 116.368C248.077 117.754 247.412 119.043 246.49 120.14C245.569 121.237 244.415 122.116 243.111 122.711C244.124 123.766 245.5 124.397 246.96 124.476C242.916 133.622 232.19 138.303 222.193 138.21C212.195 138.118 202.69 134.187 193.453 130.327L166.642 122.937C164.281 122.362 163.347 119.478 163.419 117.055C163.491 114.633 164.138 112.118 163.306 109.87C162.157 106.791 158.574 105.046 157.384 101.946C156.039 98.3435 158.246 94.4636 160.771 91.6512Z" fill="#263238"/>
<path d="M199.427 62.8497L200.905 62.7881C216.928 63.0344 225.662 76.7783 224.975 92.7804L225.57 147.9C225.624 152.703 223.832 157.343 220.564 160.863C217.296 164.384 212.802 166.515 208.008 166.817C205.526 166.975 203.037 166.637 200.687 165.824C198.337 165.011 196.172 163.738 194.318 162.079C192.465 160.421 190.96 158.41 189.892 156.164C188.823 153.918 188.213 151.482 188.095 148.998C187.951 146.104 187.849 144.071 187.838 144.071C187.828 144.071 172.38 142.347 171.528 127.002C171.118 119.591 171.528 104.256 172.042 90.3786C172.311 83.188 175.279 76.3627 180.353 71.2613C185.428 66.16 192.238 63.1568 199.427 62.8497Z" fill="#FFBE9D"/>
<path d="M187.839 144.071C194.93 143.749 201.779 141.402 207.577 137.307C207.577 137.307 203.471 148.721 188.075 147.992L187.839 144.071Z" fill="#EB996E"/>
<path d="M178.477 102.654C178.496 103.226 178.737 103.768 179.149 104.165C179.562 104.562 180.112 104.782 180.684 104.779C180.964 104.796 181.244 104.755 181.508 104.66C181.771 104.564 182.012 104.416 182.216 104.223C182.42 104.031 182.582 103.799 182.693 103.541C182.804 103.284 182.861 103.007 182.86 102.726C182.842 102.155 182.601 101.613 182.188 101.216C181.776 100.819 181.226 100.599 180.653 100.602C180.374 100.585 180.094 100.625 179.83 100.721C179.567 100.817 179.325 100.965 179.122 101.158C178.918 101.35 178.755 101.582 178.645 101.839C178.534 102.097 178.477 102.374 178.477 102.654Z" fill="#263238"/>
<path d="M175.594 96.6087C175.881 96.8859 177.482 95.5823 179.843 95.4899C182.204 95.3975 183.949 96.5163 184.226 96.1981C184.349 96.0647 184.052 95.5618 183.272 95.0485C182.222 94.3831 180.992 94.0603 179.751 94.1248C178.524 94.1739 177.345 94.6126 176.384 95.377C175.676 95.9621 175.46 96.4445 175.594 96.6087Z" fill="#263238"/>
<path d="M200.865 102.654C200.886 103.227 201.129 103.769 201.543 104.166C201.957 104.562 202.509 104.782 203.082 104.779C203.359 104.787 203.636 104.741 203.896 104.642C204.155 104.543 204.393 104.394 204.595 104.204C204.797 104.013 204.96 103.784 205.074 103.531C205.187 103.277 205.25 103.004 205.258 102.726C205.234 102.155 204.99 101.616 204.576 101.222C204.163 100.827 203.612 100.609 203.041 100.612C202.762 100.595 202.482 100.635 202.22 100.73C201.957 100.825 201.716 100.973 201.513 101.164C201.309 101.355 201.146 101.586 201.035 101.843C200.924 102.099 200.866 102.375 200.865 102.654Z" fill="#263238"/>
<path d="M198.749 96.578C199.036 96.8449 200.648 95.5515 202.999 95.4489C205.349 95.3463 207.104 96.4753 207.381 96.1674C207.505 96.034 207.207 95.5208 206.427 95.0075C205.375 94.3483 204.146 94.026 202.906 94.0837C201.676 94.1336 200.494 94.572 199.529 95.336C198.831 95.9211 198.605 96.4445 198.749 96.578Z" fill="#263238"/>
<path d="M191.061 115.064C189.801 114.732 188.505 114.557 187.202 114.541C186.596 114.541 186.022 114.407 185.898 114.007C185.822 113.386 185.936 112.755 186.227 112.201L187.808 107.53C190.004 100.9 191.564 95.4493 191.297 95.3672C191.031 95.285 189.029 100.592 186.843 107.222C186.309 108.865 185.806 110.428 185.334 111.913C184.98 112.656 184.904 113.5 185.118 114.295C185.216 114.503 185.359 114.686 185.536 114.832C185.714 114.977 185.922 115.081 186.145 115.136C186.482 115.208 186.827 115.239 187.171 115.229C189.573 115.259 191.061 115.208 191.061 115.064Z" fill="#263238"/>
<path d="M198.071 116.399C197.691 116.399 197.794 118.955 195.679 120.874C193.565 122.793 190.834 122.619 190.824 122.927C190.824 123.091 191.45 123.399 192.61 123.378C194.127 123.347 195.583 122.776 196.716 121.767C197.794 120.809 198.456 119.469 198.563 118.031C198.563 116.974 198.256 116.378 198.071 116.399Z" fill="#263238"/>
<path d="M198.483 86.9912C198.75 87.6276 201.09 87.2171 203.872 87.4326C206.653 87.6482 208.932 88.3051 209.271 87.72C209.425 87.4326 209.004 86.8475 208.08 86.2625C206.847 85.5424 205.461 85.1239 204.036 85.041C202.612 84.9256 201.182 85.1581 199.869 85.7185C198.842 86.1804 198.349 86.6936 198.483 86.9912Z" fill="#263238"/>
<path d="M176.23 88.7258C176.671 89.239 178.283 88.6129 180.223 88.5102C182.162 88.4076 183.856 88.7155 184.205 88.1407C184.359 87.8533 184.082 87.3298 183.333 86.8577C182.344 86.2696 181.193 86.0108 180.048 86.1187C178.901 86.1883 177.804 86.6114 176.907 87.3298C176.24 87.9149 176.035 88.4692 176.23 88.7258Z" fill="#263238"/>
<path d="M224.205 104.204C224.462 104.081 234.623 100.632 234.736 111.143C234.849 121.654 224.277 119.601 224.257 119.293C224.236 118.985 224.205 104.204 224.205 104.204Z" fill="#FFBE9D"/>
<path d="M227.418 115.28C227.469 115.28 227.603 115.403 227.921 115.547C228.359 115.725 228.849 115.725 229.286 115.547C230.395 115.126 231.339 113.35 231.339 111.441C231.358 110.538 231.172 109.644 230.795 108.823C230.695 108.496 230.516 108.198 230.274 107.955C230.033 107.711 229.736 107.53 229.409 107.427C229.198 107.372 228.974 107.393 228.776 107.487C228.579 107.581 228.422 107.741 228.332 107.941C228.188 108.238 228.26 108.454 228.208 108.464C228.157 108.474 227.983 108.3 228.055 107.859C228.11 107.598 228.256 107.366 228.465 107.202C228.608 107.087 228.773 107.003 228.949 106.954C229.125 106.904 229.31 106.891 229.492 106.914C229.924 106.997 230.328 107.188 230.665 107.47C231.003 107.752 231.263 108.115 231.421 108.526C231.881 109.431 232.111 110.436 232.088 111.451C232.088 113.566 230.99 115.557 229.471 116.019C229.191 116.104 228.895 116.125 228.605 116.08C228.316 116.036 228.04 115.927 227.798 115.762C227.449 115.536 227.387 115.3 227.418 115.28Z" fill="#EB996E"/>
<path d="M224.554 73.3911C222.893 70.3812 220.552 67.8012 217.718 65.8571C214.73 63.3422 211.302 61.4036 207.607 60.1399C204.726 59.1293 201.674 58.6997 198.626 58.8759C195.578 59.0521 192.595 59.8306 189.85 61.1663C187.854 62.1634 186.131 63.6327 184.831 65.4466C181.064 67.7868 177.317 72.1492 178.806 72.9703L180.858 70.7635C180.858 70.7635 181.762 72.6418 185.57 75.5261C185.657 75.5925 185.749 75.6509 185.847 75.7006C186.187 75.9495 186.556 76.1563 186.945 76.3165L187.161 76.4499C191.646 77.9485 194.561 77.3429 199.026 75.7827C202.106 74.7563 204.928 72.9498 207.925 71.677C210.566 71.6713 213.118 72.6231 215.11 74.356C215.423 74.6167 215.712 74.9053 215.973 75.2182C216.471 75.9854 216.797 76.8521 216.926 77.758C217.056 78.6639 216.986 79.5871 216.722 80.4632C216.311 82.2492 215.49 83.9018 214.977 85.657C214.043 88.88 214.187 92.3083 214.341 95.6544C214.556 100.376 214.823 105.293 217.143 109.398C218.169 111.328 220.581 113.247 222.501 111.195C223.274 110.31 223.665 109.155 223.589 107.982C223.455 104.779 226.268 103.301 227.694 100.982C228.793 98.9997 229.338 96.7594 229.275 94.4946C229.603 87.1657 227.973 79.8816 224.554 73.3911Z" fill="#263238"/>
<path d="M224.205 146.873C224.205 146.873 211.57 158.595 201.388 158.534C191.205 158.472 188.762 153.135 188.762 153.135L183.025 160.432C183.025 160.432 182.491 208.049 181.855 208.87C181.218 209.691 187.839 213.848 187.839 213.848L221.629 165.349L224.205 146.873Z" fill="#5AADD3"/>
<path d="M152.642 321.798C152.642 321.798 147.859 320.227 146.555 315.793C145.252 311.359 148.824 267.038 148.824 267.038L151.513 264.369L149.46 262.716V248.644L154.243 219.001C154.243 219.001 158.954 178.282 164.672 175.367L173.54 215.685L167.022 310.24L152.642 321.798Z" fill="#EBEBEB"/>
<path d="M188.762 153.134L188.095 149.029C186.555 150.23 182.47 156.624 182.47 156.624C176.855 161.366 165.144 173.355 163.019 178.046C159.94 184.707 159.683 215.285 159.683 215.285L161.182 366.519L262.326 366.673L260.694 298.159L257.481 162.988L232.652 150.496L226.001 143.178L184.174 211.343L184.471 165.441C184.495 160.976 186.004 156.646 188.762 153.134Z" fill="#EBEBEB"/>
<path d="M295.419 277.148C298.043 272.009 298.573 266.052 296.897 260.53C291.21 241.521 273.515 182.685 270.292 175.336C266.75 167.299 256.661 162.516 256.661 162.516L241.131 203.306L245.082 222.316L259.309 262.942L217.677 311.646L247.443 336.116C247.443 336.116 292.309 283.05 295.336 277.292L295.419 277.148Z" fill="#EBEBEB"/>
<path d="M186.166 316.162C186.484 316.049 197.046 317.959 199.047 317.435C202.744 316.41 206.521 315.703 210.338 315.321C215.193 314.9 220.52 314.007 220.52 314.007L241.049 330.902L232.601 333.899C228.217 334.315 223.795 333.811 219.617 332.421C212.011 330.101 199.663 323.768 199.663 323.768C196.84 323.877 194.014 323.736 191.216 323.347C187.633 322.711 181.721 317.856 186.166 316.162Z" fill="#FFBE9D"/>
<path d="M182.49 366.643C182.506 366.506 182.506 366.368 182.49 366.232V365.011V360.351C182.49 356.245 182.429 350.404 182.388 343.178C182.285 328.685 182.039 308.66 182.08 286.54C182.08 275.485 182.203 264.985 182.388 255.367C182.49 250.574 182.593 246.016 182.696 241.757C182.798 237.497 183.065 233.545 183.229 229.922C183.537 222.737 183.794 216.845 183.968 212.77C184.04 210.769 184.102 209.198 184.143 208.1C184.143 207.587 184.143 207.187 184.143 206.889C184.161 206.753 184.161 206.615 184.143 206.478C184.143 206.478 184.143 206.612 184.143 206.889C184.143 207.166 184.143 207.587 184.061 208.1C183.989 209.188 183.897 210.758 183.784 212.76C183.568 216.866 183.25 222.686 182.87 229.901C182.685 233.525 182.49 237.487 182.265 241.746C182.039 246.006 182.039 250.563 181.916 255.357C181.71 264.934 181.587 275.475 181.567 286.54C181.567 308.66 181.833 328.685 182.028 343.178C182.141 350.363 182.234 356.265 182.306 360.351C182.306 362.352 182.377 363.923 182.398 365.011C182.398 365.524 182.398 365.934 182.398 366.232C182.415 366.372 182.446 366.509 182.49 366.643Z" fill="#263238"/>
<path d="M232.651 150.466C232.519 150.603 232.401 150.754 232.302 150.917L231.368 152.293C230.547 153.535 229.387 155.29 227.93 157.476L216.095 175.603L216.239 175.49L207.37 177.707L207.052 177.789L207.196 178.087C208.222 180.027 209.249 182.059 210.275 184.122C210.429 184.44 210.593 184.759 210.747 185.046V184.769L191.296 209.999C188.864 213.201 186.883 215.808 185.477 217.645L183.916 219.698L183.526 220.253C183.434 220.376 183.393 220.448 183.403 220.458C183.466 220.408 183.521 220.349 183.567 220.283L184.009 219.77L185.641 217.717L191.594 210.163L211.168 185.026L211.271 184.892L211.189 184.748C211.045 184.451 210.881 184.133 210.717 183.814L207.637 177.779L207.473 178.159L216.331 175.921H216.434L216.485 175.839L228.166 157.61L231.481 152.344L232.343 150.938C232.457 150.788 232.56 150.63 232.651 150.466Z" fill="#263238"/>
<path d="M183.456 220.499C183.406 220.262 183.331 220.032 183.23 219.811C183.076 219.37 182.789 218.785 182.501 217.892C181.896 216.219 181.116 213.786 180.274 210.707C178.601 204.548 176.692 195.844 175.019 186.073V186.247L175.799 184.985L179.987 178.149L180.315 177.615L179.71 177.758L174.731 178.959L175.029 179.278C177.236 172.688 179.135 167.043 180.49 162.988L182.009 158.287L182.368 157.004C182.423 156.994 182.473 156.963 182.507 156.918C182.541 156.873 182.557 156.817 182.552 156.761C182.547 156.705 182.521 156.653 182.479 156.615C182.438 156.577 182.383 156.556 182.327 156.556C182.271 156.556 182.216 156.577 182.175 156.615C182.133 156.653 182.107 156.705 182.102 156.761C182.097 156.817 182.113 156.873 182.147 156.918C182.181 156.963 182.231 156.994 182.286 157.004C182.163 157.332 182.019 157.733 181.824 158.236C181.424 159.375 180.859 160.935 180.171 162.885C178.765 166.93 176.805 172.554 174.526 179.124L174.372 179.544L174.814 179.442L179.792 178.272L179.515 177.882C178.16 180.068 176.753 182.357 175.306 184.707L174.526 185.97V186.062V186.155C175.907 194.454 177.716 202.676 179.946 210.789C180.839 213.868 181.68 216.321 182.348 217.974C182.655 218.816 182.974 219.432 183.158 219.863C183.246 220.08 183.345 220.293 183.456 220.499Z" fill="#263238"/>
<path d="M154.438 302.942C154.438 302.942 162.085 303.455 164.507 304.564C166.93 305.672 168.613 309.419 170.543 310.969C172.473 312.519 175.336 313.288 174.649 315.218C174.176 316.272 173.319 317.106 172.253 317.548C171.186 317.991 169.99 318.009 168.911 317.599C167.099 316.904 165.328 316.109 163.604 315.218H151.461C151.461 315.218 149.029 305.611 148.803 305.754C148.577 305.898 152.242 302.932 154.438 302.942Z" fill="#FFBE9D"/>
<path d="M160.227 199.929C160.084 199.929 159.96 223.106 159.96 251.692C159.96 280.278 160.084 303.466 160.227 303.466C160.371 303.466 160.494 280.289 160.494 251.692C160.494 223.096 160.381 199.929 160.227 199.929Z" fill="#263238"/>
<path d="M272.498 306.176C272.498 306.176 272.324 306.34 272.026 306.689L270.671 308.249C269.491 309.655 267.766 311.677 265.539 314.254C261.146 319.478 254.854 326.94 247.227 336.014H247.525L217.81 311.503V311.883L227.397 300.674L259.411 263.148L259.493 263.045V262.922C255.172 250.728 251.59 240.587 249.075 233.473L246.129 225.262L245.339 223.117C245.154 222.624 245.051 222.378 245.051 222.378C245.051 222.378 245.113 222.645 245.277 223.137C245.441 223.63 245.688 224.379 245.996 225.313C246.663 227.233 247.617 230.025 248.829 233.525L259.093 263.035V262.809L227.017 300.284L217.44 311.492L217.266 311.698L217.471 311.872L247.238 336.312L247.402 336.445L247.535 336.281L265.713 314.397L270.712 308.321L272.016 306.72C272.385 306.371 272.498 306.176 272.498 306.176Z" fill="#263238"/>
<path d="M263.701 168.12C263.559 168.096 263.413 168.096 263.27 168.12C262.983 168.12 262.562 168.12 262.018 168.12C260.483 168.181 258.958 168.384 257.46 168.726C252.474 169.833 247.901 172.326 244.27 175.918C240.638 179.51 238.094 184.055 236.932 189.029C236.565 190.52 236.342 192.042 236.265 193.576C236.265 194.12 236.265 194.541 236.265 194.828C236.24 194.971 236.24 195.117 236.265 195.259C236.363 194.71 236.424 194.154 236.449 193.596C236.612 192.086 236.886 190.591 237.271 189.121C238.512 184.255 241.057 179.82 244.63 176.291C248.204 172.763 252.671 170.275 257.553 169.096C259.022 168.724 260.519 168.466 262.028 168.326C262.59 168.297 263.149 168.228 263.701 168.12Z" fill="#263238"/>
<path d="M275.343 266.011C274.74 265.438 274.047 264.97 273.29 264.625C269.768 262.744 265.724 262.077 261.784 262.726C260.964 262.809 260.165 263.035 259.423 263.394C264.873 262.31 270.53 263.244 275.343 266.021V266.011Z" fill="#263238"/>
<path d="M160.679 315.218H150.446L163.225 353.576L167.022 326.807L160.679 315.218Z" fill="#EBEBEB"/>
<path d="M163.583 315.218C163.271 315.164 162.955 315.14 162.639 315.147L159.96 315.085L150.404 314.993H150.085L150.188 315.301C151.43 319.068 152.898 323.512 154.458 328.244C156.798 335.265 158.944 341.588 160.524 346.196L162.423 351.626L162.967 353.084C163.018 353.259 163.09 353.428 163.183 353.586C163.171 353.404 163.133 353.224 163.07 353.053L162.618 351.554C162.187 350.189 161.592 348.331 160.883 346.083C159.395 341.464 157.311 335.09 154.971 328.069L150.629 315.157L150.404 315.455L159.96 315.362L162.639 315.301C162.955 315.304 163.272 315.276 163.583 315.218Z" fill="#263238"/>
<path d="M160.228 303.466C159.849 303.289 159.449 303.165 159.037 303.096C157.92 302.832 156.777 302.694 155.629 302.686C153.902 302.64 152.193 303.047 150.671 303.866C148.865 305.004 147.506 306.729 146.822 308.752C145.231 313.001 146.432 317.476 148.578 319.529C149.406 320.332 150.377 320.973 151.441 321.418C151.82 321.606 152.225 321.734 152.642 321.798C152.286 321.585 151.915 321.397 151.534 321.233C150.538 320.724 149.63 320.059 148.844 319.262C146.904 317.281 145.765 312.991 147.325 308.947C147.957 307.029 149.229 305.388 150.928 304.297C152.367 303.49 153.989 303.066 155.639 303.065C157.176 303.095 158.709 303.228 160.228 303.466Z" fill="#263238"/>
<path d="M201.388 221.074C201.007 221.387 200.702 221.783 200.495 222.231C200.289 222.679 200.187 223.168 200.197 223.661C200.3 225.252 200.197 236.091 200.197 236.091C200.197 236.091 199.797 237.682 201.388 237.682V221.074Z" fill="#263238"/>
<path d="M201.069 219.309H204.395V224.749H201.069V219.309Z" fill="#263238"/>
<path d="M203.728 219.935H201.675V217.882C201.675 217.61 201.783 217.349 201.975 217.156C202.168 216.964 202.429 216.855 202.701 216.855C202.973 216.855 203.234 216.964 203.427 217.156C203.619 217.349 203.728 217.61 203.728 217.882V219.935Z" fill="#263238"/>
<path d="M229.48 224.42C229.48 224.266 222.018 224.153 212.821 224.153C203.625 224.153 196.152 224.266 196.152 224.42C196.152 224.574 203.614 224.687 212.821 224.687C222.029 224.687 229.48 224.564 229.48 224.42Z" fill="#263238"/>
<g opacity="0.2">
<path opacity="0.2" d="M186.299 216.814L187.838 215.356L215.88 188.546L212.811 179.76H217.677L227.428 158.533L216.301 175.736L207.433 177.964L211.005 184.923" fill="black"/>
</g>
<g opacity="0.2">
<path opacity="0.2" d="M209.682 252.944C206.903 252.843 204.199 252.015 201.84 250.543C199.732 248.84 198.184 246.545 197.395 243.953C197.589 246.335 198.026 248.691 198.699 250.984C199.392 253.122 200.774 254.971 202.63 256.239C204.806 257.594 207.526 257.738 210.082 257.533C213.516 257.256 216.88 256.413 220.038 255.038C222.286 254.063 224.637 252.524 225.099 250.122C220.286 252.366 214.977 253.338 209.682 252.944Z" fill="black"/>
</g>
</g>
</svg>
