<svg width="191" height="37" viewBox="0 0 191 37" fill="none" xmlns="http://www.w3.org/2000/svg">
<path d="M23.9747 21.2802H1.94031C2.14924 27.3132 6.56073 31.7042 12.4016 31.7042C14.3582 31.7352 16.2825 31.2048 17.9444 30.1763C19.6064 29.1478 20.9359 27.6647 21.774 25.9042H23.2575C21.0307 30.5492 17.2309 33.0692 12.4016 33.0692C5.67181 33.0692 0.572266 27.8002 0.572266 20.8202C0.572266 13.9092 5.67482 8.64014 12.4016 8.64014C19.1755 8.64014 23.9998 13.9092 23.9998 20.7042C24.0028 20.8965 23.9944 21.0888 23.9747 21.2802ZM12.3995 9.98014C9.69453 9.95713 7.08787 10.9889 5.13716 12.8547C3.18645 14.7206 2.04659 17.2723 1.96141 19.9642H22.6288C22.2591 14.0232 17.9481 9.97915 12.4005 9.97915L12.3995 9.98014Z" fill="#7B7A7A"/>
<path d="M51.5798 9.10015V32.6281H50.3503L50.1886 26.4811C49.2262 28.504 47.6947 30.2053 45.7799 31.3785C43.8652 32.5516 41.6495 33.1462 39.402 33.0901C36.1835 33.0322 33.1165 31.7186 30.861 29.4321C28.6055 27.1456 27.3418 24.0689 27.3418 20.8641C27.3418 17.6594 28.6055 14.5827 30.861 12.2962C33.1165 10.0097 36.1835 8.6961 39.402 8.63814C41.6499 8.58024 43.8662 9.17411 45.7813 10.3475C47.6964 11.5209 49.2276 13.2231 50.1886 15.2471L50.3734 9.09914L51.5798 9.10015ZM50.1414 20.8641C50.1414 14.6011 45.6415 10.0011 39.4713 10.0011C36.6181 10.0621 33.9024 11.2333 31.9062 13.2638C29.91 15.2942 28.7921 18.0224 28.7921 20.8636C28.7921 23.7048 29.91 26.433 31.9062 28.4635C33.9024 30.494 36.6181 31.6652 39.4713 31.7261C45.6646 31.7271 50.1414 27.1511 50.1414 20.8641Z" fill="#7B7A7A"/>
<path d="M57.193 20.8642C57.1441 19.2581 57.4234 17.6589 58.0138 16.1635C58.6043 14.6681 59.4936 13.3076 60.6278 12.1645C61.762 11.0215 63.1176 10.1196 64.6124 9.51361C66.1071 8.90762 67.7099 8.61012 69.3236 8.63915C71.7041 8.56958 74.0465 9.24657 76.0196 10.5745C77.9927 11.9023 79.4967 13.814 80.3191 16.0392H78.9039C78.0873 14.2018 76.7408 12.6473 75.0352 11.5732C73.3297 10.499 71.342 9.95362 69.3246 10.0062C66.4714 10.0671 63.7557 11.2383 61.7595 13.2688C59.7633 15.2993 58.6454 18.0274 58.6454 20.8687C58.6454 23.7099 59.7633 26.438 61.7595 28.4685C63.7557 30.499 66.4714 31.6702 69.3246 31.7312C71.3559 31.7794 73.3557 31.2251 75.0698 30.139C76.7839 29.0528 78.1349 27.4837 78.9511 25.6312H80.3895C79.5525 27.8656 78.0373 29.785 76.0544 31.1228C74.0715 32.4606 71.7193 33.1503 69.3246 33.0962C67.7123 33.1176 66.1124 32.8146 64.6206 32.2056C63.1288 31.5965 61.776 30.6937 60.6431 29.5515C59.5102 28.4092 58.6207 27.051 58.0279 25.5582C57.435 24.0654 57.151 22.4689 57.193 20.8642Z" fill="#7B7A7A"/>
<path d="M105.348 18.7153V32.6283H103.957V18.9473C103.957 13.3303 100.895 9.95628 95.8379 9.95628C93.469 10.004 91.2113 10.9656 89.5408 12.6385C87.8703 14.3113 86.9175 16.5646 86.8833 18.9233V32.6283H85.4922V0.780273H86.8833V14.4163C87.7145 12.6863 89.0204 11.2258 90.6501 10.2035C92.2798 9.18124 94.1668 8.63894 96.093 8.63928C101.776 8.63928 105.348 12.5443 105.348 18.7153Z" fill="#7B7A7A"/>
<path d="M153.132 8.40734C151.743 8.37279 150.362 8.63316 149.082 9.17112C147.802 9.70909 146.652 10.5123 145.708 11.5273V9.10033H138.889V32.6283H147.032V20.0563C147.032 17.0513 148.493 15.2953 151.021 15.2953C153.062 15.2953 154.106 16.6593 154.106 19.3863V32.6293H162.249V18.2763C162.224 12.2873 158.629 8.40734 153.132 8.40734Z" fill="#7B7A7A"/>
<path d="M122.769 8.3374C115.068 8.3374 109.524 13.5844 109.524 20.8644C109.489 22.7036 109.873 24.5267 110.649 26.1963C111.424 27.866 112.57 29.3387 114 30.5034C113.389 31.3179 113.055 32.3063 113.049 33.3234V35.5644C113.049 35.7071 113.077 35.8484 113.131 35.9803C113.186 36.1123 113.266 36.2322 113.367 36.3332C113.469 36.4342 113.589 36.5143 113.721 36.5689C113.854 36.6235 113.996 36.6515 114.139 36.6514H131.166C131.31 36.6514 131.452 36.6232 131.584 36.5686C131.716 36.5139 131.836 36.4338 131.938 36.3329C132.039 36.2319 132.119 36.1121 132.174 35.9802C132.228 35.8483 132.256 35.707 132.256 35.5644V33.3234C132.256 32.3482 131.956 31.3963 131.397 30.5954C128.867 32.4289 125.814 33.409 122.684 33.3924C119.554 33.3759 116.511 32.3636 114 30.5034C114.445 29.9093 115.022 29.4265 115.687 29.0934C116.351 28.7602 117.084 28.586 117.828 28.5844H127.478C128.244 28.5843 128.999 28.7692 129.678 29.1233C130.357 29.4774 130.939 29.9901 131.375 30.6174C132.846 29.4594 134.027 27.9788 134.828 26.2911C135.628 24.6035 136.026 22.7545 135.991 20.8884C136.014 13.5844 130.447 8.3374 122.769 8.3374ZM122.769 26.1104C121.72 26.144 120.684 25.865 119.795 25.309C118.906 24.7529 118.204 23.9453 117.779 22.9895C117.354 22.0337 117.225 20.9733 117.409 19.9442C117.593 18.915 118.081 17.964 118.812 17.213C119.542 16.462 120.481 15.9452 121.508 15.7288C122.535 15.5124 123.604 15.6063 124.577 15.9985C125.551 16.3906 126.384 17.0631 126.971 17.9299C127.558 18.7966 127.872 19.8181 127.872 20.8634C127.912 21.5488 127.809 22.2351 127.569 22.8788C127.329 23.5224 126.958 24.1095 126.478 24.6028C125.999 25.0961 125.421 25.4848 124.783 25.7443C124.144 26.0038 123.459 26.1285 122.769 26.1104Z" fill="#7B7A7A"/>
<path d="M177.675 8.3374C170.252 8.3374 164.848 13.6304 164.848 20.8644C164.848 28.0524 170.299 33.4154 177.675 33.4154C183.243 33.4154 187.812 30.4564 189.713 25.6264H181.2C180.231 26.4824 178.97 26.9375 177.675 26.8984C176.497 26.966 175.338 26.5782 174.44 25.8159C173.541 25.0535 172.973 23.9755 172.854 22.8064H190.39C190.502 22.0956 190.556 21.3769 190.552 20.6574C190.548 13.7454 185.283 8.3374 177.675 8.3374ZM172.99 18.2984C173.209 17.2373 173.802 16.289 174.66 15.6238C175.519 14.9587 176.588 14.6202 177.675 14.6694C178.785 14.6111 179.881 14.9422 180.771 15.6052C181.661 16.2681 182.289 17.2208 182.546 18.2974L172.99 18.2984Z" fill="#7B7A7A"/>
</svg>
