<svg width="553" height="606" viewBox="0 0 553 606" fill="none" xmlns="http://www.w3.org/2000/svg">
<mask id="mask0" mask-type="alpha" maskUnits="userSpaceOnUse" x="0" y="0" width="553" height="606">
<rect width="553" height="606" fill="#C4C4C4"/>
</mask>
<g mask="url(#mask0)">
<mask id="mask1" mask-type="alpha" maskUnits="userSpaceOnUse" x="-31" y="-14" width="584" height="620">
<rect x="-31" y="-14" width="584" height="620" fill="#C4C4C4"/>
</mask>
<g mask="url(#mask1)">
<g style="mix-blend-mode:luminosity">
<path d="M403.261 399.993L383.037 410.979V433V455.021L390.267 458.946C394.248 461.105 403.327 466.041 410.455 469.912C417.584 473.789 423.456 476.952 423.5 476.952C423.544 476.952 429.416 473.789 436.545 469.912C443.673 466.041 452.759 461.105 456.733 458.946L463.964 455.021V433V410.979L443.987 400.124C433.002 394.156 423.895 389.206 423.748 389.137L423.485 389.007L403.261 399.993ZM439.138 401.375C447.647 406.002 455.922 410.491 457.522 411.357L460.421 412.939V433V453.054L457.193 454.814C455.411 455.777 449.392 459.049 443.805 462.081C438.225 465.12 431.374 468.832 428.591 470.345C425.808 471.857 423.485 473.081 423.434 473.061C423.339 473.026 420.221 471.328 396.235 458.307L386.579 453.054V433V412.939L389.815 411.179C391.589 410.216 399.879 405.713 408.235 401.169C416.591 396.631 423.478 392.926 423.544 392.939C423.61 392.96 430.621 396.755 439.138 401.375Z" fill="#85CBE9" fill-opacity="0.5"/>
<path d="M545.261 211.993L525.037 222.979V245V267.021L532.267 270.946C536.248 273.105 545.327 278.041 552.455 281.912C559.584 285.789 565.456 288.952 565.5 288.952C565.544 288.952 571.416 285.789 578.545 281.912C585.673 278.041 594.759 273.105 598.733 270.946L605.964 267.021V245V222.979L585.987 212.124C575.002 206.156 565.895 201.206 565.748 201.137L565.485 201.007L545.261 211.993ZM581.138 213.375C589.647 218.002 597.922 222.491 599.522 223.357L602.421 224.939V245V265.054L599.193 266.814C597.411 267.777 591.392 271.049 585.805 274.081C580.225 277.12 573.374 280.832 570.591 282.345C567.808 283.857 565.485 285.081 565.434 285.061C565.339 285.026 562.221 283.328 538.235 270.307L528.579 265.054V245V224.939L531.815 223.179C533.589 222.216 541.879 217.713 550.235 213.169C558.591 208.631 565.478 204.926 565.544 204.939C565.61 204.96 572.621 208.755 581.138 213.375Z" fill="#85CBE9" fill-opacity="0.8"/>
<path d="M467.261 211.993L447.037 222.979V245V267.021L454.267 270.946C458.248 273.105 467.327 278.041 474.455 281.912C481.584 285.789 487.456 288.952 487.5 288.952C487.544 288.952 493.416 285.789 500.545 281.912C507.673 278.041 516.759 273.105 520.733 270.946L527.964 267.021V245V222.979L507.987 212.124C497.002 206.156 487.895 201.206 487.748 201.137L487.485 201.007L467.261 211.993ZM503.138 213.375C511.647 218.002 519.922 222.491 521.522 223.357L524.421 224.939V245V265.054L521.193 266.814C519.411 267.777 513.392 271.049 507.805 274.081C502.225 277.12 495.374 280.832 492.591 282.345C489.808 283.857 487.485 285.081 487.434 285.061C487.339 285.026 484.221 283.328 460.235 270.307L450.579 265.054V245V224.939L453.815 223.179C455.589 222.216 463.879 217.713 472.235 213.169C480.591 208.631 487.478 204.926 487.544 204.939C487.61 204.96 494.621 208.755 503.138 213.375Z" fill="#85CBE9" fill-opacity="0.8"/>
<path d="M508.261 147.993L488.037 158.979V181V203.021L495.267 206.946C499.248 209.105 508.327 214.041 515.455 217.912C522.584 221.789 528.456 224.952 528.5 224.952C528.544 224.952 534.416 221.789 541.545 217.912C548.673 214.041 557.759 209.105 561.733 206.946L568.964 203.021V181V158.979L548.987 148.124C538.002 142.156 528.895 137.206 528.748 137.137L528.485 137.007L508.261 147.993ZM544.138 149.375C552.647 154.002 560.922 158.491 562.522 159.357L565.421 160.939V181V201.054L562.193 202.814C560.411 203.777 554.392 207.049 548.805 210.081C543.225 213.12 536.374 216.832 533.591 218.345C530.808 219.857 528.485 221.081 528.434 221.061C528.339 221.026 525.221 219.328 501.235 206.307L491.579 201.054V181V160.939L494.815 159.179C496.589 158.216 504.879 153.713 513.235 149.169C521.591 144.631 528.478 140.926 528.544 140.939C528.61 140.96 535.621 144.755 544.138 149.375Z" fill="#85CBE9" fill-opacity="0.8"/>
<path d="M558.261 526.993L538.037 537.979V560V582.021L545.267 585.946C549.248 588.105 558.327 593.041 565.455 596.912C572.584 600.789 578.456 603.952 578.5 603.952C578.544 603.952 584.416 600.789 591.545 596.912C598.673 593.041 607.759 588.105 611.733 585.946L618.964 582.021V560V537.979L598.987 527.124C588.002 521.156 578.895 516.206 578.748 516.137L578.485 516.007L558.261 526.993ZM594.138 528.375C602.647 533.002 610.922 537.491 612.522 538.357L615.421 539.939V560V580.054L612.193 581.814C610.411 582.777 604.392 586.049 598.805 589.081C593.225 592.12 586.374 595.832 583.591 597.345C580.808 598.857 578.485 600.081 578.434 600.061C578.339 600.026 575.221 598.328 551.235 585.307L541.579 580.054V560V539.939L544.815 538.179C546.589 537.216 554.879 532.713 563.235 528.169C571.591 523.631 578.478 519.926 578.544 519.939C578.61 519.96 585.621 523.755 594.138 528.375Z" fill="#85CBE9" fill-opacity="0.7"/>
<path d="M519.261 463.993L499.037 474.979V497V519.021L506.267 522.946C510.248 525.105 519.327 530.041 526.455 533.912C533.584 537.789 539.456 540.952 539.5 540.952C539.544 540.952 545.416 537.789 552.545 533.912C559.673 530.041 568.759 525.105 572.733 522.946L579.964 519.021V497V474.979L559.987 464.124C549.002 458.156 539.895 453.206 539.748 453.137L539.485 453.007L519.261 463.993ZM555.138 465.375C563.647 470.002 571.922 474.491 573.522 475.357L576.421 476.939V497V517.054L573.193 518.814C571.411 519.777 565.392 523.049 559.805 526.081C554.225 529.12 547.374 532.832 544.591 534.345C541.808 535.857 539.485 537.081 539.434 537.061C539.339 537.026 536.221 535.328 512.235 522.307L502.579 517.054V497V476.939L505.815 475.179C507.589 474.216 515.879 469.713 524.235 465.169C532.591 460.631 539.478 456.926 539.544 456.939C539.61 456.96 546.621 460.755 555.138 465.375Z" fill="#85CBE9" fill-opacity="0.7"/>
<path d="M403.261 525.993L383.037 536.979V559V581.021L390.267 584.946C394.248 587.105 403.327 592.041 410.455 595.912C417.584 599.789 423.456 602.952 423.5 602.952C423.544 602.952 429.416 599.789 436.545 595.912C443.673 592.041 452.759 587.105 456.733 584.946L463.964 581.021V559V536.979L443.987 526.124C433.002 520.156 423.895 515.206 423.748 515.137L423.485 515.007L403.261 525.993ZM439.138 527.375C447.647 532.002 455.922 536.491 457.522 537.357L460.421 538.939V559V579.054L457.193 580.814C455.411 581.777 449.392 585.049 443.805 588.081C438.225 591.12 431.374 594.832 428.591 596.345C425.808 597.857 423.485 599.081 423.434 599.061C423.339 599.026 420.221 597.328 396.235 584.307L386.579 579.054V559V538.939L389.815 537.179C391.589 536.216 399.879 531.713 408.235 527.169C416.591 522.631 423.478 518.926 423.544 518.939C423.61 518.96 430.621 522.755 439.138 527.375Z" fill="#85CBE9" fill-opacity="0.55"/>
<path d="M479.261 526.993L459.037 537.979V560V582.021L466.267 585.946C470.248 588.105 479.327 593.041 486.455 596.912C493.584 600.789 499.456 603.952 499.5 603.952C499.544 603.952 505.416 600.789 512.545 596.912C519.673 593.041 528.759 588.105 532.733 585.946L539.964 582.021V560V537.979L519.987 527.124C509.002 521.156 499.895 516.206 499.748 516.137L499.485 516.007L479.261 526.993ZM515.138 528.375C523.647 533.002 531.922 537.491 533.522 538.357L536.421 539.939V560V580.054L533.193 581.814C531.411 582.777 525.392 586.049 519.805 589.081C514.225 592.12 507.374 595.832 504.591 597.345C501.808 598.857 499.485 600.081 499.434 600.061C499.339 600.026 496.221 598.328 472.235 585.307L462.579 580.054V560V539.939L465.815 538.179C467.589 537.216 475.879 532.713 484.235 528.169C492.591 523.631 499.478 519.926 499.544 519.939C499.61 519.96 506.621 523.755 515.138 528.375Z" fill="#85CBE9" fill-opacity="0.7"/>
<path d="M442.261 462.993L422.037 473.979V496V518.021L429.267 521.946C433.248 524.105 442.327 529.041 449.455 532.912C456.584 536.789 462.456 539.952 462.5 539.952C462.544 539.952 468.416 536.789 475.545 532.912C482.673 529.041 491.759 524.105 495.733 521.946L502.964 518.021V496V473.979L482.987 463.124C472.002 457.156 462.895 452.206 462.748 452.137L462.485 452.007L442.261 462.993ZM478.138 464.375C486.647 469.002 494.922 473.491 496.522 474.357L499.421 475.939V496V516.054L496.193 517.814C494.411 518.777 488.392 522.049 482.805 525.081C477.225 528.12 470.374 531.832 467.591 533.345C464.808 534.857 462.485 536.081 462.434 536.061C462.339 536.026 459.221 534.328 435.235 521.307L425.579 516.054V496V475.939L428.815 474.179C430.589 473.216 438.879 468.713 447.235 464.169C455.591 459.631 462.478 455.926 462.544 455.939C462.61 455.96 469.621 459.755 478.138 464.375Z" fill="#85CBE9" fill-opacity="0.7"/>
<g opacity="0.4" clip-path="url(#clip0)">
<path d="M464.265 452.866L437.049 467.722V497.5V527.278L446.78 532.586C452.136 535.506 464.353 542.181 473.946 547.415C483.539 552.658 491.441 556.935 491.5 556.935C491.559 556.935 499.461 552.658 509.054 547.415C518.647 542.181 530.874 535.506 536.221 532.586L545.951 527.278V497.5V467.722L519.069 453.042C504.287 444.973 492.031 438.279 491.834 438.186L491.48 438.009L464.265 452.866ZM512.543 454.734C523.994 460.991 535.13 467.062 537.282 468.233L541.184 470.372V497.5V524.619L536.84 526.999C534.442 528.301 526.343 532.726 518.824 536.826C511.315 540.935 502.095 545.955 498.351 548.001C494.606 550.046 491.48 551.701 491.412 551.673C491.284 551.626 487.087 549.33 454.81 531.722L441.816 524.619V497.5V470.372L446.17 467.992C448.559 466.69 459.714 460.601 470.958 454.455C482.202 448.32 491.471 443.309 491.559 443.327C491.647 443.355 501.083 448.487 512.543 454.734Z" fill="#85CBE9" fill-opacity="0.5"/>
<path d="M442.261 463.993L422.037 474.979V497V519.021L429.267 522.946C433.248 525.105 442.327 530.041 449.455 533.912C456.584 537.789 462.456 540.952 462.5 540.952C462.544 540.952 468.416 537.789 475.545 533.912C482.673 530.041 491.759 525.105 495.733 522.946L502.964 519.021V497V474.979L482.987 464.124C472.002 458.156 462.895 453.206 462.748 453.137L462.485 453.007L442.261 463.993ZM478.138 465.375C486.647 470.002 494.922 474.491 496.522 475.357L499.421 476.939V497V517.054L496.193 518.814C494.411 519.777 488.392 523.049 482.805 526.081C477.225 529.12 470.374 532.832 467.591 534.345C464.808 535.857 462.485 537.081 462.434 537.061C462.339 537.026 459.221 535.328 435.235 522.307L425.579 517.054V497V476.939L428.815 475.179C430.589 474.216 438.879 469.713 447.235 465.169C455.591 460.631 462.478 456.926 462.544 456.939C462.61 456.96 469.621 460.755 478.138 465.375Z" fill="#85CBE9" fill-opacity="0.7"/>
</g>
<g opacity="0.4">
<path d="M413.265 538.866L386.049 553.722V583.5V613.278L395.78 618.586C401.136 621.506 413.353 628.181 422.946 633.415C432.539 638.658 440.441 642.935 440.5 642.935C440.559 642.935 448.461 638.658 458.054 633.415C467.647 628.181 479.874 621.506 485.221 618.586L494.951 613.278V583.5V553.722L468.069 539.042C453.287 530.973 441.031 524.279 440.834 524.186L440.48 524.009L413.265 538.866ZM461.543 540.734C472.994 546.991 484.13 553.062 486.282 554.233L490.184 556.372V583.5V610.619L485.84 612.999C483.442 614.301 475.343 618.726 467.824 622.826C460.315 626.935 451.095 631.955 447.351 634.001C443.606 636.046 440.48 637.701 440.412 637.673C440.284 637.626 436.087 635.33 403.81 617.722L390.816 610.619V583.5V556.372L395.17 553.992C397.559 552.69 408.714 546.601 419.958 540.455C431.202 534.32 440.471 529.309 440.559 529.327C440.647 529.355 450.083 534.487 461.543 540.734Z" fill="#85CBE9" fill-opacity="0.5"/>
</g>
<g opacity="0.4">
<path d="M204.265 538.866L177.049 553.722V583.5V613.278L186.78 618.586C192.136 621.506 204.353 628.181 213.946 633.415C223.539 638.658 231.441 642.935 231.5 642.935C231.559 642.935 239.461 638.658 249.054 633.415C258.647 628.181 270.874 621.506 276.221 618.586L285.951 613.278V583.5V553.722L259.069 539.042C244.287 530.973 232.031 524.279 231.834 524.186L231.48 524.009L204.265 538.866ZM252.543 540.734C263.994 546.991 275.13 553.062 277.282 554.233L281.184 556.372V583.5V610.619L276.84 612.999C274.442 614.301 266.343 618.726 258.824 622.826C251.315 626.935 242.095 631.955 238.351 634.001C234.606 636.046 231.48 637.701 231.412 637.673C231.284 637.626 227.087 635.33 194.81 617.722L181.816 610.619V583.5V556.372L186.17 553.992C188.559 552.69 199.714 546.601 210.958 540.455C222.202 534.32 231.471 529.309 231.559 529.327C231.647 529.355 241.083 534.487 252.543 540.734Z" fill="#85CBE9" fill-opacity="0.5"/>
</g>
<g opacity="0.4">
<path d="M359.265 452.866L332.049 467.722V497.5V527.278L341.78 532.586C347.136 535.506 359.353 542.181 368.946 547.415C378.539 552.658 386.441 556.935 386.5 556.935C386.559 556.935 394.461 552.658 404.054 547.415C413.647 542.181 425.874 535.506 431.221 532.586L440.951 527.278V497.5V467.722L414.069 453.042C399.287 444.973 387.031 438.279 386.834 438.186L386.48 438.009L359.265 452.866ZM407.543 454.734C418.994 460.991 430.13 467.062 432.282 468.233L436.184 470.372V497.5V524.619L431.84 526.999C429.442 528.301 421.343 532.726 413.824 536.826C406.315 540.935 397.095 545.955 393.351 548.001C389.606 550.046 386.48 551.701 386.412 551.673C386.284 551.626 382.087 549.33 349.81 531.722L336.816 524.619V497.5V470.372L341.17 467.992C343.559 466.69 354.714 460.601 365.958 454.455C377.202 448.32 386.471 443.309 386.559 443.327C386.647 443.355 396.083 448.487 407.543 454.734Z" fill="#85CBE9" fill-opacity="0.5"/>
</g>
<g opacity="0.4" clip-path="url(#clip1)">
<path d="M57.7369 529.756L16.0753 552.499V598.083V643.667L30.9706 651.793C39.1705 656.262 57.8724 666.48 72.557 674.492C87.2416 682.519 99.3384 689.066 99.4287 689.066C99.5189 689.066 111.616 682.519 126.3 674.492C140.985 666.48 159.702 656.262 167.887 651.793L182.782 643.667V598.083V552.499L141.632 530.027C119.003 517.674 100.241 507.427 99.9402 507.285L99.3986 507.014L57.7369 529.756ZM131.642 532.617C149.17 542.195 166.217 551.488 169.512 553.281L175.485 556.555V598.083V639.596L168.835 643.24C165.163 645.232 152.766 652.006 141.256 658.282C129.761 664.573 115.648 672.258 109.916 675.389C104.183 678.52 99.3986 681.053 99.2932 681.01C99.0976 680.939 92.6731 677.424 43.263 650.469L23.3725 639.596V598.083V556.555L30.0378 552.911C33.6939 550.919 50.7708 541.597 67.9831 532.19C85.1954 522.797 99.3835 515.126 99.5189 515.155C99.6543 515.197 114.098 523.053 131.642 532.617Z" fill="#85CBE9" fill-opacity="0.5"/>
</g>
<g opacity="0.4">
<path d="M499.265 26.8657L472.049 41.7221V71.5V101.278L481.78 106.586C487.136 109.506 499.353 116.181 508.946 121.415C518.539 126.658 526.441 130.935 526.5 130.935C526.559 130.935 534.461 126.658 544.054 121.415C553.647 116.181 565.874 109.506 571.221 106.586L580.951 101.278V71.5V41.7221L554.069 27.0423C539.287 18.9727 527.031 12.2789 526.834 12.1859L526.48 12.0093L499.265 26.8657ZM547.543 28.7344C558.994 34.9912 570.13 41.062 572.282 42.2334L576.184 44.3717V71.5V98.619L571.84 100.999C569.442 102.301 561.343 106.726 553.824 110.826C546.315 114.935 537.095 119.955 533.351 122.001C529.606 124.046 526.48 125.701 526.412 125.673C526.284 125.626 522.087 123.33 489.81 105.722L476.816 98.619V71.5V44.3717L481.17 41.9917C483.559 40.6902 494.714 34.6007 505.958 28.4555C517.202 22.3195 526.471 17.3085 526.559 17.3271C526.647 17.355 536.083 22.4869 547.543 28.7344Z" fill="#85CBE9" fill-opacity="0.5"/>
</g>
<g opacity="0.4">
<path d="M447.265 114.866L420.049 129.722V159.5V189.278L429.78 194.586C435.136 197.506 447.353 204.181 456.946 209.415C466.539 214.658 474.441 218.935 474.5 218.935C474.559 218.935 482.461 214.658 492.054 209.415C501.647 204.181 513.874 197.506 519.221 194.586L528.951 189.278V159.5V129.722L502.069 115.042C487.287 106.973 475.031 100.279 474.834 100.186L474.48 100.009L447.265 114.866ZM495.543 116.734C506.994 122.991 518.13 129.062 520.282 130.233L524.184 132.372V159.5V186.619L519.84 188.999C517.442 190.301 509.343 194.726 501.824 198.826C494.315 202.935 485.095 207.955 481.351 210.001C477.606 212.046 474.48 213.701 474.412 213.673C474.284 213.626 470.087 211.33 437.81 193.722L424.816 186.619V159.5V132.372L429.17 129.992C431.559 128.69 442.714 122.601 453.958 116.455C465.202 110.32 474.471 105.309 474.559 105.327C474.647 105.355 484.083 110.487 495.543 116.734Z" fill="#85CBE9" fill-opacity="0.5"/>
</g>
<g opacity="0.4">
<path d="M518.265 367.866L491.049 382.722V412.5V442.278L500.78 447.586C506.136 450.506 518.353 457.181 527.946 462.415C537.539 467.658 545.441 471.935 545.5 471.935C545.559 471.935 553.461 467.658 563.054 462.415C572.647 457.181 584.874 450.506 590.221 447.586L599.951 442.278V412.5V382.722L573.069 368.042C558.287 359.973 546.031 353.279 545.834 353.186L545.48 353.009L518.265 367.866ZM566.543 369.734C577.994 375.991 589.13 382.062 591.282 383.233L595.184 385.372V412.5V439.619L590.84 441.999C588.442 443.301 580.343 447.726 572.824 451.826C565.315 455.935 556.095 460.955 552.351 463.001C548.606 465.046 545.48 466.701 545.412 466.673C545.284 466.626 541.087 464.33 508.81 446.722L495.816 439.619V412.5V385.372L500.17 382.992C502.559 381.69 513.714 375.601 524.958 369.455C536.202 363.32 545.471 358.309 545.559 358.327C545.647 358.355 555.083 363.487 566.543 369.734Z" fill="#85CBE9" fill-opacity="0.5"/>
</g>
<g opacity="0.4" clip-path="url(#clip2)">
<path d="M508.806 421.217L492.624 430.051V447.757V465.463L498.41 468.619C501.595 470.355 508.859 474.324 514.563 477.436C520.266 480.554 524.965 483.096 525 483.096C525.035 483.096 529.734 480.554 535.438 477.436C541.141 474.324 548.411 470.355 551.591 468.619L557.376 465.463V447.757V430.051L541.393 421.322C532.603 416.524 525.316 412.544 525.199 412.489L524.988 412.384L508.806 421.217ZM537.512 422.329C544.321 426.049 550.942 429.658 552.222 430.355L554.542 431.626V447.757V463.882L551.959 465.297C550.533 466.071 545.717 468.702 541.247 471.14C536.782 473.583 531.3 476.568 529.073 477.784C526.847 479 524.988 479.984 524.947 479.968C524.872 479.94 522.376 478.575 503.184 468.105L495.458 463.882V447.757V431.626L498.047 430.211C499.467 429.437 506.1 425.817 512.786 422.163C519.472 418.514 524.983 415.535 525.035 415.546C525.088 415.562 530.698 418.614 537.512 422.329Z" fill="#85CBE9" fill-opacity="0.7"/>
</g>
<circle cx="525.297" cy="481.351" r="3.56757" fill="#85CBE9" fill-opacity="0.7"/>
<circle cx="494.378" cy="430.811" r="2.37838" fill="#85CBE9" fill-opacity="0.7"/>
<circle cx="494.378" cy="464.703" r="2.37838" fill="#85CBE9" fill-opacity="0.7"/>
<circle cx="525.297" cy="413.568" r="3.56757" fill="#85CBE9" fill-opacity="0.7"/>
<g opacity="0.4" clip-path="url(#clip3)">
<path d="M477.806 370.217L461.624 379.051V396.757V414.463L467.41 417.619C470.595 419.355 477.859 423.324 483.563 426.436C489.266 429.554 493.965 432.096 494 432.096C494.035 432.096 498.734 429.554 504.438 426.436C510.141 423.324 517.411 419.355 520.591 417.619L526.376 414.463V396.757V379.051L510.393 370.322C501.603 365.524 494.316 361.544 494.199 361.489L493.988 361.384L477.806 370.217ZM506.512 371.329C513.321 375.049 519.942 378.658 521.222 379.355L523.542 380.626V396.757V412.882L520.959 414.297C519.533 415.071 514.717 417.702 510.247 420.14C505.782 422.583 500.3 425.568 498.073 426.784C495.847 428 493.988 428.984 493.947 428.968C493.872 428.94 491.376 427.575 472.184 417.105L464.458 412.882V396.757V380.626L467.047 379.211C468.467 378.437 475.1 374.817 481.786 371.163C488.472 367.514 493.983 364.535 494.035 364.546C494.088 364.562 499.698 367.614 506.512 371.329Z" fill="#85CBE9" fill-opacity="0.7"/>
</g>
<circle cx="494.297" cy="430.351" r="3.56757" fill="#85CBE9" fill-opacity="0.7"/>
<circle cx="463.378" cy="379.811" r="2.37838" fill="#85CBE9" fill-opacity="0.7"/>
<circle cx="524.622" cy="379.811" r="2.37838" fill="#85CBE9" fill-opacity="0.7"/>
<circle cx="524.622" cy="413.703" r="2.37838" fill="#85CBE9" fill-opacity="0.7"/>
<circle cx="463.378" cy="413.703" r="2.37838" fill="#85CBE9" fill-opacity="0.7"/>
<circle cx="494.297" cy="362.568" r="3.56757" fill="#85CBE9" fill-opacity="0.7"/>
<g opacity="0.4" clip-path="url(#clip4)">
<path d="M508.806 319.217L492.624 328.051V345.757V363.463L498.41 366.619C501.595 368.355 508.859 372.324 514.563 375.436C520.266 378.554 524.965 381.096 525 381.096C525.035 381.096 529.734 378.554 535.438 375.436C541.141 372.324 548.411 368.355 551.591 366.619L557.376 363.463V345.757V328.051L541.393 319.322C532.603 314.524 525.316 310.544 525.199 310.489L524.988 310.384L508.806 319.217ZM537.512 320.329C544.321 324.049 550.942 327.658 552.222 328.355L554.542 329.626V345.757V361.882L551.959 363.297C550.533 364.071 545.717 366.702 541.247 369.14C536.782 371.583 531.3 374.568 529.073 375.784C526.847 377 524.988 377.984 524.947 377.968C524.872 377.94 522.376 376.575 503.184 366.105L495.458 361.882V345.757V329.626L498.047 328.211C499.467 327.437 506.1 323.817 512.786 320.163C519.472 316.514 524.983 313.535 525.035 313.546C525.088 313.562 530.698 316.614 537.512 320.329Z" fill="#85CBE9" fill-opacity="0.7"/>
</g>
<circle cx="525.297" cy="379.351" r="3.56757" fill="#85CBE9" fill-opacity="0.7"/>
<circle cx="494.378" cy="328.811" r="2.37838" fill="#85CBE9" fill-opacity="0.7"/>
<circle cx="494.378" cy="362.703" r="2.37838" fill="#85CBE9" fill-opacity="0.7"/>
<circle cx="525.297" cy="311.568" r="3.56757" fill="#85CBE9" fill-opacity="0.7"/>
<g opacity="0.4" clip-path="url(#clip5)">
<path d="M446.806 319.217L430.624 328.051V345.757V363.463L436.41 366.619C439.595 368.355 446.859 372.324 452.563 375.436C458.266 378.554 462.965 381.096 463 381.096C463.035 381.096 467.734 378.554 473.438 375.436C479.141 372.324 486.411 368.355 489.591 366.619L495.376 363.463V345.757V328.051L479.393 319.322C470.603 314.524 463.316 310.544 463.199 310.489L462.988 310.384L446.806 319.217ZM475.512 320.329C482.321 324.049 488.942 327.658 490.222 328.355L492.542 329.626V345.757V361.882L489.959 363.297C488.533 364.071 483.717 366.702 479.247 369.14C474.782 371.583 469.3 374.568 467.073 375.784C464.847 377 462.988 377.984 462.947 377.968C462.872 377.94 460.376 376.575 441.184 366.105L433.458 361.882V345.757V329.626L436.047 328.211C437.467 327.437 444.1 323.817 450.786 320.163C457.472 316.514 462.983 313.535 463.035 313.546C463.088 313.562 468.698 316.614 475.512 320.329Z" fill="#85CBE9" fill-opacity="0.7"/>
</g>
<circle cx="463.297" cy="379.351" r="3.56757" fill="#85CBE9" fill-opacity="0.7"/>
<circle cx="432.378" cy="328.811" r="2.37838" fill="#85CBE9" fill-opacity="0.7"/>
<circle cx="493.622" cy="328.811" r="2.37838" fill="#85CBE9" fill-opacity="0.7"/>
<circle cx="493.622" cy="362.703" r="2.37838" fill="#85CBE9" fill-opacity="0.7"/>
<circle cx="432.378" cy="362.703" r="2.37838" fill="#85CBE9" fill-opacity="0.7"/>
<circle cx="463.297" cy="311.568" r="3.56757" fill="#85CBE9" fill-opacity="0.7"/>
<g opacity="0.4" clip-path="url(#clip6)">
<path d="M538.806 370.217L522.624 379.051V396.757V414.463L528.41 417.619C531.595 419.355 538.859 423.324 544.563 426.436C550.266 429.554 554.965 432.096 555 432.096C555.035 432.096 559.734 429.554 565.438 426.436C571.141 423.324 578.411 419.355 581.591 417.619L587.376 414.463V396.757V379.051L571.393 370.322C562.603 365.524 555.316 361.544 555.199 361.489L554.988 361.384L538.806 370.217ZM567.512 371.329C574.321 375.049 580.942 378.658 582.222 379.355L584.542 380.626V396.757V412.882L581.959 414.297C580.533 415.071 575.717 417.702 571.247 420.14C566.782 422.583 561.3 425.568 559.073 426.784C556.847 428 554.988 428.984 554.947 428.968C554.872 428.94 552.376 427.575 533.184 417.105L525.458 412.882V396.757V380.626L528.047 379.211C529.467 378.437 536.1 374.817 542.786 371.163C549.472 367.514 554.983 364.535 555.035 364.546C555.088 364.562 560.698 367.614 567.512 371.329Z" fill="#85CBE9" fill-opacity="0.7"/>
</g>
<circle cx="555.297" cy="430.351" r="3.56757" fill="#85CBE9" fill-opacity="0.7"/>
<circle cx="524.378" cy="379.811" r="2.37838" fill="#85CBE9" fill-opacity="0.7"/>
<circle cx="524.378" cy="413.703" r="2.37838" fill="#85CBE9" fill-opacity="0.7"/>
<circle cx="555.297" cy="362.568" r="3.56757" fill="#85CBE9" fill-opacity="0.7"/>
<g opacity="0.4" clip-path="url(#clip7)">
<path d="M539.806 268.217L523.624 277.051V294.757V312.463L529.41 315.619C532.595 317.355 539.859 321.324 545.563 324.436C551.266 327.554 555.965 330.096 556 330.096C556.035 330.096 560.734 327.554 566.438 324.436C572.141 321.324 579.411 317.355 582.591 315.619L588.376 312.463V294.757V277.051L572.393 268.322C563.603 263.524 556.316 259.544 556.199 259.489L555.988 259.384L539.806 268.217ZM568.512 269.329C575.321 273.049 581.942 276.658 583.222 277.355L585.542 278.626V294.757V310.882L582.959 312.297C581.533 313.071 576.717 315.702 572.247 318.14C567.782 320.583 562.3 323.568 560.073 324.784C557.847 326 555.988 326.984 555.947 326.968C555.872 326.94 553.376 325.575 534.184 315.105L526.458 310.882V294.757V278.626L529.047 277.211C530.467 276.437 537.1 272.817 543.786 269.163C550.472 265.514 555.983 262.535 556.035 262.546C556.088 262.562 561.698 265.614 568.512 269.329Z" fill="#85CBE9" fill-opacity="0.7"/>
</g>
<circle cx="556.297" cy="328.351" r="3.56757" fill="#85CBE9" fill-opacity="0.7"/>
<circle cx="525.378" cy="277.811" r="2.37838" fill="#85CBE9" fill-opacity="0.7"/>
<circle cx="525.378" cy="311.703" r="2.37838" fill="#85CBE9" fill-opacity="0.7"/>
<circle cx="556.297" cy="260.568" r="3.56757" fill="#85CBE9" fill-opacity="0.7"/>
<g opacity="0.4" clip-path="url(#clip8)">
<path d="M477.806 268.217L461.624 277.051V294.757V312.463L467.41 315.619C470.595 317.355 477.859 321.324 483.563 324.436C489.266 327.554 493.965 330.096 494 330.096C494.035 330.096 498.734 327.554 504.438 324.436C510.141 321.324 517.411 317.355 520.591 315.619L526.376 312.463V294.757V277.051L510.393 268.322C501.603 263.524 494.316 259.544 494.199 259.489L493.988 259.384L477.806 268.217ZM506.512 269.329C513.321 273.049 519.942 276.658 521.222 277.355L523.542 278.626V294.757V310.882L520.959 312.297C519.533 313.071 514.717 315.702 510.247 318.14C505.782 320.583 500.3 323.568 498.073 324.784C495.847 326 493.988 326.984 493.947 326.968C493.872 326.94 491.376 325.575 472.184 315.105L464.458 310.882V294.757V278.626L467.047 277.211C468.467 276.437 475.1 272.817 481.786 269.163C488.472 265.514 493.983 262.535 494.035 262.546C494.088 262.562 499.698 265.614 506.512 269.329Z" fill="#85CBE9" fill-opacity="0.7"/>
</g>
<circle cx="494.297" cy="328.351" r="3.56757" fill="#85CBE9" fill-opacity="0.7"/>
<circle cx="463.378" cy="277.811" r="2.37838" fill="#85CBE9" fill-opacity="0.7"/>
<circle cx="524.622" cy="277.811" r="2.37838" fill="#85CBE9" fill-opacity="0.7"/>
<circle cx="524.622" cy="311.703" r="2.37838" fill="#85CBE9" fill-opacity="0.7"/>
<circle cx="463.378" cy="311.703" r="2.37838" fill="#85CBE9" fill-opacity="0.7"/>
<circle cx="494.297" cy="260.568" r="3.56757" fill="#85CBE9" fill-opacity="0.7"/>
<g opacity="0.4" clip-path="url(#clip9)">
<path d="M415.806 268.217L399.624 277.051V294.757V312.463L405.41 315.619C408.595 317.355 415.859 321.324 421.563 324.436C427.266 327.554 431.965 330.096 432 330.096C432.035 330.096 436.734 327.554 442.438 324.436C448.141 321.324 455.411 317.355 458.591 315.619L464.376 312.463V294.757V277.051L448.393 268.322C439.603 263.524 432.316 259.544 432.199 259.489L431.988 259.384L415.806 268.217ZM444.512 269.329C451.321 273.049 457.942 276.658 459.222 277.355L461.542 278.626V294.757V310.882L458.959 312.297C457.533 313.071 452.717 315.702 448.247 318.14C443.782 320.583 438.3 323.568 436.073 324.784C433.847 326 431.988 326.984 431.947 326.968C431.872 326.94 429.376 325.575 410.184 315.105L402.458 310.882V294.757V278.626L405.047 277.211C406.467 276.437 413.1 272.817 419.786 269.163C426.472 265.514 431.983 262.535 432.035 262.546C432.088 262.562 437.698 265.614 444.512 269.329Z" fill="#85CBE9" fill-opacity="0.7"/>
</g>
<circle cx="432.297" cy="328.351" r="3.56757" fill="#85CBE9" fill-opacity="0.7"/>
<circle cx="401.378" cy="277.811" r="2.37838" fill="#85CBE9" fill-opacity="0.7"/>
<circle cx="462.622" cy="277.811" r="2.37838" fill="#85CBE9" fill-opacity="0.7"/>
<circle cx="462.622" cy="311.703" r="2.37838" fill="#85CBE9" fill-opacity="0.7"/>
<circle cx="401.378" cy="311.703" r="2.37838" fill="#85CBE9" fill-opacity="0.7"/>
<circle cx="432.297" cy="260.568" r="3.56757" fill="#85CBE9" fill-opacity="0.7"/>
<g opacity="0.4" clip-path="url(#clip10)">
<path d="M508.806 217.217L492.624 226.051V243.757V261.463L498.41 264.619C501.595 266.355 508.859 270.324 514.563 273.436C520.266 276.554 524.965 279.096 525 279.096C525.035 279.096 529.734 276.554 535.438 273.436C541.141 270.324 548.411 266.355 551.591 264.619L557.376 261.463V243.757V226.051L541.393 217.322C532.603 212.524 525.316 208.544 525.199 208.489L524.988 208.384L508.806 217.217ZM537.512 218.329C544.321 222.049 550.942 225.658 552.222 226.355L554.542 227.626V243.757V259.882L551.959 261.297C550.533 262.071 545.717 264.702 541.247 267.14C536.782 269.583 531.3 272.568 529.073 273.784C526.847 275 524.988 275.984 524.947 275.968C524.872 275.94 522.376 274.575 503.184 264.105L495.458 259.882V243.757V227.626L498.047 226.211C499.467 225.437 506.1 221.817 512.786 218.163C519.472 214.514 524.983 211.535 525.035 211.546C525.088 211.562 530.698 214.614 537.512 218.329Z" fill="#85CBE9" fill-opacity="0.7"/>
</g>
<circle cx="525.297" cy="277.351" r="3.56757" fill="#85CBE9" fill-opacity="0.7"/>
<circle cx="494.378" cy="226.811" r="2.37838" fill="#85CBE9" fill-opacity="0.7"/>
<circle cx="494.378" cy="260.703" r="2.37838" fill="#85CBE9" fill-opacity="0.7"/>
<circle cx="525.297" cy="209.568" r="3.56757" fill="#85CBE9" fill-opacity="0.7"/>
<circle cx="556.297" cy="226.351" r="3.56757" fill="#85CBE9" fill-opacity="0.7"/>
<circle cx="525.378" cy="175.811" r="2.37838" fill="#85CBE9" fill-opacity="0.7"/>
<circle cx="525.378" cy="209.703" r="2.37838" fill="#85CBE9" fill-opacity="0.7"/>
<circle cx="556.297" cy="158.568" r="3.56757" fill="#85CBE9" fill-opacity="0.7"/>
<g opacity="0.4" clip-path="url(#clip11)">
<path d="M275.806 524.217L259.624 533.051V550.757V568.463L265.41 571.619C268.595 573.355 275.859 577.324 281.563 580.436C287.266 583.554 291.965 586.096 292 586.096C292.035 586.096 296.734 583.554 302.438 580.436C308.141 577.324 315.411 573.355 318.591 571.619L324.376 568.463V550.757V533.051L308.393 524.322C299.603 519.524 292.316 515.544 292.199 515.489L291.988 515.384L275.806 524.217ZM304.512 525.329C311.321 529.049 317.942 532.658 319.222 533.355L321.542 534.626V550.757V566.882L318.959 568.297C317.533 569.071 312.717 571.702 308.247 574.14C303.782 576.583 298.3 579.568 296.073 580.784C293.847 582 291.988 582.984 291.947 582.968C291.872 582.94 289.376 581.575 270.184 571.105L262.458 566.882V550.757V534.626L265.047 533.211C266.467 532.437 273.1 528.817 279.786 525.163C286.472 521.514 291.983 518.535 292.035 518.546C292.088 518.562 297.698 521.614 304.512 525.329Z" fill="#85CBE9" fill-opacity="0.55"/>
</g>
<circle cx="292.297" cy="584.351" r="3.56757" fill="#85CBE9" fill-opacity="0.55"/>
<circle cx="261.378" cy="533.811" r="2.37838" fill="#85CBE9" fill-opacity="0.55"/>
<circle cx="322.622" cy="533.811" r="2.37838" fill="#85CBE9" fill-opacity="0.55"/>
<circle cx="322.622" cy="567.703" r="2.37838" fill="#85CBE9" fill-opacity="0.55"/>
<circle cx="261.378" cy="567.703" r="2.37838" fill="#85CBE9" fill-opacity="0.55"/>
<circle cx="292.297" cy="516.568" r="3.56757" fill="#85CBE9" fill-opacity="0.55"/>
<g opacity="0.4" clip-path="url(#clip12)">
<path d="M245.806 474.217L229.624 483.051V500.757V518.463L235.41 521.619C238.595 523.355 245.859 527.324 251.563 530.436C257.266 533.554 261.965 536.096 262 536.096C262.035 536.096 266.734 533.554 272.438 530.436C278.141 527.324 285.411 523.355 288.591 521.619L294.376 518.463V500.757V483.051L278.393 474.322C269.603 469.524 262.316 465.544 262.199 465.489L261.988 465.384L245.806 474.217ZM274.512 475.329C281.321 479.049 287.942 482.658 289.222 483.355L291.542 484.626V500.757V516.882L288.959 518.297C287.533 519.071 282.717 521.702 278.247 524.14C273.782 526.583 268.3 529.568 266.073 530.784C263.847 532 261.988 532.984 261.947 532.968C261.872 532.94 259.376 531.575 240.184 521.105L232.458 516.882V500.757V484.626L235.047 483.211C236.467 482.437 243.1 478.817 249.786 475.163C256.472 471.514 261.983 468.535 262.035 468.546C262.088 468.562 267.698 471.614 274.512 475.329Z" fill="#85CBE9" fill-opacity="0.7"/>
</g>
<circle cx="262.297" cy="534.351" r="3.56757" fill="#85CBE9" fill-opacity="0.7"/>
<circle cx="231.378" cy="483.811" r="2.37838" fill="#85CBE9" fill-opacity="0.7"/>
<circle cx="292.622" cy="483.811" r="2.37838" fill="#85CBE9" fill-opacity="0.7"/>
<circle cx="292.622" cy="517.703" r="2.37838" fill="#85CBE9" fill-opacity="0.7"/>
<circle cx="231.378" cy="517.703" r="2.37838" fill="#85CBE9" fill-opacity="0.7"/>
<circle cx="262.297" cy="466.568" r="3.56757" fill="#85CBE9" fill-opacity="0.7"/>
<g opacity="0.4" clip-path="url(#clip13)">
<path d="M184.806 474.217L168.624 483.051V500.757V518.463L174.41 521.619C177.595 523.355 184.859 527.324 190.563 530.436C196.266 533.554 200.965 536.096 201 536.096C201.035 536.096 205.734 533.554 211.438 530.436C217.141 527.324 224.411 523.355 227.591 521.619L233.376 518.463V500.757V483.051L217.393 474.322C208.603 469.524 201.316 465.544 201.199 465.489L200.988 465.384L184.806 474.217ZM213.512 475.329C220.321 479.049 226.942 482.658 228.222 483.355L230.542 484.626V500.757V516.882L227.959 518.297C226.533 519.071 221.717 521.702 217.247 524.14C212.782 526.583 207.3 529.568 205.073 530.784C202.847 532 200.988 532.984 200.947 532.968C200.872 532.94 198.376 531.575 179.184 521.105L171.458 516.882V500.757V484.626L174.047 483.211C175.467 482.437 182.1 478.817 188.786 475.163C195.472 471.514 200.983 468.535 201.035 468.546C201.088 468.562 206.698 471.614 213.512 475.329Z" fill="#85CBE9" fill-opacity="0.7"/>
</g>
<circle cx="201.297" cy="534.351" r="3.56757" fill="#85CBE9" fill-opacity="0.7"/>
<circle cx="170.378" cy="483.811" r="2.37838" fill="#85CBE9" fill-opacity="0.7"/>
<circle cx="231.622" cy="483.811" r="2.37838" fill="#85CBE9" fill-opacity="0.7"/>
<circle cx="231.622" cy="517.703" r="2.37838" fill="#85CBE9" fill-opacity="0.7"/>
<circle cx="170.378" cy="517.703" r="2.37838" fill="#85CBE9" fill-opacity="0.7"/>
<circle cx="201.297" cy="466.568" r="3.56757" fill="#85CBE9" fill-opacity="0.7"/>
<g opacity="0.4" clip-path="url(#clip14)">
<path d="M213.806 422.217L197.624 431.051V448.757V466.463L203.41 469.619C206.595 471.355 213.859 475.324 219.563 478.436C225.266 481.554 229.965 484.096 230 484.096C230.035 484.096 234.734 481.554 240.438 478.436C246.141 475.324 253.411 471.355 256.591 469.619L262.376 466.463V448.757V431.051L246.393 422.322C237.603 417.524 230.316 413.544 230.199 413.489L229.988 413.384L213.806 422.217ZM242.512 423.329C249.321 427.049 255.942 430.658 257.222 431.355L259.542 432.626V448.757V464.882L256.959 466.297C255.533 467.071 250.717 469.702 246.247 472.14C241.782 474.583 236.3 477.568 234.073 478.784C231.847 480 229.988 480.984 229.947 480.968C229.872 480.94 227.376 479.575 208.184 469.105L200.458 464.882V448.757V432.626L203.047 431.211C204.467 430.437 211.1 426.817 217.786 423.163C224.472 419.514 229.983 416.535 230.035 416.546C230.088 416.562 235.698 419.614 242.512 423.329Z" fill="#85CBE9" fill-opacity="0.7"/>
</g>
<circle cx="230.297" cy="482.351" r="3.56757" fill="#85CBE9" fill-opacity="0.7"/>
<circle cx="199.378" cy="431.811" r="2.37838" fill="#85CBE9" fill-opacity="0.7"/>
<circle cx="260.622" cy="431.811" r="2.37838" fill="#85CBE9" fill-opacity="0.7"/>
<circle cx="260.622" cy="465.703" r="2.37838" fill="#85CBE9" fill-opacity="0.7"/>
<circle cx="199.378" cy="465.703" r="2.37838" fill="#85CBE9" fill-opacity="0.7"/>
<circle cx="230.297" cy="414.568" r="3.56757" fill="#85CBE9" fill-opacity="0.7"/>
<g opacity="0.4" clip-path="url(#clip15)">
<path d="M306.806 473.217L290.624 482.051V499.757V517.463L296.41 520.619C299.595 522.355 306.859 526.324 312.563 529.436C318.266 532.554 322.965 535.096 323 535.096C323.035 535.096 327.734 532.554 333.438 529.436C339.141 526.324 346.411 522.355 349.591 520.619L355.376 517.463V499.757V482.051L339.393 473.322C330.603 468.524 323.316 464.544 323.199 464.489L322.988 464.384L306.806 473.217ZM335.512 474.329C342.321 478.049 348.942 481.658 350.222 482.355L352.542 483.626V499.757V515.882L349.959 517.297C348.533 518.071 343.717 520.702 339.247 523.14C334.782 525.583 329.3 528.568 327.073 529.784C324.847 531 322.988 531.984 322.947 531.968C322.872 531.94 320.376 530.575 301.184 520.105L293.458 515.882V499.757V483.626L296.047 482.211C297.467 481.437 304.1 477.817 310.786 474.163C317.472 470.514 322.983 467.535 323.035 467.546C323.088 467.562 328.698 470.614 335.512 474.329Z" fill="#85CBE9" fill-opacity="0.55"/>
</g>
<circle cx="323.297" cy="533.351" r="3.56757" fill="#85CBE9" fill-opacity="0.55"/>
<circle cx="292.378" cy="482.811" r="2.37838" fill="#85CBE9" fill-opacity="0.55"/>
<circle cx="353.622" cy="482.811" r="2.37838" fill="#85CBE9" fill-opacity="0.55"/>
<circle cx="353.622" cy="516.703" r="2.37838" fill="#85CBE9" fill-opacity="0.55"/>
<circle cx="292.378" cy="516.703" r="2.37838" fill="#85CBE9" fill-opacity="0.55"/>
<circle cx="323.297" cy="465.568" r="3.56757" fill="#85CBE9" fill-opacity="0.55"/>
<g opacity="0.4" clip-path="url(#clip16)">
<path d="M276.806 423.217L260.624 432.051V449.757V467.463L266.41 470.619C269.595 472.355 276.859 476.324 282.563 479.436C288.266 482.554 292.965 485.096 293 485.096C293.035 485.096 297.734 482.554 303.438 479.436C309.141 476.324 316.411 472.355 319.591 470.619L325.376 467.463V449.757V432.051L309.393 423.322C300.603 418.524 293.316 414.544 293.199 414.489L292.988 414.384L276.806 423.217ZM305.512 424.329C312.321 428.049 318.942 431.658 320.222 432.355L322.542 433.626V449.757V465.882L319.959 467.297C318.533 468.071 313.717 470.702 309.247 473.14C304.782 475.583 299.3 478.568 297.073 479.784C294.847 481 292.988 481.984 292.947 481.968C292.872 481.94 290.376 480.575 271.184 470.105L263.458 465.882V449.757V433.626L266.047 432.211C267.467 431.437 274.1 427.817 280.786 424.163C287.472 420.514 292.983 417.535 293.035 417.546C293.088 417.562 298.698 420.614 305.512 424.329Z" fill="#85CBE9" fill-opacity="0.7"/>
</g>
<circle cx="293.297" cy="483.351" r="3.56757" fill="#85CBE9" fill-opacity="0.7"/>
<circle cx="262.378" cy="432.811" r="2.37838" fill="#85CBE9" fill-opacity="0.7"/>
<circle cx="323.622" cy="432.811" r="2.37838" fill="#85CBE9" fill-opacity="0.7"/>
<circle cx="323.622" cy="466.703" r="2.37838" fill="#85CBE9" fill-opacity="0.7"/>
<circle cx="262.378" cy="466.703" r="2.37838" fill="#85CBE9" fill-opacity="0.7"/>
<circle cx="293.297" cy="415.568" r="3.56757" fill="#85CBE9" fill-opacity="0.7"/>
<g opacity="0.4" clip-path="url(#clip17)">
<path d="M308.265 538.866L281.049 553.722V583.5V613.278L290.78 618.586C296.136 621.506 308.353 628.181 317.946 633.415C327.539 638.658 335.441 642.935 335.5 642.935C335.559 642.935 343.461 638.658 353.054 633.415C362.647 628.181 374.874 621.506 380.221 618.586L389.951 613.278V583.5V553.722L363.069 539.042C348.287 530.973 336.031 524.279 335.834 524.186L335.48 524.009L308.265 538.866ZM356.543 540.734C367.994 546.991 379.13 553.062 381.282 554.233L385.184 556.372V583.5V610.619L380.84 612.999C378.442 614.301 370.343 618.726 362.824 622.826C355.315 626.935 346.095 631.955 342.351 634.001C338.606 636.046 335.48 637.701 335.412 637.673C335.284 637.626 331.087 635.33 298.81 617.722L285.816 610.619V583.5V556.372L290.17 553.992C292.559 552.69 303.714 546.601 314.958 540.455C326.202 534.32 335.471 529.309 335.559 529.327C335.647 529.355 345.083 534.487 356.543 540.734Z" fill="#85CBE9" fill-opacity="0.5"/>
<g opacity="0.4" clip-path="url(#clip18)">
<path d="M337.806 524.217L321.624 533.051V550.757V568.463L327.41 571.619C330.595 573.355 337.859 577.324 343.563 580.436C349.266 583.554 353.965 586.096 354 586.096C354.035 586.096 358.734 583.554 364.438 580.436C370.141 577.324 377.411 573.355 380.591 571.619L386.376 568.463V550.757V533.051L370.393 524.322C361.603 519.524 354.316 515.544 354.199 515.489L353.988 515.384L337.806 524.217ZM366.512 525.329C373.321 529.049 379.942 532.658 381.222 533.355L383.542 534.626V550.757V566.882L380.959 568.297C379.533 569.071 374.717 571.702 370.247 574.14C365.782 576.583 360.3 579.568 358.073 580.784C355.847 582 353.988 582.984 353.947 582.968C353.872 582.94 351.376 581.575 332.184 571.105L324.458 566.882V550.757V534.626L327.047 533.211C328.467 532.437 335.1 528.817 341.786 525.163C348.472 521.514 353.983 518.535 354.035 518.546C354.088 518.562 359.698 521.614 366.512 525.329Z" fill="#85CBE9" fill-opacity="0.7"/>
</g>
<circle cx="354.297" cy="584.351" r="3.56757" fill="#85CBE9" fill-opacity="0.7"/>
<circle cx="323.378" cy="533.811" r="2.37838" fill="#85CBE9" fill-opacity="0.7"/>
<circle cx="384.622" cy="533.811" r="2.37838" fill="#85CBE9" fill-opacity="0.7"/>
<circle cx="384.622" cy="567.703" r="2.37838" fill="#85CBE9" fill-opacity="0.7"/>
<circle cx="323.378" cy="567.703" r="2.37838" fill="#85CBE9" fill-opacity="0.7"/>
</g>
</g>
</g>
</g>
<defs>
<clipPath id="clip0">
<rect width="109" height="119" fill="white" transform="translate(437 438)"/>
</clipPath>
<clipPath id="clip1">
<rect width="166.857" height="182.165" fill="white" transform="translate(16 507)"/>
</clipPath>
<clipPath id="clip2">
<rect width="64.8108" height="70.7568" fill="white" transform="translate(492.595 412.378)"/>
</clipPath>
<clipPath id="clip3">
<rect width="64.8108" height="70.7568" fill="white" transform="translate(461.595 361.378)"/>
</clipPath>
<clipPath id="clip4">
<rect width="64.8108" height="70.7568" fill="white" transform="translate(492.595 310.378)"/>
</clipPath>
<clipPath id="clip5">
<rect width="64.8108" height="70.7568" fill="white" transform="translate(430.595 310.378)"/>
</clipPath>
<clipPath id="clip6">
<rect width="64.8108" height="70.7568" fill="white" transform="translate(522.595 361.378)"/>
</clipPath>
<clipPath id="clip7">
<rect width="64.8108" height="70.7568" fill="white" transform="translate(523.595 259.378)"/>
</clipPath>
<clipPath id="clip8">
<rect width="64.8108" height="70.7568" fill="white" transform="translate(461.595 259.378)"/>
</clipPath>
<clipPath id="clip9">
<rect width="64.8108" height="70.7568" fill="white" transform="translate(399.595 259.378)"/>
</clipPath>
<clipPath id="clip10">
<rect width="64.8108" height="70.7568" fill="white" transform="translate(492.595 208.378)"/>
</clipPath>
<clipPath id="clip11">
<rect width="64.8108" height="70.7568" fill="white" transform="translate(259.595 515.378)"/>
</clipPath>
<clipPath id="clip12">
<rect width="64.8108" height="70.7568" fill="white" transform="translate(229.595 465.378)"/>
</clipPath>
<clipPath id="clip13">
<rect width="64.8108" height="70.7568" fill="white" transform="translate(168.595 465.378)"/>
</clipPath>
<clipPath id="clip14">
<rect width="64.8108" height="70.7568" fill="white" transform="translate(197.595 413.378)"/>
</clipPath>
<clipPath id="clip15">
<rect width="64.8108" height="70.7568" fill="white" transform="translate(290.595 464.378)"/>
</clipPath>
<clipPath id="clip16">
<rect width="64.8108" height="70.7568" fill="white" transform="translate(260.595 414.378)"/>
</clipPath>
<clipPath id="clip17">
<rect width="109" height="119" fill="white" transform="translate(281 524)"/>
</clipPath>
<clipPath id="clip18">
<rect width="64.8108" height="70.7568" fill="white" transform="translate(321.595 515.378)"/>
</clipPath>
</defs>
</svg>
