<svg width="99" height="97" viewBox="0 0 99 97" fill="none" xmlns="http://www.w3.org/2000/svg">
<path d="M49.4907 1.03145e-06C39.8558 1.03145e-06 30.4372 2.84448 22.426 8.17373C14.4148 13.503 8.1708 21.0776 4.48365 29.9399C0.796498 38.8021 -0.168228 48.5538 1.71146 57.9619C3.59116 67.37 8.23084 76.0118 15.0438 82.7947C21.8568 89.5775 30.537 94.1967 39.9869 96.0681C49.4367 97.9395 59.2317 96.979 68.1333 93.3082C77.0349 89.6373 84.6432 83.4209 89.9961 75.4452C95.349 67.4694 98.2061 58.0924 98.2061 48.5C98.2074 42.1305 96.9482 35.8232 94.5005 29.9383C92.0528 24.0534 88.4645 18.7063 83.9406 14.2024C79.4167 9.69849 74.0459 6.12606 68.1349 3.68917C62.2239 1.25228 55.8885 -0.00131267 49.4907 1.03145e-06ZM82.7608 49.568C82.76 50.2218 82.4988 50.8486 82.0345 51.3108C81.5701 51.7731 80.9405 52.0332 80.2839 52.034H75.3892V58.247C75.3884 58.9008 75.1272 59.5276 74.6629 59.9898C74.1985 60.4521 73.569 60.7122 72.9123 60.713H67.8228C67.1661 60.7122 66.5365 60.4521 66.0722 59.9898C65.6078 59.5276 65.3466 58.9008 65.3458 58.247V52.034H48.9443C47.7502 55.7137 45.2757 58.848 41.9665 60.8726C38.6573 62.8972 34.7307 63.679 30.8939 63.0773C27.057 62.4755 23.5621 60.5297 21.0383 57.5903C18.5145 54.6509 17.1278 50.911 17.1278 47.044C17.1278 43.177 18.5145 39.4371 21.0383 36.4977C23.5621 33.5583 27.057 31.6125 30.8939 31.0107C34.7307 30.409 38.6573 31.1908 41.9665 33.2154C45.2757 35.24 47.7502 38.3743 48.9443 42.054H80.303C80.9596 42.0548 81.5892 42.3149 82.0535 42.7772C82.5179 43.2394 82.7791 43.8662 82.7799 44.52V49.568H82.7608Z" fill="#D85E8F"/>
<path d="M33.4218 55.0441C37.8702 55.0441 41.4764 51.4539 41.4764 47.0251C41.4764 42.5963 37.8702 39.0061 33.4218 39.0061C28.9734 39.0061 25.3672 42.5963 25.3672 47.0251C25.3672 51.4539 28.9734 55.0441 33.4218 55.0441Z" fill="#D85E8F"/>
</svg>
