<svg width="199" height="42" viewBox="0 0 199 42" fill="none" xmlns="http://www.w3.org/2000/svg">
<path d="M3.08032 18.9117C3.08032 16.1503 5.3189 13.9117 8.08032 13.9117H17.1431V27.8234H8.08032C5.3189 27.8234 3.08032 25.5848 3.08032 22.8234V18.9117Z" fill="white"/>
<path d="M31.2061 13.9117H40.2688C43.0302 13.9117 45.2688 16.1503 45.2688 18.9117V22.8234C45.2688 25.5848 43.0302 27.8234 40.2688 27.8234H31.2061V13.9117Z" fill="white"/>
<rect x="17.1428" y="13.9117" width="14.0627" height="13.9117" fill="url(#paint0_angular)"/>
<path d="M17.1428 4.99999C17.1428 2.23857 19.3814 0 22.1428 0H26.2056C28.967 0 31.2056 2.23858 31.2056 5V25.4511C31.2056 28.3197 28.7971 30.6001 25.9328 30.4436L21.8701 30.2217C19.2186 30.0768 17.1428 27.8846 17.1428 25.2291V4.99999Z" fill="white"/>
<path d="M17.0857 27.6586H31.0651V37C31.0651 39.7615 28.8266 42 26.0651 42H22.0857C19.3243 42 17.0857 39.7615 17.0857 37V27.6586Z" fill="white"/>
<ellipse cx="11.9867" cy="24.8423" rx="1.27234" ry="1.25867" fill="#45B5CC"/>
<ellipse cx="17.7457" cy="17.6877" rx="1.27234" ry="1.25867" fill="#45B5CC"/>
<ellipse cx="31.9423" cy="19.4101" rx="1.27234" ry="1.25867" fill="#45B5CC"/>
<ellipse cx="38.1034" cy="23.9149" rx="1.27234" ry="1.25867" fill="#45B5CC"/>
<rect x="12.4263" y="24.5854" width="5.49116" height="0.529969" fill="#45B5CC"/>
<rect x="18.1213" y="24.5854" width="16.9024" height="0.517757" transform="rotate(90 18.1213 24.5854)" fill="#45B5CC"/>
<rect x="21.563" y="17.3564" width="24.3785" height="0.535723" transform="rotate(90 21.563 17.3564)" fill="#45B5CC"/>
<rect x="28.2593" width="19.6088" height="0.535723" transform="rotate(90 28.2593 0)" fill="#45B5CC"/>
<rect x="25.8877" y="24.0732" width="17.9268" height="0.517757" transform="rotate(90 25.8877 24.0732)" fill="#45B5CC"/>
<rect x="3.10645" y="22.0244" width="16.5682" height="0.512195" fill="#45B5CC"/>
<rect x="37.9023" y="24.1135" width="12.3216" height="0.529969" transform="rotate(-180 37.9023 24.1135)" fill="#45B5CC"/>
<rect x="19.9556" y="21.9937" width="19.7413" height="0.535723" transform="rotate(90 19.9556 21.9937)" fill="#45B5CC"/>
<rect x="18.2146" y="17.3564" width="3.34827" height="0.529969" fill="#45B5CC"/>
<rect x="27.9912" y="19.0789" width="3.34827" height="0.529969" fill="#45B5CC"/>
<path d="M59.1235 26.4045H67.5215V29.5818H55.1685V10.3865H59.1235V26.4045ZM73.1678 29.5818H69.3445V15.3171H73.1678V29.5818ZM69.1204 11.6257C69.1204 11.0544 69.3094 10.5842 69.6873 10.2151C70.074 9.84595 70.597 9.66138 71.2561 9.66138C71.9065 9.66138 72.4251 9.84595 72.8118 10.2151C73.1985 10.5842 73.3919 11.0544 73.3919 11.6257C73.3919 12.2058 73.1941 12.6804 72.7986 13.0496C72.4119 13.4187 71.8977 13.6033 71.2561 13.6033C70.6145 13.6033 70.096 13.4187 69.7005 13.0496C69.3138 12.6804 69.1204 12.2058 69.1204 11.6257ZM76.9551 29.5818V18.1121H74.8326V15.3171H76.9551V14.1042C76.9551 12.5046 77.4122 11.2654 78.3262 10.3865C79.2491 9.49878 80.5367 9.05493 82.189 9.05493C82.7164 9.05493 83.3624 9.14282 84.127 9.3186L84.0875 12.2717C83.7711 12.1926 83.3843 12.1531 82.9273 12.1531C81.4947 12.1531 80.7784 12.8254 80.7784 14.1702V15.3171H83.6129V18.1121H80.7784V29.5818H76.9551ZM91.4344 29.8455C89.3426 29.8455 87.6375 29.2039 86.3192 27.9207C85.0096 26.6375 84.3548 24.928 84.3548 22.7922V22.4231C84.3548 20.9905 84.6317 19.7117 85.1854 18.5867C85.7391 17.4529 86.5213 16.5828 87.5321 15.9763C88.5516 15.3611 89.7118 15.0535 91.0125 15.0535C92.9637 15.0535 94.4974 15.6687 95.6136 16.8992C96.7386 18.1296 97.3011 19.8743 97.3011 22.1331V23.6887H88.2176C88.3407 24.6204 88.7098 25.3674 89.325 25.9299C89.9491 26.4924 90.7357 26.7737 91.6849 26.7737C93.1527 26.7737 94.2996 26.2419 95.1258 25.1785L96.9979 27.2747C96.4266 28.0833 95.6532 28.7161 94.6776 29.1731C93.702 29.6213 92.6209 29.8455 91.4344 29.8455ZM90.9994 18.1384C90.2435 18.1384 89.6283 18.3933 89.1537 18.9031C88.6878 19.4128 88.389 20.1423 88.2572 21.0916H93.557V20.7883C93.5394 19.9446 93.3109 19.2942 92.8714 18.8372C92.432 18.3713 91.8079 18.1384 90.9994 18.1384ZM111.477 24.4006L113.349 15.3171H117.027L113.389 29.5818H110.198L107.496 20.6038L104.793 29.5818H101.616L97.9772 15.3171H101.655L103.514 24.3875L106.125 15.3171H108.88L111.477 24.4006ZM126.787 29.5818C126.611 29.239 126.484 28.8127 126.405 28.303C125.482 29.3313 124.282 29.8455 122.806 29.8455C121.408 29.8455 120.248 29.4412 119.325 28.6326C118.411 27.824 117.954 26.8044 117.954 25.574C117.954 24.0623 118.512 22.9021 119.628 22.0935C120.753 21.2849 122.375 20.8762 124.493 20.8674H126.246V20.05C126.246 19.3909 126.075 18.8635 125.732 18.468C125.398 18.0725 124.867 17.8748 124.137 17.8748C123.496 17.8748 122.99 18.0286 122.621 18.3362C122.261 18.6438 122.08 19.0657 122.08 19.6018H118.27C118.27 18.7756 118.525 18.011 119.035 17.3079C119.545 16.6047 120.266 16.0554 121.197 15.6599C122.129 15.2556 123.175 15.0535 124.335 15.0535C126.093 15.0535 127.486 15.4973 128.514 16.385C129.551 17.2639 130.07 18.5032 130.07 20.1028V26.2859C130.079 27.6394 130.267 28.6633 130.637 29.3577V29.5818H126.787ZM123.636 26.9319C124.199 26.9319 124.717 26.8088 125.192 26.5627C125.666 26.3079 126.018 25.9695 126.246 25.5476V23.0955H124.823C122.915 23.0955 121.9 23.7546 121.777 25.073L121.764 25.2971C121.764 25.7717 121.931 26.1628 122.265 26.4705C122.599 26.7781 123.056 26.9319 123.636 26.9319ZM140.607 18.8899C140.089 18.8196 139.632 18.7844 139.236 18.7844C137.795 18.7844 136.85 19.2722 136.402 20.2478V29.5818H132.591V15.3171H136.191L136.296 17.0178C137.061 15.7083 138.12 15.0535 139.473 15.0535C139.895 15.0535 140.291 15.1106 140.66 15.2249L140.607 18.8899ZM148.35 29.8455C146.258 29.8455 144.553 29.2039 143.234 27.9207C141.925 26.6375 141.27 24.928 141.27 22.7922V22.4231C141.27 20.9905 141.547 19.7117 142.101 18.5867C142.654 17.4529 143.436 16.5828 144.447 15.9763C145.467 15.3611 146.627 15.0535 147.928 15.0535C149.879 15.0535 151.413 15.6687 152.529 16.8992C153.654 18.1296 154.216 19.8743 154.216 22.1331V23.6887H145.133C145.256 24.6204 145.625 25.3674 146.24 25.9299C146.864 26.4924 147.651 26.7737 148.6 26.7737C150.068 26.7737 151.215 26.2419 152.041 25.1785L153.913 27.2747C153.342 28.0833 152.568 28.7161 151.593 29.1731C150.617 29.6213 149.536 29.8455 148.35 29.8455ZM147.915 18.1384C147.159 18.1384 146.543 18.3933 146.069 18.9031C145.603 19.4128 145.304 20.1423 145.172 21.0916H150.472V20.7883C150.455 19.9446 150.226 19.2942 149.787 18.8372C149.347 18.3713 148.723 18.1384 147.915 18.1384Z" fill="white"/>
<defs>
<radialGradient id="paint0_angular" cx="0" cy="0" r="1" gradientUnits="userSpaceOnUse" gradientTransform="translate(47.4112 11.1293) rotate(137.235) scale(42.0505 42.0175)">
<stop offset="0.0547478" stop-color="#41C3CA"/>
<stop offset="0.453125" stop-color="#85B1B4" stop-opacity="0.0729167"/>
<stop offset="0.598958" stop-color="#82BAD0"/>
<stop offset="0.651042" stop-color="#41C3CA" stop-opacity="0.395833"/>
<stop offset="0.803457" stop-color="#41C3CA" stop-opacity="0.1875"/>
<stop offset="0.803557" stop-color="#5277D3"/>
</radialGradient>
</defs>
</svg>
