<svg width="149" height="141" viewBox="0 0 149 141" fill="none" xmlns="http://www.w3.org/2000/svg">
<path d="M2.80406 50.3813C3.17738 48.5097 3.97672 46.8435 5.04737 45.3959C13.277 30.2854 36.5396 36.1403 70.1191 42.0037C75.733 42.9845 73.845 35.7848 74.7554 20.9869C75.3473 11.3587 84.2897 -1.82446 94.5004 0.209976C111.335 3.5593 92.5065 13.5473 100.881 49.1778C105.355 68.2201 125.082 61.9797 121.587 79.5144L113.633 119.428C112.272 126.251 110.291 132.68 100.428 131.836C90.8658 131.022 91.6471 138.072 78.1546 135.387L10.6201 121.946C3.741 120.58 -0.744362 113.894 0.619888 107.05C1.18522 104.215 2.69994 101.829 4.72981 100.056C1.33611 97.1691 -0.483742 92.6334 0.443756 87.982C1.0078 85.1509 2.51863 82.7653 4.54422 80.9964C1.13766 78.1096 -0.68821 73.5696 0.241005 68.9097C0.915207 65.5218 2.90481 62.7293 5.57116 60.9261C3.19112 58.0865 2.02828 54.2789 2.80406 50.3813Z" fill="#FFED48"/>
<path d="M45.1457 71.2185L13.1787 64.7887C8.83167 63.9119 5.21344 60.7529 3.73322 56.5452C3.12479 54.8088 4.02936 52.9048 5.7572 52.2902C7.48079 51.6799 9.37417 52.5996 9.986 54.336C10.6842 56.3389 12.4095 57.8346 14.4709 58.2472L47.2046 64.836C50.4479 65.4893 53.6088 63.3661 54.2517 60.1039C54.895 56.8418 52.7804 53.6569 49.5366 53.0036L27.6639 48.6025C25.8693 48.2415 24.7013 46.4836 25.0575 44.6784C25.4132 42.8776 27.1589 41.7042 28.9531 42.0653L50.8296 46.4664C57.658 47.8418 62.1114 54.5423 60.7575 61.4105C60.0023 65.24 57.5695 68.2744 54.4065 70.0151C56.2454 72.7357 57.05 76.1612 56.3658 79.6297C55.6085 83.4721 53.1625 86.515 49.9855 88.2471C51.8103 90.9592 52.6025 94.3718 51.9201 97.8316C51.0951 102.018 48.2895 105.293 44.6862 106.918C46.1996 109.509 46.8531 112.621 46.2281 115.789C44.8743 122.657 38.2182 127.127 31.3893 125.751L11.0135 121.651C6.66729 120.779 3.0444 117.62 1.56419 113.412C0.951931 111.675 1.85693 109.771 3.58094 109.157C5.30665 108.555 7.20298 109.462 7.81098 111.194C8.51684 113.197 10.2413 114.697 12.3035 115.114L32.6785 119.214C35.9223 119.863 39.0827 117.744 39.7265 114.482C40.3694 111.22 38.2548 108.035 35.0105 107.382L10.8382 102.521C6.49157 101.644 2.86526 98.4849 1.3893 94.2729C0.777897 92.5365 1.68289 90.6325 3.40606 90.0222C5.14751 89.399 7.0315 90.3231 7.63609 92.0595C8.35131 94.0967 10.0323 95.558 12.1278 95.9792L38.3692 101.261C41.613 101.915 44.7747 99.7872 45.418 96.525C46.0613 93.2629 43.9463 90.0781 40.7025 89.4248L10.6412 83.3775C6.29415 82.505 2.6717 79.346 1.19148 75.1383C0.579227 73.4019 1.48419 71.4979 3.20778 70.8833C4.93817 70.2773 6.82982 71.1841 7.43782 72.9205C8.15389 74.9535 9.83494 76.4191 11.9304 76.8403L42.8128 83.0508C46.0562 83.7041 49.2175 81.581 49.8599 78.3188C50.5037 75.0566 48.3929 71.8718 45.1457 71.2185Z" fill="#FFB52E"/>
<path d="M109.305 136.732L130.224 140.896C133.122 141.472 135.939 139.592 136.516 136.698L148.896 74.5546C149.473 71.6605 147.593 68.8432 144.695 68.2678L123.776 64.1036C120.878 63.5282 118.062 65.4078 117.485 68.3019L105.104 130.441C104.527 133.339 106.408 136.157 109.305 136.732Z" fill="#56B4DF"/>
</svg>
