<svg width="32" height="33" viewBox="0 0 32 33" fill="none" xmlns="http://www.w3.org/2000/svg">
<g clip-path="url(#clip0)">
<path d="M19.8121 1.21542C18.6486 0.74605 17.365 0.466675 16 0.466675C12.165 0.466675 8.89286 2.5373 7.535 5.46667H13.3343L19.8121 1.21542ZM24.465 5.46667C23.9007 4.2498 22.9886 3.20417 21.8586 2.37167L17.1421 5.46667H24.465ZM16 16.4667C21.0493 16.4667 25.1429 12.8848 25.1429 8.46667C25.1429 8.12417 25.075 7.79792 25.0279 7.46667H6.97214C6.92429 7.79792 6.85714 8.12417 6.85714 8.46667C6.85714 12.8848 10.9507 16.4667 16 16.4667ZM5.71429 19.1979V32.4667H14.8757L7.84357 18.6217C7.1104 18.7399 6.39571 18.9333 5.71429 19.1979ZM0 29.4667C0 31.1236 1.535 32.4667 3.42857 32.4667V20.4817C1.34857 22.0223 0 24.2954 0 26.8667V29.4667ZM18.2857 26.4667H14.33L17.3779 32.4667H18.2857C20.1764 32.4667 21.7143 31.121 21.7143 29.4667C21.7143 27.8123 20.1764 26.4667 18.2857 26.4667ZM22.4 18.4667H21.2064C19.6179 19.1029 17.8579 19.4667 16 19.4667C14.1421 19.4667 12.3821 19.1029 10.7936 18.4667H10.2671L13.315 24.4667H18.2857C21.4364 24.4667 24 26.7098 24 29.4667C24 30.5967 23.5529 31.6285 22.8279 32.4667H28.5714C30.465 32.4667 32 31.1236 32 29.4667V26.8667C32 22.2273 27.7021 18.4667 22.4 18.4667Z" fill="#49A0CE"/>
</g>
<defs>
<clipPath id="clip0">
<rect width="32" height="32" fill="white" transform="translate(0 0.466675)"/>
</clipPath>
</defs>
</svg>
