<svg width="30" height="35" viewBox="0 0 30 35" fill="none" xmlns="http://www.w3.org/2000/svg">
<path d="M15 17.5C19.7344 17.5 23.5714 13.583 23.5714 8.75C23.5714 3.91699 19.7344 0 15 0C10.2656 0 6.42857 3.91699 6.42857 8.75C6.42857 13.583 10.2656 17.5 15 17.5ZM6.96429 28.9844C6.96429 29.8936 7.6808 30.625 8.57143 30.625C9.46205 30.625 10.1786 29.8936 10.1786 28.9844C10.1786 28.0752 9.46205 27.3438 8.57143 27.3438C7.6808 27.3438 6.96429 28.0752 6.96429 28.9844ZM21.4286 19.7285V23.0781C23.8728 23.584 25.7143 25.7988 25.7143 28.4375V31.2881C25.7143 31.8076 25.3527 32.2588 24.8504 32.3613L22.6942 32.7988C22.4062 32.8604 22.125 32.6689 22.0647 32.3682L21.8571 31.2949C21.7969 31.001 21.9844 30.707 22.279 30.6523L23.5714 30.3857V28.4375C23.5714 24.1445 17.1429 23.9873 17.1429 28.5674V30.3926L18.4353 30.6592C18.7232 30.7207 18.9107 31.0078 18.8571 31.3018L18.6496 32.375C18.5893 32.6689 18.308 32.8604 18.0201 32.8057L15.9308 32.5186C15.4018 32.4434 15.0067 31.9854 15.0067 31.4316V28.4375C15.0067 25.7988 16.8482 23.5908 19.2924 23.0781V19.9883C19.1451 20.0361 18.9978 20.0635 18.8504 20.1182C17.6451 20.5488 16.3527 20.7881 15.0067 20.7881C13.6607 20.7881 12.3683 20.5488 11.1629 20.1182C10.6674 19.9404 10.1652 19.8311 9.64955 19.7627V25.3408C11.1964 25.8125 12.3281 27.2617 12.3281 28.9912C12.3281 31.1035 10.6473 32.8193 8.57812 32.8193C6.50893 32.8193 4.82812 31.1035 4.82812 28.9912C4.82812 27.2617 5.95982 25.8125 7.5067 25.3408V19.8447C3.24777 20.5762 0 24.3223 0 28.875V31.9375C0 33.626 1.34598 35 3 35H27C28.654 35 30 33.626 30 31.9375V28.875C30 23.9531 26.1964 19.9678 21.4286 19.7285Z" fill="#49A0CE"/>
</svg>
