<svg width="503" height="247" viewBox="0 0 503 247" fill="none" xmlns="http://www.w3.org/2000/svg">
<path d="M502.948 247L466.592 220.843H29.4237C13.2407 220.843 0 207.602 0 191.419V44.1511V176.693C0 192.876 13.2407 206.117 29.4237 206.117H466.592L502.948 232.273V247Z" fill="#E5E5E5"/>
<path d="M473.524 -9.15527e-05H29.4237C13.2407 -9.15527e-05 0 13.2406 0 29.4237V176.693C0 192.877 13.2407 206.117 29.4237 206.117H466.592L502.948 232.273V176.693V174.967V29.4237C502.948 13.2406 489.707 -9.15527e-05 473.524 -9.15527e-05Z" fill="#5AADD3"/>
<path d="M467.397 75.356L454.146 68.3884L440.898 75.356L443.43 60.6009L432.71 50.1516L447.522 48.0017L454.146 34.5786L460.772 48.0017L475.584 50.1516L464.866 60.6009L467.397 75.356Z" fill="#337391"/>
<path d="M221.835 80.2163L208.587 73.2507L195.337 80.2163L197.867 65.4632L187.148 55.0139L201.962 52.862L208.587 39.4389L215.211 52.862L230.025 55.0139L219.305 65.4632L221.835 80.2163Z" fill="#337391"/>
<path d="M208.587 34.5786L215.211 48.0017L230.025 50.1516L219.305 60.6009L221.835 75.356L208.587 68.3884L195.337 75.356L197.868 60.6009L187.148 50.1516L201.962 48.0017L208.587 34.5786Z" fill="#FFE84F"/>
<path d="M208.587 34.5786L215.211 48.0017L230.025 50.1516L219.305 60.6009L221.835 75.356L208.587 68.3884V34.5786Z" fill="#F5CF39"/>
<path d="M283.228 80.2163L269.977 73.2507L256.729 80.2163L259.259 65.4632L248.539 55.0139L263.353 52.862L269.977 39.4389L276.601 52.862L291.415 55.0139L280.697 65.4632L283.228 80.2163Z" fill="#337391"/>
<path d="M269.977 34.5786L276.601 48.0017L291.415 50.1516L280.697 60.6009L283.228 75.356L269.977 68.3884L256.729 75.356L259.259 60.6009L248.539 50.1516L263.353 48.0017L269.977 34.5786Z" fill="#FFE84F"/>
<path d="M269.978 34.5786L276.602 48.0017L291.416 50.1516L280.698 60.6009L283.228 75.356L269.978 68.3884V34.5786Z" fill="#F5CF39"/>
<path d="M344.616 80.2163L331.366 73.2507L318.117 80.2163L320.648 65.4632L309.928 55.0139L324.742 52.862L331.366 39.4389L337.992 52.862L352.804 55.0139L342.086 65.4632L344.616 80.2163Z" fill="#337391"/>
<path d="M331.366 34.5786L337.992 48.0017L352.804 50.1516L342.086 60.6009L344.616 75.356L331.366 68.3884L318.117 75.356L320.648 60.6009L309.928 50.1516L324.742 48.0017L331.366 34.5786Z" fill="#FFE84F"/>
<path d="M331.366 34.5786L337.992 48.0017L352.804 50.1516L342.086 60.6009L344.617 75.356L331.366 68.3884V34.5786Z" fill="#F5CF39"/>
<path d="M406.004 80.2163L392.756 73.2507L379.507 80.2163L382.037 65.4632L371.319 55.0139L386.131 52.862L392.756 39.4389L399.38 52.862L414.194 55.0139L403.476 65.4632L406.004 80.2163Z" fill="#337391"/>
<path d="M392.757 34.5786L399.38 48.0017L414.194 50.1516L403.476 60.6009L406.004 75.356L392.757 68.3884L379.507 75.356L382.037 60.6009L371.319 50.1516L386.131 48.0017L392.757 34.5786Z" fill="#FFE84F"/>
<path d="M392.758 34.5786L399.38 48.0017L414.194 50.1516L403.476 60.6009L406.004 75.356L392.758 68.3884V34.5786Z" fill="#F5CF39"/>
<path d="M470.68 109.101H192.052C189.355 109.101 187.148 106.894 187.148 104.197C187.148 101.499 189.355 99.2927 192.052 99.2927H470.68C473.377 99.2927 475.584 101.499 475.584 104.197C475.584 106.894 473.377 109.101 470.68 109.101Z" fill="#7DD0FF"/>
<path d="M470.68 135.282H192.052C189.355 135.282 187.148 133.075 187.148 130.378C187.148 127.681 189.355 125.474 192.052 125.474H470.68C473.377 125.474 475.584 127.681 475.584 130.378C475.584 133.075 473.377 135.282 470.68 135.282Z" fill="#7DD0FF"/>
<path d="M423.829 161.459H192.052C189.355 161.459 187.148 159.253 187.148 156.556C187.148 153.858 189.355 151.652 192.052 151.652H423.829C426.526 151.652 428.733 153.858 428.733 156.556C428.733 159.253 426.526 161.459 423.829 161.459Z" fill="#7DD0FF"/>
<path d="M96.7759 177.422C57.3634 177.422 25.4141 145.475 25.4141 106.061C25.4141 104.593 25.4584 103.133 25.5459 101.69C27.7533 138.234 57.4652 167.355 94.2541 168.634H94.2549C94.3316 168.637 94.4059 168.639 94.4824 168.643C94.4832 168.643 94.4871 168.643 94.4879 168.643C94.5238 168.643 94.5607 168.644 94.5966 168.644C94.5989 168.644 94.6013 168.644 94.6034 168.644C94.6395 168.646 94.6748 168.646 94.7107 168.648C94.7131 168.648 94.7154 168.648 94.7176 168.648C94.7537 168.65 94.7898 168.65 94.8257 168.653C94.8265 168.653 94.8288 168.653 94.8296 168.653C94.8678 168.653 94.9008 168.654 94.939 168.654C94.9459 168.654 94.953 168.654 94.9606 168.654C94.9912 168.656 95.0218 168.656 95.0532 168.658C95.0617 168.658 95.0693 168.658 95.0777 168.658C95.1091 168.658 95.136 168.66 95.1674 168.66C95.1782 168.66 95.189 168.66 95.1996 168.66C95.228 168.662 95.2541 168.662 95.2823 168.662C95.2915 168.662 95.3016 168.662 95.3108 168.662C95.3208 168.664 95.3314 168.664 95.3406 168.664H95.3429C95.3598 168.664 95.3796 168.664 95.3965 168.664C95.4073 168.664 95.4189 168.664 95.4295 168.666C95.4318 168.666 95.4371 168.666 95.4395 168.666C95.4434 168.666 95.4471 168.666 95.451 168.666C95.47 168.666 95.4924 168.666 95.5114 168.666C95.5207 168.666 95.5322 168.668 95.5422 168.668C95.5475 168.668 95.5528 168.668 95.5583 168.668C95.5805 168.668 95.6042 168.668 95.6256 168.668C95.6333 168.668 95.6403 168.668 95.648 168.67C95.6493 168.67 95.6509 168.67 95.6517 168.67C95.6633 168.67 95.6725 168.67 95.6831 168.67C95.7023 168.67 95.7215 168.67 95.7406 168.67C95.7582 168.67 95.7774 168.67 95.7951 168.672C95.8141 168.672 95.8365 168.672 95.8555 168.672C95.8732 168.672 95.8932 168.672 95.9106 168.672C95.9206 168.672 95.9298 168.672 95.9398 168.672C95.9444 168.674 95.952 168.674 95.9575 168.674C95.962 168.674 95.9659 168.674 95.9705 168.674C95.9858 168.674 96.0034 168.674 96.0187 168.674C96.0218 168.674 96.0218 168.674 96.0242 168.674C96.0387 168.674 96.0517 168.674 96.067 168.674C96.0717 168.674 96.0809 168.674 96.0854 168.674C96.0984 168.674 96.1131 168.674 96.1268 168.674C96.1437 168.676 96.1605 168.676 96.1774 168.676C96.1843 168.676 96.1935 168.676 96.2003 168.676C96.2111 168.676 96.2225 168.676 96.2333 168.676C96.2517 168.676 96.2694 168.676 96.2876 168.676C96.2969 168.676 96.3061 168.676 96.3161 168.676C96.3237 168.676 96.3322 168.676 96.3406 168.676C96.3612 168.676 96.3804 168.676 96.4004 168.676C96.4102 168.676 96.421 168.678 96.4302 168.678C96.4363 168.678 96.4424 168.678 96.4487 168.678C96.4701 168.678 96.4914 168.678 96.513 168.678C96.5152 168.678 96.5168 168.678 96.5191 168.678C96.5291 168.678 96.536 168.678 96.5452 168.678C96.5489 168.678 96.5544 168.678 96.5581 168.678C96.5819 168.678 96.6056 168.678 96.6288 168.678C96.6425 168.678 96.6539 168.678 96.667 168.678C96.7037 168.678 96.7398 168.678 96.7759 168.678C96.8126 168.678 96.8487 168.678 96.8853 168.678C96.8985 168.678 96.9099 168.678 96.9236 168.678C96.9467 168.678 96.9705 168.678 96.9942 168.678C96.9979 168.678 97.0034 168.678 97.0064 168.678C97.0164 168.678 97.0248 168.678 97.0348 168.678C97.0356 168.678 97.0379 168.678 97.0393 168.678C97.0609 168.678 97.0823 168.678 97.1031 168.678C97.1091 168.678 97.116 168.678 97.1213 168.678C97.1313 168.678 97.1421 168.676 97.1521 168.676C97.1719 168.676 97.1911 168.676 97.211 168.676C97.2194 168.676 97.2278 168.676 97.2363 168.676C97.2463 168.676 97.2555 168.676 97.2647 168.676C97.2831 168.676 97.3006 168.676 97.319 168.676C97.3298 168.676 97.3404 168.676 97.3512 168.676C97.3589 168.676 97.3681 168.676 97.3749 168.676C97.3918 168.676 97.4087 168.676 97.4256 168.674C97.4279 168.674 97.4263 168.674 97.4287 168.674C97.4408 168.674 97.4548 168.674 97.4662 168.674C97.4715 168.674 97.4807 168.674 97.4854 168.674C97.5007 168.674 97.5128 168.674 97.5276 168.674C97.5329 168.674 97.5321 168.674 97.5366 168.674C97.5513 168.674 97.5674 168.674 97.5819 168.674C97.5864 168.674 97.5903 168.674 97.5948 168.674C97.6003 168.674 97.6056 168.674 97.6109 168.674C97.6233 168.672 97.6341 168.672 97.6454 168.672C97.6623 168.672 97.68 168.672 97.6968 168.672C97.7182 168.672 97.7412 168.672 97.7627 168.672C97.7781 168.67 97.7965 168.67 97.8118 168.67C97.8308 168.67 97.8548 168.67 97.8738 168.67C97.8822 168.67 97.8922 168.67 97.9007 168.67C97.9014 168.67 97.903 168.67 97.9038 168.67C97.9114 168.668 97.9199 168.668 97.9267 168.668C97.9481 168.668 97.9726 168.668 97.9948 168.668C97.9987 168.668 98.0056 168.668 98.0103 168.668C98.0193 168.668 98.0309 168.666 98.0409 168.666C98.0593 168.666 98.0831 168.666 98.1021 168.666C98.1052 168.666 98.1084 168.666 98.1113 168.666C98.119 168.666 98.1229 168.666 98.1298 168.666C98.1382 168.664 98.1466 168.664 98.1551 168.664C98.1719 168.664 98.1933 168.664 98.2094 168.664H98.2102C98.2247 168.664 98.2347 168.664 98.2492 168.662C98.2555 168.662 98.2639 168.662 98.27 168.662C98.3006 168.662 98.3296 168.662 98.3604 168.66C98.3681 168.66 98.3773 168.66 98.3842 168.66C98.4179 168.66 98.4509 168.658 98.4846 168.658C98.4891 168.658 98.4936 168.658 98.4983 168.658C98.5342 168.656 98.5658 168.656 98.6017 168.654C98.6049 168.654 98.6094 168.654 98.6125 168.654C135.719 167.719 165.784 138.462 168.006 101.69C168.093 103.133 168.137 104.593 168.137 106.061C168.137 145.475 136.188 177.422 96.7759 177.422Z" fill="#337390"/>
<path d="M168.137 97.3185C168.137 136.73 136.188 168.679 96.7759 168.679C57.3634 168.679 25.4141 136.73 25.4141 97.3185C25.4141 57.9059 57.3634 25.9557 96.7759 25.9557C136.188 25.9557 168.137 57.9059 168.137 97.3185Z" fill="white"/>
<path d="M96.7758 168.679C116.42 168.679 134.208 160.74 147.112 147.897C145.615 144.986 144.02 142.167 142.35 139.665C133.749 126.761 110.45 129.268 110.45 129.268L96.7758 127.836L83.1014 129.268C83.1014 129.268 59.8037 126.761 51.2012 139.665C49.5315 142.167 47.9361 144.986 46.4404 147.897C59.3439 160.74 77.1316 168.679 96.7758 168.679Z" fill="#FFE84F"/>
<path d="M114.242 132.518C115.256 131.685 115.704 130.364 115.458 129.076C112.438 129.058 110.449 129.268 110.449 129.268L96.7756 127.836L83.1006 129.268C83.1006 129.268 81.1114 129.058 78.0909 129.076C77.8487 130.361 78.2955 131.677 79.3061 132.511C81.6179 134.415 86.7762 137.308 96.7756 137.308C106.771 137.308 111.929 134.421 114.242 132.518Z" fill="#CCB733"/>
<path d="M130.101 160.418C136.383 157.093 142.116 152.866 147.111 147.896C145.615 144.986 144.019 142.167 142.35 139.665C137.136 131.844 126.531 129.688 118.979 129.199C124.183 137.23 128.105 148.044 130.101 160.418Z" fill="#CCB733"/>
<path d="M74.8597 129.181C67.293 129.633 56.4814 131.744 51.2012 139.664C49.5315 142.167 47.9361 144.986 46.4404 147.895C51.3138 152.748 56.8866 156.895 62.9905 160.182C65.2724 147.99 69.4706 137.214 74.8597 129.181Z" fill="#CCB733"/>
<path d="M50.793 151.873C63.2139 162.353 79.252 168.679 96.7746 168.679C114.297 168.679 130.335 162.353 142.756 151.876C129.77 161.087 113.909 164.553 96.7746 164.553C79.6398 164.553 63.7794 161.087 50.793 151.873Z" fill="#CCB733"/>
<path d="M96.776 134.645C110.038 134.645 113.725 129.093 113.725 129.093C111.504 118.699 110.171 107.379 110.171 107.379L96.776 100.674L83.38 107.379C83.38 107.379 82.0467 118.691 79.8252 129.083C79.8252 129.083 83.5124 134.645 96.776 134.645Z" fill="#FFC791"/>
<path d="M82.9812 110.474C82.5285 113.827 81.7046 119.482 80.5859 125.317C84.064 126.848 87.7465 127.723 91.5624 127.723C99.034 127.723 105.99 124.396 111.883 119.25C111.296 115.698 110.846 112.547 110.556 110.384L96.8732 104.597L82.9812 110.474Z" fill="#E8B17D"/>
<path d="M76.6379 88.8421C76.6379 94.0281 72.347 98.2363 67.0546 98.2363C61.7607 98.2363 57.4697 94.0281 57.4697 88.8421C57.4697 83.6518 61.7607 79.4481 67.0546 79.4481C72.347 79.4481 76.6379 83.6518 76.6379 88.8421Z" fill="#FFC791"/>
<path d="M74.5742 88.8417C74.5742 92.9136 71.2074 96.2153 67.0535 96.2153C62.8989 96.2153 59.5312 92.9136 59.5312 88.8417C59.5312 84.7695 62.8989 81.4682 67.0535 81.4682C71.2074 81.4682 74.5742 84.7695 74.5742 88.8417Z" fill="#E8B17D"/>
<path d="M134.998 88.8421C134.998 94.0281 130.707 98.2363 125.414 98.2363C120.121 98.2363 115.83 94.0281 115.83 88.8421C115.83 83.6518 120.121 79.4481 125.414 79.4481C130.707 79.4481 134.998 83.6518 134.998 88.8421Z" fill="#FFC791"/>
<path d="M132.935 88.8417C132.935 92.9136 129.568 96.2153 125.414 96.2153C121.259 96.2153 117.892 92.9136 117.892 88.8417C117.892 84.7695 121.259 81.4682 125.414 81.4682C129.568 81.4682 132.935 84.7695 132.935 88.8417Z" fill="#E8B17D"/>
<path d="M128.436 82.2702C128.436 102.041 114.121 122.458 96.2322 122.458C78.3436 122.458 64.0293 102.041 64.0293 82.2702C64.0293 62.4994 78.3436 46.0887 96.2322 46.0887C114.121 46.0887 128.436 62.4994 128.436 82.2702Z" fill="#FFC791"/>
<path d="M82.062 94.7228C82.062 96.9211 79.5027 98.7026 76.3457 98.7026C73.188 98.7026 70.6289 96.9211 70.6289 94.7228C70.6289 92.5236 73.188 90.7406 76.3457 90.7406C79.5027 90.7406 82.062 92.5236 82.062 94.7228Z" fill="#FFB285"/>
<path d="M123.056 94.7228C123.056 96.9211 120.496 98.7026 117.339 98.7026C114.182 98.7026 111.623 96.9211 111.623 94.7228C111.623 92.5236 114.182 90.7406 117.339 90.7406C120.496 90.7406 123.056 92.5236 123.056 94.7228Z" fill="#FFB285"/>
<path d="M128.436 82.2702C128.436 82.0269 128.407 81.7915 128.403 81.5483L126.496 84.2729C126.496 84.2729 120.897 99.0419 112.963 102.31C112.963 102.31 108.068 97.2604 96.7746 102.904C85.4802 97.2604 80.5855 102.31 80.5855 102.31C72.6518 99.0419 67.0529 84.2729 67.0529 84.2729L64.1266 80.0948C64.0883 80.8186 64.0293 81.5365 64.0293 82.2702C64.0293 84.2494 64.1788 86.2326 64.4546 88.204C64.7013 89.7085 65.0154 91.3441 65.4061 93.0604C69.3931 108.828 81.6184 122.458 96.2322 122.458C114.121 122.458 128.436 102.041 128.436 82.2702Z" fill="#7D5E3D"/>
<path d="M96.2341 41.7991C107.242 41.7991 117.742 44.4159 123.699 46.2303C126.738 47.1562 128.856 49.8377 128.971 52.937C129.471 66.4817 129.014 78.5984 128.819 82.7491C128.754 84.1497 128.42 85.5228 127.735 86.7468C126.945 88.1572 125.754 89.2322 124.387 86.9155C121.93 82.7472 125.551 71.8427 118.519 61.1697C118.519 61.1697 111.322 66.8093 96.2341 66.8093C81.146 66.8093 73.9509 61.1697 73.9509 61.1697C66.9177 71.8427 70.5389 82.7472 68.0807 86.9155C66.7152 89.2322 65.523 88.1572 64.7331 86.7468C64.0481 85.5228 63.714 84.1497 63.6489 82.7491C63.4549 78.5984 62.9974 66.4817 63.4978 52.937C63.612 49.8377 65.7299 47.1562 68.7696 46.2303C74.7271 44.4159 85.2263 41.7991 96.2341 41.7991Z" fill="#7D5E3D"/>
<path d="M86.0718 70.644C86.0718 71.4247 84.3738 70.5106 81.4169 70.5106C78.4591 70.5106 75.3613 71.4247 75.3613 70.644C75.3613 69.8652 78.4591 68.5314 81.4169 68.5314C84.3738 68.5314 86.0718 69.8652 86.0718 70.644Z" fill="#7D5E3D"/>
<path d="M106.097 72.6059C106.097 73.3866 107.795 72.4725 110.752 72.4725C113.71 72.4725 116.807 73.3866 116.807 72.6059C116.807 71.8272 113.71 70.4933 110.752 70.4933C107.795 70.4933 106.097 71.8272 106.097 72.6059Z" fill="#7D5E3D"/>
<path d="M76.2621 84.4877C76.3357 83.8031 76.5817 82.6105 77.2476 81.6611C77.9258 80.7175 78.9234 79.9584 80.865 79.9427C82.7983 79.9545 83.8656 80.7195 84.6051 81.6748C85.3337 82.632 85.6495 83.8227 85.7652 84.5132C85.8333 84.9153 86.2135 85.1841 86.6142 85.1154C87.0142 85.0468 87.2839 84.6662 87.2148 84.266C87.0716 83.4422 86.7229 82.0416 85.7782 80.7862C84.8441 79.5288 83.2281 78.4578 80.865 78.4715C78.4942 78.4558 76.9097 79.5425 76.0399 80.8215C75.1595 82.0946 74.8953 83.503 74.7994 84.3229C74.7551 84.727 75.0454 85.0919 75.4493 85.137C75.853 85.1821 76.217 84.8918 76.2621 84.4877Z" fill="#7D5E3D"/>
<path d="M117.663 84.3229C117.568 83.503 117.302 82.0946 116.422 80.8215C115.552 79.5425 113.968 78.4558 111.597 78.4715C109.234 78.4578 107.618 79.5288 106.684 80.7862C105.739 82.0416 105.39 83.4422 105.247 84.266C105.178 84.6662 105.448 85.0468 105.848 85.1154C106.248 85.1841 106.629 84.9153 106.697 84.5132C106.812 83.8227 107.128 82.632 107.857 81.6748C108.596 80.7195 109.664 79.9545 111.597 79.9427C113.539 79.9584 114.536 80.7175 115.214 81.6611C115.88 82.6105 116.127 83.8031 116.201 84.4877C116.245 84.8918 116.61 85.1821 117.013 85.137C117.417 85.0919 117.708 84.727 117.663 84.3229Z" fill="#7D5E3D"/>
<path d="M96.3003 97.0395C99.3827 97.0395 100.845 94.7231 100.845 94.7231C100.687 97.0923 98.7214 98.5674 96.3003 98.5674C94.2704 98.5674 91.9142 97.0923 91.7549 94.7231C91.7549 94.7231 93.2176 97.0395 96.3003 97.0395Z" fill="#E8B17D"/>
<path d="M64.2691 159.096C63.9372 158.966 63.6079 158.835 63.2783 158.702C63.807 156.081 64.4247 153.529 65.1234 151.061C65.6813 151.351 65.3058 154.517 64.2691 159.096Z" fill="#D9C543"/>
<path d="M63.2784 158.702C62.6822 158.459 62.0906 158.206 61.5029 157.945C63.0669 153.761 64.4155 151.04 65.0346 151.04C65.0538 151.04 65.072 151.042 65.0897 151.048C65.1013 151.052 65.1128 151.056 65.1234 151.061C64.4247 153.529 63.807 156.082 63.2784 158.702Z" fill="#AE9C2B"/>
<path d="M63.905 160.651C62.9503 160.155 62.0085 159.639 61.0791 159.099C61.2217 158.703 61.3633 158.318 61.5028 157.944C62.0905 158.205 62.6821 158.458 63.2782 158.701C63.6078 158.835 63.9371 158.966 64.269 159.095C64.1556 159.598 64.0338 160.118 63.905 160.651Z" fill="#AE9C2B"/>
<path d="M128.287 159.477C127.165 154.602 126.756 151.232 127.378 151.048C127.395 151.042 127.415 151.04 127.434 151.04C127.669 151.04 128.009 151.43 128.425 152.142C128.962 154.324 129.435 156.572 129.841 158.876C129.326 159.082 128.808 159.282 128.287 159.477Z" fill="#D9C543"/>
<path d="M129.84 158.876C129.435 156.572 128.961 154.324 128.425 152.142C129.143 153.368 130.088 155.553 131.118 158.349C130.694 158.529 130.269 158.706 129.84 158.876Z" fill="#AE9C2B"/>
<path d="M128.684 161.144C128.543 160.571 128.41 160.014 128.286 159.477C128.807 159.282 129.324 159.082 129.839 158.876C130.268 158.706 130.693 158.529 131.117 158.349C131.268 158.759 131.421 159.18 131.575 159.616C130.625 160.146 129.66 160.655 128.684 161.144Z" fill="#AE9C2B"/>
<path d="M88.0065 108.813C90.4677 109.95 93.3634 110.527 96.2552 110.529C99.0636 110.527 101.873 109.981 104.272 108.803C104.757 108.563 104.957 107.975 104.718 107.49C104.479 107.004 103.891 106.804 103.404 107.043C101.342 108.061 98.8084 108.569 96.2552 108.568C93.6279 108.569 90.9834 108.032 88.8304 107.034C88.3384 106.806 87.7553 107.02 87.5285 107.512C87.301 108.002 87.5148 108.587 88.0065 108.813Z" fill="white"/>
</svg>
