<svg width="686" height="398" viewBox="0 0 686 398" fill="none" xmlns="http://www.w3.org/2000/svg">
<path d="M657.343 394.684C711.043 314.338 680.395 233.553 618.522 187.705C555.625 141.099 626.63 44.6756 501.445 5.43872C436.685 -14.8588 379.736 40.4964 316.258 42.9011C259.38 45.0578 200.54 -3.75912 142.791 18.8544C104.169 31.8719 65.5639 68.4061 68.4442 112.086C69.9322 134.659 83.103 161.381 69.465 178.527C11.8985 250.898 17.8322 314.199 40.3936 393.672C40.3867 393.67 657.343 394.684 657.343 394.684Z" fill="#E0F5FF"/>
<path d="M432.495 205.575C425.755 203.229 411.429 196.008 418.215 186.269C425.003 176.532 427.886 180.611 425.276 168.902C422.665 157.192 430.923 147.867 438.917 150.117C446.91 152.367 449.016 158.782 458.766 157.047C468.516 155.309 476.736 164.34 473.146 172.291C469.556 180.24 468.027 184.067 471.514 188.408C475 192.746 490.543 197.294 484.197 207.852C477.852 218.412 474.883 217.801 477.187 223.154C479.49 228.504 474.381 234.683 465.391 233.946C456.401 233.209 448.234 229.906 444.83 219.932C441.426 209.956 432.495 205.575 432.495 205.575Z" fill="#2C2858"/>
<path d="M447.691 376.254L448.249 381.974L443.457 383.425L439.606 379.323L438.972 376.962L447.691 376.254Z" fill="#F37A50"/>
<path d="M432.569 260.871C432.569 260.871 425.375 307.374 427.314 327.306C429.256 347.235 439.013 377.051 439.013 377.051H447.77C447.77 377.051 447.622 373.445 447.278 361.563C446.843 346.409 447.278 333.967 440.649 326.152C444.083 311.367 452.865 260.871 452.865 260.871H432.569Z" fill="#F37A50"/>
<path d="M441.458 268.822C441.458 268.822 443.783 311.626 450.851 330.365C468.959 342.687 485.42 348.661 496.376 352.963C496.892 353.165 499.067 345.028 499.067 345.028C486.901 337.083 476.221 322.76 463.808 324.603C465.93 310.894 467.987 275.665 467.987 275.665L441.458 268.822Z" fill="#F37A50"/>
<path d="M451.17 192.735V210.321C451.17 210.321 445.298 213.447 440.209 210.321C440.993 206.412 441.458 193.963 441.458 193.963L451.17 192.735Z" fill="#F37A50"/>
<path d="M461.674 202.222H432.452C432.452 202.222 427.205 213.983 427.916 224.055C428.629 234.124 429.912 261.524 429.912 261.524C429.912 261.524 447.834 257.463 459.277 253.939C460.189 233.275 466.332 223.855 465.909 217.141C465.485 210.428 461.674 202.222 461.674 202.222Z" fill="#F595AD"/>
<path d="M432.688 177.342C432.688 187.193 438.64 195.18 445.982 195.18C453.321 195.18 459.273 187.193 459.273 177.342C459.273 167.489 453.321 159.502 445.982 159.502C438.64 159.502 432.688 167.489 432.688 177.342Z" fill="#F37A50"/>
<path d="M460.157 177.342C452.82 176.405 445.998 172.323 442.144 167.048C439.654 173.213 432.688 177.342 432.688 177.342C432.688 177.342 427.47 165.548 436.963 159.185C446.02 153.116 467.628 157.263 460.157 177.342Z" fill="#2C2858"/>
<path d="M451.573 181.148C452.352 181.148 452.983 180.516 452.983 179.738C452.983 178.96 452.352 178.327 451.573 178.327C450.791 178.327 450.16 178.96 450.16 179.738C450.16 180.516 450.791 181.148 451.573 181.148Z" fill="black"/>
<path d="M440.315 181.148C441.094 181.148 441.728 180.516 441.728 179.738C441.728 178.96 441.094 178.327 440.315 178.327C439.533 178.327 438.902 178.96 438.902 179.738C438.902 180.516 439.533 181.148 440.315 181.148Z" fill="black"/>
<path d="M437.823 178.466C438.055 178.466 438.281 178.348 438.409 178.136C438.757 177.547 439.179 177.194 439.664 177.09C440.503 176.903 441.332 177.461 441.339 177.467C441.647 177.677 442.07 177.602 442.282 177.294C442.494 176.987 442.421 176.569 442.114 176.355C442.061 176.318 440.808 175.456 439.386 175.763C438.513 175.95 437.793 176.516 437.242 177.445C437.05 177.765 437.155 178.182 437.479 178.373C437.588 178.436 437.707 178.466 437.823 178.466Z" fill="#2C2858"/>
<path d="M454.253 178.536C454.401 178.536 454.551 178.486 454.677 178.386C454.968 178.154 455.016 177.726 454.782 177.435C453.891 176.323 452.902 175.718 451.849 175.636C450.486 175.531 449.552 176.368 449.511 176.405C449.235 176.657 449.217 177.085 449.47 177.362C449.721 177.638 450.147 177.658 450.422 177.408C450.443 177.392 450.999 176.921 451.76 176.989C452.421 177.046 453.079 177.481 453.722 178.282C453.856 178.448 454.052 178.536 454.253 178.536Z" fill="#2C2858"/>
<path d="M444.58 181.59C442.753 182.905 442.183 183.444 441.477 183.883C441.964 185.512 444.523 186.319 445.25 186.133C443.468 185.255 443.217 184.067 443.217 184.067L444.58 181.59Z" fill="#DE623C"/>
<path d="M457.288 178.719C455.764 180.643 455.689 183.118 457.117 184.247C458.548 185.373 460.941 184.724 462.465 182.8C463.988 180.873 464.063 178.398 462.634 177.272C461.203 176.143 458.81 176.792 457.288 178.719Z" fill="#F37A50"/>
<path d="M458.623 182.88C458.682 182.88 458.742 182.868 458.798 182.843C459.029 182.745 459.138 182.482 459.04 182.252C458.716 181.487 458.71 180.873 459.017 180.425C459.494 179.736 460.619 179.522 461.435 179.549C461.683 179.558 461.893 179.36 461.902 179.112C461.911 178.862 461.715 178.653 461.465 178.646C460.368 178.61 458.956 178.923 458.272 179.915C457.933 180.409 457.645 181.276 458.206 182.602C458.279 182.775 458.448 182.88 458.623 182.88Z" fill="#DE623C"/>
<path d="M449.506 188.54C449.695 188.233 449.426 187.848 449.073 187.923C448.171 188.112 446.676 188.394 445.236 188.524C443.798 188.651 442.276 188.638 441.355 188.61C440.993 188.599 440.795 189.024 441.036 189.295C441.777 190.128 443.267 191.359 445.473 191.161C447.678 190.965 448.925 189.491 449.506 188.54Z" fill="white"/>
<path d="M443.34 382.791C442.151 379.669 439.606 379.323 439.606 379.323C434.659 385.912 422.511 381.869 422.912 390.778C441.388 390.664 449.064 390.778 449.064 390.778C449.039 388.733 448.675 383.876 448.249 381.974L447.287 382.144L443.34 382.791Z" fill="#2C2858"/>
<path d="M423.794 393.158H448.173C448.666 393.158 449.064 392.76 449.064 392.268V390.532H422.903V392.268C422.903 392.76 423.302 393.158 423.794 393.158Z" fill="#201D40"/>
<path d="M498.215 344.466L504.744 347.785L503.822 352.551L498.55 353.994L496.071 352.845L498.215 344.466Z" fill="#F37A50"/>
<path d="M503.224 352.363C500.001 351.969 498.55 353.994 498.55 353.994C501.975 361.219 492.996 369.8 500.841 373.493C509.11 357.604 512.686 351.075 512.686 351.075C510.915 350.169 506.572 348.281 504.744 347.785L504.454 348.688L503.224 352.363Z" fill="#2C2858"/>
<path d="M503.37 373.652L514.242 353.077C514.512 352.565 514.316 351.932 513.804 351.664L512.474 350.963L500.625 373.388L501.956 374.089C502.467 374.359 503.101 374.164 503.37 373.652Z" fill="#201D40"/>
<path d="M460.937 312.106C466.323 311.135 471.49 311.139 474.521 311.205C472.604 304.799 473.158 265.255 461.001 251.655H430.405C419.574 270.21 423.66 297.701 416.967 308.962C419.583 310.225 426.912 313.385 436.509 314.352C447.121 315.421 451.831 313.751 460.937 312.106Z" fill="#070635"/>
<path d="M451.17 202.222L458.519 201.61C458.519 201.61 467.739 182.179 471.278 175.898C473.691 165.813 470.264 139.197 470.264 139.197L480.976 136.656C480.976 136.656 485.882 169.139 484.223 178.302C483.786 180.718 470.428 209.163 470.428 209.163C470.428 209.163 465.909 217.141 472.08 257.195C463.368 259.354 457.291 259.483 457.291 259.483L451.17 202.222Z" fill="#E62552"/>
<path d="M441.032 202.222L435.326 259.483C435.326 259.483 432.72 260.364 422.935 257.459C427.675 233.544 426.294 218.87 425.624 214.274C425.485 213.321 425.186 212.404 424.733 211.554C422.68 207.693 415.905 194.5 409.664 177.342C410.053 169.35 415.844 136.656 415.844 136.656L425.979 136.117L422.885 174.562C422.885 174.562 433.731 198.172 435.01 202.083L441.032 202.222Z" fill="#E62552"/>
<path d="M371.931 140.931H522.228C529.144 140.931 534.751 135.332 534.751 128.427V93.6174C534.751 86.7105 529.144 81.114 522.228 81.114H371.931C365.016 81.114 359.41 86.7105 359.41 93.6174V128.427C359.41 135.332 365.016 140.931 371.931 140.931Z" fill="#56B4DF"/>
<path d="M505.042 124.671L512.837 120.001L520.65 124.639C521.41 125.09 522.342 124.412 522.143 123.552L520.102 114.707L526.935 108.721C527.601 108.139 527.242 107.045 526.36 106.967L517.305 106.173L513.715 97.8354C513.365 97.0232 512.212 97.0255 511.866 97.8377L508.311 106.191L499.259 107.024C498.377 107.104 498.023 108.2 498.691 108.78L505.549 114.736L503.545 123.588C503.349 124.451 504.284 125.126 505.042 124.671Z" fill="#F9F93A"/>
<path d="M472.176 124.671L479.97 120.001L487.784 124.639C488.544 125.09 489.476 124.412 489.277 123.552L487.236 114.707L494.069 108.721C494.734 108.139 494.376 107.045 493.495 106.967L484.439 106.173L480.849 97.8354C480.5 97.0232 479.346 97.0255 479 97.8377L475.445 106.191L466.392 107.024C465.511 107.104 465.157 108.2 465.825 108.78L472.683 114.736L470.678 123.588C470.483 124.451 471.418 125.126 472.176 124.671Z" fill="#F9F93A"/>
<path d="M439.312 124.671L447.105 120.001L454.919 124.639C455.68 125.09 456.61 124.412 456.412 123.552L454.37 114.707L461.204 108.721C461.869 108.139 461.511 107.045 460.629 106.967L451.574 106.173L447.983 97.8354C447.634 97.0232 446.481 97.0255 446.135 97.8377L442.58 106.191L433.527 107.024C432.647 107.104 432.292 108.2 432.959 108.78L439.818 114.736L437.813 123.588C437.617 124.451 438.554 125.126 439.312 124.671Z" fill="#F9F93A"/>
<path d="M406.446 124.671L414.239 120.001L422.053 124.639C422.812 125.09 423.744 124.412 423.545 123.552L421.504 114.707L428.338 108.721C429.003 108.139 428.645 107.045 427.763 106.967L418.708 106.173L415.117 97.8354C414.768 97.0232 413.615 97.0255 413.269 97.8377L409.714 106.191L400.661 107.024C399.779 107.104 399.426 108.2 400.093 108.78L406.952 114.736L404.947 123.588C404.751 124.451 405.685 125.126 406.446 124.671Z" fill="#F9F93A"/>
<path d="M373.579 124.671L381.374 120.001L389.188 124.639C389.946 125.09 390.878 124.412 390.68 123.552L388.638 114.707L395.472 108.721C396.138 108.139 395.78 107.045 394.898 106.967L385.843 106.173L382.251 97.8354C381.903 97.0232 380.75 97.0255 380.403 97.8377L376.849 106.191L367.795 107.024C366.914 107.104 366.56 108.2 367.228 108.78L374.087 114.736L372.082 123.588C371.886 124.451 372.82 125.126 373.579 124.671Z" fill="#F9F93A"/>
<path d="M35.8423 397.644H660.833C662.343 397.644 663.567 396.422 663.567 394.914C663.567 393.406 662.343 392.184 660.833 392.184H35.8423C34.3315 392.184 33.1078 393.406 33.1078 394.914C33.1078 396.422 34.3315 397.644 35.8423 397.644Z" fill="#95CBE3"/>
<path d="M36.6241 300.733C36.6241 300.733 31.6474 306.15 34.4456 318.604C37.2963 331.291 34.3431 338.954 34.3431 338.954L38.4084 344.53C38.4084 344.53 42.2981 332.734 39.5204 322.646C36.0271 310.022 36.6241 300.733 36.6241 300.733Z" fill="#95CBE3"/>
<path d="M20.637 300.577C20.637 300.577 18.4541 305.534 22.9134 314.247C27.4777 323.12 27.0834 329.367 27.0834 329.367L30.5243 333.792C30.5243 333.792 31.1099 323.254 27.1427 316.29C22.1865 307.577 20.637 300.577 20.637 300.577Z" fill="#95CBE3"/>
<path d="M44.8638 315.282C44.8638 315.282 48.7376 319.623 48.5553 333.396C48.4094 344.621 44.6336 349.607 44.5835 356.496L39.707 347.828C40.418 343.103 44.1323 340.767 44.7589 330.595C45.3469 321.072 44.8638 315.282 44.8638 315.282Z" fill="#95CBE3"/>
<path d="M77.092 364.738C77.092 364.738 77.8827 370.517 70.0417 381.835C63.6523 391.072 58.0057 391.154 56.4152 393.256L55.3602 387.568C59.1565 384.249 62.2509 385.496 68.4535 377.403C74.2619 369.805 77.092 364.738 77.092 364.738Z" fill="#95CBE3"/>
<path d="M53.7516 326.034C53.7516 326.034 54.7338 336.023 54.0547 342.082C53.1045 350.693 48.7249 354.378 47.1207 363.107L50.4042 369.814C50.4042 369.814 56.6456 361.747 57.3907 351.073C58.6463 333.161 53.7516 326.034 53.7516 326.034Z" fill="#95CBE3"/>
<path d="M68.7285 334.174C66.5159 339.354 65.0735 344.83 64.4469 350.427C62.6718 367.4 51.5336 377.281 51.5336 377.281L53.6482 381.91C53.6482 381.91 66.3792 375.756 67.4684 361.458C68.6032 346.347 68.7285 334.174 68.7285 334.174Z" fill="#95CBE3"/>
<path d="M39.7821 349.079C39.7821 349.079 36.2137 346.782 19.5473 345.023C8.86484 343.899 12.8252 340.692 2.33868 341.342C9.6305 343.754 10.8838 349.78 20.7573 351.402C28.6553 352.694 36.4416 354.601 44.041 357.108L39.7821 349.079Z" fill="#95CBE3"/>
<path d="M5.91449 352.183C5.91449 352.183 10.3784 361.667 24.9757 364.029C33.9561 365.503 42.631 368.442 50.6543 372.728L48.0315 364.488C48.0315 364.488 43.105 358.773 27.6919 357.775C17.1006 357.085 5.91449 352.183 5.91449 352.183Z" fill="#95CBE3"/>
<path d="M11.249 367.821C11.249 367.821 15.7153 377.306 30.3103 379.667C39.2907 381.141 47.9656 384.081 55.9912 388.367L53.3684 380.127C53.3684 380.127 48.4419 374.412 33.0265 373.413C22.4374 372.724 11.249 367.821 11.249 367.821Z" fill="#95CBE3"/>
<path d="M1.97833 323.554C1.97833 323.554 5.57867 328.778 14.8598 329.922C24.273 331.08 30.5508 334.643 30.5508 334.643L28.607 331.337C28.607 331.337 25.4944 327.727 15.7507 327.092C9.05138 326.651 1.97833 323.554 1.97833 323.554Z" fill="#95CBE3"/>
<path d="M33.4003 339.98C33.4003 339.98 26.5027 337.598 15.9 336.06C9.21661 335.07 1.43262 329.076 1.43262 329.076C1.43262 329.076 5.93529 340.034 16.0754 340.901C27.7036 341.893 38.4453 346.024 38.4453 346.024L33.4003 339.98Z" fill="#95CBE3"/>
<path d="M29.0381 332.581C29.0381 332.581 25.3466 322.005 15.9219 317.858C10.3574 315.353 5.25308 311.938 0.816469 307.752C0.816469 307.752 4.02034 318.526 13.0804 321.402C21.4387 324.08 26.0188 331.082 26.0188 331.082L29.0381 332.581Z" fill="#95CBE3"/>
<path d="M55.5804 393.235L57.2051 392.966C55.5508 382.956 45.3787 349.302 27.2586 329.444L26.0418 330.552C43.9067 350.137 53.942 383.352 55.5804 393.235Z" fill="#95CBE3"/>
<path d="M620.273 291.504C620.273 291.504 626.005 297.219 623.531 311.046C621.005 325.135 624.621 333.416 624.621 333.416L620.42 339.743C620.42 339.743 615.576 326.96 618.144 315.735C621.376 301.687 620.273 291.504 620.273 291.504Z" fill="#95CBE3"/>
<path d="M637.843 290.562C637.843 290.562 640.484 295.908 635.999 305.702C631.409 315.678 632.141 322.526 632.141 322.526L628.573 327.558C628.573 327.558 627.42 315.999 631.448 308.152C636.476 298.336 637.843 290.562 637.843 290.562Z" fill="#95CBE3"/>
<path d="M611.914 307.895C611.914 307.895 607.864 312.855 608.727 327.99C609.429 340.323 613.82 345.626 614.207 353.197L619.152 343.431C618.142 338.271 613.947 335.88 612.768 324.726C611.66 314.286 611.914 307.895 611.914 307.895Z" fill="#95CBE3"/>
<path d="M578.861 363.822C578.861 363.822 578.271 370.212 587.436 382.281C594.908 392.13 601.12 391.948 602.969 394.184L603.856 387.878C599.521 384.41 596.179 385.932 588.97 377.331C582.216 369.254 578.861 363.822 578.861 363.822Z" fill="#95CBE3"/>
<path d="M602.662 320.144C602.662 320.144 602.061 331.173 603.1 337.802C604.56 347.225 609.555 351.068 611.738 360.587L608.452 368.121C608.452 368.121 601.2 359.549 599.864 347.849C597.623 328.213 602.662 320.144 602.662 320.144Z" fill="#95CBE3"/>
<path d="M586.584 329.812C589.267 335.402 591.117 341.353 592.074 347.478C594.843 366.055 608.191 376.928 608.191 376.928L605.464 381.573C605.464 381.573 591.169 375.419 589.283 359.751C587.308 343.192 586.584 329.812 586.584 329.812Z" fill="#95CBE3"/>
<path d="M619.129 344.812C619.129 344.812 622.941 342.113 641.182 339.379C652.873 337.632 648.363 334.296 659.926 334.506C652.024 337.509 650.937 344.197 640.158 346.454C631.536 348.251 623.068 350.724 614.833 353.843L619.129 344.812Z" fill="#95CBE3"/>
<path d="M656.519 346.597C656.519 346.597 652.066 357.24 636.13 360.536C626.328 362.591 616.93 366.24 608.314 371.336L610.801 362.149C610.801 362.149 615.943 355.631 632.843 353.791C644.453 352.526 656.519 346.597 656.519 346.597Z" fill="#95CBE3"/>
<path d="M651.406 364.049C651.406 364.049 646.953 374.692 631.017 377.988C621.215 380.042 611.818 383.689 603.202 388.788L605.688 379.599C605.688 379.599 610.831 373.083 627.73 371.243C639.341 369.978 651.406 364.049 651.406 364.049Z" fill="#95CBE3"/>
<path d="M659.466 314.932C659.466 314.932 655.758 320.847 645.609 322.553C635.316 324.278 628.584 328.495 628.584 328.495L630.562 324.767C630.562 324.767 633.812 320.647 644.493 319.482C651.838 318.677 659.466 314.932 659.466 314.932Z" fill="#95CBE3"/>
<path d="M625.708 334.499C625.708 334.499 633.178 331.548 644.76 329.351C652.063 327.94 660.332 320.976 660.332 320.976C660.332 320.976 655.909 333.241 644.801 334.681C632.063 336.328 620.451 341.388 620.451 341.388L625.708 334.499Z" fill="#95CBE3"/>
<path d="M630.147 326.157C630.147 326.157 633.698 314.352 643.859 309.338C649.856 306.316 655.306 302.315 659.982 297.501C659.982 297.501 656.977 309.501 647.154 313.098C638.094 316.442 633.394 324.364 633.394 324.364L630.147 326.157Z" fill="#95CBE3"/>
<path d="M603.887 394.12L602.087 393.904C603.425 382.818 612.988 345.326 631.953 322.621L633.347 323.782C614.645 346.172 605.212 383.175 603.887 394.12Z" fill="#95CBE3"/>
<path d="M296.764 347.805L306.382 392.4C306.639 393.59 307.065 394.302 307.524 394.302C308.371 394.302 309.018 391.922 308.886 389.295L306.792 347.805H296.764Z" fill="#2A7FA6"/>
<path d="M51.8711 347.805L42.2526 392.4C41.9951 393.59 41.569 394.302 41.111 394.302C40.2633 394.302 39.6161 391.922 39.7483 389.295L41.8424 347.805H51.8711Z" fill="#2A7FA6"/>
<path d="M126.427 347.805L116.811 392.4C116.553 393.59 116.125 394.302 115.667 394.302C114.819 394.302 114.172 391.922 114.307 389.295L116.401 347.805H126.427Z" fill="#2A7FA6"/>
<path d="M196.39 355.843H298.976C304.926 355.843 309.75 351.027 309.75 345.087V290.41C309.75 285.791 305.999 282.047 301.374 282.047H196.39V355.843Z" fill="#4AB1E0"/>
<path d="M174.881 355.843H277.47C283.42 355.843 288.241 351.027 288.241 345.087V290.41C288.241 285.791 284.491 282.047 279.865 282.047H174.881V355.843Z" fill="#2A7FA6"/>
<path d="M53.9156 300.711H237.334V262.261C237.334 257.827 233.736 254.233 229.295 254.233H53.9156V300.711Z" fill="#4AB1E0"/>
<path d="M41.442 299.446H278.61C284.036 299.446 288.434 303.837 288.434 309.253V320.562H41.442V299.446Z" fill="#95ADF5"/>
<path d="M41.442 318.11H288.434V355.898H41.442V318.11Z" fill="#4AB1E0"/>
<path d="M41.4617 300.711H66.3701V254.233H49.5032C45.062 254.233 41.4617 257.827 41.4617 262.261V300.711Z" fill="#2A7FA6"/>
<path d="M288.748 382.77L296.737 385.368L300.54 378.361C300.212 378.083 300 373.244 299.918 369.566L286.681 370.499C287.078 374.232 287.839 379.128 288.748 382.77Z" fill="#F37A50"/>
<path d="M302.805 387.987C302.805 387.987 305.929 383.457 309.511 383.398C309.511 383.398 316.204 384.228 318.373 387.208C319.054 388.144 318.642 390.014 318.268 391.206C318.036 391.95 317.339 392.728 315.31 393.219C312.316 393.945 308.322 394.245 301.16 391.872C292.567 389.028 291.109 389.866 287.948 388.612C284.669 387.311 286.02 383.296 287.198 379.376C287.198 379.376 289.311 384.41 302.805 387.987Z" fill="#2C2858"/>
<path d="M300.806 377.669C300.806 377.669 304.55 380.29 309.577 381.799C312.387 382.643 319.897 384.624 318.334 389.609C318.102 390.353 317.404 391.128 315.376 391.62C312.382 392.348 308.388 392.648 301.226 390.275C292.633 387.429 291.174 388.269 288.011 387.013C284.735 385.714 286.592 381.178 287.77 377.258C287.786 378.272 288.078 380.957 293.993 383.735C295.759 384.565 294.811 376.482 300.806 377.669Z" fill="#2A7FA6"/>
<path d="M257.044 381.84L264.83 384.993L269.116 378.27C268.809 377.97 268.938 373.129 269.116 369.454H255.845C255.979 373.204 256.392 378.143 257.044 381.84Z" fill="#F37A50"/>
<path d="M249.631 292.346C267.563 296.864 292.56 310.323 294.923 313.162C299.808 319.027 300.2 338.171 300.419 372.128H285.881C281.782 345.34 276.527 333.462 276.342 322.683C276.342 322.683 262.356 322.715 241.948 313.248C231.887 308.582 221.437 303.223 225.158 294.116C228.121 286.861 232.534 288.035 249.631 292.346Z" fill="#8A284C"/>
<path d="M229.778 290.701C244.756 293.26 263.719 311.831 266.084 314.67C270.968 320.535 268.901 339.418 269.117 373.374H255.395C254.005 355.698 247.151 335.543 248.033 322.69C248.033 322.69 233.292 320.508 212.884 311.042C202.823 306.376 192.61 306.84 195.046 295.171C196.65 287.5 212.398 287.727 229.778 290.701Z" fill="#E62552"/>
<path d="M274.187 229.722C270.399 225.907 272.883 221.994 272.883 221.994C270.805 221.55 259.84 238.135 255.109 248.675C246.863 240.373 232.329 229.167 228.398 228.514C228.398 228.514 223.096 227.09 221.191 233.489C219.491 239.202 226.122 243.249 226.122 243.249C226.122 243.249 254.492 263.244 258.687 261.467C265.215 258.703 271.124 234.902 274.187 229.722Z" fill="#F37A50"/>
<path d="M280.111 229.251C277.796 229.392 274.934 228.25 274.04 230.32L269.472 228.097L269.196 225.347C273.122 219.066 282.69 217.284 283.638 217.2C286.099 216.984 287.243 216.732 287.435 217.059C287.628 217.389 288.23 219.578 284.659 220.005C280.177 220.542 283.151 224.121 292.245 220.715C294.521 219.862 298.807 220.968 297.258 222.631C295.549 224.46 290.643 228.609 280.111 229.251Z" fill="#F37A50"/>
<path d="M229.761 233.187C236.823 232.208 248.05 229.18 243.315 218.319C238.577 207.459 237.878 211.615 242.729 200.661C247.58 189.705 241.323 178.962 233.056 179.601C224.787 180.241 221.469 186.112 212.263 182.506C203.057 178.901 193.238 186.137 195.193 194.623C197.151 203.107 197.896 207.151 193.633 210.721C189.367 214.288 173.259 215.703 177.401 227.281C181.544 238.86 184.57 238.842 181.266 243.631C177.96 248.422 181.751 255.47 190.698 256.505C199.646 257.54 208.289 255.905 213.578 246.802C218.867 237.7 229.761 233.187 229.761 233.187Z" fill="#2C2858"/>
<path d="M244.869 237.3C238.885 233.682 228.984 223.556 221.456 226.557C213.927 229.558 216.481 238.646 220.084 242.405C223.686 246.163 234.875 254.762 234.875 254.762L244.869 237.3Z" fill="#3F964F"/>
<path d="M195.954 293.078C199.306 275.818 198.486 275.857 199.878 267.733C203.319 247.656 185.607 231.54 211.497 223.584L222.961 226.118C233.979 231.551 236.132 241.313 237.217 247.979C239.283 260.662 237.479 279.597 237.479 279.597L241.811 290.41C241.811 290.41 238.805 293.422 224.552 296.111C210.301 298.798 195.954 293.078 195.954 293.078Z" fill="#0E6A41"/>
<path d="M193.329 241.807C190.579 251.973 190.283 285.596 192.616 288.61L204.429 282.072C204.429 282.072 209.898 247.069 210.522 241.215C211.63 231.08 197.789 225.197 193.329 241.807Z" fill="#F37A50"/>
<path d="M210.739 257.845C211.835 250.117 213.298 235.345 206.801 230.504C200.305 225.663 194.089 231.562 192.762 236.592C191.434 241.622 189.935 255.641 189.935 255.641L210.739 257.845Z" fill="#3F964F"/>
<path d="M206.949 206.301C207.195 215.426 213.213 222.669 220.391 222.478C227.571 222.287 233.192 214.732 232.948 205.607C232.705 196.48 226.687 189.238 219.506 189.429C212.329 189.62 206.705 197.173 206.949 206.301Z" fill="#F37A50"/>
<path d="M209.292 211.574L219.161 220.997C219.161 220.997 219.108 226.223 219.265 227.954C219.594 231.528 215.305 232.154 212.386 229.355C209.467 226.559 209.203 223.584 209.203 223.584L209.292 211.574Z" fill="#F37A50"/>
<path d="M234.433 202.453C231.149 202.051 224.274 200.015 222.365 196.459C219.25 202.203 210.288 206.407 203.317 207.795C204.39 201.452 206.888 189.893 219.195 187.47C228.866 185.566 234.433 202.453 234.433 202.453Z" fill="#2C2858"/>
<path d="M229.418 207.681C229.591 208.348 230.272 208.748 230.94 208.575C231.608 208.403 232.009 207.722 231.836 207.056C231.662 206.389 230.981 205.989 230.313 206.162C229.646 206.335 229.245 207.015 229.418 207.681Z" fill="black"/>
<path d="M219.166 207.552C219.352 208.273 220.091 208.705 220.813 208.519C221.538 208.332 221.971 207.595 221.784 206.874C221.595 206.15 220.859 205.718 220.134 205.905C219.412 206.094 218.979 206.828 219.166 207.552Z" fill="black"/>
<path d="M217.935 206.148C218.036 206.123 218.127 206.064 218.193 205.975C219.159 204.688 221.009 204.788 221.027 204.788C221.285 204.804 221.508 204.608 221.526 204.351C221.542 204.092 221.349 203.869 221.089 203.853C220.993 203.846 218.715 203.712 217.441 205.413C217.284 205.62 217.327 205.914 217.534 206.071C217.655 206.16 217.801 206.182 217.935 206.148Z" fill="#2C2858"/>
<path d="M232.304 206.007C232.352 205.993 232.4 205.973 232.446 205.943C232.662 205.8 232.721 205.509 232.578 205.293C231.468 203.614 229.618 203.823 229.538 203.832C229.281 203.864 229.098 204.098 229.13 204.355C229.162 204.613 229.397 204.795 229.652 204.765C229.714 204.758 231.012 204.628 231.794 205.811C231.908 205.982 232.115 206.055 232.304 206.007Z" fill="#2C2858"/>
<path d="M227.915 209.7C228.441 210.53 228.879 211.363 229.432 211.902C229.619 212.084 229.628 212.384 229.455 212.58C228.744 213.385 227.076 213.822 226.067 214.018C225.919 214.047 225.846 213.847 225.978 213.774C227.085 213.153 227.614 212.634 227.853 212.341C227.972 212.193 228.01 212 227.96 211.818C227.849 211.399 227.632 210.548 227.509 209.854C227.466 209.615 227.785 209.495 227.915 209.7Z" fill="#DE623C"/>
<path d="M210.229 207.049C211.615 208.689 211.651 210.937 210.307 212.072C208.96 213.205 206.747 212.794 205.359 211.153C203.972 209.513 203.937 207.265 205.282 206.132C206.626 204.997 208.841 205.409 210.229 207.049Z" fill="#F37A50"/>
<path d="M208.351 211.249C208.42 211.231 208.486 211.197 208.543 211.146C209.358 210.434 209.62 209.495 209.242 208.635C208.853 207.755 207.907 207.188 206.989 207.29C206.731 207.32 206.544 207.552 206.574 207.809C206.604 208.066 206.836 208.253 207.093 208.223C207.595 208.169 208.162 208.514 208.381 209.013C208.591 209.493 208.429 209.998 207.923 210.439C207.727 210.61 207.709 210.908 207.88 211.101C208 211.24 208.185 211.29 208.351 211.249Z" fill="#DE623C"/>
<path d="M203.538 281.112C200.129 280.033 192.227 287.425 192.502 288.642C202.649 307.226 228.647 314.857 228.647 314.857L233.19 311.431C233.19 311.431 215.683 296.711 203.538 281.112Z" fill="#F37A50"/>
<path d="M228.647 314.857C229.153 319.705 236.386 326.023 242.714 326.473C249.041 326.924 247.007 320.833 244.521 319.252C242.037 317.673 238.455 316.101 239.341 314.857C240.227 313.613 241.811 313.94 242.939 312.484C243.946 311.185 239.017 308.621 233.191 311.431C231.229 312.91 228.647 314.857 228.647 314.857Z" fill="#F37A50"/>
<path d="M223.486 216.85C223.303 217.717 223.923 218.579 224.871 218.779C225.819 218.979 226.735 218.44 226.919 217.573C227.102 216.709 226.482 215.844 225.534 215.644C224.586 215.444 223.67 215.983 223.486 216.85Z" fill="white"/>
<path d="M270.698 388.032C270.698 388.032 274.134 383.732 277.712 383.923C277.712 383.923 284.329 385.225 286.282 388.348C286.897 389.329 286.355 391.167 285.897 392.33C285.612 393.055 284.862 393.781 282.805 394.129C279.767 394.643 275.761 394.661 268.784 391.793C260.414 388.351 258.899 389.085 255.834 387.611C252.657 386.082 254.287 382.174 255.738 378.345C255.738 378.345 257.491 383.516 270.698 388.032Z" fill="#2C2858"/>
<path d="M269.433 377.599C269.433 377.599 272.983 380.477 277.889 382.336C280.632 383.375 287.986 385.878 286.076 390.739C285.789 391.465 285.039 392.191 282.984 392.539C279.944 393.053 275.938 393.074 268.961 390.203C260.591 386.761 259.076 387.495 256.011 386.021C252.835 384.495 255.004 380.099 256.458 376.273C256.401 377.287 256.503 379.983 262.209 383.173C263.911 384.124 263.535 375.993 269.433 377.599Z" fill="#2A7FA6"/>
<path d="M152.124 225.868C161.166 228.609 165.669 247.617 169.517 267.512C175.686 279.619 180.293 288.929 186.211 301.138C180.685 302.387 176.11 298.914 176.11 298.914C176.11 298.914 162.059 286.023 155.542 271.843C154.05 268.599 153.541 262.07 152.696 259.167C152.325 250.069 152.124 225.868 152.124 225.868Z" fill="#E86686"/>
<path d="M199.817 382.809L207.806 385.407L211.609 378.4C211.279 378.122 211.069 373.283 210.987 369.604L197.75 370.537C198.145 374.271 198.906 379.166 199.817 382.809Z" fill="#F37A50"/>
<path d="M213.873 388.025C213.873 388.025 216.997 383.496 220.58 383.437C220.58 383.437 227.272 384.269 229.441 387.247C230.123 388.182 229.71 390.055 229.337 391.245C229.104 391.988 228.407 392.766 226.379 393.258C223.385 393.984 219.39 394.284 212.228 391.913C203.635 389.067 202.177 389.907 199.016 388.651C195.737 387.35 197.088 383.334 198.267 379.414C198.267 379.414 200.379 384.449 213.873 388.025Z" fill="#201D40"/>
<path d="M211.876 377.708C211.876 377.708 215.62 380.329 220.644 381.837C223.456 382.683 230.967 384.663 229.403 389.647C229.171 390.391 228.474 391.169 226.446 391.661C223.452 392.386 219.457 392.687 212.295 390.314C203.702 387.468 202.244 388.307 199.081 387.054C195.804 385.752 197.662 381.216 198.84 377.296C198.856 378.313 199.147 380.995 205.063 383.775C206.829 384.604 205.881 376.52 211.876 377.708Z" fill="#2C2858"/>
<path d="M210.331 383.735C210.625 383.735 210.896 383.548 210.989 383.257C211.773 380.82 214.35 380.816 214.458 380.816C214.84 380.818 215.153 380.513 215.157 380.133C215.164 379.753 214.861 379.442 214.48 379.435C213.202 379.41 210.554 380.095 209.672 382.834C209.556 383.198 209.757 383.587 210.121 383.703C210.19 383.726 210.262 383.735 210.331 383.735Z" fill="#494C7F"/>
<path d="M213.45 385.231C213.744 385.231 214.015 385.045 214.109 384.751C214.893 382.315 217.467 382.31 217.577 382.31C217.957 382.315 218.272 382.01 218.276 381.63C218.281 381.25 217.98 380.936 217.6 380.93C216.321 380.905 213.671 381.589 212.792 384.331C212.675 384.692 212.876 385.081 213.238 385.197C213.309 385.22 213.38 385.231 213.45 385.231Z" fill="#494C7F"/>
<path d="M167.868 383.75L175.654 386.901L179.94 380.181C179.633 379.881 178.828 374.73 179.006 371.054L166.669 371.363C166.801 375.115 167.216 380.054 167.868 383.75Z" fill="#F37A50"/>
<path d="M160.702 292.384C178.633 296.902 203.63 310.361 205.993 313.201C210.879 319.065 212.182 338.21 212.398 372.166H196.443C192.344 345.378 187.597 333.503 187.413 322.721C187.413 322.721 173.426 322.756 153.018 313.287C142.958 308.621 132.507 303.263 136.229 294.154C139.191 286.899 143.605 288.073 160.702 292.384Z" fill="#201D40"/>
<path d="M140.292 292.61C155.27 295.169 174.233 313.74 176.599 316.579C181.482 322.446 180.885 341.326 181.104 375.283L165.196 375.686C163.806 358.009 157.665 337.452 158.547 324.601C158.547 324.601 144.599 320.594 123.022 314.215C111.218 310.725 107.746 308.632 105.977 300.668C105.374 297.958 104.729 291.729 106.016 290.435C111.715 284.708 126.117 290.184 140.292 292.61Z" fill="#2C2858"/>
<path d="M181.522 389.941C181.522 389.941 184.958 385.641 188.533 385.834C188.533 385.834 195.153 387.133 197.106 390.257C197.719 391.238 197.176 393.076 196.721 394.238C196.436 394.964 195.686 395.69 193.628 396.038C190.589 396.552 186.585 396.572 179.605 393.701C171.236 390.259 169.723 390.994 166.655 389.52C163.479 387.993 165.108 384.083 166.562 380.256C166.562 380.256 168.312 385.425 181.522 389.941Z" fill="#201D40"/>
<path d="M180.254 379.508C180.254 379.508 183.807 382.386 188.713 384.244C191.456 385.284 198.81 387.789 196.898 392.648C196.613 393.374 195.863 394.102 193.806 394.45C190.768 394.962 186.762 394.982 179.785 392.113C171.413 388.671 169.9 389.406 166.835 387.932C163.656 386.403 165.828 382.01 167.282 378.181C167.225 379.196 167.325 381.894 173.031 385.081C174.735 386.032 174.359 377.904 180.254 379.508Z" fill="#2C2858"/>
<path d="M176.939 385.589C177.231 385.589 177.502 385.4 177.596 385.109C178.379 382.672 180.957 382.668 181.064 382.668C181.447 382.67 181.759 382.367 181.766 381.985C181.77 381.605 181.467 381.294 181.086 381.287C179.808 381.262 177.16 381.946 176.278 384.686C176.162 385.05 176.363 385.439 176.727 385.555C176.798 385.577 176.869 385.589 176.939 385.589Z" fill="#494C7F"/>
<path d="M180.057 387.083C180.35 387.083 180.622 386.897 180.715 386.603C181.499 384.167 184.074 384.165 184.183 384.162C184.564 384.167 184.878 383.862 184.883 383.482C184.887 383.102 184.587 382.788 184.206 382.782C182.928 382.757 180.28 383.441 179.398 386.183C179.282 386.544 179.482 386.933 179.847 387.049C179.915 387.072 179.986 387.083 180.057 387.083Z" fill="#494C7F"/>
<path d="M129.635 210.655H129.642L135.673 210.678L137.038 224.899L129.999 228.609L122.491 224.94L123.706 210.678L129.635 210.655Z" fill="#F37A50"/>
<path d="M126.904 208.496C121.846 210.685 117.099 204.82 117.099 204.82C113.729 205.25 113.312 201.894 113.312 201.894C111.649 201.883 109.128 200.857 108.912 197.758C108.73 195.133 111.179 194.527 110.625 191.556C110.183 189.172 106.825 184.006 114.078 181.362C114.078 181.362 112.973 177.012 117.102 174.662C122.162 171.78 124.487 174.639 127.046 174.514C129.905 174.373 134.898 170.217 137.489 176.148C137.489 176.148 141.317 175.101 143.892 177.342C146.292 179.428 146.323 183.002 145.59 184.54C145.59 184.54 148.948 184.665 150.514 187.338C151.562 189.131 151.558 191.854 149.992 193.645C148.996 194.782 147.852 195.201 147.852 195.201C146.668 195.776 147.588 199.128 146.683 200.099C145.232 201.657 143.537 202.956 141.766 204.114L126.904 208.496Z" fill="#2C2858"/>
<path d="M115.973 201.512C117.663 211.342 126.575 218.802 134.307 217.475C142.041 216.149 145.666 206.542 143.975 196.711C142.285 186.881 134.647 179.986 126.913 181.312C119.179 182.638 114.282 191.681 115.973 201.512Z" fill="#F37A50"/>
<path d="M140.242 199.021C140.533 199.714 141.333 200.042 142.028 199.751C142.723 199.46 143.051 198.661 142.76 197.967C142.468 197.273 141.668 196.948 140.973 197.239C140.278 197.53 139.952 198.327 140.242 199.021Z" fill="black"/>
<path d="M129.376 200.961C129.69 201.712 130.556 202.065 131.308 201.751C132.06 201.434 132.416 200.572 132.099 199.819C131.785 199.068 130.919 198.716 130.167 199.03C129.415 199.346 129.059 200.21 129.376 200.961Z" fill="black"/>
<path d="M137.759 200.715C139.26 202.519 141.149 204.715 141.149 204.715C141.149 204.715 140.707 206.89 137.964 207.29C139.062 206.653 140.106 205.718 139.422 204.232C138.741 202.749 137.759 200.715 137.759 200.715Z" fill="#DE623C"/>
<path d="M126.931 199.532C126.881 199.521 126.83 199.505 126.78 199.48C126.441 199.319 126.297 198.914 126.459 198.575C126.901 197.649 128.273 196.011 130.305 196.436C130.675 196.518 130.909 196.873 130.832 197.239C130.757 197.608 130.394 197.842 130.028 197.767C128.521 197.453 127.696 199.143 127.687 199.159C127.551 199.448 127.232 199.596 126.931 199.532Z" fill="#2C2858"/>
<path d="M139.448 195.906C139.352 195.885 139.261 195.84 139.184 195.769C138.953 195.558 138.937 195.201 139.149 194.969C139.181 194.932 139.974 194.084 141.118 194.113C141.902 194.136 142.627 194.548 143.274 195.339C143.472 195.581 143.438 195.938 143.194 196.136C142.952 196.334 142.595 196.297 142.396 196.056C141.966 195.531 141.526 195.258 141.088 195.246C140.466 195.23 139.99 195.728 139.986 195.733C139.844 195.888 139.639 195.945 139.448 195.906Z" fill="#2C2858"/>
<path d="M144.662 184.82L126.556 176.193L111.015 190.831L117.129 203.325C115.812 197.112 120.116 197.981 121.52 195.642C122.946 193.269 122.971 190.21 128.294 191.352C128.294 191.352 131.273 187.7 134.244 190.753C136.543 193.112 138.396 191.991 140.44 191.552C142.853 191.035 142.962 193.49 144.382 192.994L144.662 184.82Z" fill="#2C2858"/>
<path d="M118.053 200.438C119.817 201.987 120.215 204.413 118.944 205.853C117.672 207.293 115.213 207.204 113.45 205.652C111.688 204.101 111.29 201.678 112.561 200.238C113.833 198.798 116.291 198.887 118.053 200.438Z" fill="#F37A50"/>
<path d="M116.7 205.274C116.771 205.245 116.837 205.197 116.889 205.136C117.659 204.235 117.791 203.177 117.242 202.308C116.682 201.418 115.567 200.959 114.592 201.216C114.319 201.289 114.155 201.568 114.228 201.841C114.301 202.117 114.581 202.281 114.854 202.208C115.39 202.067 116.055 202.351 116.374 202.854C116.677 203.338 116.584 203.912 116.108 204.469C115.923 204.685 115.95 205.008 116.167 205.193C116.319 205.322 116.527 205.347 116.7 205.274Z" fill="#DE623C"/>
<path d="M134.86 211.408C135.059 212.507 136.196 213.221 137.399 213.005C138.602 212.787 139.415 211.72 139.215 210.621C139.014 209.52 137.877 208.805 136.674 209.024C135.473 209.242 134.66 210.309 134.86 211.408Z" fill="white"/>
<path d="M116.971 228.45C121.351 226.976 125.958 226.289 130.577 226.425C146.225 226.425 148.622 230.372 148.622 230.279L137.01 262.118L130.577 265.287L123.538 263.203C123.538 263.203 114.414 229.399 116.971 228.45Z" fill="#FFD0B7"/>
<path d="M105.271 291.754C105.271 291.754 118.014 295.012 129.84 295.089C141.664 295.003 154.165 290.755 154.165 290.755C154.165 290.755 152.577 269.072 152.739 260.743C152.969 251.182 152.123 238.503 152.123 225.868C152.123 225.868 143.735 224.519 139.003 223.936C138.235 223.841 137.563 223.768 137.036 223.722C137.036 223.722 134.34 229.369 122.594 223.722C121.976 223.661 121.211 223.663 120.356 223.713C115.423 224.009 107.475 225.868 107.475 225.868C107.475 238.469 106.964 250.82 107.135 260.384C106.609 268.913 105.271 291.754 105.271 291.754Z" fill="#F5A3B7"/>
<path d="M136.387 253.184L139.249 251.527C139.249 251.527 140.042 247.473 144.64 247.376C144.114 249.077 143.355 251.527 143.355 251.527C143.355 251.527 145.618 253.282 150.984 250.281C156.232 249.102 153.99 252.922 155.731 253.197C158.296 253.6 153.86 258.635 148.621 259.406C141.842 260.402 141.038 259.017 141.038 259.017L137.2 260.354L136.387 253.184Z" fill="#F37A50"/>
<path d="M109.894 257.515C119.462 256.849 135.789 252.128 135.789 252.128C138.4 256.13 137.678 261.444 137.678 261.444C122.816 274.453 100.449 278.657 93.5876 275.527C87.3213 272.667 91.7442 234.59 107.476 225.868L108.021 225.918C113.414 235.029 109.894 257.515 109.894 257.515Z" fill="#E86686"/>
<path d="M185.007 302.256C184.918 302.117 184.863 301.969 184.822 301.814C184.799 301.83 184.779 301.846 184.754 301.862C183.368 302.745 181.732 302.656 181.096 301.664C180.994 301.5 180.925 301.323 180.887 301.136C179.868 301.375 178.902 301.129 178.451 300.42C178.271 300.14 178.193 299.815 178.202 299.476C177.2 299.778 176.158 299.505 175.653 298.711C175.017 297.719 175.461 296.304 176.644 295.549C177.829 294.796 179.301 294.989 179.934 295.981C180.096 296.234 180.187 296.511 180.215 296.8C181.502 296.168 182.894 296.325 183.468 297.221C183.571 297.385 183.639 297.562 183.678 297.749C184.699 297.51 185.663 297.756 186.116 298.465C186.283 298.727 186.362 299.025 186.365 299.339C187.242 299.03 188.179 299.25 188.623 299.949C189.158 300.788 188.785 301.983 187.784 302.62C186.786 303.257 185.542 303.093 185.007 302.256Z" fill="#F37A50"/>
<path d="M120.358 223.713V223.716C121.176 225.078 122.331 226.107 123.962 226.926C126.544 228.227 130.053 228.778 132.213 228.609C133.925 228.475 135.823 227.779 137.037 226.816C138.329 225.793 138.89 224.489 139.004 223.936C138.236 223.841 137.445 223.722 136.921 223.677C136.921 223.677 134.342 229.369 122.595 223.722C121.978 223.661 121.212 223.663 120.358 223.713Z" fill="#E86686"/>
<path d="M54.53 355.008H129.911C134.984 355.008 139.097 350.902 139.097 345.838V288.342C139.097 284.404 135.897 281.212 131.955 281.212H52.4882C48.5438 281.212 45.3469 284.404 45.3469 288.342V345.838C45.3469 350.902 49.4576 355.008 54.53 355.008Z" fill="#4AB1E0"/>
<path d="M41.4414 355.898H108.471C113.045 355.898 116.752 352.196 116.752 347.628V287.641C116.752 284.09 113.869 281.212 110.312 281.212H41.4414V355.898Z" fill="#2A7FA6"/>
<path d="M342.875 117.257H272.437C263.716 117.257 256.648 124.314 256.648 133.018V165.801C256.648 174.508 263.716 181.565 272.437 181.565H272.958L267.305 200.472C267.057 201.305 268.018 201.969 268.709 201.441L294.809 181.565H342.875C351.594 181.565 358.662 174.508 358.662 165.801V133.018C358.662 124.314 351.594 117.257 342.875 117.257Z" fill="#E62552"/>
<path d="M272.468 144.785H340.095C344.411 144.785 347.911 141.293 347.911 136.984C347.911 132.675 344.411 129.183 340.095 129.183H272.468C268.152 129.183 264.655 132.675 264.655 136.984C264.655 141.293 268.152 144.785 272.468 144.785Z" fill="white"/>
<path d="M272.468 168.611H340.095C344.411 168.611 347.911 165.118 347.911 160.81C347.911 156.501 344.411 153.009 340.095 153.009H272.468C268.152 153.009 264.655 156.501 264.655 160.81C264.655 165.118 268.152 168.611 272.468 168.611Z" fill="white"/>
<path d="M31.7662 121.812H96.8819C104.942 121.812 111.475 128.336 111.475 136.383V166.688C111.475 174.735 104.942 181.257 96.8819 181.257H96.3988L101.624 198.739C101.854 199.507 100.965 200.119 100.325 199.635L76.2006 181.257H31.7662C23.7065 181.257 17.1735 174.735 17.1735 166.688V136.383C17.1735 128.336 23.7065 121.812 31.7662 121.812Z" fill="#6FC3EA"/>
<path d="M32.3161 147.426H97.8785C101.13 147.426 103.767 144.794 103.767 141.547V140.078C103.767 136.831 101.13 134.199 97.8785 134.199H32.3161C29.0644 134.199 26.4302 136.831 26.4302 140.078V141.547C26.4302 144.794 29.0644 147.426 32.3161 147.426Z" fill="white"/>
<path d="M64.3196 167.423H95.0204C98.6777 167.423 101.645 164.461 101.645 160.81C101.645 157.156 98.6777 154.196 95.0204 154.196H64.3196C60.6623 154.196 57.6954 157.156 57.6954 160.81C57.6954 164.461 60.6623 167.423 64.3196 167.423Z" fill="white"/>
<path d="M214.367 25.8999H279.48C287.54 25.8999 294.075 32.4246 294.075 40.4713V70.7766C294.075 78.8232 287.54 85.3457 279.48 85.3457H278.997L284.224 102.827C284.455 103.596 283.564 104.21 282.926 103.723L258.799 85.3457H214.367C206.305 85.3457 199.772 78.8232 199.772 70.7766V40.4713C199.772 32.4246 206.305 25.8999 214.367 25.8999Z" fill="#6FC3EA"/>
<path d="M235.289 51.5142H279.739C283.399 51.5142 286.363 48.5544 286.363 44.9007C286.363 41.2493 283.399 38.2873 279.739 38.2873H235.289C231.629 38.2873 228.665 41.2493 228.665 44.9007C228.665 48.5544 231.629 51.5142 235.289 51.5142Z" fill="white"/>
<path d="M213.035 71.5115H277.618C281.278 71.5115 284.242 68.5517 284.242 64.898C284.242 61.2467 281.278 58.2846 277.618 58.2846H213.035C209.376 58.2846 206.411 61.2467 206.411 64.898C206.411 68.5517 209.376 71.5115 213.035 71.5115Z" fill="white"/>
<path d="M388.274 186.46C391.115 186.46 393.025 184.322 393.025 181.717C393.025 179.485 391.115 177.347 388.274 177.347C385.806 177.347 383.896 179.485 383.896 181.717C383.896 184.276 385.712 186.46 388.274 186.46ZM394.654 155.445C392.558 153.864 390.044 153.072 387.109 153.072C380.774 153.072 377.42 156.514 377.42 161.349C377.42 164.14 378.771 166.977 381.52 169.814C385.013 173.486 387.528 175.301 389.112 175.301C390.648 175.301 391.767 174.091 391.767 172.651C391.767 171.347 390.557 170.046 388.46 168.14C388.319 168.001 388.18 167.86 388.087 167.814C385.712 165.628 384.967 164.42 384.967 162.93C384.967 161.071 386.225 160.047 388.041 160.047C388.88 160.047 389.857 160.234 391.022 160.607C392.186 160.978 393.025 161.164 393.537 161.164C394.841 161.164 396.331 160.047 396.331 158.189C396.331 157.211 395.773 156.28 394.654 155.445Z" fill="white"/>
<path d="M132.556 80.3702C138.691 80.3702 143.681 85.3524 143.681 91.4767C143.681 97.601 138.691 102.583 132.556 102.583C126.422 102.583 121.432 97.601 121.432 91.4767C121.432 85.3524 126.422 80.3702 132.556 80.3702ZM132.556 106.806C141.022 106.806 147.91 99.9284 147.91 91.4767C147.91 83.0229 141.022 76.1478 132.556 76.1478C124.091 76.1478 117.202 83.0229 117.202 91.4767C117.202 99.9284 124.091 106.806 132.556 106.806Z" fill="white"/>
<path d="M442.757 71.5114C446.793 71.5114 450.074 74.7874 450.074 78.8164C450.074 82.8432 446.793 86.1215 442.757 86.1215C438.724 86.1215 435.443 82.8432 435.443 78.8164C435.443 74.7874 438.724 71.5114 442.757 71.5114ZM442.757 88.897C448.326 88.897 452.856 84.3743 452.856 78.8164C452.856 73.2563 448.326 68.7336 442.757 68.7336C437.19 68.7336 432.66 73.2563 432.66 78.8164C432.66 84.3743 437.19 88.897 442.757 88.897Z" fill="white"/>
<path d="M483.952 11.7608C487.108 11.7608 489.676 14.3247 489.676 17.4756C489.676 20.6265 487.108 23.1904 483.952 23.1904C480.796 23.1904 478.228 20.6265 478.228 17.4756C478.228 14.3247 480.796 11.7608 483.952 11.7608ZM483.952 25.363C488.308 25.363 491.852 21.8254 491.852 17.4756C491.852 13.1281 488.308 9.59045 483.952 9.59045C479.596 9.59045 476.052 13.1281 476.052 17.4756C476.052 21.8254 479.596 25.363 483.952 25.363Z" fill="white"/>
<path d="M327.483 15.2825C327.483 21.2385 332.318 26.066 338.284 26.066C344.249 26.066 349.087 21.2385 349.087 15.2825C349.087 9.3266 344.249 4.49678 338.284 4.49678C332.318 4.49678 327.483 9.3266 327.483 15.2825Z" fill="#E3EAFF"/>
<path d="M106.403 57.188C106.403 63.1439 111.238 67.9738 117.204 67.9738C123.169 67.9738 128.007 63.1439 128.007 57.188C128.007 51.232 123.169 46.4045 117.204 46.4045C111.238 46.4045 106.403 51.232 106.403 57.188Z" fill="white"/>
<path d="M493.673 34.1171C493.673 40.0731 498.509 44.9006 504.474 44.9006C510.44 44.9006 515.276 40.0731 515.276 34.1171C515.276 28.1612 510.44 23.3314 504.474 23.3314C498.509 23.3314 493.673 28.1612 493.673 34.1171Z" fill="white"/>
<path d="M556.68 138.326C560.253 141.893 566.046 141.893 569.619 138.326C573.192 134.759 573.192 128.976 569.619 125.408C566.046 121.841 560.253 121.841 556.68 125.408C553.106 128.976 553.106 134.759 556.68 138.326Z" fill="white"/>
<path d="M629.463 181.917C629.463 186.752 633.387 190.669 638.228 190.669C643.07 190.669 646.994 186.752 646.994 181.917C646.994 177.085 643.07 173.168 638.228 173.168C633.387 173.168 629.463 177.085 629.463 181.917Z" fill="#E3EAFF"/>
<path d="M572.812 194.104H572.805L566.745 194.127L565.372 208.419L572.447 212.147L579.991 208.46L578.772 194.127L572.812 194.104Z" fill="#F37A50"/>
<path d="M590.854 186.019C586.704 196.372 576.738 202.126 568.594 198.873C560.451 195.619 557.212 184.588 561.362 174.237C565.512 163.885 575.477 158.13 583.621 161.383C591.765 164.636 595.003 175.668 590.854 186.019Z" fill="#F37A50"/>
<path d="M564.904 177.633C564.422 178.325 563.472 178.496 562.78 178.016C562.088 177.536 561.918 176.585 562.399 175.895C562.88 175.204 563.831 175.033 564.522 175.515C565.214 175.995 565.384 176.944 564.904 177.633Z" fill="black"/>
<path d="M576.329 182.29C575.808 183.039 574.779 183.223 574.03 182.702C573.282 182.183 573.097 181.155 573.618 180.407C574.139 179.661 575.168 179.476 575.916 179.995C576.665 180.516 576.85 181.542 576.329 182.29Z" fill="black"/>
<path d="M567.22 180.065C565.157 181.687 562.578 183.646 562.578 183.646C562.578 183.646 562.552 186.128 565.457 187.204C564.406 186.253 563.484 184.986 564.577 183.523C565.671 182.061 567.22 180.065 567.22 180.065Z" fill="#DE623C"/>
<path d="M579.336 181.298C579.394 181.298 579.454 181.292 579.513 181.278C579.922 181.18 580.174 180.771 580.077 180.361C579.811 179.246 578.693 177.137 576.372 177.126C575.948 177.131 575.609 177.463 575.607 177.881C575.605 178.302 575.944 178.643 576.365 178.646C578.083 178.653 578.591 180.695 578.596 180.714C578.679 181.064 578.991 181.298 579.336 181.298Z" fill="#201D40"/>
<path d="M566.501 174.412C566.61 174.412 566.72 174.385 566.821 174.325C567.123 174.148 567.225 173.761 567.048 173.459C567.02 173.411 566.353 172.296 565.093 172.064C564.233 171.905 563.343 172.187 562.449 172.901C562.176 173.12 562.132 173.518 562.35 173.791C562.569 174.064 562.968 174.109 563.242 173.891C563.835 173.415 564.381 173.222 564.862 173.311C565.547 173.436 565.949 174.093 565.953 174.1C566.071 174.3 566.283 174.412 566.501 174.412Z" fill="#201D40"/>
<path d="M600.027 181.915C602.624 171.664 593.962 163.649 593.962 163.649C593.962 163.649 595.085 163.538 596.285 163.026C597.899 162.336 597.37 159.925 595.614 159.945C593.488 159.973 590.953 159.586 589.09 158.189C577.354 149.403 567.813 154.115 567.813 158.985C567.813 160.717 557.074 161.863 560.983 175.242C560.751 174.451 565.223 166.431 567.764 165.954C570.314 165.474 568.011 168.866 573.322 169.594C578.68 170.328 582.62 169.029 585.893 172.046C591.974 178.289 586.017 193.299 585.628 194.104C586.521 192.257 597.144 193.299 600.027 181.915Z" fill="#201D40"/>
<path d="M586.688 183.817C584.398 185.102 583.395 187.659 584.448 189.529C585.501 191.402 588.21 191.877 590.5 190.592C592.79 189.309 593.793 186.751 592.74 184.881C591.688 183.009 588.978 182.534 586.688 183.817Z" fill="#F37A50"/>
<path d="M587.037 189.422C586.966 189.372 586.906 189.306 586.862 189.224C586.233 188.062 586.336 186.874 587.138 186.053C587.959 185.211 589.285 184.968 590.29 185.477C590.574 185.621 590.687 185.964 590.543 186.246C590.4 186.531 590.055 186.642 589.772 186.499C589.221 186.221 588.425 186.376 587.961 186.854C587.514 187.311 587.483 187.959 587.873 188.681C588.023 188.958 587.919 189.306 587.64 189.456C587.442 189.563 587.209 189.543 587.037 189.422Z" fill="#DE623C"/>
<path d="M569.171 192.512C570.05 192.302 570.967 191.943 571.917 191.436C572.164 191.304 572.258 190.997 572.126 190.751C571.994 190.503 571.686 190.41 571.439 190.542C569.332 191.665 567.444 191.986 565.826 191.493C563.827 190.885 562.913 189.202 562.904 189.186C562.773 188.938 562.467 188.844 562.219 188.974C561.972 189.104 561.876 189.409 562.005 189.654C562.049 189.739 563.106 191.715 565.512 192.457C566.641 192.805 567.865 192.821 569.171 192.512Z" fill="#DE623C"/>
<path d="M561.753 381.078C556.395 388.46 543.235 383.93 543.67 393.913C563.683 393.786 572 393.913 572 393.913C571.974 391.62 571.578 386.178 571.117 384.049L561.753 381.078Z" fill="black"/>
<path d="M593.312 381.078C587.953 388.46 574.793 383.93 575.229 393.913C595.241 393.786 603.559 393.913 603.559 393.913C603.532 391.62 603.137 386.178 602.675 384.049L593.312 381.078Z" fill="black"/>
<path d="M552.642 268.224C552.642 268.224 546.839 317.241 548.159 327.761C549.479 338.278 556.707 350.058 556.177 384.852C562.701 386.481 572.153 384.852 572.153 384.852C572.153 384.852 573.554 345.51 566.658 327.938C569.462 310.871 578.461 271.777 578.461 271.777L552.642 268.224Z" fill="#201D40"/>
<path d="M564.837 269.675C564.837 269.675 571.398 322.79 574.61 332.866C577.821 342.939 582.698 350.378 588.513 384.654C595.217 384.988 602.847 385.732 602.847 385.732C602.847 385.732 601.942 342.257 591.5 332.37C591.147 315.061 593.189 270.014 593.189 270.014L564.837 269.675Z" fill="#2C2858"/>
<path d="M596.437 207.57C596.437 207.57 583.315 207.131 579.624 207.361C571.92 214.302 565.373 207.236 565.373 207.236C561.231 206.317 551.449 206.317 551.449 206.317C550.21 222.817 548.158 275.583 548.158 275.583C548.158 275.583 560.721 278.873 572.606 278.957C584.491 278.88 600.514 276.134 600.514 276.134C600.514 276.134 598.18 252.938 597.652 244.366C597.824 234.756 596.437 220.235 596.437 207.57Z" fill="#3F964F"/>
<path d="M502.491 214.645C502.689 213.651 503.114 212.766 503.683 211.997C508.059 203.971 520.426 207.081 538.279 210.195C541.263 210.716 540.26 206.892 540.744 199.032C541.058 193.918 545.813 186.915 551.241 187.996C560.191 189.775 550.181 195.08 554.633 214.006C557.012 224.121 567.5 220.806 565.642 230.12L561.413 251.321C560.69 254.945 559.636 258.359 554.393 257.911C549.309 257.479 549.724 261.224 542.551 259.797L506.646 252.658C502.989 251.933 500.604 248.381 501.329 244.746C501.63 243.24 502.435 241.973 503.514 241.031C501.71 239.497 500.743 237.088 501.236 234.618C501.536 233.114 502.339 231.847 503.416 230.907C501.605 229.374 500.634 226.962 501.128 224.487C501.486 222.687 502.544 221.204 503.962 220.246C502.696 218.738 502.078 216.716 502.491 214.645Z" fill="#FFED48"/>
<path d="M524.927 225.961L507.806 222.558C505.478 222.094 503.54 220.422 502.748 218.194C502.422 217.275 502.906 216.267 503.832 215.942C504.755 215.619 505.769 216.106 506.096 217.025C506.47 218.085 507.394 218.877 508.498 219.095L526.03 222.583C527.767 222.929 529.459 221.805 529.804 220.078C530.148 218.351 529.016 216.665 527.279 216.32L515.564 213.99C514.603 213.799 513.978 212.868 514.168 211.913C514.359 210.96 515.294 210.339 516.255 210.53L527.971 212.859C531.628 213.587 534.013 217.134 533.288 220.77C532.884 222.797 531.581 224.403 529.887 225.324C530.872 226.764 531.302 228.577 530.936 230.413C530.53 232.447 529.22 234.058 527.519 234.975C528.496 236.41 528.921 238.217 528.555 240.048C528.113 242.264 526.611 243.997 524.681 244.857C525.491 246.229 525.841 247.876 525.507 249.553C524.782 253.188 521.217 255.554 517.559 254.826L506.647 252.656C504.319 252.194 502.379 250.522 501.586 248.295C501.258 247.376 501.743 246.368 502.666 246.043C503.59 245.724 504.606 246.204 504.932 247.121C505.31 248.181 506.233 248.975 507.338 249.196L518.25 251.366C519.987 251.71 521.68 250.588 522.025 248.861C522.369 247.135 521.236 245.449 519.499 245.103L506.553 242.53C504.225 242.066 502.283 240.394 501.492 238.164C501.165 237.245 501.65 236.237 502.572 235.914C503.505 235.584 504.514 236.074 504.838 236.993C505.221 238.071 506.121 238.844 507.244 239.067L521.298 241.863C523.035 242.209 524.728 241.083 525.073 239.356C525.417 237.63 524.285 235.944 522.547 235.598L506.447 232.397C504.119 231.935 502.179 230.263 501.386 228.036C501.058 227.117 501.543 226.109 502.466 225.784C503.393 225.463 504.406 225.943 504.732 226.862C505.115 227.938 506.016 228.714 507.138 228.937L523.677 232.224C525.415 232.57 527.108 231.446 527.452 229.719C527.796 227.993 526.666 226.307 524.927 225.961Z" fill="#FFB52E"/>
<path d="M559.026 260.498L570.205 262.721C571.754 263.028 573.259 262.024 573.568 260.48L580.184 227.31C580.492 225.765 579.487 224.262 577.939 223.955L566.759 221.732C565.211 221.425 563.705 222.428 563.397 223.973L556.781 257.14C556.472 258.687 557.478 260.191 559.026 260.498Z" fill="#56B4DF"/>
<path d="M549.341 264.486C551.717 264.299 554.356 263.144 556.161 264.641L559.596 259.356C554.699 253.523 544.997 252.674 544.02 252.727C541.484 252.859 540.284 252.763 540.135 253.125C539.987 253.486 539.687 255.8 543.384 255.725C548.024 255.632 545.508 259.699 535.763 257.534C533.323 256.99 529.119 258.73 530.935 260.2C532.936 261.817 538.526 265.339 549.341 264.486Z" fill="#F37A50"/>
<path d="M598.108 253.696C601.675 255.197 602.986 266.825 601.902 267.635C585.825 272.772 555.424 264.445 555.424 264.445L553.173 258.562C553.173 258.562 577.135 258.03 598.108 253.696Z" fill="#F37A50"/>
<path d="M606.006 219.748C607.655 230.27 604.578 264.862 601.902 267.635L589.986 258.259C589.986 258.259 588.775 223.224 588.789 217.271C588.788 206.965 603.347 202.565 606.006 219.748Z" fill="#F37A50"/>
<path d="M508.821 210.07C508.966 209.913 509.071 209.731 509.159 209.543C509.185 209.568 509.209 209.595 509.236 209.62C510.826 211.081 512.966 211.342 514.015 210.202C514.188 210.016 514.316 209.802 514.41 209.57C515.674 210.111 516.979 210.016 517.728 209.201C518.025 208.878 518.199 208.476 518.266 208.034C519.493 208.658 520.904 208.544 521.743 207.632C522.793 206.494 522.543 204.558 521.186 203.311C519.829 202.062 517.877 201.976 516.828 203.116C516.562 203.402 516.38 203.744 516.278 204.11C514.759 202.997 512.919 202.879 511.97 203.91C511.797 204.096 511.669 204.31 511.575 204.542C510.312 204.001 509.006 204.099 508.257 204.911C507.98 205.211 507.81 205.58 507.734 205.985C506.669 205.382 505.407 205.454 504.669 206.255C503.783 207.218 503.994 208.851 505.14 209.904C506.286 210.96 507.934 211.033 508.821 210.07Z" fill="#F37A50"/>
<path d="M598.108 253.696C601.675 255.197 602.986 266.825 601.902 267.635C585.825 272.772 557.105 264.934 557.105 264.934L559.168 256.749C559.168 256.749 577.135 258.03 598.108 253.696Z" fill="#0E6A41"/>
<path d="M606.273 219.521C608.024 230.275 606.628 265.207 601.903 267.635L589.891 258.48C589.891 258.48 588.481 222.749 588.469 216.681C588.422 206.176 603.447 201.958 606.273 219.521Z" fill="#0E6A41"/>
</svg>
