<svg width="34" height="30" viewBox="0 0 34 30" fill="none" xmlns="http://www.w3.org/2000/svg">
<g clip-path="url(#clip0)">
<path d="M16.9994 6.73786L4.10003 18.0295C4.0044 18.115 3.88221 18.1549 3.77714 18.2258V29.0621C3.77714 29.3107 3.87665 29.5492 4.05377 29.725C4.23088 29.9008 4.47111 29.9996 4.72159 29.9996H29.2771C29.5276 29.9996 29.7679 29.9008 29.945 29.725C30.1221 29.5492 30.2216 29.3107 30.2216 29.0621V18.2281C30.1212 18.1601 30.002 18.1215 29.9111 18.0406L16.9994 6.73786ZM22.666 22.0308C22.666 22.1551 22.6163 22.2744 22.5277 22.3623C22.4392 22.4502 22.3191 22.4996 22.1938 22.4996H18.8883V25.7808C18.8883 25.9052 18.8385 26.0244 18.7499 26.1123C18.6614 26.2002 18.5413 26.2496 18.416 26.2496H15.5827C15.4575 26.2496 15.3373 26.2002 15.2488 26.1123C15.1602 26.0244 15.1105 25.9052 15.1105 25.7808V22.4996H11.8049C11.6797 22.4996 11.5596 22.4502 11.471 22.3623C11.3825 22.2744 11.3327 22.1551 11.3327 22.0308V19.2183C11.3327 19.094 11.3825 18.9748 11.471 18.8869C11.5596 18.799 11.6797 18.7496 11.8049 18.7496H15.1105V15.4683C15.1105 15.344 15.1602 15.2248 15.2488 15.1369C15.3373 15.049 15.4575 14.9996 15.5827 14.9996H18.416C18.5413 14.9996 18.6614 15.049 18.7499 15.1369C18.8385 15.2248 18.8883 15.344 18.8883 15.4683V18.7496H22.1938C22.3191 18.7496 22.4392 18.799 22.5277 18.8869C22.6163 18.9748 22.666 19.094 22.666 19.2183V22.0308ZM33.6859 13.8441L18.5784 0.601919C18.1459 0.213854 17.5838 -0.00100708 17.0008 -0.00100708C16.4179 -0.00100708 15.8557 0.213854 15.4233 0.601919L0.312214 13.8441C0.219907 13.9264 0.144835 14.0259 0.0912863 14.137C0.037738 14.2481 0.00676278 14.3686 0.000130074 14.4915C-0.00650263 14.6145 0.0113372 14.7376 0.0526303 14.8537C0.0939235 14.9698 0.157861 15.0767 0.24079 15.1683L1.50457 16.564C1.58746 16.6557 1.68773 16.7302 1.79964 16.7833C1.91155 16.8365 2.03291 16.8672 2.15679 16.8738C2.28068 16.8804 2.40465 16.8627 2.52164 16.8217C2.63863 16.7807 2.74633 16.7173 2.8386 16.6349L16.3749 4.78258C16.5474 4.63148 16.7696 4.54811 16.9997 4.54811C17.2298 4.54811 17.4519 4.63148 17.6245 4.78258L31.1607 16.6343C31.253 16.7167 31.3607 16.7801 31.4777 16.8211C31.5947 16.8621 31.7187 16.8798 31.8425 16.8732C31.9664 16.8666 32.0878 16.8359 32.1997 16.7827C32.3116 16.7296 32.4119 16.6551 32.4948 16.5634L33.7579 15.1677C33.9252 14.9827 34.0115 14.7393 33.998 14.4911C33.9845 14.2429 33.8723 14.0102 33.6859 13.8441Z" fill="#49A0CE"/>
</g>
<defs>
<clipPath id="clip0">
<rect width="34" height="30" fill="white"/>
</clipPath>
</defs>
</svg>
